<svg id="Layer_1" data-name="Layer 1" xmlns="http://www.w3.org/2000/svg" xmlns:xlink="http://www.w3.org/1999/xlink" viewBox="0 0 95 101"><defs><style>.cls-1,.cls-11,.cls-13{fill:none;}.cls-1,.cls-10,.cls-11,.cls-12,.cls-2,.cls-3,.cls-4{stroke:#1d1d1b;}.cls-1,.cls-12{stroke-miterlimit:10;}.cls-2{fill:#b2b2b2;}.cls-10,.cls-11,.cls-2,.cls-3,.cls-4{stroke-linecap:round;stroke-linejoin:round;}.cls-3{fill:#ca9e67;}.cls-4,.cls-8{fill:#7b6a58;}.cls-5{clip-path:url(#clip-path);}.cls-6{fill:#b17f4a;}.cls-7{fill:#1d1d1b;}.cls-10,.cls-12,.cls-9{fill:#fff;}.cls-12{stroke-width:0.5px;}</style><clipPath id="clip-path"><path class="cls-1" d="M47.09,84.66a46.78,46.78,0,0,0,21.56-4.51c4.63-2.26,10-5.25,11.62-10.79A15.08,15.08,0,0,0,80,60.92c.17-1.47,4.12-15.83-10.58-28a32.57,32.57,0,0,0-22.2-7.56h-.08a32.55,32.55,0,0,0-22.2,7.56c-14.7,12.18-10.75,26.54-10.58,28A15,15,0,0,0,14,69.36c1.61,5.54,7,8.53,11.62,10.79a46.78,46.78,0,0,0,21.56,4.51Z"/></clipPath></defs><title>V2Artboard 3 copy 2</title><circle class="cls-2" cx="47.44" cy="46.88" r="46.31"/><path class="cls-3" d="M13.43,51.85C6.91,30.92,12.24,20.5,12.24,20.5s16.15.24,22,8.2"/><path class="cls-3" d="M80.38,51.85c6.53-20.93,1.2-31.35,1.2-31.35s-16.16.24-22,8.2"/><path class="cls-4" d="M17.84,44c-3.23-10.39-.59-15.56-.59-15.56s8,.11,10.9,4.06"/><path class="cls-4" d="M76,44c3.24-10.39.59-15.56.59-15.56s-8,.11-10.9,4.06"/><path class="cls-3" d="M47.09,84.66a46.78,46.78,0,0,0,21.56-4.51c4.63-2.26,10-5.25,11.62-10.79A15.08,15.08,0,0,0,80,60.92c.17-1.47,4.12-15.83-10.58-28a32.57,32.57,0,0,0-22.2-7.56h-.08a32.55,32.55,0,0,0-22.2,7.56c-14.7,12.18-10.75,26.54-10.58,28A15,15,0,0,0,14,69.36c1.61,5.54,7,8.53,11.62,10.79a46.78,46.78,0,0,0,21.56,4.51Z"/><g class="cls-5"><ellipse class="cls-6" cx="68.32" cy="54.89" rx="17.28" ry="17.82"/></g><path class="cls-1" d="M47.09,84.66a46.78,46.78,0,0,0,21.56-4.51c4.63-2.26,10-5.25,11.62-10.79A15.08,15.08,0,0,0,80,60.92c.17-1.47,4.12-15.83-10.58-28a32.57,32.57,0,0,0-22.2-7.56h-.08a32.55,32.55,0,0,0-22.2,7.56c-14.7,12.18-10.75,26.54-10.58,28A15,15,0,0,0,14,69.36c1.61,5.54,7,8.53,11.62,10.79a46.78,46.78,0,0,0,21.56,4.51Z"/><ellipse class="cls-7" cx="31" cy="58.63" rx="5.03" ry="5.19"/><ellipse class="cls-8" cx="26.93" cy="65.96" rx="3.16" ry="1.78"/><ellipse class="cls-7" cx="63.3" cy="58.63" rx="5.03" ry="5.19"/><ellipse class="cls-8" cx="67.37" cy="65.96" rx="3.16" ry="1.78"/><path class="cls-7" d="M50.67,71.43c0,1.16-3.58,2.78-3.58,2.78s-3.58-1.62-3.58-2.78,1.6-2.09,3.58-2.09S50.67,70.28,50.67,71.43Z"/><ellipse class="cls-9" cx="29.04" cy="56.55" rx="0.89" ry="0.92"/><line class="cls-10" x1="74.24" y1="64.39" x2="87.76" y2="63.26"/><line class="cls-10" x1="74.24" y1="68.13" x2="87.76" y2="69.26"/><line class="cls-11" x1="74.19" y1="66.26" x2="82.94" y2="66.26"/><ellipse class="cls-9" cx="61.21" cy="56.55" rx="0.89" ry="0.92"/><line class="cls-10" x1="20.64" y1="64.39" x2="7.12" y2="63.26"/><line class="cls-10" x1="20.64" y1="68.13" x2="7.12" y2="69.26"/><line class="cls-11" x1="20.68" y1="66.26" x2="11.94" y2="66.26"/><path class="cls-7" d="M14.37,69.24a14.71,14.71,0,0,0,6.29,7.33,58,58,0,0,0,9,4.51,29.87,29.87,0,0,0,9.6,2.45,8.79,8.79,0,0,0,4.62-.89,6.32,6.32,0,0,0,3-3.58.35.35,0,0,1,.45-.22.38.38,0,0,1,.22.21l.09.25a6.17,6.17,0,0,1,.26,3.48A7.45,7.45,0,0,1,46,86.27a10.51,10.51,0,0,1-3.29,2.39,15,15,0,0,1-3.58,1.18,20.42,20.42,0,0,1-6.64.13,20.42,20.42,0,0,1-3-.6,21.56,21.56,0,0,1-2.82-.9A24,24,0,0,1,24,87.31a22.11,22.11,0,0,1-2.44-1.39,27.45,27.45,0,0,1-2.37-1.7,24,24,0,0,1-2.27-2.15,16.14,16.14,0,0,1-3.49-5.75,9.36,9.36,0,0,1,.15-6.85l.13-.26a.34.34,0,0,1,.46-.17A.35.35,0,0,1,14.37,69.24Z"/><path class="cls-7" d="M80.75,69.47a9.31,9.31,0,0,1,.15,6.87,16.16,16.16,0,0,1-3.5,5.75,23.85,23.85,0,0,1-2.27,2.14c-.81.61-1.57,1.22-2.38,1.71a21.82,21.82,0,0,1-2.49,1.4,25.59,25.59,0,0,1-15.05,2.41,16.18,16.18,0,0,1-3.5-1.09,10.87,10.87,0,0,1-3.36-2.26,7.07,7.07,0,0,1-2-3.6,5.38,5.38,0,0,1,.46-3.54l.11-.24a.37.37,0,0,1,.48-.16.35.35,0,0,1,.19.24,5.14,5.14,0,0,0,2.76,3.6,9.51,9.51,0,0,0,4.67.75,31.9,31.9,0,0,0,9.66-2.38,54.46,54.46,0,0,0,9-4.49A14.65,14.65,0,0,0,80,69.24a.35.35,0,0,1,.45-.21.32.32,0,0,1,.2.18Z"/><path class="cls-12" d="M71.69,29.18a33.11,33.11,0,0,0-24.35-9.27h-.08a33.13,33.13,0,0,0-24.35,9.27c-7.07,6.55-9,17.06-9.58,23.17,4.09.9,19.54,1.83,34,1.83s29.33-1.41,33.56-2.33C79.63,45.83,78.77,35.73,71.69,29.18Z"/><path class="cls-11" d="M14.4,46.42a188.44,188.44,0,0,0,33.05,3.06c13.58,0,27.08-3.25,32.39-4.38"/><path class="cls-7" d="M47.91,73.81c1.49-.31,2.92-.44,4.12-.73a3.46,3.46,0,0,0,.75-.25c.07,0,.18-.1.18-.13l0,0,.05,0,.28-.15a1.73,1.73,0,0,1,1.49.05,1.34,1.34,0,0,1,.28.18,1.2,1.2,0,0,1,.16.15,2.82,2.82,0,0,1,.25.29,4.52,4.52,0,0,1,.26.44,6.35,6.35,0,0,1,.27.68,10.1,10.1,0,0,1,.29,1.18,17.12,17.12,0,0,1,.16,4.39,14.46,14.46,0,0,1-1,4.31A20,20,0,0,1,54.12,80c-.32-1.36-.54-2.74-.76-4,0-.31-.11-.62-.18-.88l-.08-.31c0-.06,0,0,0,0a.28.28,0,0,0,.08.09l.07,0a1,1,0,0,0,.17.12l.2.07a1,1,0,0,0,.3.05.71.71,0,0,0,.3,0l.19,0,.16-.1c.05,0,0,0-.06,0l-.21.12a3.77,3.77,0,0,1-.8.27,5.17,5.17,0,0,1-1.34.06A8.66,8.66,0,0,1,47.91,73.81Z"/><path class="cls-7" d="M46.33,73.81a8.7,8.7,0,0,1-4.26,1.62,5.15,5.15,0,0,1-1.34-.06,3.77,3.77,0,0,1-.8-.27L39.72,75s-.11-.06-.06,0a.62.62,0,0,0,.16.1l.18,0a.73.73,0,0,0,.3,0,1.06,1.06,0,0,0,.31-.05L40.8,75a.81.81,0,0,0,.18-.12l.07,0a.51.51,0,0,0,.08-.09s0,0,0,0l-.08.31c-.06.26-.12.57-.17.88-.22,1.28-.45,2.66-.76,4a20.57,20.57,0,0,1-1.37,4.15,14.46,14.46,0,0,1-1-4.31,16.68,16.68,0,0,1,.16-4.39c.08-.38.15-.76.28-1.18a6.6,6.6,0,0,1,.28-.68,4.26,4.26,0,0,1,.25-.44,2.82,2.82,0,0,1,.25-.29l.16-.15a1.75,1.75,0,0,1,.29-.18,1.71,1.71,0,0,1,1.48-.05,2.64,2.64,0,0,1,.29.15l0,0,0,0s.11.08.17.13a3.65,3.65,0,0,0,.75.25C43.4,73.37,44.84,73.5,46.33,73.81Z"/><rect class="cls-13" y="-0.15" width="95" height="101"/></svg>