<svg id="Layer_1" data-name="Layer 1" xmlns="http://www.w3.org/2000/svg" xmlns:xlink="http://www.w3.org/1999/xlink" viewBox="0 0 95 101"><defs><style>.cls-1,.cls-14,.cls-2{fill:none;}.cls-1,.cls-14,.cls-16,.cls-17,.cls-4,.cls-5,.cls-6{stroke:#1d1d1b;}.cls-1,.cls-12,.cls-14,.cls-17,.cls-4,.cls-5,.cls-6{stroke-linecap:round;stroke-linejoin:round;}.cls-3{opacity:0.39;}.cls-4{fill:#f6ae8b;}.cls-12,.cls-5{fill:#ca9e67;}.cls-6{fill:#7b6a58;}.cls-7{fill:#b18a5f;}.cls-8{fill:#1d1d1b;}.cls-9{fill:#e06ba3;}.cls-10,.cls-17{fill:#fff;}.cls-11{clip-path:url(#clip-path);}.cls-12{stroke:#7b6a58;stroke-width:7px;}.cls-13{fill:#ad549b;}.cls-14{stroke-width:0.75px;}.cls-15{clip-path:url(#clip-path-2);}.cls-16{fill:#a89e63;stroke-miterlimit:10;stroke-width:0.5px;}.cls-18{fill:#78874e;}</style><clipPath id="clip-path"><path class="cls-1" d="M48,84.16a46.82,46.82,0,0,0,21.57-4.51c4.63-2.26,10-5.25,11.61-10.8a15,15,0,0,0-.32-8.43c.17-1.48,4.13-15.84-10.58-28a32.5,32.5,0,0,0-22.2-7.56H48a32.51,32.51,0,0,0-22.2,7.56C11.08,44.58,15,58.94,15.2,60.42a15.05,15.05,0,0,0-.32,8.43c1.61,5.55,7,8.54,11.62,10.8a46.78,46.78,0,0,0,21.56,4.51Z"/></clipPath><clipPath id="clip-path-2"><circle class="cls-2" cx="47.41" cy="46.94" r="45.74"/></clipPath></defs><title>V2Artboard 5 copy 2</title><g class="cls-3"><circle class="cls-4" cx="47.45" cy="46.88" r="46.31"/><path class="cls-5" d="M14.49,51.85C8,30.92,13.3,20.5,13.3,20.5s16.15.24,22,8.2"/><path class="cls-5" d="M81.44,51.85C88,30.92,82.64,20.5,82.64,20.5s-16.16.24-22,8.2"/><path class="cls-6" d="M18.9,44c-3.24-10.39-.59-15.56-.59-15.56s8,.11,10.9,4.06"/><path class="cls-6" d="M77,44c3.24-10.39.59-15.56.59-15.56s-8,.11-10.9,4.06"/><path class="cls-5" d="M48,84.16a46.82,46.82,0,0,0,21.57-4.51c4.63-2.26,10-5.25,11.61-10.8a15,15,0,0,0-.32-8.43c.17-1.48,4.13-15.84-10.58-28a32.5,32.5,0,0,0-22.2-7.56H48a32.51,32.51,0,0,0-22.2,7.56C11.08,44.58,15,58.94,15.2,60.42a15.05,15.05,0,0,0-.32,8.43c1.61,5.55,7,8.54,11.62,10.8a46.78,46.78,0,0,0,21.56,4.51Z"/><path class="cls-7" d="M49,25.36l-.34,0-.17,0c-3.8,0-12.82-.49-22,7.15C11.74,44.68,15.6,58.88,15.76,60.35a15.09,15.09,0,0,0-.32,8.44,11.52,11.52,0,0,0,.69,1.78C59.39,68.75,50.47,30.67,49,25.36Z"/><ellipse class="cls-8" cx="31.89" cy="58.13" rx="5.03" ry="5.19"/><ellipse class="cls-9" cx="27.83" cy="65.46" rx="3.16" ry="1.78"/><ellipse class="cls-8" cx="64.2" cy="58.13" rx="5.03" ry="5.19"/><ellipse class="cls-9" cx="68.26" cy="65.46" rx="3.16" ry="1.78"/><ellipse class="cls-10" cx="29.94" cy="56.05" rx="0.89" ry="0.92"/><ellipse class="cls-10" cx="62.1" cy="56.05" rx="0.89" ry="0.92"/><g class="cls-11"><line class="cls-12" x1="48.06" y1="25.85" x2="48.06" y2="42.19"/><line class="cls-12" x1="39" y1="21.77" x2="39" y2="38.11"/><line class="cls-12" x1="57.04" y1="21.77" x2="57.04" y2="38.11"/></g><path class="cls-1" d="M48,84.16a46.82,46.82,0,0,0,21.57-4.51c4.63-2.26,10-5.25,11.61-10.8a15,15,0,0,0-.32-8.43c.17-1.48,4.13-15.84-10.58-28a32.5,32.5,0,0,0-22.2-7.56H48a32.51,32.51,0,0,0-22.2,7.56C11.08,44.58,15,58.94,15.2,60.42a15.05,15.05,0,0,0-.32,8.43c1.61,5.55,7,8.54,11.62,10.8a46.78,46.78,0,0,0,21.56,4.51Z"/><path class="cls-13" d="M62.67,81a19.91,19.91,0,0,1-4.35,2.88,44.09,44.09,0,0,1-4.76,2.14,14.69,14.69,0,0,1-5.38.75,20.41,20.41,0,0,1-5.33-.59l-.07,0h0a44.51,44.51,0,0,1-5-2.18,26.06,26.06,0,0,1-2.36-1.34A14,14,0,0,1,33.3,81a51.89,51.89,0,0,0,5,1.85c1.68.55,3.38,1.07,5.05,1.59l-.06,0a26.05,26.05,0,0,0,4.9.36A15.87,15.87,0,0,0,53,84.36c1.62-.51,3.25-1,4.88-1.54S61.09,81.75,62.67,81Z"/><path class="cls-14" d="M37.07,50.53s-9.35-.55-12.54.7"/><path class="cls-14" d="M57.92,50.66s9.33-.74,12.54.44"/><g class="cls-15"><path class="cls-16" d="M92.68,111c-.62-1.27-2.71-2.29-1.06-3.92s-2.5-1.87-2.31-3.49c.16-1.3-.82-2.86-2.06-4-2.49-2.21-3.28-4.9-5.66-7.12-1.87-1.73-1.59-4.06-3.68-5.78a15.28,15.28,0,0,1-3.34-4.35c-.87-1.46-1.77-3.27.41-5,1.72-1.32,3-2.91,4.63-4.27,1.24-1,1-2.22,2-3.22a23.22,23.22,0,0,0,7.28-14.25c.7-5.87.17-11.71-3.72-17.24-1.26-1.8-2.49-3.63-3.86-5.42a39.77,39.77,0,0,0-4.07-4.2c-1-.81-10-3.7-12.06-4.73-1.18-.58-10.22-2-11-2.22-1.27-.34-11.17-.1-12.47,0a87,87,0,0,0-11,2.22c-2.23.66-10.67,3.57-12,4.73-.3.25-3.2,3.25-4.08,4.2a24.56,24.56,0,0,0-3.86,5.42c-3.2,6-4.41,11.37-3.72,17.24.6,5.06,3.54,9.39,7,14.55a36,36,0,0,0,2.34,2.92A27.71,27.71,0,0,0,21,77.47c2.18,1.68,1.28,3.49.42,5a15.46,15.46,0,0,1-3.34,4.35c-2.1,1.72-1.82,4-3.68,5.78C12,94.77,11.2,97.46,8.72,99.67c-1.24,1.1-2.22,2.66-2.07,4,.2,1.62-3.91,1.91-2.31,3.49s-.43,2.65-1,3.92c-.42.85.3,1.21,1.55,1.29l.92-3.14c4.57,4.51,11.16,6.73,18.62,8a135.25,135.25,0,0,0,22.78,1.93h1.65a135.33,135.33,0,0,0,22.78-1.93c7.45-1.29,14-3.51,18.62-8l.92,3.14C92.38,112.25,93.09,111.89,92.68,111ZM65.91,78.64c-3.61,2-11.93,4.3-11.93,4.3a25.86,25.86,0,0,1-6,.48,33.39,33.39,0,0,1-6-.48s-8.31-2.25-11.93-4.3a34.9,34.9,0,0,1-8.29-6.77c-3.37-3.6-5.44-7.44-6-11.52-.3-2.22-1.17-4.54,1.93-6.74a42.92,42.92,0,0,1,18.83-7.18A113.15,113.15,0,0,1,48,45.52c.72,0,6.45.25,11.46.91a41.39,41.39,0,0,1,18.84,7.18c3.09,2.2,2.23,4.52,1.93,6.74-.56,4.08-2.64,7.92-6,11.52A35,35,0,0,1,65.91,78.64Z"/></g><line class="cls-17" x1="73.13" y1="63.89" x2="86.65" y2="62.76"/><line class="cls-17" x1="73.13" y1="67.63" x2="86.65" y2="68.75"/><line class="cls-1" x1="73.69" y1="65.76" x2="82.44" y2="65.76"/><line class="cls-17" x1="23.53" y1="63.89" x2="10.01" y2="62.76"/><line class="cls-17" x1="23.53" y1="67.63" x2="10.01" y2="68.75"/><line class="cls-1" x1="22.84" y1="65.76" x2="14.09" y2="65.76"/><path class="cls-18" d="M17.2,46.3a36.87,36.87,0,0,1,14.32-7.11,52.59,52.59,0,0,1,8-1.43c2.68-.27,5.29-.45,8-.55,2.74.1,5.35.3,8,.57a54.51,54.51,0,0,1,8,1.36A36.37,36.37,0,0,1,77.79,46.3a46.08,46.08,0,0,0-14.64-5.64,66.86,66.86,0,0,0-7.79-1c-2.61-.21-5.3-.4-7.86-.46s-5.25.23-7.85.43a62.84,62.84,0,0,0-7.77,1.06A47,47,0,0,0,17.2,46.3Z"/><path class="cls-8" d="M51.06,66.64c0,1.16-3.58,2.78-3.58,2.78s-3.59-1.62-3.59-2.78,1.61-2.09,3.59-2.09S51.06,65.49,51.06,66.64Z"/><path class="cls-1" d="M47.48,69.42a7.55,7.55,0,0,1-5.36,2"/><path class="cls-1" d="M47.52,69.42a7.51,7.51,0,0,0,5.35,2"/></g><rect class="cls-2" x="0.04" y="-0.15" width="95" height="101"/></svg>