<svg id="Layer_1" data-name="Layer 1" xmlns="http://www.w3.org/2000/svg" xmlns:xlink="http://www.w3.org/1999/xlink" viewBox="0 0 176 101.96"><defs><style>.cls-1,.cls-15,.cls-2,.cls-3{fill:none;}.cls-1,.cls-15,.cls-17,.cls-18,.cls-23,.cls-3,.cls-4,.cls-5,.cls-6,.cls-7{stroke:#1d1d1b;}.cls-1,.cls-13,.cls-15,.cls-18,.cls-4,.cls-5,.cls-6,.cls-7{stroke-linecap:round;stroke-linejoin:round;}.cls-17,.cls-23,.cls-3{stroke-miterlimit:10;}.cls-4{fill:#b2b2b2;}.cls-5{fill:#f6ae8b;}.cls-13,.cls-6{fill:#ca9e67;}.cls-22,.cls-7{fill:#7b6a58;}.cls-8{fill:#b18a5f;}.cls-9{fill:#1d1d1b;}.cls-10{fill:#e06ba3;}.cls-11,.cls-18,.cls-23{fill:#fff;}.cls-12{clip-path:url(#clip-path);}.cls-13{stroke:#7b6a58;stroke-width:7px;}.cls-14{fill:#ad549b;}.cls-15{stroke-width:0.75px;}.cls-16{clip-path:url(#clip-path-2);}.cls-17{fill:#a89e63;}.cls-17,.cls-23{stroke-width:0.5px;}.cls-19{fill:#78874e;}.cls-20{clip-path:url(#clip-path-3);}.cls-21{fill:#b17f4a;}</style><clipPath id="clip-path"><path class="cls-1" d="M129,87.94a46.82,46.82,0,0,0,21.57-4.51c4.63-2.26,10-5.25,11.61-10.8a15.07,15.07,0,0,0-.31-8.43c.16-1.48,4.12-15.84-10.59-28a32.5,32.5,0,0,0-22.2-7.56H129a32.51,32.51,0,0,0-22.2,7.56c-14.7,12.17-10.74,26.53-10.58,28a15.05,15.05,0,0,0-.32,8.43c1.61,5.55,7,8.54,11.62,10.8a46.78,46.78,0,0,0,21.56,4.51Z"/></clipPath><clipPath id="clip-path-2"><circle class="cls-2" cx="128.45" cy="50.72" r="45.74"/></clipPath><clipPath id="clip-path-3"><path class="cls-3" d="M47.05,89.08a46.82,46.82,0,0,0,21.57-4.51c4.63-2.26,10-5.25,11.61-10.8a15.07,15.07,0,0,0-.31-8.43c.16-1.48,4.12-15.83-10.59-28a32.55,32.55,0,0,0-22.2-7.56h-.08a32.57,32.57,0,0,0-22.2,7.56c-14.7,12.18-10.74,26.53-10.58,28A15.05,15.05,0,0,0,14,73.77c1.61,5.55,7,8.54,11.62,10.8a46.78,46.78,0,0,0,21.56,4.51Z"/></clipPath></defs><title>V2Artboard 31 copy</title><circle class="cls-4" cx="47.4" cy="51.3" r="46.31"/><circle class="cls-5" cx="128.49" cy="50.66" r="46.31"/><path class="cls-6" d="M95.53,55.63C89,34.7,94.34,24.28,94.34,24.28s16.15.24,22,8.2"/><path class="cls-6" d="M162.48,55.63c6.53-20.93,1.2-31.35,1.2-31.35s-16.16.24-22,8.2"/><path class="cls-7" d="M99.94,47.74c-3.23-10.39-.59-15.56-.59-15.56s8,.11,10.9,4.06"/><path class="cls-7" d="M158.07,47.74c3.24-10.39.59-15.56.59-15.56s-8,.11-10.9,4.06"/><path class="cls-6" d="M129,87.94a46.82,46.82,0,0,0,21.57-4.51c4.63-2.26,10-5.25,11.61-10.8a15.07,15.07,0,0,0-.31-8.43c.16-1.48,4.12-15.84-10.59-28a32.5,32.5,0,0,0-22.2-7.56H129a32.51,32.51,0,0,0-22.2,7.56c-14.7,12.17-10.74,26.53-10.58,28a15.05,15.05,0,0,0-.32,8.43c1.61,5.55,7,8.54,11.62,10.8a46.78,46.78,0,0,0,21.56,4.51Z"/><path class="cls-8" d="M130,29.14l-.34,0-.17,0c-3.8,0-12.82-.49-22,7.15C92.78,48.46,96.64,62.66,96.8,64.13a15.09,15.09,0,0,0-.32,8.44,11.52,11.52,0,0,0,.69,1.78C140.43,72.53,131.51,34.45,130,29.14Z"/><ellipse class="cls-9" cx="112.93" cy="61.91" rx="5.03" ry="5.19"/><ellipse class="cls-10" cx="108.87" cy="69.24" rx="3.16" ry="1.78"/><ellipse class="cls-9" cx="145.24" cy="61.91" rx="5.03" ry="5.19"/><ellipse class="cls-10" cx="149.3" cy="69.24" rx="3.16" ry="1.78"/><ellipse class="cls-11" cx="110.98" cy="59.83" rx="0.89" ry="0.92"/><ellipse class="cls-11" cx="143.14" cy="59.83" rx="0.89" ry="0.92"/><g class="cls-12"><line class="cls-13" x1="129.1" y1="29.63" x2="129.1" y2="45.97"/><line class="cls-13" x1="120.04" y1="25.55" x2="120.04" y2="41.89"/><line class="cls-13" x1="138.08" y1="25.55" x2="138.08" y2="41.89"/></g><path class="cls-1" d="M129,87.94a46.82,46.82,0,0,0,21.57-4.51c4.63-2.26,10-5.25,11.61-10.8a15.07,15.07,0,0,0-.31-8.43c.16-1.48,4.12-15.84-10.59-28a32.5,32.5,0,0,0-22.2-7.56H129a32.51,32.51,0,0,0-22.2,7.56c-14.7,12.17-10.74,26.53-10.58,28a15.05,15.05,0,0,0-.32,8.43c1.61,5.55,7,8.54,11.62,10.8a46.78,46.78,0,0,0,21.56,4.51Z"/><path class="cls-14" d="M143.71,84.81a19.91,19.91,0,0,1-4.35,2.88,44.09,44.09,0,0,1-4.76,2.14,14.69,14.69,0,0,1-5.38.75,20.46,20.46,0,0,1-5.33-.59l-.07,0h0a44.51,44.51,0,0,1-4.95-2.18,26.06,26.06,0,0,1-2.36-1.34,14.54,14.54,0,0,1-2.17-1.64,51.89,51.89,0,0,0,5,1.85c1.68.55,3.38,1.07,5,1.59l-.06,0a26.05,26.05,0,0,0,4.9.36,15.84,15.84,0,0,0,4.79-.45c1.62-.51,3.26-1,4.88-1.54S142.13,85.53,143.71,84.81Z"/><path class="cls-15" d="M118.11,54.31s-9.35-.55-12.54.7"/><path class="cls-15" d="M139,54.44s9.33-.74,12.54.44"/><g class="cls-16"><path class="cls-17" d="M173.72,114.82c-.62-1.27-2.71-2.29-1.06-3.92s-2.5-1.87-2.3-3.49c.15-1.3-.83-2.86-2.07-4-2.49-2.21-3.28-4.9-5.66-7.12-1.87-1.73-1.58-4.06-3.68-5.78a15.28,15.28,0,0,1-3.34-4.35c-.86-1.46-1.77-3.27.41-5,1.72-1.32,3-2.91,4.63-4.27,1.24-1,1-2.22,2-3.22A23.22,23.22,0,0,0,170,59.51c.7-5.87.17-11.71-3.71-17.24-1.27-1.8-2.5-3.63-3.87-5.42a39.77,39.77,0,0,0-4.07-4.2c-1-.81-10-3.7-12.06-4.73-1.18-.58-10.22-2-11-2.22-1.27-.34-11.17-.1-12.47,0a86.52,86.52,0,0,0-11,2.22c-2.24.66-10.68,3.57-12.06,4.73-.3.25-3.2,3.25-4.08,4.2a24.56,24.56,0,0,0-3.86,5.42c-3.19,6-4.41,11.37-3.71,17.24.6,5.06,3.53,9.39,7,14.55A36,36,0,0,0,97.39,77,27.71,27.71,0,0,0,102,81.25c2.19,1.68,1.28,3.49.42,5a15.28,15.28,0,0,1-3.34,4.35c-2.1,1.72-1.82,4-3.68,5.78-2.38,2.22-3.18,4.91-5.66,7.12-1.24,1.1-2.22,2.66-2.07,4,.2,1.62-3.91,1.91-2.31,3.49s-.43,2.65-1,3.92c-.42.85.3,1.21,1.55,1.29L86.8,113c4.57,4.51,11.17,6.73,18.62,8a135.25,135.25,0,0,0,22.78,1.93h1.65A135.25,135.25,0,0,0,152.63,121c7.45-1.29,14-3.51,18.62-8l.92,3.14C173.42,116,174.13,115.67,173.72,114.82ZM147,82.42c-3.61,2-11.92,4.3-11.92,4.3a26,26,0,0,1-6,.48,33.39,33.39,0,0,1-6-.48s-8.31-2.25-11.93-4.3a34.9,34.9,0,0,1-8.29-6.77c-3.37-3.6-5.44-7.44-6-11.52-.3-2.22-1.17-4.54,1.93-6.74a42.92,42.92,0,0,1,18.83-7.18A113.15,113.15,0,0,1,129,49.3c.72,0,6.45.25,11.46.91a41.39,41.39,0,0,1,18.84,7.18c3.09,2.2,2.23,4.52,1.93,6.74-.56,4.08-2.64,7.92-6,11.52A35,35,0,0,1,147,82.42Z"/></g><line class="cls-18" x1="154.17" y1="67.67" x2="167.69" y2="66.54"/><line class="cls-18" x1="154.17" y1="71.41" x2="167.69" y2="72.53"/><line class="cls-1" x1="154.74" y1="69.54" x2="163.48" y2="69.54"/><line class="cls-18" x1="104.57" y1="67.67" x2="91.05" y2="66.54"/><line class="cls-18" x1="104.57" y1="71.41" x2="91.05" y2="72.53"/><line class="cls-1" x1="103.88" y1="69.54" x2="95.13" y2="69.54"/><path class="cls-19" d="M98.24,50.08A36.87,36.87,0,0,1,112.56,43a52.59,52.59,0,0,1,8-1.43c2.68-.27,5.29-.45,8-.55,2.74.1,5.35.3,8,.57a54.51,54.51,0,0,1,8,1.36,36.48,36.48,0,0,1,14.3,7.16,46.23,46.23,0,0,0-14.65-5.64,66.86,66.86,0,0,0-7.79-1c-2.61-.21-5.3-.4-7.85-.46s-5.26.23-7.86.43a63.1,63.1,0,0,0-7.77,1.06A47,47,0,0,0,98.24,50.08Z"/><path class="cls-9" d="M132.33,70.42c0,1.16-3.58,2.78-3.58,2.78s-3.58-1.62-3.58-2.78,1.6-2.09,3.58-2.09S132.33,69.27,132.33,70.42Z"/><path class="cls-1" d="M128.75,73.2a7.54,7.54,0,0,1-5.35,2"/><path class="cls-1" d="M128.79,73.2a7.54,7.54,0,0,0,5.35,2"/><path class="cls-6" d="M13.4,56.27c-6.53-20.93-1.2-31.35-1.2-31.35s16.15.24,22,8.19"/><path class="cls-6" d="M80.35,56.27c6.52-20.93,1.19-31.35,1.19-31.35s-16.15.24-22,8.19"/><path class="cls-7" d="M17.81,48.37c-3.24-10.38-.59-15.56-.59-15.56s8,.12,10.9,4.07"/><path class="cls-7" d="M75.93,48.37c3.24-10.38.6-15.56.6-15.56s-8,.12-10.9,4.07"/><path class="cls-6" d="M47.05,89.08a46.82,46.82,0,0,0,21.57-4.51c4.63-2.26,10-5.25,11.61-10.8a15.07,15.07,0,0,0-.31-8.43c.16-1.48,4.12-15.83-10.59-28a32.55,32.55,0,0,0-22.2-7.56h-.08a32.57,32.57,0,0,0-22.2,7.56c-14.7,12.18-10.74,26.53-10.58,28A15.05,15.05,0,0,0,14,73.77c1.61,5.55,7,8.54,11.62,10.8a46.78,46.78,0,0,0,21.56,4.51Z"/><g class="cls-20"><ellipse class="cls-21" cx="68.28" cy="59.31" rx="17.28" ry="17.82"/></g><path class="cls-3" d="M47.05,89.08a46.82,46.82,0,0,0,21.57-4.51c4.63-2.26,10-5.25,11.61-10.8a15.07,15.07,0,0,0-.31-8.43c.16-1.48,4.12-15.83-10.59-28a32.55,32.55,0,0,0-22.2-7.56h-.08a32.57,32.57,0,0,0-22.2,7.56c-14.7,12.18-10.74,26.53-10.58,28A15.05,15.05,0,0,0,14,73.77c1.61,5.55,7,8.54,11.62,10.8a46.78,46.78,0,0,0,21.56,4.51Z"/><ellipse class="cls-9" cx="30.96" cy="63.05" rx="5.03" ry="5.19"/><ellipse class="cls-22" cx="26.9" cy="70.38" rx="3.16" ry="1.78"/><ellipse class="cls-9" cx="63.27" cy="63.05" rx="5.03" ry="5.19"/><ellipse class="cls-22" cx="67.33" cy="70.38" rx="3.16" ry="1.78"/><path class="cls-9" d="M50.64,75.85c0,1.16-3.59,2.78-3.59,2.78S43.47,77,43.47,75.85s1.6-2.09,3.58-2.09S50.64,74.7,50.64,75.85Z"/><ellipse class="cls-11" cx="29.01" cy="60.97" rx="0.89" ry="0.92"/><line class="cls-18" x1="74.2" y1="68.81" x2="87.72" y2="67.68"/><line class="cls-18" x1="74.2" y1="72.55" x2="87.72" y2="73.68"/><line class="cls-1" x1="74.16" y1="70.68" x2="82.9" y2="70.68"/><ellipse class="cls-11" cx="61.17" cy="60.97" rx="0.89" ry="0.92"/><line class="cls-18" x1="20.6" y1="68.81" x2="7.08" y2="67.68"/><line class="cls-18" x1="20.6" y1="72.55" x2="7.08" y2="73.68"/><line class="cls-1" x1="20.64" y1="70.68" x2="11.9" y2="70.68"/><path class="cls-9" d="M14.34,73.66A14.7,14.7,0,0,0,20.63,81a58,58,0,0,0,9,4.51A29.74,29.74,0,0,0,39.21,88a8.83,8.83,0,0,0,4.62-.89,6.34,6.34,0,0,0,2.94-3.58.36.36,0,0,1,.46-.22.39.39,0,0,1,.21.21l.09.25a6.09,6.09,0,0,1,.26,3.48A7.45,7.45,0,0,1,46,90.69a10.4,10.4,0,0,1-3.29,2.39,15.31,15.31,0,0,1-3.58,1.18,20.7,20.7,0,0,1-6.64.13,20.42,20.42,0,0,1-3-.6,21.42,21.42,0,0,1-2.81-.9A23.18,23.18,0,0,1,24,91.73a22.26,22.26,0,0,1-2.45-1.39,25.6,25.6,0,0,1-2.37-1.71,21.53,21.53,0,0,1-2.26-2.14,16,16,0,0,1-3.5-5.75,9.31,9.31,0,0,1,.16-6.85l.12-.26a.35.35,0,0,1,.47-.17A.39.39,0,0,1,14.34,73.66Z"/><path class="cls-9" d="M80.72,73.89a9.34,9.34,0,0,1,.15,6.86,16.14,16.14,0,0,1-3.51,5.76,23.85,23.85,0,0,1-2.27,2.14,27.61,27.61,0,0,1-2.37,1.71,27.2,27.2,0,0,1-5.19,2.55,23.64,23.64,0,0,1-12.36,1.26,16.36,16.36,0,0,1-3.5-1.09,11,11,0,0,1-3.36-2.26,7.15,7.15,0,0,1-2-3.6,5.38,5.38,0,0,1,.46-3.54l.12-.24a.35.35,0,0,1,.66.08,5.14,5.14,0,0,0,2.76,3.6,9.53,9.53,0,0,0,4.68.75,32,32,0,0,0,9.66-2.38,54.36,54.36,0,0,0,9-4.49A14.72,14.72,0,0,0,80,73.66a.35.35,0,0,1,.64,0Z"/><path class="cls-23" d="M71.65,33.6a33.09,33.09,0,0,0-24.34-9.27h-.09A33.09,33.09,0,0,0,22.88,33.6c-7.08,6.55-9,17.06-9.59,23.17,4.09.9,19.55,1.83,34,1.83s29.33-1.41,33.56-2.33C79.59,50.25,78.73,40.15,71.65,33.6Z"/><path class="cls-1" d="M14.36,50.83A187.21,187.21,0,0,0,47.41,53.9c13.58,0,27.08-3.25,32.4-4.39"/><path class="cls-9" d="M47.87,78.22c1.49-.3,2.93-.43,4.13-.72a4.38,4.38,0,0,0,.75-.25c.06,0,.17-.1.17-.13l0,0,.05,0a2.64,2.64,0,0,1,.29-.15,1.68,1.68,0,0,1,1.48,0,1.75,1.75,0,0,1,.29.18l.16.15a2.05,2.05,0,0,1,.25.29,3,3,0,0,1,.25.44,6.6,6.6,0,0,1,.28.68c.13.42.21.8.29,1.18a17.58,17.58,0,0,1,.16,4.39,14.79,14.79,0,0,1-1,4.31,20.78,20.78,0,0,1-1.37-4.15c-.31-1.36-.54-2.74-.76-4,0-.31-.11-.62-.17-.88l-.08-.31c0-.06,0,0,0,0a.51.51,0,0,0,.08.09l.07,0,.18.12.19.07a1.06,1.06,0,0,0,.31,0,1,1,0,0,0,.3,0l.18,0,.16-.1c.05,0,0,0-.06,0l-.21.11a3.34,3.34,0,0,1-.8.28,5.63,5.63,0,0,1-1.34.06A8.61,8.61,0,0,1,47.87,78.22Z"/><path class="cls-9" d="M46.3,78.22A8.65,8.65,0,0,1,42,79.85a5.65,5.65,0,0,1-1.34-.06,3.34,3.34,0,0,1-.8-.28l-.21-.11s-.11-.06-.06,0l.16.1.19,0a.91.91,0,0,0,.3,0,1,1,0,0,0,.3,0l.2-.07.17-.12.07,0s.08-.09.09-.09,0,0,0,0l-.08.31c-.07.26-.13.57-.18.88-.22,1.28-.44,2.66-.76,4a20.16,20.16,0,0,1-1.37,4.15,14.46,14.46,0,0,1-1-4.31,17.12,17.12,0,0,1,.16-4.39c.08-.38.16-.76.29-1.18a4.93,4.93,0,0,1,.28-.68,3,3,0,0,1,.25-.44,2.05,2.05,0,0,1,.25-.29,1.2,1.2,0,0,1,.16-.15A1.67,1.67,0,0,1,39.4,77a1.7,1.7,0,0,1,1.49,0,2.49,2.49,0,0,1,.28.15l0,0,0,0s.11.08.18.13a4.1,4.1,0,0,0,.75.25C43.37,77.79,44.8,77.92,46.3,78.22Z"/><rect class="cls-2" x="-0.51" y="-0.17" width="176.34" height="101.79"/></svg>