<svg id="Layer_1" data-name="Layer 1" xmlns="http://www.w3.org/2000/svg" xmlns:xlink="http://www.w3.org/1999/xlink" viewBox="0 0 95 101"><defs><style>.cls-1,.cls-2,.cls-29,.cls-3{fill:none;}.cls-1,.cls-2,.cls-20,.cls-21,.cls-29,.cls-31,.cls-32{stroke:#1d1d1b;}.cls-1,.cls-31{stroke-miterlimit:10;}.cls-2,.cls-20,.cls-21,.cls-27,.cls-29,.cls-32{stroke-linecap:round;stroke-linejoin:round;}.cls-4{clip-path:url(#clip-path);}.cls-5{fill:#e31014;}.cls-6{fill:#3258a4;}.cls-7{fill:#fcea1b;}.cls-8{fill:#702381;}.cls-9{fill:#f28a1a;}.cls-10{fill:#0a8137;}.cls-11{fill:#ef7c26;}.cls-12{fill:#dadc30;}.cls-13{fill:#217b34;}.cls-14{fill:#3b4194;}.cls-15{fill:#5a2985;}.cls-16{fill:#e63913;}.cls-17{fill:#f19507;}.cls-18{fill:#016794;}.cls-19{fill:#00774b;}.cls-20,.cls-27{fill:#ca9e67;}.cls-21{fill:#7b6a58;}.cls-22{fill:#b18a5f;}.cls-23{fill:#1d1d1b;}.cls-24{fill:#e06ba3;}.cls-25,.cls-32{fill:#fff;}.cls-26{clip-path:url(#clip-path-2);}.cls-27{stroke:#7b6a58;stroke-width:7px;}.cls-28{fill:#ad549b;}.cls-29{stroke-width:0.75px;}.cls-30{clip-path:url(#clip-path-3);}.cls-31{fill:#a89e63;stroke-width:0.5px;}.cls-33{fill:#78874e;}</style><clipPath id="clip-path"><circle class="cls-1" cx="47.67" cy="46.88" r="46.31"/></clipPath><clipPath id="clip-path-2"><path class="cls-2" d="M48.25,84.16a46.78,46.78,0,0,0,21.56-4.51c4.63-2.26,10-5.25,11.62-10.8a15.05,15.05,0,0,0-.32-8.43c.17-1.48,4.12-15.84-10.58-28a32.5,32.5,0,0,0-22.2-7.56h-.08a32.5,32.5,0,0,0-22.2,7.56c-14.7,12.17-10.75,26.53-10.58,28a15.05,15.05,0,0,0-.32,8.43c1.61,5.55,7,8.54,11.62,10.8a46.78,46.78,0,0,0,21.56,4.51Z"/></clipPath><clipPath id="clip-path-3"><circle class="cls-3" cx="47.67" cy="46.94" r="45.74"/></clipPath></defs><title>V1Artboard 2 copy 2</title><g class="cls-4"><path class="cls-5" d="M93.75,78.29c0,4.81,0,9.61,0,14.41,0,.74-.17.9-.9.9q-45.59,0-91.15,0c-.74,0-.91-.16-.91-.9,0-4.8,0-9.6,0-14.41l.3-.23c.74,0,1.47,0,2.21,0H91.25c.73,0,1.47,0,2.2,0Z"/><path class="cls-6" d="M.83,31.54V16.25H93.75V31.83H85.23a1.44,1.44,0,0,0-1.79-.06c-.64,0-1.27,0-1.91,0H3.05c-.63,0-1.27,0-1.91,0Z"/><path class="cls-7" d="M.83,62.71V47.42H93.75V62.71l-.3,0-1.17,0H3.19L2,62.69h-.3Z"/><path class="cls-8" d="M.83,15.66c0-4.7,0-9.4,0-14.09,0-.7.1-.93.88-.92q45.59,0,91.19,0c.78,0,.88.22.88.92,0,4.69,0,9.39,0,14.09Z"/><path class="cls-9" d="M.83,62.71l.88,0c.1.14.2.15.3,0l1.18,0H92.28l1.17,0,.3.31V77.7H.83Z"/><path class="cls-10" d="M1.14,31.76c.64,0,1.28,0,1.91,0H81.53c.64,0,1.27,0,1.91,0a1.3,1.3,0,0,0,1.79.06h8.52v15H.83v-15Z"/><path class="cls-11" d="M.83,77.7H93.75V78l-.3.06c-.73,0-1.47,0-2.2,0H3.34c-.74,0-1.47,0-2.21,0L.83,78Z"/><ellipse class="cls-12" cx="47.29" cy="47.27" rx="65.7" ry="0.21"/><ellipse class="cls-13" cx="47.29" cy="46.98" rx="65.7" ry="0.21"/><ellipse class="cls-14" cx="47.29" cy="16.1" rx="65.7" ry="0.21"/><ellipse class="cls-15" cx="47.29" cy="15.81" rx="65.7" ry="0.21"/><path class="cls-16" d="M93.45,78.06l.3-.06v.29Z"/><path class="cls-16" d="M.83,78l.3.06-.3.23Z"/><path class="cls-17" d="M93.75,63l-.3-.31.3,0Z"/><path class="cls-18" d="M1.14,31.76l-.31.07v-.29Z"/><path class="cls-19" d="M85.23,31.83a1.3,1.3,0,0,1-1.79-.06A1.44,1.44,0,0,1,85.23,31.83Z"/><path class="cls-17" d="M2,62.69c-.1.14-.2.13-.3,0Z"/></g><circle class="cls-1" cx="47.67" cy="46.88" r="46.31"/><path class="cls-20" d="M14.76,51.85c-6.53-20.93-1.2-31.35-1.2-31.35s16.16.24,22,8.2"/><path class="cls-20" d="M81.71,51.85C88.23,30.92,82.9,20.5,82.9,20.5s-16.15.24-22,8.2"/><path class="cls-21" d="M19.17,44c-3.24-10.39-.59-15.56-.59-15.56s8,.11,10.9,4.06"/><path class="cls-21" d="M77.3,44c3.23-10.39.59-15.56.59-15.56s-8,.11-10.9,4.06"/><path class="cls-20" d="M48.25,84.16a46.78,46.78,0,0,0,21.56-4.51c4.63-2.26,10-5.25,11.62-10.8a15.05,15.05,0,0,0-.32-8.43c.17-1.48,4.12-15.84-10.58-28a32.5,32.5,0,0,0-22.2-7.56h-.08a32.5,32.5,0,0,0-22.2,7.56c-14.7,12.17-10.75,26.53-10.58,28a15.05,15.05,0,0,0-.32,8.43c1.61,5.55,7,8.54,11.62,10.8a46.78,46.78,0,0,0,21.56,4.51Z"/><path class="cls-22" d="M49.27,25.36l-.34,0-.17,0c-3.8,0-12.82-.49-22,7.15C12,44.68,15.86,58.88,16,60.35a15.09,15.09,0,0,0-.32,8.44,11.52,11.52,0,0,0,.69,1.78C59.65,68.75,50.74,30.67,49.27,25.36Z"/><ellipse class="cls-23" cx="32.16" cy="58.13" rx="5.03" ry="5.19"/><ellipse class="cls-24" cx="28.09" cy="65.46" rx="3.16" ry="1.78"/><ellipse class="cls-23" cx="64.46" cy="58.13" rx="5.03" ry="5.19"/><ellipse class="cls-24" cx="68.53" cy="65.46" rx="3.16" ry="1.78"/><path class="cls-23" d="M51.83,68c0,1.15-3.58,2.78-3.58,2.78S44.67,69.1,44.67,68s1.6-2.09,3.58-2.09S51.83,66.8,51.83,68Z"/><ellipse class="cls-25" cx="30.2" cy="56.05" rx="0.89" ry="0.92"/><ellipse class="cls-25" cx="62.37" cy="56.05" rx="0.89" ry="0.92"/><path class="cls-2" d="M48.25,70.34s-1,4.13-4.85,4.64"/><path class="cls-2" d="M48.25,70.34s1,4.13,4.85,4.64"/><g class="cls-26"><line class="cls-27" x1="48.33" y1="25.85" x2="48.33" y2="42.19"/><line class="cls-27" x1="39.27" y1="21.77" x2="39.27" y2="38.11"/><line class="cls-27" x1="57.31" y1="21.77" x2="57.31" y2="38.11"/></g><path class="cls-2" d="M48.25,84.16a46.78,46.78,0,0,0,21.56-4.51c4.63-2.26,10-5.25,11.62-10.8a15.05,15.05,0,0,0-.32-8.43c.17-1.48,4.12-15.84-10.58-28a32.5,32.5,0,0,0-22.2-7.56h-.08a32.5,32.5,0,0,0-22.2,7.56c-14.7,12.17-10.75,26.53-10.58,28a15.05,15.05,0,0,0-.32,8.43c1.61,5.55,7,8.54,11.62,10.8a46.78,46.78,0,0,0,21.56,4.51Z"/><path class="cls-28" d="M62.93,81a19.44,19.44,0,0,1-4.35,2.88,43.94,43.94,0,0,1-4.75,2.14,14.71,14.71,0,0,1-5.39.75,20.38,20.38,0,0,1-5.32-.59l-.07,0h0a44.66,44.66,0,0,1-5-2.18c-.8-.41-1.59-.85-2.36-1.34A15.07,15.07,0,0,1,33.56,81a52.89,52.89,0,0,0,5,1.85c1.68.55,3.39,1.07,5.06,1.59l-.07,0a26.16,26.16,0,0,0,4.91.36,15.87,15.87,0,0,0,4.79-.45c1.62-.51,3.25-1,4.87-1.54A49.7,49.7,0,0,0,62.93,81Z"/><path class="cls-29" d="M37.33,50.53S28,50,24.8,51.23"/><path class="cls-29" d="M58.19,50.66s9.33-.74,12.54.44"/><g class="cls-30"><path class="cls-31" d="M92.94,111c-.62-1.27-2.7-2.29-1-3.92s-2.5-1.87-2.31-3.49c.16-1.3-.83-2.86-2.07-4-2.48-2.21-3.27-4.9-5.66-7.12-1.86-1.73-1.58-4.06-3.67-5.78a15.5,15.5,0,0,1-3.35-4.35c-.86-1.46-1.76-3.27.42-5,1.72-1.32,3-2.91,4.63-4.27,1.23-1,1-2.22,2.05-3.22a23.27,23.27,0,0,0,7.28-14.25c.69-5.87.16-11.71-3.72-17.24-1.27-1.8-2.49-3.63-3.86-5.42a40.85,40.85,0,0,0-4.08-4.2c-1-.81-10-3.7-12-4.73-1.18-.58-10.23-2-11-2.22-1.27-.34-11.17-.1-12.48,0a86.52,86.52,0,0,0-11,2.22c-2.23.66-10.67,3.57-12,4.73-.3.25-3.21,3.25-4.08,4.2A24.56,24.56,0,0,0,11,38.49c-3.2,6-4.41,11.37-3.72,17.24.6,5.06,3.53,9.39,7,14.55a33.9,33.9,0,0,0,2.34,2.92,27.33,27.33,0,0,0,4.63,4.27c2.18,1.68,1.28,3.49.41,5a15.28,15.28,0,0,1-3.34,4.35c-2.09,1.72-1.81,4-3.67,5.78-2.39,2.22-3.18,4.91-5.66,7.12-1.24,1.1-2.23,2.66-2.07,4,.19,1.62-3.91,1.91-2.31,3.49s-.43,2.65-1.05,3.92c-.42.85.3,1.21,1.54,1.29.29-1,.57-1.91.93-3.14,4.57,4.51,11.16,6.73,18.62,8a135.16,135.16,0,0,0,22.78,1.93h1.64a135.16,135.16,0,0,0,22.78-1.93c7.46-1.29,14.05-3.51,18.62-8l.92,3.14C92.64,112.25,93.36,111.89,92.94,111ZM66.18,78.64c-3.61,2-11.93,4.3-11.93,4.3a25.9,25.9,0,0,1-6,.48,33.39,33.39,0,0,1-6-.48s-8.32-2.25-11.93-4.3A34.9,34.9,0,0,1,22,71.87c-3.37-3.6-5.44-7.44-6-11.52-.31-2.22-1.17-4.54,1.92-6.74a43,43,0,0,1,18.84-7.18,113.15,113.15,0,0,1,11.46-.91c.72,0,6.45.25,11.46.91a41.39,41.39,0,0,1,18.84,7.18c3.09,2.2,2.23,4.52,1.92,6.74-.56,4.08-2.63,7.92-6,11.52A34.9,34.9,0,0,1,66.18,78.64Z"/></g><line class="cls-32" x1="73.4" y1="63.89" x2="86.92" y2="62.76"/><line class="cls-32" x1="73.4" y1="67.63" x2="86.92" y2="68.75"/><line class="cls-2" x1="73.96" y1="65.76" x2="82.71" y2="65.76"/><line class="cls-32" x1="23.8" y1="63.89" x2="10.28" y2="62.76"/><line class="cls-32" x1="23.8" y1="67.63" x2="10.28" y2="68.75"/><line class="cls-2" x1="23.1" y1="65.76" x2="14.36" y2="65.76"/><path class="cls-33" d="M17.47,46.3a36.87,36.87,0,0,1,14.32-7.11,52.37,52.37,0,0,1,8-1.43c2.68-.27,5.29-.45,8-.55,2.75.1,5.36.3,8,.57a54.38,54.38,0,0,1,7.95,1.36,36.41,36.41,0,0,1,14.3,7.16,46.14,46.14,0,0,0-14.65-5.64,66.69,66.69,0,0,0-7.78-1c-2.61-.21-5.3-.4-7.86-.46s-5.25.23-7.86.43a63.36,63.36,0,0,0-7.77,1.06A46.88,46.88,0,0,0,17.47,46.3Z"/><rect class="cls-3" x="-0.02" y="-0.15" width="95" height="101"/></svg>