<svg id="Layer_1" data-name="Layer 1" xmlns="http://www.w3.org/2000/svg" xmlns:xlink="http://www.w3.org/1999/xlink" viewBox="0 0 95 101"><defs><style>.cls-1,.cls-13,.cls-2{fill:none;}.cls-1,.cls-13,.cls-15,.cls-16,.cls-3,.cls-4,.cls-5{stroke:#1d1d1b;}.cls-1,.cls-11,.cls-13,.cls-16,.cls-3,.cls-4,.cls-5{stroke-linecap:round;stroke-linejoin:round;}.cls-3{fill:#f6ae8b;}.cls-11,.cls-4{fill:#ca9e67;}.cls-5{fill:#7b6a58;}.cls-6{fill:#b18a5f;}.cls-7{fill:#1d1d1b;}.cls-8{fill:#e06ba3;}.cls-16,.cls-9{fill:#fff;}.cls-10{clip-path:url(#clip-path);}.cls-11{stroke:#7b6a58;stroke-width:7px;}.cls-12{fill:#ad549b;}.cls-13{stroke-width:0.75px;}.cls-14{clip-path:url(#clip-path-2);}.cls-15{fill:#a89e63;stroke-miterlimit:10;stroke-width:0.5px;}.cls-17{fill:#78874e;}</style><clipPath id="clip-path"><path class="cls-1" d="M47.75,84.16a46.78,46.78,0,0,0,21.56-4.51c4.63-2.26,10-5.25,11.62-10.8a15.05,15.05,0,0,0-.32-8.43c.17-1.48,4.12-15.84-10.58-28a32.51,32.51,0,0,0-22.2-7.56h-.08a32.5,32.5,0,0,0-22.2,7.56C10.85,44.58,14.8,58.94,15,60.42a15,15,0,0,0-.32,8.43c1.61,5.55,7,8.54,11.62,10.8a46.76,46.76,0,0,0,21.56,4.51Z"/></clipPath><clipPath id="clip-path-2"><circle class="cls-2" cx="47.17" cy="46.94" r="45.74"/></clipPath></defs><title>V2Artboard 4 copy 2</title><circle class="cls-3" cx="47.22" cy="46.88" r="46.31"/><path class="cls-4" d="M14.26,51.85c-6.53-20.93-1.2-31.35-1.2-31.35s16.16.24,22,8.2"/><path class="cls-4" d="M81.21,51.85C87.73,30.92,82.4,20.5,82.4,20.5s-16.15.24-22,8.2"/><path class="cls-5" d="M18.67,44c-3.24-10.39-.59-15.56-.59-15.56s8,.11,10.9,4.06"/><path class="cls-5" d="M76.79,44c3.24-10.39.6-15.56.6-15.56s-8,.11-10.9,4.06"/><path class="cls-4" d="M47.75,84.16a46.78,46.78,0,0,0,21.56-4.51c4.63-2.26,10-5.25,11.62-10.8a15.05,15.05,0,0,0-.32-8.43c.17-1.48,4.12-15.84-10.58-28a32.51,32.51,0,0,0-22.2-7.56h-.08a32.5,32.5,0,0,0-22.2,7.56C10.85,44.58,14.8,58.94,15,60.42a15,15,0,0,0-.32,8.43c1.61,5.55,7,8.54,11.62,10.8a46.76,46.76,0,0,0,21.56,4.51Z"/><path class="cls-6" d="M48.77,25.36l-.34,0-.17,0c-3.8,0-12.82-.49-22,7.15C11.51,44.68,15.36,58.88,15.53,60.35a15,15,0,0,0-.32,8.44,11.52,11.52,0,0,0,.69,1.78C59.15,68.75,50.23,30.67,48.77,25.36Z"/><ellipse class="cls-7" cx="31.66" cy="58.13" rx="5.03" ry="5.19"/><ellipse class="cls-8" cx="27.59" cy="65.46" rx="3.16" ry="1.78"/><ellipse class="cls-7" cx="63.96" cy="58.13" rx="5.03" ry="5.19"/><ellipse class="cls-8" cx="68.03" cy="65.46" rx="3.16" ry="1.78"/><ellipse class="cls-9" cx="29.7" cy="56.05" rx="0.89" ry="0.92"/><ellipse class="cls-9" cx="61.86" cy="56.05" rx="0.89" ry="0.92"/><g class="cls-10"><line class="cls-11" x1="47.83" y1="25.85" x2="47.83" y2="42.19"/><line class="cls-11" x1="38.77" y1="21.77" x2="38.77" y2="38.11"/><line class="cls-11" x1="56.81" y1="21.77" x2="56.81" y2="38.11"/></g><path class="cls-1" d="M47.75,84.16a46.78,46.78,0,0,0,21.56-4.51c4.63-2.26,10-5.25,11.62-10.8a15.05,15.05,0,0,0-.32-8.43c.17-1.48,4.12-15.84-10.58-28a32.51,32.51,0,0,0-22.2-7.56h-.08a32.5,32.5,0,0,0-22.2,7.56C10.85,44.58,14.8,58.94,15,60.42a15,15,0,0,0-.32,8.43c1.61,5.55,7,8.54,11.62,10.8a46.76,46.76,0,0,0,21.56,4.51Z"/><path class="cls-12" d="M62.43,81a19.44,19.44,0,0,1-4.35,2.88,43.94,43.94,0,0,1-4.75,2.14,14.71,14.71,0,0,1-5.39.75,20.34,20.34,0,0,1-5.32-.59l-.07,0h0a43.85,43.85,0,0,1-5-2.18c-.8-.41-1.59-.85-2.36-1.34A15.07,15.07,0,0,1,33.06,81a51.89,51.89,0,0,0,5,1.85c1.68.55,3.38,1.07,5.06,1.59l-.07,0a26.16,26.16,0,0,0,4.91.36,15.87,15.87,0,0,0,4.79-.45c1.62-.51,3.25-1,4.87-1.54A49.7,49.7,0,0,0,62.43,81Z"/><path class="cls-13" d="M36.83,50.53s-9.34-.55-12.53.7"/><path class="cls-13" d="M57.69,50.66s9.33-.74,12.54.44"/><g class="cls-14"><path class="cls-15" d="M92.44,111c-.62-1.27-2.7-2.29-1-3.92s-2.5-1.87-2.31-3.49c.16-1.3-.83-2.86-2.07-4-2.48-2.21-3.27-4.9-5.66-7.12-1.86-1.73-1.58-4.06-3.67-5.78a15.5,15.5,0,0,1-3.35-4.35c-.86-1.46-1.76-3.27.42-5,1.71-1.32,3-2.91,4.63-4.27,1.23-1,1-2.22,2.05-3.22a23.27,23.27,0,0,0,7.28-14.25C89.4,49.86,88.87,44,85,38.49c-1.27-1.8-2.49-3.63-3.86-5.42a40.85,40.85,0,0,0-4.08-4.2c-1-.81-10-3.7-12-4.73-1.19-.58-10.23-2-11-2.22-1.27-.34-11.17-.1-12.48,0a86.52,86.52,0,0,0-11,2.22c-2.23.66-10.67,3.57-12.06,4.73-.29.25-3.2,3.25-4.07,4.2a24.56,24.56,0,0,0-3.86,5.42c-3.2,6-4.42,11.37-3.72,17.24.6,5.06,3.53,9.39,7,14.55a36.26,36.26,0,0,0,2.35,2.92,27.33,27.33,0,0,0,4.63,4.27c2.18,1.68,1.28,3.49.41,5a15.28,15.28,0,0,1-3.34,4.35c-2.09,1.72-1.81,4-3.67,5.78-2.39,2.22-3.18,4.91-5.67,7.12-1.24,1.1-2.22,2.66-2.06,4,.19,1.62-3.91,1.91-2.31,3.49s-.44,2.65-1.06,3.92c-.41.85.31,1.21,1.55,1.29.28-1,.57-1.91.93-3.14,4.57,4.51,11.16,6.73,18.62,8a135.16,135.16,0,0,0,22.78,1.93h1.64a135.16,135.16,0,0,0,22.78-1.93c7.46-1.29,14.05-3.51,18.62-8l.92,3.14C92.14,112.25,92.86,111.89,92.44,111ZM65.68,78.64c-3.61,2-11.93,4.3-11.93,4.3a25.9,25.9,0,0,1-6,.48,33.39,33.39,0,0,1-6-.48s-8.32-2.25-11.93-4.3a34.9,34.9,0,0,1-8.29-6.77c-3.37-3.6-5.44-7.44-6-11.52-.31-2.22-1.17-4.54,1.92-6.74a43,43,0,0,1,18.84-7.18,113.15,113.15,0,0,1,11.46-.91c.72,0,6.45.25,11.46.91a41.39,41.39,0,0,1,18.84,7.18c3.09,2.2,2.23,4.52,1.92,6.74-.56,4.08-2.63,7.92-6,11.52A34.9,34.9,0,0,1,65.68,78.64Z"/></g><line class="cls-16" x1="72.89" y1="63.89" x2="86.42" y2="62.76"/><line class="cls-16" x1="72.89" y1="67.63" x2="86.42" y2="68.75"/><line class="cls-1" x1="73.46" y1="65.76" x2="82.21" y2="65.76"/><line class="cls-16" x1="23.3" y1="63.89" x2="9.78" y2="62.76"/><line class="cls-16" x1="23.3" y1="67.63" x2="9.78" y2="68.75"/><line class="cls-1" x1="22.6" y1="65.76" x2="13.86" y2="65.76"/><path class="cls-17" d="M17,46.3a36.87,36.87,0,0,1,14.32-7.11,52.47,52.47,0,0,1,7.94-1.43c2.68-.27,5.3-.45,8-.55,2.75.1,5.36.3,8,.57a54.38,54.38,0,0,1,7.95,1.36,36.41,36.41,0,0,1,14.3,7.16,46.14,46.14,0,0,0-14.65-5.64,67,67,0,0,0-7.78-1c-2.61-.21-5.3-.4-7.86-.46s-5.25.23-7.86.43a63.36,63.36,0,0,0-7.77,1.06A46.88,46.88,0,0,0,17,46.3Z"/><path class="cls-7" d="M51.06,66.64c0,1.16-3.58,2.78-3.58,2.78s-3.59-1.62-3.59-2.78,1.61-2.09,3.59-2.09S51.06,65.49,51.06,66.64Z"/><path class="cls-1" d="M47.48,69.42a7.55,7.55,0,0,1-5.36,2"/><path class="cls-1" d="M47.52,69.42a7.51,7.51,0,0,0,5.35,2"/><rect class="cls-2" x="0.06" y="-0.15" width="95" height="101"/></svg>