<svg id="Layer_1" data-name="Layer 1" xmlns="http://www.w3.org/2000/svg" xmlns:xlink="http://www.w3.org/1999/xlink" viewBox="0 0 95 101"><defs><style>.cls-1,.cls-10,.cls-12{fill:none;}.cls-1,.cls-10,.cls-11,.cls-16,.cls-2,.cls-3,.cls-4,.cls-9{stroke:#1d1d1b;}.cls-1,.cls-11{stroke-miterlimit:10;}.cls-2{fill:#b2b2b2;}.cls-10,.cls-16,.cls-2,.cls-3,.cls-4,.cls-9{stroke-linecap:round;stroke-linejoin:round;}.cls-3{fill:#ca9e67;}.cls-4,.cls-7{fill:#7b6a58;}.cls-5{clip-path:url(#clip-path);}.cls-6{fill:#b17f4a;}.cls-8{fill:#1d1d1b;}.cls-11,.cls-9{fill:#fff;}.cls-11{stroke-width:0.5px;}.cls-13{fill:#fbf6ef;}.cls-14{fill:#121324;}.cls-15{fill:#da9444;}.cls-16{fill:#f5d2a2;}</style><clipPath id="clip-path"><path class="cls-1" d="M47.09,84.66a46.78,46.78,0,0,0,21.56-4.51c4.63-2.26,10-5.25,11.62-10.79A15.08,15.08,0,0,0,80,60.92c.17-1.47,4.12-15.83-10.58-28a32.57,32.57,0,0,0-22.2-7.56h-.08a32.55,32.55,0,0,0-22.2,7.56c-14.7,12.18-10.75,26.54-10.58,28A15,15,0,0,0,14,69.36c1.61,5.54,7,8.53,11.62,10.79a46.78,46.78,0,0,0,21.56,4.51Z"/></clipPath></defs><title>V2Artboard 3 copy 6</title><circle class="cls-2" cx="47.44" cy="46.88" r="46.31"/><path class="cls-3" d="M13.43,51.85C6.91,30.92,12.24,20.5,12.24,20.5s16.15.24,22,8.2"/><path class="cls-3" d="M80.38,51.85c6.53-20.93,1.2-31.35,1.2-31.35s-16.16.24-22,8.2"/><path class="cls-4" d="M17.84,44c-3.23-10.39-.59-15.56-.59-15.56s8,.11,10.9,4.06"/><path class="cls-4" d="M76,44c3.24-10.39.59-15.56.59-15.56s-8,.11-10.9,4.06"/><path class="cls-3" d="M47.09,84.66a46.78,46.78,0,0,0,21.56-4.51c4.63-2.26,10-5.25,11.62-10.79A15.08,15.08,0,0,0,80,60.92c.17-1.47,4.12-15.83-10.58-28a32.57,32.57,0,0,0-22.2-7.56h-.08a32.55,32.55,0,0,0-22.2,7.56c-14.7,12.18-10.75,26.54-10.58,28A15,15,0,0,0,14,69.36c1.61,5.54,7,8.53,11.62,10.79a46.78,46.78,0,0,0,21.56,4.51Z"/><g class="cls-5"><ellipse class="cls-6" cx="68.32" cy="54.89" rx="17.28" ry="17.82"/></g><path class="cls-1" d="M47.09,84.66a46.78,46.78,0,0,0,21.56-4.51c4.63-2.26,10-5.25,11.62-10.79A15.08,15.08,0,0,0,80,60.92c.17-1.47,4.12-15.83-10.58-28a32.57,32.57,0,0,0-22.2-7.56h-.08a32.55,32.55,0,0,0-22.2,7.56c-14.7,12.18-10.75,26.54-10.58,28A15,15,0,0,0,14,69.36c1.61,5.54,7,8.53,11.62,10.79a46.78,46.78,0,0,0,21.56,4.51Z"/><ellipse class="cls-7" cx="26.93" cy="65.96" rx="3.16" ry="1.78"/><ellipse class="cls-7" cx="67.37" cy="65.96" rx="3.16" ry="1.78"/><path class="cls-8" d="M50.67,71.43c0,1.16-3.58,2.78-3.58,2.78s-3.58-1.62-3.58-2.78,1.6-2.09,3.58-2.09S50.67,70.28,50.67,71.43Z"/><line class="cls-9" x1="74.24" y1="64.39" x2="87.76" y2="63.26"/><line class="cls-9" x1="74.24" y1="68.13" x2="87.76" y2="69.26"/><line class="cls-10" x1="74.19" y1="66.26" x2="82.94" y2="66.26"/><line class="cls-9" x1="20.64" y1="64.39" x2="7.12" y2="63.26"/><line class="cls-9" x1="20.64" y1="68.13" x2="7.12" y2="69.26"/><line class="cls-10" x1="20.68" y1="66.26" x2="11.94" y2="66.26"/><path class="cls-8" d="M14.37,69.24a14.71,14.71,0,0,0,6.29,7.33,58,58,0,0,0,9,4.51,29.87,29.87,0,0,0,9.6,2.45,8.79,8.79,0,0,0,4.62-.89,6.32,6.32,0,0,0,3-3.58.35.35,0,0,1,.45-.22.38.38,0,0,1,.22.21l.09.25a6.17,6.17,0,0,1,.26,3.48A7.45,7.45,0,0,1,46,86.27a10.51,10.51,0,0,1-3.29,2.39,15,15,0,0,1-3.58,1.18,20.42,20.42,0,0,1-6.64.13,20.42,20.42,0,0,1-3-.6,21.56,21.56,0,0,1-2.82-.9A24,24,0,0,1,24,87.31a22.11,22.11,0,0,1-2.44-1.39,27.45,27.45,0,0,1-2.37-1.7,24,24,0,0,1-2.27-2.15,16.14,16.14,0,0,1-3.49-5.75,9.36,9.36,0,0,1,.15-6.85l.13-.26a.34.34,0,0,1,.46-.17A.35.35,0,0,1,14.37,69.24Z"/><path class="cls-8" d="M80.75,69.47a9.31,9.31,0,0,1,.15,6.87,16.16,16.16,0,0,1-3.5,5.75,23.85,23.85,0,0,1-2.27,2.14c-.81.61-1.57,1.22-2.38,1.71a21.82,21.82,0,0,1-2.49,1.4,25.59,25.59,0,0,1-15.05,2.41,16.18,16.18,0,0,1-3.5-1.09,10.87,10.87,0,0,1-3.36-2.26,7.07,7.07,0,0,1-2-3.6,5.38,5.38,0,0,1,.46-3.54l.11-.24a.37.37,0,0,1,.48-.16.35.35,0,0,1,.19.24,5.14,5.14,0,0,0,2.76,3.6,9.51,9.51,0,0,0,4.67.75,31.9,31.9,0,0,0,9.66-2.38,54.46,54.46,0,0,0,9-4.49A14.65,14.65,0,0,0,80,69.24a.35.35,0,0,1,.45-.21.32.32,0,0,1,.2.18Z"/><path class="cls-11" d="M71.69,29.18a33.11,33.11,0,0,0-24.35-9.27h-.08a33.13,33.13,0,0,0-24.35,9.27c-7.07,6.55-9,17.06-9.58,23.17,4.09.9,19.54,1.83,34,1.83s29.33-1.41,33.56-2.33C79.63,45.83,78.77,35.73,71.69,29.18Z"/><path class="cls-10" d="M14.4,46.42a188.44,188.44,0,0,0,33.05,3.06c13.58,0,27.08-3.25,32.39-4.38"/><path class="cls-8" d="M47.91,73.81c1.49-.31,2.92-.44,4.12-.73a3.46,3.46,0,0,0,.75-.25c.07,0,.18-.1.18-.13l0,0,.05,0,.28-.15a1.73,1.73,0,0,1,1.49.05,1.34,1.34,0,0,1,.28.18,1.2,1.2,0,0,1,.16.15,2.82,2.82,0,0,1,.25.29,4.52,4.52,0,0,1,.26.44,6.35,6.35,0,0,1,.27.68,10.1,10.1,0,0,1,.29,1.18,17.12,17.12,0,0,1,.16,4.39,14.46,14.46,0,0,1-1,4.31A20,20,0,0,1,54.12,80c-.32-1.36-.54-2.74-.76-4,0-.31-.11-.62-.18-.88l-.08-.31c0-.06,0,0,0,0a.28.28,0,0,0,.08.09l.07,0a1,1,0,0,0,.17.12l.2.07a1,1,0,0,0,.3.05.71.71,0,0,0,.3,0l.19,0,.16-.1c.05,0,0,0-.06,0l-.21.12a3.77,3.77,0,0,1-.8.27,5.17,5.17,0,0,1-1.34.06A8.66,8.66,0,0,1,47.91,73.81Z"/><path class="cls-8" d="M46.33,73.81a8.7,8.7,0,0,1-4.26,1.62,5.15,5.15,0,0,1-1.34-.06,3.77,3.77,0,0,1-.8-.27L39.72,75s-.11-.06-.06,0a.62.62,0,0,0,.16.1l.18,0a.73.73,0,0,0,.3,0,1.06,1.06,0,0,0,.31-.05L40.8,75a.81.81,0,0,0,.18-.12l.07,0a.51.51,0,0,0,.08-.09s0,0,0,0l-.08.31c-.06.26-.12.57-.17.88-.22,1.28-.45,2.66-.76,4a20.57,20.57,0,0,1-1.37,4.15,14.46,14.46,0,0,1-1-4.31,16.68,16.68,0,0,1,.16-4.39c.08-.38.15-.76.28-1.18a6.6,6.6,0,0,1,.28-.68,4.26,4.26,0,0,1,.25-.44,2.82,2.82,0,0,1,.25-.29l.16-.15a1.75,1.75,0,0,1,.29-.18,1.71,1.71,0,0,1,1.48-.05,2.64,2.64,0,0,1,.29.15l0,0,0,0s.11.08.17.13a3.56,3.56,0,0,0,.76.25C43.4,73.37,44.84,73.5,46.33,73.81Z"/><rect class="cls-12" y="-0.15" width="95" height="101"/><path class="cls-13" d="M53.22,81.21c3.78-.26,7.53-.82,11.29-1.27a2.54,2.54,0,0,0,1.77-1A4.84,4.84,0,0,0,67,77.75a6.21,6.21,0,0,0-.67-6.64,3.37,3.37,0,0,0-3.74-1.47c-.71.16-1.42.29-2.13.46a21.34,21.34,0,0,1-3.39.4c-1.62.1-3.24.23-4.86.34m-11.18,1c-1.78.19-3.55.39-5.32.6s-3.66.44-5.48.66a2.38,2.38,0,0,0-2,1.33,10.54,10.54,0,0,0-1,3.57,3.84,3.84,0,0,0,0,1.07,6.73,6.73,0,0,0,1.9,3.66,2.76,2.76,0,0,0,2.28.86,7,7,0,0,0,1.12-.15c1.41-.29,2.81-.65,4.25-.8,1.8-.18,3.59-.38,5.39-.54"/><path class="cls-14" d="M52.23,70.84c1.62-.11,3.24-.24,4.86-.34a21.34,21.34,0,0,0,3.39-.4c.71-.17,1.42-.3,2.13-.46a3.37,3.37,0,0,1,3.74,1.47A6.21,6.21,0,0,1,67,77.75,4.84,4.84,0,0,1,66.28,79a2.54,2.54,0,0,1-1.77,1c-3.76.45-7.51,1-11.29,1.27l-11,.89c-1.8.16-3.59.36-5.39.54-1.44.15-2.84.51-4.25.8a7,7,0,0,1-1.12.15,2.76,2.76,0,0,1-2.28-.86,6.73,6.73,0,0,1-1.9-3.66,3.84,3.84,0,0,1,0-1.07,10.54,10.54,0,0,1,1-3.57,2.38,2.38,0,0,1,2-1.33c1.82-.22,3.65-.45,5.48-.66s3.54-.41,5.32-.6Zm13-.56a2,2,0,0,0-1.5-.56,9.83,9.83,0,0,0-1.32.13c-1.09.21-2.17.49-3.27.62-1.64.19-3.29.29-4.94.4-4.42.29-8.83.63-13.24,1.13-2.87.32-5.74.63-8.61,1-.83.1-1.66.14-2.48.32a1.81,1.81,0,0,0-1.34,1,10,10,0,0,0-1,3.87,6,6,0,0,0,1.7,4.16,3,3,0,0,0,2.91,1q.36,0,.72-.12c1.19-.26,2.38-.53,3.59-.7,3.23-.43,6.48-.71,9.73-1,6.16-.45,12.31-1,18.42-1.85a2.46,2.46,0,0,0,1.83-1,6.7,6.7,0,0,0,1.13-4.3A6.34,6.34,0,0,0,65.18,70.28Z"/><path class="cls-15" d="M65.18,70.28a6.34,6.34,0,0,1,2.29,4.15,6.7,6.7,0,0,1-1.13,4.3,2.46,2.46,0,0,1-1.83,1c-6.11.89-12.26,1.4-18.42,1.85-3.25.24-6.5.52-9.73,1-1.21.17-2.4.44-3.59.7q-.36.07-.72.12a3,3,0,0,1-2.91-1,6,6,0,0,1-1.7-4.16,10,10,0,0,1,1-3.87,1.81,1.81,0,0,1,1.34-1c.82-.18,1.65-.22,2.48-.32,2.87-.36,5.74-.67,8.61-1,4.41-.5,8.82-.84,13.24-1.13,1.65-.11,3.3-.21,4.94-.4,1.1-.13,2.18-.41,3.27-.62a9.83,9.83,0,0,1,1.32-.13A2,2,0,0,1,65.18,70.28ZM54.5,76.93c-.09,0-.07-.1-.08-.15a3.83,3.83,0,0,1-.08-.83s0-.12,0-.13a.12.12,0,0,0-.14.09.75.75,0,0,0,0,.21,5.69,5.69,0,0,0,.21,1.3,5.31,5.31,0,0,1,.2,1.43c-.06.71-.22.87-.92.91s-1.38.07-2.06.14c-2.41.24-4.81.53-7.24.6a11.34,11.34,0,0,0-2.83.43c0-.15,0-.29-.16-.32a.27.27,0,0,0-.3.2.25.25,0,0,0,.08.27.26.26,0,0,0,.32,0,14.4,14.4,0,0,1,2.86-.41c1.43-.08,2.86-.13,4.29-.29A39.82,39.82,0,0,1,53.46,80a1.85,1.85,0,0,0,.66-.13.85.85,0,0,0,.57-.69,3.43,3.43,0,0,0,.06-.34c.1.08.22.15.34.07s.21-.22.12-.37-.3-.14-.46,0c-.07-.36-.13-.72-.2-1.08,0-.13-.1-.26,0-.41s.09,0,.13.08A.26.26,0,0,0,55,77a.22.22,0,0,0-.12-.33c-.18-.09-.28,0-.36.15A.94.94,0,0,0,54.5,76.93Zm-14-3.32a1.73,1.73,0,0,0-.23.53,3.59,3.59,0,0,0,0,1.18A22.23,22.23,0,0,1,40.82,80c0,.05,0,.12.06.12A.11.11,0,0,0,41,80a.93.93,0,0,0,0-.24,15.85,15.85,0,0,0-.29-3.29,15.12,15.12,0,0,1-.29-2,1,1,0,0,1,1-1.21,3.09,3.09,0,0,1,.53-.09c1.06-.13,2.12-.24,3.18-.38,2.09-.27,4.18-.56,6.28-.66h.16c.08,0,.16,0,.14-.13s-.1,0-.16,0l-1.61.1c-2.2.18-4.38.53-6.57.8a14.23,14.23,0,0,0-1.95.24A1.53,1.53,0,0,0,40.54,73.61ZM46,75.36A.25.25,0,0,0,46,75a.24.24,0,0,0-.35,0,.26.26,0,1,0,.38.35Zm4.06,3.56a.25.25,0,0,0-.37,0,.25.25,0,0,0,0,.38.24.24,0,0,0,.35,0A.25.25,0,0,0,50.09,78.92Zm8.72-3.43a.26.26,0,0,0-.37.06.25.25,0,0,0,0,.36.25.25,0,0,0,.38,0A.26.26,0,0,0,58.81,75.49Zm0,3.84a.26.26,0,0,0,.38,0,.24.24,0,0,0,0-.37.23.23,0,0,0-.35,0A.25.25,0,0,0,58.8,79.33Zm6.12-6.85a.23.23,0,0,0-.34,0,.24.24,0,0,0,0,.38.23.23,0,0,0,.36,0A.25.25,0,0,0,64.92,72.48Zm-.79,4.77a.25.25,0,0,0-.06-.37.27.27,0,0,0-.32.43C63.88,77.42,64,77.38,64.13,77.25ZM46.2,77.1a.26.26,0,1,0-.41-.33.24.24,0,0,0,0,.36A.25.25,0,0,0,46.2,77.1Zm7.46-1.17a.25.25,0,0,0-.37,0,.25.25,0,0,0,0,.38.24.24,0,0,0,.35,0A.25.25,0,0,0,53.66,75.93Zm-6,3.32a.27.27,0,1,0,0,.35A.23.23,0,0,0,47.67,79.25Zm.55-2.8a.25.25,0,0,0,.05.37.25.25,0,0,0,.37-.06.24.24,0,0,0,0-.35C48.47,76.29,48.34,76.32,48.22,76.45Zm10.42-2.68a.26.26,0,0,0-.33.41.26.26,0,0,0,.33-.41Zm-23,.84a.24.24,0,0,0,0-.37.24.24,0,0,0-.37.05.25.25,0,0,0,0,.36A.25.25,0,0,0,35.68,74.61Zm-1,2.8a.25.25,0,0,0,0-.38.23.23,0,0,0-.35.06.24.24,0,0,0,0,.37A.25.25,0,0,0,34.69,77.41Zm28.49-5.66a.27.27,0,0,0,0,.37.25.25,0,0,0,.38,0,.24.24,0,0,0-.05-.38A.26.26,0,0,0,63.18,71.75Zm-23.8,5.13a.26.26,0,0,0,.39,0,.25.25,0,0,0,0-.36.27.27,0,0,0-.35.41Zm25.7-2.73a.26.26,0,0,0-.37.07.25.25,0,0,0,0,.36.27.27,0,1,0,.33-.43Zm-25.17,4a.25.25,0,0,0-.37.06.26.26,0,1,0,.42.3A.24.24,0,0,0,39.91,78.17Zm20.42.23a.26.26,0,0,0,0-.38A.24.24,0,0,0,60,78a.24.24,0,0,0,0,.37C60.07,78.53,60.2,78.5,60.33,78.4Zm-1.4-1.16a.26.26,0,0,0-.38.05.26.26,0,0,0,.4.33A.26.26,0,0,0,58.93,77.24Zm-1.18,1a.27.27,0,1,0-.35.4.25.25,0,0,0,.36,0A.24.24,0,0,0,57.75,78.28Zm-4.33-.21a.24.24,0,0,0,.38,0,.25.25,0,0,0,0-.36.25.25,0,0,0-.4,0A.23.23,0,0,0,53.42,78.07ZM29.7,77.61a.25.25,0,0,0-.35,0,.26.26,0,0,0,0,.39.25.25,0,0,0,.36,0A.25.25,0,0,0,29.7,77.61Zm1.43,2.46a.24.24,0,0,0-.36,0,.25.25,0,0,0,0,.38.24.24,0,0,0,.37,0A.25.25,0,0,0,31.13,80.07Zm7.07-6a.25.25,0,0,0-.37,0,.25.25,0,0,0,0,.38.24.24,0,0,0,.36,0A.25.25,0,0,0,38.2,74ZM37,75a.25.25,0,0,0-.38,0,.24.24,0,0,0,0,.36A.27.27,0,0,0,37,75Zm19.22.73a.24.24,0,0,0-.37,0,.24.24,0,0,0,0,.37.27.27,0,0,0,.33-.42Zm-2.77-1.56a.24.24,0,0,0-.35,0,.25.25,0,0,0,0,.38.24.24,0,0,0,.36-.05A.25.25,0,0,0,53.48,74.19Zm8.11,3.22a.25.25,0,1,0-.41-.3.23.23,0,0,0,0,.35A.24.24,0,0,0,61.59,77.41ZM35.52,76a.25.25,0,0,0,0,.37.24.24,0,0,0,.36,0,.24.24,0,0,0,0-.38A.25.25,0,0,0,35.52,76Zm16.75-.43c.08-.14.11-.27,0-.38a.24.24,0,0,0-.36,0,.23.23,0,0,0,0,.36A.26.26,0,0,0,52.27,75.56Zm12,3a.25.25,0,0,0-.37.07A.24.24,0,0,0,64,79a.25.25,0,0,0,.36,0A.24.24,0,0,0,64.29,78.56Zm-.49-5.15a.27.27,0,0,0-.34.42.25.25,0,0,0,.38,0A.24.24,0,0,0,63.8,73.41ZM34.52,75.74a.25.25,0,0,0,0-.36.24.24,0,0,0-.38,0,.23.23,0,0,0,0,.36A.25.25,0,0,0,34.52,75.74Zm28.08-1a.26.26,0,0,0,0-.38.27.27,0,0,0-.33.42A.26.26,0,0,0,62.6,74.7ZM52.47,77.26c.07-.13.1-.26,0-.37a.25.25,0,0,0-.38,0,.24.24,0,0,0,0,.37A.27.27,0,0,0,52.47,77.26ZM36.16,79.4a.25.25,0,0,0-.36.07.26.26,0,1,0,.42.31A.26.26,0,0,0,36.16,79.4Zm8.59-3c.1-.14.12-.27,0-.38a.27.27,0,0,0-.34.41A.25.25,0,0,0,44.75,76.37Zm14.64-3.48a.26.26,0,0,0,0,.36.24.24,0,0,0,.37,0,.24.24,0,0,0,0-.37C59.63,72.72,59.5,72.78,59.39,72.89Zm-28,8.86a.24.24,0,0,0-.36,0,.24.24,0,0,0,0,.38.27.27,0,0,0,.34-.41Zm5.45-5a.26.26,0,1,0,.41.32.25.25,0,0,0,0-.36A.25.25,0,0,0,36.81,76.74Zm.57,1.65a.26.26,0,0,0-.38.07.23.23,0,0,0,0,.35.24.24,0,0,0,.37-.06A.26.26,0,0,0,37.38,78.39Zm18.83.81a.26.26,0,0,0,0,.39.27.27,0,0,0,.34-.42A.25.25,0,0,0,56.21,79.2Zm-26.3.13a.27.27,0,1,0,0,.37A.24.24,0,0,0,29.91,79.33ZM49.59,74.1a.25.25,0,0,0,0-.36.24.24,0,0,0-.37,0,.24.24,0,0,0,0,.38A.24.24,0,0,0,49.59,74.1Zm-16.49.47a.24.24,0,0,0-.35.07.23.23,0,0,0,0,.35.25.25,0,0,0,.38,0A.26.26,0,0,0,33.1,74.57Zm23.29,3.29a.24.24,0,0,0,0-.37.27.27,0,0,0-.34.41A.24.24,0,0,0,56.39,77.86Zm6.53,0a.26.26,0,0,0-.37.07.23.23,0,0,0,.05.35.24.24,0,0,0,.37-.06C63.07,78.05,63,77.93,62.92,77.81Zm2.39-1.56a.26.26,0,1,0-.36,0C65.08,76.4,65.2,76.35,65.31,76.25Zm-.24,1.48a.24.24,0,0,0,.07.36A.25.25,0,0,0,65.5,78a.25.25,0,0,0-.06-.38C65.32,77.56,65.19,77.59,65.07,77.73Zm-34,1a.26.26,0,0,0,0-.37.25.25,0,0,0-.38,0,.24.24,0,0,0,0,.36A.26.26,0,0,0,31.06,78.71Zm2.3-2.43a.25.25,0,0,0-.35,0,.26.26,0,1,0,.38.34A.27.27,0,0,0,33.36,76.28Zm-3.2,5.15c.06-.07,0-.2-.07-.3a.25.25,0,0,0-.38,0,.25.25,0,0,0,.05.38C29.89,81.64,30,81.61,30.16,81.43Zm2.36-.57a.25.25,0,0,0-.38,0,.26.26,0,1,0,.4.32A.23.23,0,0,0,32.52,80.86Zm1.18-.73a.25.25,0,0,0-.05-.35.23.23,0,0,0-.37,0,.24.24,0,0,0,0,.36C33.43,80.29,33.56,80.25,33.7,80.13Zm1.16-1.38a.26.26,0,0,0-.39,0,.25.25,0,0,0,0,.36.24.24,0,0,0,.37,0A.25.25,0,0,0,34.86,78.75Zm.86-1a.24.24,0,0,0,0,.37.23.23,0,0,0,.35,0,.25.25,0,0,0,0-.38A.24.24,0,0,0,35.72,77.7Zm8.47-3.34a.24.24,0,0,0,.05.37.24.24,0,0,0,.35-.06.23.23,0,0,0,0-.37C44.42,74.2,44.3,74.24,44.19,74.36Zm-1.72,4a.25.25,0,0,0,0-.37.23.23,0,0,0-.36,0,.26.26,0,1,0,.37.35Zm6-3.68a.25.25,0,0,0-.38,0,.25.25,0,1,0,.38.34A.25.25,0,0,0,48.44,74.67Zm-3.31,5.18a.26.26,0,0,0,0-.37.24.24,0,0,0-.37.06.23.23,0,0,0,0,.35A.3.3,0,0,0,45.13,79.85Zm7-6a.25.25,0,0,0,0-.37.23.23,0,0,0-.37,0,.24.24,0,0,0,0,.38A.25.25,0,0,0,52.1,73.88ZM62.75,76a.25.25,0,0,0-.37.06.24.24,0,0,0,0,.36.27.27,0,1,0,.33-.42Zm-7-2a.25.25,0,0,0,0,.37.27.27,0,0,0,.33-.42C56,73.9,55.82,73.94,55.7,74.06Zm4.27.82a.24.24,0,0,0,0-.37.26.26,0,0,0-.33.41A.25.25,0,0,0,60,74.88Zm2.43-2.24a.25.25,0,0,0-.36,0,.23.23,0,0,0,0,.37.23.23,0,0,0,.35,0A.26.26,0,0,0,62.4,72.64Zm-2.65,3.62a.25.25,0,0,0,0,.36.27.27,0,0,0,.36-.39C60,76.11,59.88,76.15,59.75,76.26Zm-30.15,0a.26.26,0,0,0-.05-.36.24.24,0,0,0-.37,0,.23.23,0,0,0,0,.35C29.35,76.47,29.48,76.42,29.6,76.31Zm1-1.43a.24.24,0,0,0-.35.08.24.24,0,0,0,.05.36.27.27,0,0,0,.3-.44ZM30.89,77a.24.24,0,0,0,0-.36.27.27,0,0,0-.36.39A.25.25,0,0,0,30.89,77Zm2.61,4.51a.25.25,0,0,0,0,.37.24.24,0,0,0,.36,0,.25.25,0,0,0,0-.38A.24.24,0,0,0,33.5,81.48Zm13.79-5.75a.24.24,0,0,0-.35,0,.24.24,0,0,0,0,.37.22.22,0,0,0,.35,0A.25.25,0,0,0,47.29,75.73Zm-5,.52a.26.26,0,0,0-.37.07.23.23,0,0,0,0,.36.24.24,0,0,0,.37-.06A.26.26,0,0,0,42.25,76.25Zm1.4,1.08a.26.26,0,0,0-.06-.38.25.25,0,0,0-.36.07.24.24,0,0,0,0,.36C43.41,77.49,43.53,77.45,43.65,77.33Zm17.83-1.66a.24.24,0,0,0,0-.35.25.25,0,0,0-.38,0,.24.24,0,0,0,0,.36A.24.24,0,0,0,61.48,75.67ZM64,75.52a.25.25,0,0,0,0-.36.26.26,0,0,0-.34.4A.25.25,0,0,0,64,75.52ZM54.42,75a.25.25,0,0,0,0,.38.23.23,0,0,0,.35,0,.24.24,0,0,0,0-.38A.25.25,0,0,0,54.42,75ZM61,71.87a.25.25,0,0,0-.37.06.23.23,0,0,0,0,.35.25.25,0,0,0,.38,0A.25.25,0,0,0,61,71.87ZM33.53,78a.25.25,0,0,0-.36,0,.26.26,0,1,0,.41.31A.26.26,0,0,0,33.53,78ZM58,72.09c-.08.13-.11.25,0,.37a.27.27,0,1,0,.35-.4A.25.25,0,0,0,58,72.09ZM31.6,75.72a.26.26,0,0,0,0,.35A.23.23,0,0,0,32,76a.23.23,0,0,0,0-.35C31.88,75.57,31.74,75.59,31.6,75.72ZM55.82,72.3a.25.25,0,0,0-.36.07.23.23,0,0,0,0,.35.24.24,0,0,0,.37,0A.25.25,0,0,0,55.82,72.3Zm-4.71,3.85a.25.25,0,0,0-.37.07.26.26,0,1,0,.42.29A.25.25,0,0,0,51.11,76.15ZM31.79,77.38a.25.25,0,0,0,0,.38.26.26,0,0,0,.33-.41A.24.24,0,0,0,31.79,77.38Zm6.57,1.85a.26.26,0,0,0,0,.38.24.24,0,0,0,.38-.06.26.26,0,0,0-.4-.32Zm11-3.77a.25.25,0,0,0,0,.38.24.24,0,0,0,.36,0,.24.24,0,0,0,0-.37C49.57,75.31,49.46,75.36,49.35,75.46Zm-13.29,6a.23.23,0,0,0,.36,0,.25.25,0,0,0,0-.38.24.24,0,0,0-.36,0A.24.24,0,0,0,36.06,81.5Zm10.25-2.66a.25.25,0,0,0,0-.38.24.24,0,0,0-.36,0,.25.25,0,0,0,0,.36A.26.26,0,0,0,46.31,78.84Zm10.91-5.37a.24.24,0,0,0,0-.37.23.23,0,0,0-.36,0,.25.25,0,0,0,0,.38A.24.24,0,0,0,57.22,73.47Zm-12.3,4.22a.25.25,0,0,0-.36,0,.23.23,0,0,0,0,.37.23.23,0,0,0,.35,0A.25.25,0,0,0,44.92,77.69ZM52.64,79a.26.26,0,1,0-.39,0A.25.25,0,0,0,52.64,79Zm-3.9-.53a.24.24,0,0,0,0-.37.24.24,0,0,0-.36,0,.23.23,0,0,0,0,.37A.23.23,0,0,0,48.74,78.51ZM61.3,74a.25.25,0,0,0,0-.38.23.23,0,0,0-.35,0,.25.25,0,0,0,0,.38A.24.24,0,0,0,61.3,74Zm-10,4.32a.25.25,0,1,0-.38-.33.24.24,0,0,0,0,.38A.23.23,0,0,0,51.25,78.27ZM39.73,80a.25.25,0,0,0,0,.38.23.23,0,0,0,.35-.06.23.23,0,0,0,0-.35A.24.24,0,0,0,39.73,80Zm17.66-4.87c.12-.16.1-.29,0-.39a.23.23,0,0,0-.35.07.23.23,0,0,0,0,.35A.24.24,0,0,0,57.39,75.14Zm-13.65,4a.23.23,0,0,0,0-.36.23.23,0,0,0-.35,0,.24.24,0,0,0,0,.38A.24.24,0,0,0,43.74,79.09Zm6.18-2a.25.25,0,0,0-.36,0,.24.24,0,0,0,0,.37.23.23,0,0,0,.37,0A.25.25,0,0,0,49.92,77.12ZM37.57,80.56c.11-.14.11-.26,0-.36a.26.26,0,0,0-.34.4A.23.23,0,0,0,37.57,80.56Zm1.61-5.72a.25.25,0,0,0,.07.37.23.23,0,0,0,.35-.06.24.24,0,0,0-.05-.37A.26.26,0,0,0,39.18,74.84Zm-.23,6a.26.26,0,0,0-.38,0,.26.26,0,0,0,.39.33A.26.26,0,0,0,39,80.87Zm-.72-3.35a.23.23,0,0,0,0,.34.24.24,0,0,0,.38,0,.25.25,0,0,0,0-.36C38.47,77.34,38.34,77.38,38.23,77.52Zm19.35-.67a.25.25,0,0,0,0-.37.24.24,0,0,0-.38,0,.24.24,0,0,0,.05.37A.23.23,0,0,0,57.58,76.85ZM35,80.91a.25.25,0,1,0-.38-.32.25.25,0,1,0,.38.32Zm7.08-6a.23.23,0,0,0,0-.37.22.22,0,0,0-.35.06.25.25,0,1,0,.4.31Zm-3.66,1.14a.24.24,0,0,0,0-.37.24.24,0,0,0-.36,0,.24.24,0,0,0,0,.37A.24.24,0,0,0,38.46,76.09Zm-6.09,3.32a.23.23,0,0,0,0-.35.25.25,0,0,0-.38,0,.24.24,0,0,0,.05.37A.23.23,0,0,0,32.37,79.41ZM51,74.78a.23.23,0,0,0,0-.35.24.24,0,0,0-.37,0,.23.23,0,0,0,0,.35A.25.25,0,0,0,51,74.78Zm-3.48,3a.26.26,0,0,0,0-.39.27.27,0,0,0-.3.44A.24.24,0,0,0,47.51,77.82Zm13.9,1a.23.23,0,0,0,0,.35.23.23,0,0,0,.37,0,.23.23,0,0,0,0-.35A.23.23,0,0,0,61.41,78.78ZM47.17,74.41a.24.24,0,0,0-.06-.36.27.27,0,0,0-.32.42C46.92,74.58,47.05,74.55,47.17,74.41Zm7.06-1.07a.24.24,0,0,0,.05.34.26.26,0,1,0,.32-.42C54.47,73.16,54.35,73.2,54.23,73.34ZM43.47,75.6a.24.24,0,0,0,0-.36.23.23,0,0,0-.37,0,.23.23,0,0,0,0,.35A.25.25,0,0,0,43.47,75.6Zm9.78-3.11c-.09,0-.21-.12-.27,0s-.22.25-.08.4a.24.24,0,0,0,.38,0A.27.27,0,0,0,53.25,72.49ZM42.63,79.77a.25.25,0,0,0-.37,0c-.09.1-.13.25,0,.34a.38.38,0,0,0,.42-.06C42.78,80,42.71,79.86,42.63,79.77Z"/><path class="cls-14" d="M40.54,73.61a1.53,1.53,0,0,1,.88-.52,14.23,14.23,0,0,1,1.95-.24c2.19-.27,4.37-.62,6.57-.8l1.61-.1c.06,0,.15,0,.16,0s-.06.12-.14.13h-.16c-2.1.1-4.19.39-6.28.66-1.06.14-2.12.25-3.18.38a3.09,3.09,0,0,0-.53.09,1,1,0,0,0-1,1.21,15.12,15.12,0,0,0,.29,2A15.85,15.85,0,0,1,41,79.79.93.93,0,0,1,41,80a.11.11,0,0,1-.13.08c-.08,0-.07-.07-.06-.12a22.23,22.23,0,0,0-.48-4.67,3.59,3.59,0,0,1,0-1.18A1.73,1.73,0,0,1,40.54,73.61Z"/><path class="cls-14" d="M41.5,80.93a11.34,11.34,0,0,1,2.83-.43c2.43-.07,4.83-.36,7.24-.6.68-.07,1.37-.1,2.06-.14s.86-.2.92-.91a5.31,5.31,0,0,0-.2-1.43,5.69,5.69,0,0,1-.21-1.3.75.75,0,0,1,0-.21.12.12,0,0,1,.14-.09c.07,0,0,.09,0,.13a3.83,3.83,0,0,0,.08.83s0,.13.08.15h0s0,.06,0,.07h0c-.06.15,0,.28,0,.41.07.36.13.72.2,1.08-.06.11,0,.22,0,.33a3.43,3.43,0,0,1-.06.34.85.85,0,0,1-.57.69,1.85,1.85,0,0,1-.66.13,39.82,39.82,0,0,0-4.87.41c-1.43.16-2.86.21-4.29.29a14.4,14.4,0,0,0-2.86.41C41.41,81,41.49,81,41.5,80.93Z"/><path class="cls-13" d="M46,75.36A.26.26,0,1,1,46,75,.25.25,0,0,1,46,75.36Z"/><path class="cls-13" d="M50.09,78.92a.25.25,0,0,1,0,.38.24.24,0,0,1-.35,0,.25.25,0,0,1,0-.38A.25.25,0,0,1,50.09,78.92Z"/><path class="cls-13" d="M58.81,75.49a.26.26,0,0,1,0,.39.25.25,0,0,1-.38,0,.25.25,0,0,1,0-.36A.26.26,0,0,1,58.81,75.49Z"/><path class="cls-13" d="M58.8,79.33a.25.25,0,0,1,0-.38.23.23,0,0,1,.35,0,.24.24,0,0,1,0,.37A.26.26,0,0,1,58.8,79.33Z"/><path class="cls-13" d="M64.92,72.48a.25.25,0,0,1,0,.39.23.23,0,0,1-.36,0,.24.24,0,0,1,0-.38A.23.23,0,0,1,64.92,72.48Z"/><path class="cls-13" d="M64.13,77.25c-.12.13-.25.17-.38.06a.27.27,0,0,1,.32-.43A.25.25,0,0,1,64.13,77.25Z"/><path class="cls-13" d="M46.2,77.1a.25.25,0,0,1-.37,0,.24.24,0,0,1,0-.36.26.26,0,1,1,.41.33Z"/><path class="cls-13" d="M53.66,75.93a.25.25,0,0,1,0,.38.24.24,0,0,1-.35,0,.25.25,0,0,1,0-.38A.25.25,0,0,1,53.66,75.93Z"/><path class="cls-13" d="M47.67,79.25a.23.23,0,0,1,0,.35.25.25,0,1,1,0-.35Z"/><path class="cls-13" d="M48.22,76.45c.12-.13.25-.16.38,0a.24.24,0,0,1,0,.35.25.25,0,0,1-.37.06A.25.25,0,0,1,48.22,76.45Z"/><path class="cls-13" d="M58.64,73.77a.26.26,0,0,1-.33.41.26.26,0,0,1,.33-.41Z"/><path class="cls-13" d="M35.68,74.61a.25.25,0,0,1-.38,0,.25.25,0,0,1,0-.36.24.24,0,0,1,.37-.05A.24.24,0,0,1,35.68,74.61Z"/><path class="cls-13" d="M34.69,77.41a.25.25,0,0,1-.37,0,.24.24,0,0,1,0-.37.23.23,0,0,1,.35-.06A.25.25,0,0,1,34.69,77.41Z"/><path class="cls-13" d="M63.18,71.75a.26.26,0,0,1,.36,0,.24.24,0,0,1,.05.38.25.25,0,0,1-.38,0A.27.27,0,0,1,63.18,71.75Z"/><path class="cls-13" d="M39.38,76.88a.27.27,0,0,1,.35-.41.25.25,0,0,1,0,.36A.26.26,0,0,1,39.38,76.88Z"/><path class="cls-13" d="M65.08,74.15a.27.27,0,1,1-.33.43.25.25,0,0,1,0-.36A.26.26,0,0,1,65.08,74.15Z"/><path class="cls-13" d="M39.91,78.17a.24.24,0,0,1,.05.36.26.26,0,1,1-.42-.3A.25.25,0,0,1,39.91,78.17Z"/><path class="cls-13" d="M60.33,78.4c-.13.1-.26.13-.38,0A.24.24,0,0,1,60,78a.24.24,0,0,1,.36,0A.26.26,0,0,1,60.33,78.4Z"/><path class="cls-13" d="M54.5,76.93a.94.94,0,0,1,.06-.15c.08-.15.18-.24.36-.15A.22.22,0,0,1,55,77a.26.26,0,0,1-.4.12s-.06-.09-.13-.08h0c.05,0,0,0,0-.07Z"/><path class="cls-13" d="M58.93,77.24a.26.26,0,0,1,0,.38.26.26,0,0,1-.4-.33A.26.26,0,0,1,58.93,77.24Z"/><path class="cls-13" d="M57.75,78.28a.24.24,0,0,1,0,.36.26.26,0,1,1-.39-.34A.25.25,0,0,1,57.75,78.28Z"/><path class="cls-13" d="M53.42,78.07a.23.23,0,0,1,0-.35.25.25,0,0,1,.4,0,.25.25,0,0,1,0,.36A.24.24,0,0,1,53.42,78.07Z"/><path class="cls-13" d="M29.7,77.61a.25.25,0,0,1,0,.39.25.25,0,0,1-.36,0,.26.26,0,0,1,0-.39A.25.25,0,0,1,29.7,77.61Z"/><path class="cls-13" d="M31.13,80.07a.25.25,0,0,1,0,.37.24.24,0,0,1-.37,0,.25.25,0,0,1,0-.38A.24.24,0,0,1,31.13,80.07Z"/><path class="cls-13" d="M38.2,74a.25.25,0,0,1,0,.38.24.24,0,0,1-.36,0,.25.25,0,0,1,0-.38A.25.25,0,0,1,38.2,74Z"/><path class="cls-13" d="M37,75a.27.27,0,0,1-.35.4.24.24,0,0,1,0-.36A.25.25,0,0,1,37,75Z"/><path class="cls-13" d="M56.25,75.75a.27.27,0,0,1-.33.42.24.24,0,0,1,0-.37A.24.24,0,0,1,56.25,75.75Z"/><path class="cls-13" d="M53.48,74.19a.25.25,0,0,1,0,.38.24.24,0,0,1-.36.05.25.25,0,0,1,0-.38A.24.24,0,0,1,53.48,74.19Z"/><path class="cls-13" d="M61.59,77.41a.24.24,0,0,1-.37,0,.23.23,0,0,1,0-.35.25.25,0,1,1,.41.3Z"/><path class="cls-13" d="M35.52,76a.25.25,0,0,1,.36-.06.24.24,0,0,1,0,.38.24.24,0,0,1-.36,0A.25.25,0,0,1,35.52,76Z"/><path class="cls-13" d="M52.27,75.56a.26.26,0,0,1-.39,0,.23.23,0,0,1,0-.36.24.24,0,0,1,.36,0C52.38,75.29,52.35,75.42,52.27,75.56Z"/><path class="cls-13" d="M64.29,78.56a.24.24,0,0,1,0,.38A.25.25,0,0,1,64,79a.24.24,0,0,1,0-.36A.25.25,0,0,1,64.29,78.56Z"/><path class="cls-13" d="M63.8,73.41a.24.24,0,0,1,0,.37.25.25,0,0,1-.38,0,.27.27,0,0,1,.34-.42Z"/><path class="cls-13" d="M34.52,75.74a.25.25,0,0,1-.38,0,.23.23,0,0,1,0-.36.24.24,0,0,1,.38,0A.25.25,0,0,1,34.52,75.74Z"/><path class="cls-13" d="M62.6,74.7a.26.26,0,0,1-.37,0,.27.27,0,0,1,.33-.42A.26.26,0,0,1,62.6,74.7Z"/><path class="cls-13" d="M52.47,77.26a.27.27,0,0,1-.37,0,.24.24,0,0,1,0-.37.25.25,0,0,1,.38,0C52.57,77,52.54,77.13,52.47,77.26Z"/><path class="cls-13" d="M36.16,79.4a.26.26,0,0,1,.06.38.26.26,0,1,1-.42-.31A.25.25,0,0,1,36.16,79.4Z"/><path class="cls-13" d="M44.75,76.37a.25.25,0,0,1-.36,0,.27.27,0,0,1,.34-.41C44.87,76.1,44.85,76.23,44.75,76.37Z"/><path class="cls-13" d="M59.39,72.89c.11-.11.24-.17.38-.06a.24.24,0,0,1,0,.37.24.24,0,0,1-.37,0A.26.26,0,0,1,59.39,72.89Z"/><path class="cls-13" d="M31.36,81.75a.27.27,0,0,1-.34.41.24.24,0,0,1,0-.38A.24.24,0,0,1,31.36,81.75Z"/><path class="cls-13" d="M36.81,76.74a.25.25,0,0,1,.38,0,.25.25,0,0,1,0,.36.26.26,0,1,1-.41-.32Z"/><path class="cls-13" d="M37.38,78.39a.26.26,0,0,1,0,.36.24.24,0,0,1-.37.06.23.23,0,0,1,0-.35A.26.26,0,0,1,37.38,78.39Z"/><path class="cls-13" d="M56.21,79.2a.25.25,0,0,1,.38,0,.27.27,0,0,1-.34.42A.26.26,0,0,1,56.21,79.2Z"/><path class="cls-13" d="M29.91,79.33a.24.24,0,0,1,0,.37.26.26,0,1,1,0-.37Z"/><path class="cls-13" d="M49.59,74.1a.24.24,0,0,1-.36.06.24.24,0,0,1,0-.38.24.24,0,0,1,.37,0A.25.25,0,0,1,49.59,74.1Z"/><path class="cls-13" d="M33.1,74.57a.26.26,0,0,1,0,.4.25.25,0,0,1-.38,0,.23.23,0,0,1,0-.35A.24.24,0,0,1,33.1,74.57Z"/><path class="cls-13" d="M56.39,77.86a.24.24,0,0,1-.37,0,.27.27,0,0,1,.34-.41A.24.24,0,0,1,56.39,77.86Z"/><path class="cls-13" d="M62.92,77.81c.11.12.15.24,0,.36a.24.24,0,0,1-.37.06.23.23,0,0,1-.05-.35A.26.26,0,0,1,62.92,77.81Z"/><path class="cls-13" d="M65.31,76.25c-.11.1-.23.15-.36,0a.27.27,0,1,1,.36,0Z"/><path class="cls-13" d="M65.07,77.73c.12-.14.25-.17.37-.08a.25.25,0,0,1,.06.38.25.25,0,0,1-.36.06A.24.24,0,0,1,65.07,77.73Z"/><path class="cls-13" d="M31.06,78.71a.26.26,0,0,1-.37,0,.24.24,0,0,1,0-.36.25.25,0,0,1,.38,0A.26.26,0,0,1,31.06,78.71Z"/><path class="cls-13" d="M33.36,76.28a.27.27,0,0,1,0,.39.26.26,0,1,1-.38-.34A.25.25,0,0,1,33.36,76.28Z"/><path class="cls-13" d="M30.16,81.43c-.15.18-.27.21-.4.12a.25.25,0,0,1-.05-.38.25.25,0,0,1,.38,0C30.2,81.23,30.22,81.36,30.16,81.43Z"/><path class="cls-13" d="M32.52,80.86a.23.23,0,0,1,0,.35.26.26,0,1,1-.4-.32A.25.25,0,0,1,32.52,80.86Z"/><path class="cls-13" d="M33.7,80.13c-.14.12-.27.16-.4.05a.24.24,0,0,1,0-.36.23.23,0,0,1,.37,0A.25.25,0,0,1,33.7,80.13Z"/><path class="cls-13" d="M34.86,78.75a.25.25,0,0,1,0,.36.24.24,0,0,1-.37,0,.25.25,0,0,1,0-.36A.26.26,0,0,1,34.86,78.75Z"/><path class="cls-13" d="M35.72,77.7a.24.24,0,0,1,.36,0,.25.25,0,0,1,0,.38.23.23,0,0,1-.35,0A.24.24,0,0,1,35.72,77.7Z"/><path class="cls-13" d="M44.19,74.36c.11-.12.23-.16.36-.06a.23.23,0,0,1,0,.37.24.24,0,0,1-.35.06A.24.24,0,0,1,44.19,74.36Z"/><path class="cls-13" d="M42.47,78.35A.26.26,0,1,1,42.1,78a.23.23,0,0,1,.36,0A.25.25,0,0,1,42.47,78.35Z"/><path class="cls-13" d="M48.44,74.67a.25.25,0,0,1,0,.38.25.25,0,1,1-.38-.34A.25.25,0,0,1,48.44,74.67Z"/><path class="cls-13" d="M45.13,79.85a.3.3,0,0,1-.38,0,.23.23,0,0,1,0-.35.24.24,0,0,1,.37-.06A.26.26,0,0,1,45.13,79.85Z"/><path class="cls-13" d="M52.1,73.88a.25.25,0,0,1-.36,0,.24.24,0,0,1,0-.38.23.23,0,0,1,.37,0A.25.25,0,0,1,52.1,73.88Z"/><path class="cls-13" d="M62.75,76a.27.27,0,1,1-.33.42.24.24,0,0,1,0-.36A.25.25,0,0,1,62.75,76Z"/><path class="cls-13" d="M55.7,74.06c.12-.12.25-.16.38,0a.27.27,0,0,1-.33.42A.25.25,0,0,1,55.7,74.06Z"/><path class="cls-13" d="M54.75,78.82c0-.11-.06-.22,0-.33s.33-.18.46,0,0,.28-.12.37S54.85,78.9,54.75,78.82Z"/><path class="cls-13" d="M60,74.88a.25.25,0,0,1-.38,0,.26.26,0,0,1,.33-.41A.24.24,0,0,1,60,74.88Z"/><path class="cls-13" d="M62.4,72.64a.26.26,0,0,1,0,.38.23.23,0,0,1-.35,0,.23.23,0,0,1,0-.37A.25.25,0,0,1,62.4,72.64Z"/><path class="cls-13" d="M59.75,76.26c.13-.11.26-.15.39,0a.27.27,0,0,1-.36.39A.25.25,0,0,1,59.75,76.26Z"/><path class="cls-13" d="M29.6,76.31c-.12.11-.25.16-.39,0a.23.23,0,0,1,0-.35.24.24,0,0,1,.37,0A.26.26,0,0,1,29.6,76.31Z"/><path class="cls-13" d="M30.58,74.88a.27.27,0,0,1-.3.44.24.24,0,0,1-.05-.36A.24.24,0,0,1,30.58,74.88Z"/><path class="cls-13" d="M30.89,77a.25.25,0,0,1-.38,0,.27.27,0,1,1,.38,0Z"/><path class="cls-13" d="M33.5,81.48a.24.24,0,0,1,.37,0,.25.25,0,0,1,0,.38.24.24,0,0,1-.36,0A.25.25,0,0,1,33.5,81.48Z"/><path class="cls-13" d="M47.29,75.73a.25.25,0,0,1,0,.39.22.22,0,0,1-.35,0,.24.24,0,0,1,0-.37A.24.24,0,0,1,47.29,75.73Z"/><path class="cls-13" d="M42.25,76.25a.26.26,0,0,1,0,.37.24.24,0,0,1-.37.06.23.23,0,0,1,0-.36A.26.26,0,0,1,42.25,76.25Z"/><path class="cls-13" d="M43.65,77.33c-.12.12-.24.16-.38,0a.24.24,0,0,1,0-.36.25.25,0,0,1,.36-.07A.26.26,0,0,1,43.65,77.33Z"/><path class="cls-13" d="M61.48,75.67a.24.24,0,0,1-.38,0,.24.24,0,0,1,0-.36.25.25,0,0,1,.38,0A.24.24,0,0,1,61.48,75.67Z"/><path class="cls-13" d="M64,75.52a.25.25,0,0,1-.38,0,.26.26,0,0,1,.34-.4A.25.25,0,0,1,64,75.52Z"/><path class="cls-13" d="M54.42,75a.25.25,0,0,1,.36,0,.24.24,0,0,1,0,.38.23.23,0,0,1-.35,0A.25.25,0,0,1,54.42,75Z"/><path class="cls-13" d="M61,71.87a.25.25,0,0,1,0,.37.25.25,0,0,1-.38,0,.23.23,0,0,1,0-.35A.25.25,0,0,1,61,71.87Z"/><path class="cls-13" d="M33.53,78a.26.26,0,0,1,0,.36.26.26,0,1,1-.41-.31A.25.25,0,0,1,33.53,78Z"/><path class="cls-13" d="M58,72.09a.25.25,0,0,1,.36,0,.27.27,0,1,1-.35.4C57.92,72.34,58,72.22,58,72.09Z"/><path class="cls-13" d="M31.6,75.72c.14-.13.28-.15.4,0A.23.23,0,0,1,32,76a.23.23,0,0,1-.37,0A.26.26,0,0,1,31.6,75.72Z"/><path class="cls-13" d="M55.82,72.3a.25.25,0,0,1,0,.37.24.24,0,0,1-.37,0,.23.23,0,0,1,0-.35A.25.25,0,0,1,55.82,72.3Z"/><path class="cls-13" d="M51.11,76.15a.25.25,0,0,1,0,.36.26.26,0,1,1-.42-.29A.25.25,0,0,1,51.11,76.15Z"/><path class="cls-13" d="M31.79,77.38a.24.24,0,0,1,.35,0,.26.26,0,0,1-.33.41A.25.25,0,0,1,31.79,77.38Z"/><path class="cls-13" d="M38.36,79.23a.26.26,0,0,1,.4.32.24.24,0,0,1-.38.06A.26.26,0,0,1,38.36,79.23Z"/><path class="cls-13" d="M49.35,75.46c.11-.1.22-.15.36,0a.24.24,0,0,1,0,.37.24.24,0,0,1-.36,0A.25.25,0,0,1,49.35,75.46Z"/><path class="cls-13" d="M36.06,81.5a.24.24,0,0,1,0-.37.24.24,0,0,1,.36,0,.25.25,0,0,1,0,.38A.23.23,0,0,1,36.06,81.5Z"/><path class="cls-13" d="M46.31,78.84a.26.26,0,0,1-.39,0,.25.25,0,0,1,0-.36.24.24,0,0,1,.36,0A.25.25,0,0,1,46.31,78.84Z"/><path class="cls-13" d="M57.22,73.47a.24.24,0,0,1-.36,0,.25.25,0,0,1,0-.38.23.23,0,0,1,.36,0A.24.24,0,0,1,57.22,73.47Z"/><path class="cls-13" d="M44.92,77.69a.25.25,0,0,1,0,.38.23.23,0,0,1-.35,0,.23.23,0,0,1,0-.37A.25.25,0,0,1,44.92,77.69Z"/><path class="cls-13" d="M52.64,79a.25.25,0,0,1-.39,0,.27.27,0,1,1,.39,0Z"/><path class="cls-13" d="M48.74,78.51a.23.23,0,0,1-.36,0,.23.23,0,0,1,0-.37.24.24,0,0,1,.36,0A.24.24,0,0,1,48.74,78.51Z"/><path class="cls-13" d="M61.3,74a.24.24,0,0,1-.36,0,.25.25,0,0,1,0-.38.23.23,0,0,1,.35,0A.25.25,0,0,1,61.3,74Z"/><path class="cls-13" d="M51.25,78.27a.23.23,0,0,1-.35,0,.24.24,0,0,1,0-.38.25.25,0,1,1,.38.33Z"/><path class="cls-13" d="M39.73,80a.24.24,0,0,1,.37,0,.23.23,0,0,1,0,.35.23.23,0,0,1-.35.06A.25.25,0,0,1,39.73,80Z"/><path class="cls-13" d="M57.39,75.14a.24.24,0,0,1-.36,0,.23.23,0,0,1,0-.35.23.23,0,0,1,.35-.07C57.49,74.85,57.51,75,57.39,75.14Z"/><path class="cls-13" d="M43.74,79.09a.24.24,0,0,1-.37,0,.24.24,0,0,1,0-.38.23.23,0,0,1,.35,0A.23.23,0,0,1,43.74,79.09Z"/><path class="cls-13" d="M49.92,77.12a.25.25,0,0,1,0,.36.23.23,0,0,1-.37,0,.24.24,0,0,1,0-.37A.25.25,0,0,1,49.92,77.12Z"/><path class="cls-13" d="M37.57,80.56a.23.23,0,0,1-.36,0,.26.26,0,0,1,.34-.4C37.68,80.3,37.68,80.42,37.57,80.56Z"/><path class="cls-13" d="M39.18,74.84a.26.26,0,0,1,.37-.06.24.24,0,0,1,.05.37.23.23,0,0,1-.35.06A.25.25,0,0,1,39.18,74.84Z"/><path class="cls-13" d="M39,80.87a.26.26,0,0,1,0,.38.26.26,0,0,1-.39-.33A.26.26,0,0,1,39,80.87Z"/><path class="cls-13" d="M38.23,77.52c.11-.14.24-.18.38-.07a.25.25,0,0,1,0,.36.24.24,0,0,1-.38,0A.23.23,0,0,1,38.23,77.52Z"/><path class="cls-13" d="M57.58,76.85a.23.23,0,0,1-.34,0,.24.24,0,0,1-.05-.37.24.24,0,0,1,.38,0A.25.25,0,0,1,57.58,76.85Z"/><path class="cls-13" d="M35,80.91a.25.25,0,1,1-.38-.32.25.25,0,1,1,.38.32Z"/><path class="cls-13" d="M42.12,75a.25.25,0,1,1-.4-.31.22.22,0,0,1,.35-.06A.23.23,0,0,1,42.12,75Z"/><path class="cls-13" d="M38.46,76.09a.24.24,0,0,1-.36,0,.24.24,0,0,1,0-.37.24.24,0,0,1,.36,0A.24.24,0,0,1,38.46,76.09Z"/><path class="cls-13" d="M32.37,79.41a.23.23,0,0,1-.35.06A.24.24,0,0,1,32,79.1a.25.25,0,0,1,.38,0A.23.23,0,0,1,32.37,79.41Z"/><path class="cls-13" d="M51,74.78a.25.25,0,0,1-.38,0,.23.23,0,0,1,0-.35.24.24,0,0,1,.37,0A.23.23,0,0,1,51,74.78Z"/><path class="cls-13" d="M47.51,77.82a.24.24,0,0,1-.34.05.27.27,0,0,1,.3-.44A.26.26,0,0,1,47.51,77.82Z"/><path class="cls-13" d="M61.41,78.78a.23.23,0,0,1,.37,0,.23.23,0,0,1,0,.35.23.23,0,0,1-.37,0A.23.23,0,0,1,61.41,78.78Z"/><path class="cls-13" d="M47.17,74.41c-.12.14-.25.17-.38.06a.27.27,0,0,1,.32-.42A.24.24,0,0,1,47.17,74.41Z"/><path class="cls-13" d="M54.23,73.34c.12-.14.24-.18.37-.08a.26.26,0,1,1-.37.08Z"/><path class="cls-13" d="M43.47,75.6a.25.25,0,0,1-.38,0,.23.23,0,0,1,0-.35.23.23,0,0,1,.37,0A.24.24,0,0,1,43.47,75.6Z"/><path class="cls-13" d="M41.5,80.93c0,.06-.09.08-.06.16a.26.26,0,0,1-.32,0,.25.25,0,0,1-.08-.27.27.27,0,0,1,.3-.2C41.53,80.64,41.53,80.78,41.5,80.93Z"/><path class="cls-13" d="M53.25,72.49a.27.27,0,0,1,0,.38.24.24,0,0,1-.38,0c-.14-.15,0-.28.08-.4S53.16,72.47,53.25,72.49Z"/><path class="cls-13" d="M42.63,79.77c.08.09.15.22,0,.3a.38.38,0,0,1-.42.06c-.12-.09-.08-.24,0-.34A.25.25,0,0,1,42.63,79.77Z"/><path class="cls-15" d="M54.5,76.93s.06,0,0,.07S54.45,77,54.5,76.93Z"/><line class="cls-16" x1="61.27" y1="55.78" x2="66.2" y2="61.53"/><line class="cls-16" x1="66.2" y1="55.78" x2="61.27" y2="61.53"/><line class="cls-16" x1="28.84" y1="55.78" x2="33.78" y2="61.53"/><line class="cls-16" x1="33.78" y1="55.78" x2="28.84" y2="61.53"/></svg>