<svg id="Layer_1" data-name="Layer 1" xmlns="http://www.w3.org/2000/svg" xmlns:xlink="http://www.w3.org/1999/xlink" viewBox="0 0 176 101.96"><defs><style>.cls-1,.cls-2,.cls-31{fill:none;}.cls-1,.cls-2,.cls-20,.cls-21,.cls-25{stroke:#1d1d1b;}.cls-1{stroke-miterlimit:10;}.cls-2,.cls-20,.cls-21,.cls-25,.cls-27,.cls-30{stroke-linecap:round;stroke-linejoin:round;}.cls-3{clip-path:url(#clip-path);}.cls-4{fill:#e31014;}.cls-5{fill:#3258a4;}.cls-6{fill:#fcea1b;}.cls-7{fill:#702381;}.cls-8{fill:#f28a1a;}.cls-9{fill:#0a8137;}.cls-10{fill:#ef7c26;}.cls-11{fill:#dadc30;}.cls-12{fill:#217b34;}.cls-13{fill:#3b4194;}.cls-14{fill:#5a2985;}.cls-15{fill:#e63913;}.cls-16{fill:#f19507;}.cls-17{fill:#016794;}.cls-18{fill:#00774b;}.cls-19{clip-path:url(#clip-path-2);}.cls-20{fill:#7b6a58;}.cls-21{fill:#cbbba0;}.cls-22{fill:#1d1d1b;}.cls-23{fill:#e06ba3;}.cls-24,.cls-25{fill:#fff;}.cls-26{clip-path:url(#clip-path-3);}.cls-27,.cls-30{fill:#ca9e67;stroke-width:7px;}.cls-27{stroke:#cbbba0;}.cls-28{fill:#a48a7b;}.cls-29{clip-path:url(#clip-path-4);}.cls-30{stroke:#7b6a58;}</style><clipPath id="clip-path"><circle class="cls-1" cx="47.59" cy="48.18" r="46.31"/></clipPath><clipPath id="clip-path-2"><circle class="cls-1" cx="128.62" cy="48.18" r="46.31"/></clipPath><clipPath id="clip-path-3"><path class="cls-2" d="M128.35,86a46.79,46.79,0,0,0,21.57-4.5c4.63-2.26,10-5.25,11.61-10.8a15,15,0,0,0-.32-8.43c.17-1.48,4.12-15.84-10.58-28a32.5,32.5,0,0,0-22.2-7.56h-.08a32.51,32.51,0,0,0-22.2,7.56c-14.7,12.17-10.75,26.53-10.58,28a15.05,15.05,0,0,0-.32,8.43c1.61,5.55,7,8.54,11.62,10.8A46.75,46.75,0,0,0,128.43,86Z"/></clipPath><clipPath id="clip-path-4"><path class="cls-2" d="M47.33,86a46.75,46.75,0,0,0,21.56-4.5c4.64-2.26,10-5.25,11.62-10.8a15.05,15.05,0,0,0-.32-8.43c.17-1.48,4.12-15.84-10.58-28a32.5,32.5,0,0,0-22.2-7.56h-.08a32.5,32.5,0,0,0-22.2,7.56c-14.7,12.17-10.75,26.53-10.58,28a15.05,15.05,0,0,0-.32,8.43c1.61,5.55,7,8.54,11.62,10.8A46.75,46.75,0,0,0,47.41,86Z"/></clipPath></defs><title>V2Artboard 31 copy 4</title><g class="cls-3"><path class="cls-4" d="M93.67,79.6c0,4.8,0,9.6,0,14.41,0,.73-.17.9-.9.9q-45.59,0-91.15,0c-.74,0-.91-.17-.91-.9,0-4.81,0-9.61,0-14.41l.3-.24c.74,0,1.47,0,2.21,0H91.17l2.2,0Z"/><path class="cls-5" d="M.75,32.85V17.56H93.67V33.14H85.15a1.46,1.46,0,0,0-1.79-.05c-.64,0-1.27,0-1.91,0H3c-.63,0-1.27,0-1.91,0Z"/><path class="cls-6" d="M.75,64V48.72H93.67V64h-.3c-.39,0-.78,0-1.17,0H3.11c-.39,0-.78,0-1.18,0h-.3Z"/><path class="cls-7" d="M.75,17c0-4.7,0-9.4,0-14.1,0-.69.1-.92.88-.92Q47.2,2,92.81,2c.78,0,.88.23.88.92,0,4.7,0,9.4,0,14.1Z"/><path class="cls-8" d="M.75,64l.88,0c.1.14.2.15.3,0,.4,0,.79,0,1.18,0H92.2c.39,0,.78,0,1.17,0l.3.31V79H.75Z"/><path class="cls-9" d="M1.06,33.07c.64,0,1.28,0,1.91,0H81.45c.64,0,1.27,0,1.91,0a1.29,1.29,0,0,0,1.79.05h8.52v15H.75v-15Z"/><path class="cls-10" d="M.75,79H93.67v.29l-.3.06-2.2,0H3.26c-.74,0-1.47,0-2.21,0l-.3-.06Z"/><ellipse class="cls-11" cx="47.21" cy="48.58" rx="65.7" ry="0.21"/><ellipse class="cls-12" cx="47.21" cy="48.28" rx="65.7" ry="0.21"/><ellipse class="cls-13" cx="47.21" cy="17.41" rx="65.7" ry="0.21"/><ellipse class="cls-14" cx="47.21" cy="17.12" rx="65.7" ry="0.21"/><path class="cls-15" d="M93.37,79.36l.3-.06v.3Z"/><path class="cls-15" d="M.75,79.3l.3.06-.3.24Z"/><path class="cls-16" d="M93.67,64.31l-.3-.31h.3Z"/><path class="cls-17" d="M1.06,33.07l-.31.07v-.29Z"/><path class="cls-18" d="M85.15,33.13a1.29,1.29,0,0,1-1.79-.05A1.46,1.46,0,0,1,85.15,33.13Z"/><path class="cls-16" d="M1.93,64c-.1.14-.2.13-.3,0Z"/></g><circle class="cls-1" cx="47.59" cy="48.18" r="46.31"/><g class="cls-19"><path class="cls-4" d="M174.69,79.6c0,4.8,0,9.6,0,14.41,0,.73-.17.9-.9.9q-45.57,0-91.15,0c-.74,0-.91-.17-.9-.9,0-4.81,0-9.61,0-14.41l.29-.24c.74,0,1.47,0,2.21,0h87.91l2.2,0Z"/><path class="cls-5" d="M81.78,32.85V17.56h92.91V33.14h-8.52a1.46,1.46,0,0,0-1.79-.05c-.64,0-1.27,0-1.91,0H84c-.63,0-1.27,0-1.9,0Z"/><path class="cls-6" d="M81.78,64V48.72h92.91V64h-.29c-.4,0-.79,0-1.18,0H84.13c-.39,0-.78,0-1.18,0h-.29Z"/><path class="cls-7" d="M81.78,17c0-4.7,0-9.4,0-14.1,0-.69.1-.92.88-.92q45.6,0,91.19,0c.78,0,.88.23.88.92,0,4.7,0,9.4,0,14.1Z"/><path class="cls-8" d="M81.78,64l.88,0c.09.14.19.15.29,0,.4,0,.79,0,1.18,0h89.09c.39,0,.78,0,1.18,0l.29.31V79H81.78Z"/><path class="cls-9" d="M82.09,33.07c.63,0,1.27,0,1.9,0h78.48c.64,0,1.27,0,1.91,0a1.29,1.29,0,0,0,1.79.05h8.52v15H81.78v-15Z"/><path class="cls-10" d="M81.78,79h92.91v.29l-.3.06-2.2,0H84.28c-.74,0-1.47,0-2.21,0l-.29-.06Z"/><ellipse class="cls-11" cx="128.23" cy="48.58" rx="65.7" ry="0.21"/><ellipse class="cls-12" cx="128.23" cy="48.28" rx="65.7" ry="0.21"/><ellipse class="cls-13" cx="128.23" cy="17.41" rx="65.7" ry="0.21"/><ellipse class="cls-14" cx="128.23" cy="17.12" rx="65.7" ry="0.21"/><path class="cls-15" d="M174.39,79.36l.3-.06v.3Z"/><path class="cls-15" d="M81.78,79.3l.29.06-.29.24Z"/><path class="cls-16" d="M174.69,64.31,174.4,64h.29Z"/><path class="cls-17" d="M82.09,33.07l-.31.07v-.29Z"/><path class="cls-18" d="M166.17,33.13a1.29,1.29,0,0,1-1.79-.05A1.46,1.46,0,0,1,166.17,33.13Z"/><path class="cls-16" d="M83,64c-.1.14-.2.13-.29,0Z"/></g><circle class="cls-1" cx="128.62" cy="48.18" r="46.31"/><path class="cls-20" d="M94.69,53.16C88.17,32.23,93.5,21.81,93.5,21.81s16.15.23,22,8.19"/><path class="cls-20" d="M161.65,53.16c6.52-20.93,1.19-31.35,1.19-31.35s-16.15.23-22,8.19"/><path class="cls-21" d="M99.11,45.26c-3.24-10.39-.6-15.56-.6-15.56s8,.12,10.9,4.07"/><path class="cls-21" d="M157.23,45.26c3.24-10.39.6-15.56.6-15.56s-8,.12-10.9,4.07"/><path class="cls-20" d="M128.35,86a46.79,46.79,0,0,0,21.57-4.5c4.63-2.26,10-5.25,11.61-10.8a15,15,0,0,0-.32-8.43c.17-1.48,4.12-15.84-10.58-28a32.5,32.5,0,0,0-22.2-7.56h-.08a32.51,32.51,0,0,0-22.2,7.56c-14.7,12.17-10.75,26.53-10.58,28a15.05,15.05,0,0,0-.32,8.43c1.61,5.55,7,8.54,11.62,10.8A46.75,46.75,0,0,0,128.43,86Z"/><ellipse class="cls-22" cx="112.26" cy="59.94" rx="5.03" ry="5.19"/><ellipse class="cls-23" cx="108.19" cy="67.27" rx="3.16" ry="1.78"/><ellipse class="cls-22" cx="144.56" cy="59.94" rx="5.03" ry="5.19"/><ellipse class="cls-23" cx="148.63" cy="67.27" rx="3.16" ry="1.78"/><path class="cls-22" d="M131.94,69.76c0,1.15-3.59,2.78-3.59,2.78s-3.58-1.63-3.58-2.78,1.6-2.09,3.58-2.09S131.94,68.6,131.94,69.76Z"/><ellipse class="cls-24" cx="110.3" cy="57.85" rx="0.89" ry="0.92"/><line class="cls-25" x1="155.5" y1="65.69" x2="169.02" y2="64.57"/><line class="cls-25" x1="155.5" y1="69.44" x2="169.02" y2="70.56"/><line class="cls-2" x1="155.46" y1="67.56" x2="164.2" y2="67.56"/><ellipse class="cls-24" cx="142.47" cy="57.85" rx="0.89" ry="0.92"/><line class="cls-25" x1="101.9" y1="65.69" x2="88.38" y2="64.57"/><line class="cls-25" x1="101.9" y1="69.44" x2="88.38" y2="70.56"/><line class="cls-2" x1="101.94" y1="67.56" x2="93.2" y2="67.56"/><path class="cls-2" d="M128.35,72.15s-1,4.13-4.84,4.64"/><path class="cls-2" d="M128.35,72.15s1,4.13,4.85,4.64"/><g class="cls-26"><line class="cls-27" x1="128.43" y1="27.66" x2="128.43" y2="44"/><line class="cls-27" x1="119.37" y1="23.57" x2="119.37" y2="39.91"/><line class="cls-27" x1="137.41" y1="23.57" x2="137.41" y2="39.91"/></g><path class="cls-2" d="M128.35,86a46.79,46.79,0,0,0,21.57-4.5c4.63-2.26,10-5.25,11.61-10.8a15,15,0,0,0-.32-8.43c.17-1.48,4.12-15.84-10.58-28a32.5,32.5,0,0,0-22.2-7.56h-.08a32.51,32.51,0,0,0-22.2,7.56c-14.7,12.17-10.75,26.53-10.58,28a15.05,15.05,0,0,0-.32,8.43c1.61,5.55,7,8.54,11.62,10.8A46.75,46.75,0,0,0,128.43,86Z"/><path class="cls-21" d="M13.67,53.16c-6.52-20.93-1.19-31.35-1.19-31.35s16.15.23,22,8.19"/><path class="cls-21" d="M80.62,53.16c6.53-20.93,1.2-31.35,1.2-31.35S65.67,22,59.86,30"/><path class="cls-20" d="M18.09,45.26c-3.24-10.39-.6-15.56-.6-15.56s8,.12,10.9,4.07"/><path class="cls-20" d="M76.21,45.26c3.24-10.39.59-15.56.59-15.56s-8,.12-10.9,4.07"/><path class="cls-21" d="M47.33,86a46.75,46.75,0,0,0,21.56-4.5c4.64-2.26,10-5.25,11.62-10.8a15.05,15.05,0,0,0-.32-8.43c.17-1.48,4.12-15.84-10.58-28a32.5,32.5,0,0,0-22.2-7.56h-.08a32.5,32.5,0,0,0-22.2,7.56c-14.7,12.17-10.75,26.53-10.58,28a15.05,15.05,0,0,0-.32,8.43c1.61,5.55,7,8.54,11.62,10.8A46.75,46.75,0,0,0,47.41,86Z"/><ellipse class="cls-22" cx="31.24" cy="59.94" rx="5.03" ry="5.19"/><ellipse class="cls-28" cx="27.17" cy="67.27" rx="3.16" ry="1.78"/><ellipse class="cls-22" cx="63.54" cy="59.94" rx="5.03" ry="5.19"/><ellipse class="cls-28" cx="67.61" cy="67.27" rx="3.16" ry="1.78"/><path class="cls-22" d="M50.91,69.76c0,1.15-3.58,2.78-3.58,2.78s-3.58-1.63-3.58-2.78,1.6-2.09,3.58-2.09S50.91,68.6,50.91,69.76Z"/><ellipse class="cls-24" cx="29.28" cy="57.85" rx="0.89" ry="0.92"/><line class="cls-25" x1="74.48" y1="65.69" x2="88" y2="64.57"/><line class="cls-25" x1="74.48" y1="69.44" x2="88" y2="70.56"/><line class="cls-2" x1="74.44" y1="67.56" x2="83.18" y2="67.56"/><ellipse class="cls-24" cx="61.45" cy="57.85" rx="0.89" ry="0.92"/><line class="cls-25" x1="20.88" y1="65.69" x2="7.36" y2="64.57"/><line class="cls-25" x1="20.88" y1="69.44" x2="7.36" y2="70.56"/><line class="cls-2" x1="20.92" y1="67.56" x2="12.18" y2="67.56"/><path class="cls-2" d="M47.33,72.15s-1,4.13-4.85,4.64"/><path class="cls-2" d="M47.33,72.15s1,4.13,4.85,4.64"/><g class="cls-29"><line class="cls-30" x1="47.41" y1="27.66" x2="47.41" y2="44"/><line class="cls-30" x1="38.35" y1="23.57" x2="38.35" y2="39.91"/><line class="cls-30" x1="56.39" y1="23.57" x2="56.39" y2="39.91"/></g><path class="cls-2" d="M47.33,86a46.75,46.75,0,0,0,21.56-4.5c4.64-2.26,10-5.25,11.62-10.8a15.05,15.05,0,0,0-.32-8.43c.17-1.48,4.12-15.84-10.58-28a32.5,32.5,0,0,0-22.2-7.56h-.08a32.5,32.5,0,0,0-22.2,7.56c-14.7,12.17-10.75,26.53-10.58,28a15.05,15.05,0,0,0-.32,8.43c1.61,5.55,7,8.54,11.62,10.8A46.75,46.75,0,0,0,47.41,86Z"/><rect class="cls-31" x="-0.51" y="0.17" width="176.34" height="101.79"/></svg>