<svg id="Layer_1" data-name="Layer 1" xmlns="http://www.w3.org/2000/svg" xmlns:xlink="http://www.w3.org/1999/xlink" viewBox="0 0 176 101.96"><defs><style>.cls-1,.cls-17,.cls-18{fill:none;}.cls-1,.cls-12,.cls-13,.cls-14,.cls-17,.cls-2,.cls-3,.cls-4,.cls-5,.cls-6{stroke:#1d1d1b;}.cls-1,.cls-12,.cls-13,.cls-14,.cls-2,.cls-3,.cls-5,.cls-6{stroke-linecap:round;stroke-linejoin:round;}.cls-2{fill:#c6c6c6;}.cls-3{fill:#f6ae8b;}.cls-4{fill:#706f6f;stroke-width:0.5px;}.cls-17,.cls-4{stroke-miterlimit:10;}.cls-5{fill:#f5d2a2;}.cls-6,.cls-8{fill:#e06ba3;}.cls-7{fill:#1d1d1b;}.cls-12,.cls-9{fill:#fff;}.cls-10{clip-path:url(#clip-path);}.cls-11{fill:#b17f4a;}.cls-13{fill:#fcf6c1;}.cls-14,.cls-16{fill:#7b6a58;}.cls-15{fill:#e7e2b1;}.cls-17{stroke-width:2px;}</style><clipPath id="clip-path"><path class="cls-1" d="M128.64,86a46.79,46.79,0,0,0,21.57-4.5c4.63-2.26,10-5.25,11.61-10.8a15.07,15.07,0,0,0-.31-8.43c.16-1.48,4.12-15.84-10.59-28a32.5,32.5,0,0,0-22.2-7.56h-.08a32.51,32.51,0,0,0-22.2,7.56c-14.7,12.17-10.74,26.53-10.58,28a15.05,15.05,0,0,0-.32,8.43c1.61,5.55,7,8.54,11.62,10.8A46.75,46.75,0,0,0,128.72,86Z"/></clipPath></defs><title>V2Artboard 31 copy 3</title><circle class="cls-2" cx="47.4" cy="48.23" r="46.31"/><circle class="cls-3" cx="128.45" cy="48.23" r="46.31"/><path class="cls-4" d="M94.17,61.17S81.28,78.34,91.56,82.7s23.12,10,37.12,10.13S164.49,82.7,164.49,82.7s7.4-3.48-.48-21.53"/><path class="cls-5" d="M123.29,84.64l-1.5,9.44s7.69,1.5,13.56,0l-1.28-9.41Z"/><path class="cls-5" d="M95,53.21c-6.53-20.93-1.2-31.35-1.2-31.35s16.15.23,22,8.19"/><path class="cls-5" d="M161.94,53.21c6.52-20.93,1.19-31.35,1.19-31.35s-16.15.23-22,8.19"/><path class="cls-6" d="M99.4,45.31c-3.24-10.39-.59-15.56-.59-15.56s8,.12,10.9,4.07"/><path class="cls-6" d="M157.52,45.31c3.24-10.39.6-15.56.6-15.56s-8,.12-10.9,4.07"/><path class="cls-5" d="M128.64,86a46.79,46.79,0,0,0,21.57-4.5c4.63-2.26,10-5.25,11.61-10.8a15.07,15.07,0,0,0-.31-8.43c.16-1.48,4.12-15.84-10.59-28a32.5,32.5,0,0,0-22.2-7.56h-.08a32.51,32.51,0,0,0-22.2,7.56c-14.7,12.17-10.74,26.53-10.58,28a15.05,15.05,0,0,0-.32,8.43c1.61,5.55,7,8.54,11.62,10.8A46.75,46.75,0,0,0,128.72,86Z"/><ellipse class="cls-7" cx="112.55" cy="59.99" rx="5.03" ry="5.19"/><ellipse class="cls-8" cx="108.49" cy="67.32" rx="3.16" ry="1.78"/><path class="cls-7" d="M132.23,68c0,1.15-3.59,2.78-3.59,2.78s-3.58-1.63-3.58-2.78,1.6-2.09,3.58-2.09S132.23,66.85,132.23,68Z"/><ellipse class="cls-9" cx="110.6" cy="57.9" rx="0.89" ry="0.92"/><path class="cls-1" d="M128.64,70.78a7.54,7.54,0,0,1-5.35,2"/><path class="cls-1" d="M128.68,70.78a7.55,7.55,0,0,0,5.36,2"/><g class="cls-10"><ellipse class="cls-11" cx="147.22" cy="56.99" rx="17.28" ry="17.82"/></g><path class="cls-1" d="M128.64,86a46.79,46.79,0,0,0,21.57-4.5c4.63-2.26,10-5.25,11.61-10.8a15.07,15.07,0,0,0-.31-8.43c.16-1.48,4.12-15.84-10.59-28a32.5,32.5,0,0,0-22.2-7.56h-.08a32.51,32.51,0,0,0-22.2,7.56c-14.7,12.17-10.74,26.53-10.58,28a15.05,15.05,0,0,0-.32,8.43c1.61,5.55,7,8.54,11.62,10.8A46.75,46.75,0,0,0,128.72,86Z"/><ellipse class="cls-7" cx="144.86" cy="59.99" rx="5.03" ry="5.19"/><ellipse class="cls-8" cx="148.92" cy="67.32" rx="3.16" ry="1.78"/><ellipse class="cls-9" cx="142.76" cy="57.9" rx="0.89" ry="0.92"/><path class="cls-4" d="M164.45,62.48C166,59.3,166,56,165.65,52.6c-.06-.71-.09-1.43-.13-2.14-.72-5.3-3.28-10.23-5-15.32-4.14-12.07-17.57-19.31-31.82-19-14.25-.35-27.67,6.89-31.81,19-1.74,5.09-4.3,10-5,15.32,0,.71-.07,1.43-.13,2.14-.31,3.35-.3,6.7,1.2,9.88.87,1.85,2,7.56,2.16,5.66.35-3.22,1.75-6.49,1.35-7.15S96,58.82,97.5,59.08c1.12.2,1.75-1.37,2.24-2.28a2,2,0,0,1,1.65-.92c-.57-1.87.79-1.06,1.11-2.82.56-3.09,0-6.2,2.18-8.91,2.93-3.63,7.4-5.47,12.45-6.55a57.17,57.17,0,0,1,23.11,0c5,1.08,9.51,2.92,12.45,6.55,2.19,2.71,1.59,5.82,2.15,8.91.32,1.76,1.68.95,1.12,2.82a2,2,0,0,1,1.64.92,6.22,6.22,0,0,0,2.25,2.28c1.1.67.87,1.4.4,2.17s3.07,13.44,2.54,7C162.63,66.39,163.58,64.33,164.45,62.48Z"/><line class="cls-12" x1="102.19" y1="65.74" x2="88.67" y2="64.62"/><line class="cls-12" x1="102.19" y1="69.49" x2="88.67" y2="70.61"/><line class="cls-1" x1="102.23" y1="67.61" x2="93.49" y2="67.61"/><line class="cls-12" x1="155.79" y1="65.74" x2="169.31" y2="64.62"/><line class="cls-12" x1="155.79" y1="69.49" x2="169.31" y2="70.61"/><line class="cls-1" x1="155.75" y1="67.61" x2="164.49" y2="67.61"/><path class="cls-1" d="M108.39,51.9s4.87-2.3,8.45,0"/><path class="cls-1" d="M140.53,51.9s4.88-2.3,8.45,0"/><path class="cls-13" d="M14.37,53.21c-6.53-20.93-1.2-31.35-1.2-31.35s16.16.23,22,8.19"/><path class="cls-13" d="M81.32,53.21c6.52-20.93,1.19-31.35,1.19-31.35s-16.15.23-22,8.19"/><path class="cls-14" d="M18.78,45.31c-3.24-10.39-.59-15.56-.59-15.56s8,.12,10.9,4.07"/><path class="cls-14" d="M76.9,45.31c3.24-10.39.6-15.56.6-15.56s-8,.12-10.9,4.07"/><path class="cls-13" d="M48,86a46.79,46.79,0,0,0,21.57-4.5c4.63-2.26,10-5.25,11.61-10.8a15.07,15.07,0,0,0-.31-8.43c.16-1.48,4.12-15.84-10.59-28a32.5,32.5,0,0,0-22.2-7.56H48a32.51,32.51,0,0,0-22.2,7.56c-14.7,12.17-10.74,26.53-10.58,28a15.14,15.14,0,0,0-.32,8.43c1.61,5.55,7,8.54,11.62,10.8A46.75,46.75,0,0,0,48.1,86Z"/><path class="cls-15" d="M48,85.86a46.89,46.89,0,0,0,21.53-4.51c4.63-2.26,10-5.25,11.61-10.8a12.86,12.86,0,0,0,.46-3.77,37.93,37.93,0,0,1-15.43,5.65A33.25,33.25,0,0,1,48.9,70H48a33.27,33.27,0,0,1-17.32,2.44,42.38,42.38,0,0,1-16.23-5.75,12.88,12.88,0,0,0,.45,3.87c1.61,5.55,7,8.54,11.62,10.8A46.83,46.83,0,0,0,48,85.86Z"/><ellipse class="cls-7" cx="31.93" cy="59.99" rx="5.03" ry="5.19"/><ellipse class="cls-16" cx="27.87" cy="67.32" rx="3.16" ry="1.78"/><ellipse class="cls-7" cx="64.24" cy="59.99" rx="5.03" ry="5.19"/><ellipse class="cls-16" cx="68.3" cy="67.32" rx="3.16" ry="1.78"/><path class="cls-7" d="M51.61,69.81C51.61,71,48,72.59,48,72.59S44.44,71,44.44,69.81,46,67.72,48,67.72,51.61,68.65,51.61,69.81Z"/><ellipse class="cls-9" cx="29.98" cy="57.9" rx="0.89" ry="0.92"/><line class="cls-12" x1="75.17" y1="65.74" x2="88.69" y2="64.62"/><line class="cls-12" x1="75.17" y1="69.49" x2="88.69" y2="70.61"/><line class="cls-1" x1="75.83" y1="67.61" x2="84.58" y2="67.61"/><ellipse class="cls-9" cx="62.14" cy="57.9" rx="0.89" ry="0.92"/><line class="cls-12" x1="21.57" y1="65.74" x2="8.05" y2="64.62"/><line class="cls-12" x1="21.57" y1="69.49" x2="8.05" y2="70.61"/><line class="cls-1" x1="20.85" y1="67.61" x2="12.1" y2="67.61"/><path class="cls-1" d="M48,72.2s-1,4.13-4.84,4.64"/><path class="cls-1" d="M48,72.2s1,4.13,4.85,4.64"/><path class="cls-1" d="M48,86a46.79,46.79,0,0,0,21.57-4.5c4.63-2.26,10-5.25,11.61-10.8a15.07,15.07,0,0,0-.31-8.43c.16-1.48,4.12-15.84-10.59-28a32.5,32.5,0,0,0-22.2-7.56H48a32.51,32.51,0,0,0-22.2,7.56c-14.7,12.17-10.74,26.53-10.58,28a15.14,15.14,0,0,0-.32,8.43c1.61,5.55,7,8.54,11.62,10.8A46.75,46.75,0,0,0,48.1,86Z"/><path d="M12.72,50.11c-1.48,1.85-2,5.41-2.56,6.66-.45,1-3.39,5.12-2.47,5.36l1.18.29c-.06.13-.1.2-.14.27s-.1.16-.15.24a4.1,4.1,0,0,0,.1,4.52,9.17,9.17,0,0,0,2.07,2.15c.6.49.58.48.21,1.13A21,21,0,0,0,9.78,73a2.56,2.56,0,0,0,.1,2.21,6.94,6.94,0,0,0,1.52,1.64c.47.45.93.92,1.36,1.4a.44.44,0,0,1,0,.43c-.34.58-.73,1.14-1.06,1.73a3.41,3.41,0,0,0-.12,3.67c.2.34,2,2.2,2.14,2.46l-.28.3c-.18.19-.33.32-.38.37a19.05,19.05,0,0,0-1.64,1.58c-.54.63-.81,1-.84,1.43a2.53,2.53,0,0,0,.64,1.58c.36.54.52.54.95,1.19s.57.87.52,1.24-.29.57-.78,1c-.71.66-.92.61-1.43,1.11a2.57,2.57,0,0,0-.94,1.56A2.41,2.41,0,0,0,10,99.3a4.46,4.46,0,0,0,1.43,1.75c.06,0-.17-.46-.44-1a8.06,8.06,0,0,1-.76-1.56,1,1,0,0,1,0-.61,1,1,0,0,1,.36-.42c.64-.46,1-.69,1.76-1.18a3.71,3.71,0,0,0,1.51-1.28,2.72,2.72,0,0,0,0-2.21c-.13-.31-.65-1.32-1-1.93a.72.72,0,0,1-.1-.5A.8.8,0,0,1,13,90a17.67,17.67,0,0,0,2.47-2.35,3.57,3.57,0,0,0-.13-3.41c-.26-.36-.36-.8-.61-1.17a.42.42,0,0,1-.09-.32.46.46,0,0,1,.17-.26c.41-.33.7-.78,1.12-1.1A3.73,3.73,0,0,0,17.05,79a3.58,3.58,0,0,0-.53-2c-.6-1.06-1.48-1.45-1.58-2.59a2,2,0,0,1,0-.42c.13-1.58,1.83-2.79,2.08-3,1-.8,6.11-15.22,5.55-22.86l0-.81c1.43-1,2.19-1.11,3.94-2.18s7.34-2.86,9.48-3.49a35.68,35.68,0,0,1,5.92-1.19,44.8,44.8,0,0,1,4.63-.31v0h1.66v0a44.8,44.8,0,0,1,4.63.31,35.68,35.68,0,0,1,5.92,1.19c2.14.63,7.61,2.36,9.48,3.49a45.32,45.32,0,0,1,3.94,2.31c-.56,7.64,4.55,22.74,5.6,23.54.25.2,2,1.41,2.07,3a2.53,2.53,0,0,1,0,.42c-.11,1.14-1,1.53-1.59,2.59a3.66,3.66,0,0,0-.53,2A3.73,3.73,0,0,0,78.9,81.4c.42.32.71.77,1.12,1.1a.39.39,0,0,1,.08.58c-.24.37-.35.81-.61,1.17a3.55,3.55,0,0,0-.12,3.41A17.33,17.33,0,0,0,81.83,90a.74.74,0,0,1,.26.4.72.72,0,0,1-.1.5c-.33.61-.84,1.62-1,1.93a2.73,2.73,0,0,0,0,2.21,3.61,3.61,0,0,0,1.5,1.28c.8.49,1.12.72,1.76,1.18a.92.92,0,0,1,.36.42,1,1,0,0,1,0,.61,8.06,8.06,0,0,1-.76,1.56c-.27.49-.5.91-.43,1a4.65,4.65,0,0,0,1.43-1.75,2.41,2.41,0,0,0,.45-1.4,2.63,2.63,0,0,0-1-1.56c-.51-.5-.71-.45-1.43-1.11-.49-.45-.73-.68-.78-1s.14-.67.53-1.24.58-.65.94-1.19a2.53,2.53,0,0,0,.64-1.58c0-.48-.3-.8-.84-1.43a19.05,19.05,0,0,0-1.64-1.58s-.2-.18-.38-.37l-.28-.3c.18-.26,1.94-2.12,2.14-2.46a3.41,3.41,0,0,0-.11-3.67c-.34-.59-.73-1.15-1.06-1.73a.47.47,0,0,1,0-.43c.44-.48.89-1,1.36-1.4a6.94,6.94,0,0,0,1.52-1.64A2.53,2.53,0,0,0,85,73a20.92,20.92,0,0,0-1.17-2.25c-.38-.65-.4-.64.2-1.13a9.21,9.21,0,0,0,2.08-2.15,4.12,4.12,0,0,0,.09-4.52l-.15-.24-.14-.27,1.18-.29c.92-.24-4.64-11-5.08-12,2.22-.85,8.83-2.93,10.45-4.61a3.59,3.59,0,0,0,1.14-3.43,4.71,4.71,0,0,0-1.57-2.36,14.4,14.4,0,0,0-4.19-2.58A51,51,0,0,0,83,35.36c-1.93-.57-3.91-1-5.89-1.47-1.81-.39-3.65-.69-5.48-1-.34-.06-.28-.24-.28-.42,0-3-.08-6,0-9a5.77,5.77,0,0,0-2.62-5,17.6,17.6,0,0,0-5.24-2.65A45.93,45.93,0,0,0,59,14.53c-1.7-.36-3.45-.61-5.18-.8a53,53,0,0,0-5.77-.33H46.71a52.82,52.82,0,0,0-5.76.33c-1.74.19-3.48.44-5.19.8-1.52.32-3,.79-4.49,1.26A17.6,17.6,0,0,0,26,18.44a5.74,5.74,0,0,0-2.61,5c.11,3,0,6,0,9,0,.18.07.36-.28.42-1.83.31-3.67.61-5.48,1-2,.43-3.95.9-5.89,1.47A49.84,49.84,0,0,0,7,37.13a14.45,14.45,0,0,0-4.2,2.58,4.69,4.69,0,0,0-1.56,2.36A3.57,3.57,0,0,0,2.33,45.5C4,47.18,10.5,49.26,12.72,50.11"/><path class="cls-17" d="M60.45,50.46a79.09,79.09,0,0,1,9,.68"/><path class="cls-17" d="M35.43,50.46a79.09,79.09,0,0,0-9,.68"/><rect class="cls-18" x="-0.51" y="-0.17" width="176.34" height="101.79"/></svg>