<svg id="Layer_1" data-name="Layer 1" xmlns="http://www.w3.org/2000/svg" viewBox="0 0 95 101"><defs><style>.cls-1{fill:#c6c6c6;}.cls-1,.cls-10,.cls-2,.cls-3,.cls-8,.cls-9{stroke:#1d1d1b;}.cls-1,.cls-2,.cls-3,.cls-8,.cls-9{stroke-linecap:round;stroke-linejoin:round;}.cls-2{fill:#fcf6c1;}.cls-3,.cls-6{fill:#7b6a58;}.cls-4{fill:#e7e2b1;}.cls-5{fill:#1d1d1b;}.cls-7,.cls-8{fill:#fff;}.cls-10,.cls-11,.cls-9{fill:none;}.cls-10{stroke-miterlimit:10;stroke-width:2px;}</style></defs><title>V1Artboard 3</title><circle class="cls-1" cx="47.41" cy="46.88" r="46.31"/><path class="cls-2" d="M14.38,51.85c-6.53-20.93-1.2-31.35-1.2-31.35s16.15.24,22,8.2"/><path class="cls-2" d="M81.33,51.85c6.52-20.93,1.19-31.35,1.19-31.35s-16.15.24-22,8.2"/><path class="cls-3" d="M18.79,44C15.55,33.57,18.2,28.4,18.2,28.4s8,.11,10.9,4.06"/><path class="cls-3" d="M76.91,44c3.24-10.39.6-15.56.6-15.56s-8,.11-10.9,4.06"/><path class="cls-2" d="M48,84.66A46.82,46.82,0,0,0,69.6,80.15c4.63-2.26,10-5.25,11.61-10.79a15.09,15.09,0,0,0-.31-8.44c.16-1.47,4.12-15.83-10.59-28a32.55,32.55,0,0,0-22.2-7.56H48a32.57,32.57,0,0,0-22.2,7.56c-14.7,12.18-10.74,26.54-10.58,28a15.08,15.08,0,0,0-.32,8.44c1.61,5.54,7,8.53,11.62,10.79a46.78,46.78,0,0,0,21.56,4.51Z"/><path class="cls-4" d="M48.05,84.5A46.76,46.76,0,0,0,69.58,80c4.63-2.26,10-5.25,11.61-10.79a12.9,12.9,0,0,0,.46-3.77,38.22,38.22,0,0,1-15.43,5.65,33.35,33.35,0,0,1-17.31-2.44H48a33.37,33.37,0,0,1-17.32,2.44,42.55,42.55,0,0,1-16.23-5.75,12.92,12.92,0,0,0,.45,3.87c1.61,5.54,7,8.53,11.62,10.79A46.7,46.7,0,0,0,48.05,84.5Z"/><ellipse class="cls-5" cx="31.94" cy="58.63" rx="5.03" ry="5.19"/><ellipse class="cls-6" cx="27.88" cy="65.96" rx="3.16" ry="1.78"/><ellipse class="cls-5" cx="64.25" cy="58.63" rx="5.03" ry="5.19"/><ellipse class="cls-6" cx="68.31" cy="65.96" rx="3.16" ry="1.78"/><path class="cls-5" d="M51.62,68.45c0,1.16-3.59,2.78-3.59,2.78s-3.58-1.62-3.58-2.78,1.6-2.09,3.58-2.09S51.62,67.3,51.62,68.45Z"/><ellipse class="cls-7" cx="29.99" cy="56.55" rx="0.89" ry="0.92"/><line class="cls-8" x1="75.18" y1="64.39" x2="88.7" y2="63.26"/><line class="cls-8" x1="75.18" y1="68.13" x2="88.7" y2="69.26"/><line class="cls-9" x1="75.84" y1="66.26" x2="84.59" y2="66.26"/><ellipse class="cls-7" cx="62.15" cy="56.55" rx="0.89" ry="0.92"/><line class="cls-8" x1="21.58" y1="64.39" x2="8.06" y2="63.26"/><line class="cls-8" x1="21.58" y1="68.13" x2="8.06" y2="69.26"/><line class="cls-9" x1="20.86" y1="66.26" x2="12.11" y2="66.26"/><path class="cls-9" d="M48,70.85S47,75,43.19,75.48"/><path class="cls-9" d="M48,70.85s1,4.12,4.85,4.63"/><path class="cls-9" d="M48,84.66A46.82,46.82,0,0,0,69.6,80.15c4.63-2.26,10-5.25,11.61-10.79a15.09,15.09,0,0,0-.31-8.44c.16-1.47,4.12-15.83-10.59-28a32.55,32.55,0,0,0-22.2-7.56H48a32.57,32.57,0,0,0-22.2,7.56c-14.7,12.18-10.74,26.54-10.58,28a15.08,15.08,0,0,0-.32,8.44c1.61,5.54,7,8.53,11.62,10.79a46.78,46.78,0,0,0,21.56,4.51Z"/><path d="M12.73,48.76c-1.48,1.85-2,5.41-2.56,6.65-.45,1-3.39,5.13-2.47,5.36l1.18.3-.14.26c0,.09-.1.16-.15.25a4.1,4.1,0,0,0,.1,4.52,9.13,9.13,0,0,0,2.07,2.14c.6.49.58.48.21,1.13a20.24,20.24,0,0,0-1.18,2.26,2.54,2.54,0,0,0,.1,2.2,6.75,6.75,0,0,0,1.52,1.64c.47.45.93.92,1.36,1.4a.44.44,0,0,1,0,.43c-.34.59-.73,1.15-1.07,1.73a3.43,3.43,0,0,0-.11,3.67c.2.34,2,2.2,2.14,2.47l-.28.3-.38.36a19.05,19.05,0,0,0-1.64,1.58c-.54.64-.81,1-.84,1.43a2.58,2.58,0,0,0,.64,1.59c.36.54.52.54.95,1.18s.57.87.52,1.24-.29.58-.78,1c-.71.66-.92.6-1.43,1.1a2.6,2.6,0,0,0-.94,1.57A2.44,2.44,0,0,0,10,98a4.39,4.39,0,0,0,1.43,1.74c.06,0-.17-.45-.44-1a8.26,8.26,0,0,1-.76-1.55,1,1,0,0,1,0-.61,1,1,0,0,1,.36-.43A20.66,20.66,0,0,1,12.33,95a3.65,3.65,0,0,0,1.51-1.29,2.74,2.74,0,0,0,0-2.2c-.13-.32-.65-1.33-1-1.93a.76.76,0,0,1-.1-.51.85.85,0,0,1,.26-.4,16.5,16.5,0,0,0,2.47-2.35,3.58,3.58,0,0,0-.13-3.41c-.26-.36-.36-.8-.61-1.16a.44.44,0,0,1-.09-.32.43.43,0,0,1,.17-.26c.41-.34.7-.78,1.12-1.11a3.72,3.72,0,0,0,1.15-2.45,3.6,3.6,0,0,0-.53-2C15.93,74.5,15.05,74.12,15,73a2.08,2.08,0,0,1,0-.42c.13-1.59,1.83-2.8,2.08-3,1-.81,6.11-15.23,5.55-22.86l0-.81C24,45,24.8,44.78,26.55,43.72s7.34-2.87,9.48-3.49A35.7,35.7,0,0,1,42,39a44.8,44.8,0,0,1,4.63-.31v0h1.66v0a44.8,44.8,0,0,1,4.63.31,35.7,35.7,0,0,1,5.92,1.2c2.14.62,7.61,2.35,9.48,3.49A45.52,45.52,0,0,1,72.21,46c-.56,7.64,4.55,22.74,5.6,23.55.24.19,2,1.4,2.07,3a2.57,2.57,0,0,1,0,.42c-.11,1.14-1,1.52-1.59,2.58A3.53,3.53,0,0,0,78.91,80c.42.33.71.77,1.12,1.11a.43.43,0,0,1,.17.26.44.44,0,0,1-.09.32c-.24.36-.35.8-.61,1.16a3.55,3.55,0,0,0-.12,3.41,16.2,16.2,0,0,0,2.46,2.35.78.78,0,0,1,.26.4.76.76,0,0,1-.1.51c-.33.6-.84,1.61-1,1.93a2.71,2.71,0,0,0,0,2.2A3.55,3.55,0,0,0,82.49,95a20.66,20.66,0,0,1,1.76,1.17,1,1,0,0,1,.36.43,1,1,0,0,1,0,.61,8.26,8.26,0,0,1-.76,1.55c-.27.5-.5.91-.43,1A4.57,4.57,0,0,0,84.84,98a2.44,2.44,0,0,0,.45-1.4,2.65,2.65,0,0,0-1-1.57c-.51-.5-.71-.44-1.43-1.1-.49-.45-.73-.68-.78-1s.14-.66.53-1.24.58-.64.94-1.18a2.58,2.58,0,0,0,.64-1.59c0-.47-.3-.79-.84-1.43a19.05,19.05,0,0,0-1.64-1.58l-.38-.36-.28-.3C81.28,84.9,83,83,83.24,82.7A3.41,3.41,0,0,0,83.13,79c-.34-.58-.73-1.14-1.06-1.73a.47.47,0,0,1,0-.43c.44-.48.89-1,1.36-1.4a6.75,6.75,0,0,0,1.52-1.64,2.51,2.51,0,0,0,.1-2.2,20.16,20.16,0,0,0-1.17-2.26c-.38-.65-.4-.64.2-1.13a9.38,9.38,0,0,0,2.08-2.14,4.12,4.12,0,0,0,.09-4.52l-.15-.25c0-.07-.07-.14-.14-.26l1.18-.3c.92-.23-4.64-11-5.08-12,2.22-.86,8.83-2.94,10.45-4.62a3.59,3.59,0,0,0,1.14-3.43,4.75,4.75,0,0,0-1.57-2.36,14.37,14.37,0,0,0-4.19-2.57A46.05,46.05,0,0,0,83,34c-1.93-.58-3.91-1-5.89-1.48-1.81-.39-3.65-.68-5.48-1-.34-.06-.28-.24-.28-.43,0-3-.08-6,0-9a5.74,5.74,0,0,0-2.62-5,17.37,17.37,0,0,0-5.24-2.65c-1.48-.47-3-.95-4.49-1.27-1.7-.36-3.45-.6-5.18-.8A53,53,0,0,0,48.1,12H46.72a52.82,52.82,0,0,0-5.76.33c-1.74.2-3.48.44-5.19.8-1.52.32-3,.8-4.49,1.27A17.37,17.37,0,0,0,26,17.09a5.71,5.71,0,0,0-2.61,5c.11,3,0,6,0,9.05,0,.19.07.37-.28.43-1.83.31-3.67.6-5.48,1-2,.44-4,.9-5.89,1.48A45.08,45.08,0,0,0,7,35.78a14.29,14.29,0,0,0-4.2,2.57A4.66,4.66,0,0,0,1.2,40.71a3.56,3.56,0,0,0,1.14,3.43C4,45.82,10.51,47.9,12.73,48.76"/><path class="cls-10" d="M60.46,49.11a79.09,79.09,0,0,1,9,.68"/><path class="cls-10" d="M35.44,49.11a79.09,79.09,0,0,0-9,.68"/><rect class="cls-11" y="-0.01" width="95" height="101"/></svg>