<svg id="Layer_1" data-name="Layer 1" xmlns="http://www.w3.org/2000/svg" xmlns:xlink="http://www.w3.org/1999/xlink" viewBox="0 0 95 101"><defs><style>.cls-1,.cls-12{fill:none;}.cls-1,.cls-11,.cls-2,.cls-3,.cls-4,.cls-5{stroke:#1d1d1b;}.cls-1,.cls-11,.cls-2,.cls-4,.cls-5{stroke-linecap:round;stroke-linejoin:round;}.cls-2{fill:#f6ae8b;}.cls-3{fill:#706f6f;stroke-miterlimit:10;stroke-width:0.5px;}.cls-4{fill:#f5d2a2;}.cls-5,.cls-7{fill:#e06ba3;}.cls-6{fill:#1d1d1b;}.cls-11,.cls-8{fill:#fff;}.cls-9{clip-path:url(#clip-path);}.cls-10{fill:#b17f4a;}</style><clipPath id="clip-path"><path class="cls-1" d="M47.48,84.66A46.81,46.81,0,0,0,69,80.15c4.63-2.26,10-5.25,11.62-10.79a15.17,15.17,0,0,0-.32-8.44c.16-1.47,4.12-15.83-10.59-28a32.55,32.55,0,0,0-22.2-7.56h-.07a32.55,32.55,0,0,0-22.2,7.56c-14.71,12.18-10.75,26.54-10.59,28a15.17,15.17,0,0,0-.32,8.44C16,74.9,21.36,77.89,26,80.15a46.81,46.81,0,0,0,21.56,4.51Z"/></clipPath></defs><title>V2Artboard 4</title><circle class="cls-2" cx="47.28" cy="46.88" r="46.31"/><path class="cls-3" d="M13,59.82S.12,77,10.39,81.34s23.13,10,37.13,10.14S83.33,81.34,83.33,81.34s7.39-3.48-.49-21.52"/><path class="cls-4" d="M42.12,83.29l-1.5,9.43s7.69,1.5,13.56,0l-1.27-9.4Z"/><path class="cls-4" d="M13.82,51.85c-6.53-20.93-1.2-31.35-1.2-31.35s16.16.24,22,8.2"/><path class="cls-4" d="M80.77,51.85C87.29,30.92,82,20.5,82,20.5s-16.15.24-22,8.2"/><path class="cls-5" d="M18.23,44C15,33.57,17.64,28.4,17.64,28.4s8,.11,10.9,4.06"/><path class="cls-5" d="M76.36,44C79.59,33.57,77,28.4,77,28.4s-8,.11-10.9,4.06"/><path class="cls-4" d="M47.48,84.66A46.81,46.81,0,0,0,69,80.15c4.63-2.26,10-5.25,11.62-10.79a15.17,15.17,0,0,0-.32-8.44c.16-1.47,4.12-15.83-10.59-28a32.55,32.55,0,0,0-22.2-7.56h-.07a32.55,32.55,0,0,0-22.2,7.56c-14.71,12.18-10.75,26.54-10.59,28a15.17,15.17,0,0,0-.32,8.44C16,74.9,21.36,77.89,26,80.15a46.81,46.81,0,0,0,21.56,4.51Z"/><ellipse class="cls-6" cx="31.38" cy="58.63" rx="5.03" ry="5.19"/><ellipse class="cls-7" cx="27.32" cy="65.96" rx="3.16" ry="1.78"/><path class="cls-6" d="M51.06,66.64c0,1.16-3.58,2.78-3.58,2.78s-3.59-1.62-3.59-2.78,1.61-2.09,3.59-2.09S51.06,65.49,51.06,66.64Z"/><ellipse class="cls-8" cx="29.43" cy="56.55" rx="0.89" ry="0.92"/><path class="cls-1" d="M47.48,69.42a7.55,7.55,0,0,1-5.36,2"/><path class="cls-1" d="M47.52,69.42a7.51,7.51,0,0,0,5.35,2"/><g class="cls-9"><ellipse class="cls-10" cx="66.05" cy="55.63" rx="17.28" ry="17.82"/></g><path class="cls-1" d="M47.48,84.66A46.81,46.81,0,0,0,69,80.15c4.63-2.26,10-5.25,11.62-10.79a15.17,15.17,0,0,0-.32-8.44c.16-1.47,4.12-15.83-10.59-28a32.55,32.55,0,0,0-22.2-7.56h-.07a32.55,32.55,0,0,0-22.2,7.56c-14.71,12.18-10.75,26.54-10.59,28a15.17,15.17,0,0,0-.32,8.44C16,74.9,21.36,77.89,26,80.15a46.81,46.81,0,0,0,21.56,4.51Z"/><ellipse class="cls-6" cx="63.69" cy="58.63" rx="5.03" ry="5.19"/><ellipse class="cls-7" cx="67.75" cy="65.96" rx="3.16" ry="1.78"/><ellipse class="cls-8" cx="61.59" cy="56.55" rx="0.89" ry="0.92"/><path class="cls-3" d="M83.28,61.12c1.5-3.17,1.51-6.52,1.2-9.87-.06-.72-.09-1.43-.13-2.15-.72-5.3-3.28-10.22-5-15.31-4.14-12.08-17.56-19.31-31.81-19-14.26-.34-27.68,6.89-31.82,19-1.74,5.09-4.3,10-5,15.31,0,.72-.07,1.43-.13,2.15-.31,3.35-.3,6.7,1.2,9.87.87,1.85,1.95,7.56,2.16,5.67.35-3.23,1.75-6.5,1.35-7.15s-.42-2.17,1.07-1.91c1.12.19,1.75-1.38,2.25-2.28a2,2,0,0,1,1.64-.92c-.57-1.87.79-1.07,1.11-2.83.56-3.09,0-6.19,2.18-8.9,2.94-3.64,7.41-5.48,12.45-6.55a52.85,52.85,0,0,1,11.56-1.19,52.83,52.83,0,0,1,11.55,1.19c5,1.07,9.52,2.91,12.45,6.55,2.19,2.71,1.6,5.81,2.16,8.9.32,1.76,1.68,1,1.11,2.83a2,2,0,0,1,1.64.92,6.29,6.29,0,0,0,2.25,2.28c1.1.67.87,1.4.4,2.17s3.08,13.43,2.54,7C81.46,65,82.41,63,83.28,61.12Z"/><line class="cls-11" x1="21.03" y1="64.39" x2="7.5" y2="63.26"/><line class="cls-11" x1="21.03" y1="68.13" x2="7.5" y2="69.26"/><line class="cls-1" x1="21.07" y1="66.26" x2="12.32" y2="66.26"/><line class="cls-11" x1="74.62" y1="64.39" x2="88.14" y2="63.26"/><line class="cls-11" x1="74.62" y1="68.13" x2="88.14" y2="69.26"/><line class="cls-1" x1="74.58" y1="66.26" x2="83.33" y2="66.26"/><path class="cls-1" d="M27.22,50.54s4.87-2.3,8.45,0"/><path class="cls-1" d="M59.36,50.54s4.88-2.3,8.45,0"/><rect class="cls-12" x="0.06" y="-0.01" width="95" height="101"/></svg>