<svg id="Layer_1" data-name="Layer 1" xmlns="http://www.w3.org/2000/svg" xmlns:xlink="http://www.w3.org/1999/xlink" viewBox="0 0 95 101"><defs><style>.cls-1,.cls-11{fill:none;}.cls-1,.cls-10,.cls-2,.cls-3,.cls-4,.cls-5{stroke:#1d1d1b;}.cls-1,.cls-10,.cls-2,.cls-4,.cls-5{stroke-linecap:round;stroke-linejoin:round;}.cls-2{fill:#f6ae8b;}.cls-3{fill:#706f6f;stroke-miterlimit:10;stroke-width:0.5px;}.cls-4{fill:#f5d2a2;}.cls-5,.cls-6{fill:#e06ba3;}.cls-7{fill:#1d1d1b;}.cls-8{clip-path:url(#clip-path);}.cls-9{fill:#b17f4a;}.cls-10{fill:#fff;}.cls-12{fill:#fbf6ef;}.cls-13{fill:#121324;}.cls-14{fill:#da9444;}</style><clipPath id="clip-path"><path class="cls-1" d="M47.48,84.66A46.81,46.81,0,0,0,69,80.15c4.63-2.26,10-5.25,11.62-10.79a15.17,15.17,0,0,0-.32-8.44c.16-1.47,4.12-15.83-10.59-28a32.55,32.55,0,0,0-22.2-7.56h-.07a32.55,32.55,0,0,0-22.2,7.56c-14.71,12.18-10.75,26.54-10.59,28a15.17,15.17,0,0,0-.32,8.44C16,74.9,21.36,77.89,26,80.15a46.81,46.81,0,0,0,21.56,4.51Z"/></clipPath></defs><title>V2Artboard 4 copy 4</title><circle class="cls-2" cx="47.28" cy="46.88" r="46.31"/><path class="cls-3" d="M13,59.82S.12,77,10.39,81.34s23.13,10,37.13,10.14S83.33,81.34,83.33,81.34s7.39-3.48-.49-21.52"/><path class="cls-4" d="M42.12,83.29l-1.5,9.43s7.69,1.5,13.56,0l-1.27-9.4Z"/><path class="cls-4" d="M13.82,51.85c-6.53-20.93-1.2-31.35-1.2-31.35s16.16.24,22,8.2"/><path class="cls-4" d="M80.77,51.85C87.29,30.92,82,20.5,82,20.5s-16.15.24-22,8.2"/><path class="cls-5" d="M18.23,44C15,33.57,17.64,28.4,17.64,28.4s8,.11,10.9,4.06"/><path class="cls-5" d="M76.36,44C79.59,33.57,77,28.4,77,28.4s-8,.11-10.9,4.06"/><path class="cls-4" d="M47.48,84.66A46.81,46.81,0,0,0,69,80.15c4.63-2.26,10-5.25,11.62-10.79a15.17,15.17,0,0,0-.32-8.44c.16-1.47,4.12-15.83-10.59-28a32.55,32.55,0,0,0-22.2-7.56h-.07a32.55,32.55,0,0,0-22.2,7.56c-14.71,12.18-10.75,26.54-10.59,28a15.17,15.17,0,0,0-.32,8.44C16,74.9,21.36,77.89,26,80.15a46.81,46.81,0,0,0,21.56,4.51Z"/><ellipse class="cls-6" cx="27.32" cy="65.96" rx="3.16" ry="1.78"/><path class="cls-7" d="M51.06,66.64c0,1.16-3.58,2.78-3.58,2.78s-3.59-1.62-3.59-2.78,1.61-2.09,3.59-2.09S51.06,65.49,51.06,66.64Z"/><path class="cls-1" d="M47.48,69.42a7.55,7.55,0,0,1-5.36,2"/><path class="cls-1" d="M47.52,69.42a7.51,7.51,0,0,0,5.35,2"/><g class="cls-8"><ellipse class="cls-9" cx="66.05" cy="55.63" rx="17.28" ry="17.82"/></g><path class="cls-1" d="M47.48,84.66A46.81,46.81,0,0,0,69,80.15c4.63-2.26,10-5.25,11.62-10.79a15.17,15.17,0,0,0-.32-8.44c.16-1.47,4.12-15.83-10.59-28a32.55,32.55,0,0,0-22.2-7.56h-.07a32.55,32.55,0,0,0-22.2,7.56c-14.71,12.18-10.75,26.54-10.59,28a15.17,15.17,0,0,0-.32,8.44C16,74.9,21.36,77.89,26,80.15a46.81,46.81,0,0,0,21.56,4.51Z"/><ellipse class="cls-6" cx="67.75" cy="65.96" rx="3.16" ry="1.78"/><path class="cls-3" d="M83.28,61.12c1.5-3.17,1.51-6.52,1.2-9.87-.06-.72-.09-1.43-.13-2.15-.72-5.3-3.28-10.22-5-15.31-4.14-12.08-17.56-19.31-31.81-19-14.26-.34-27.68,6.89-31.82,19-1.74,5.09-4.3,10-5,15.31,0,.72-.07,1.43-.13,2.15-.31,3.35-.3,6.7,1.2,9.87.87,1.85,1.95,7.56,2.16,5.67.35-3.23,1.75-6.5,1.35-7.15s-.42-2.17,1.07-1.91c1.12.19,1.75-1.38,2.25-2.28a2,2,0,0,1,1.64-.92c-.57-1.87.79-1.07,1.11-2.83.56-3.09,0-6.19,2.18-8.9,2.94-3.64,7.41-5.48,12.45-6.55a52.85,52.85,0,0,1,11.56-1.19,52.83,52.83,0,0,1,11.55,1.19c5,1.07,9.52,2.91,12.45,6.55,2.19,2.71,1.6,5.81,2.16,8.9.32,1.76,1.68,1,1.11,2.83a2,2,0,0,1,1.64.92,6.29,6.29,0,0,0,2.25,2.28c1.1.67.87,1.4.4,2.17s3.08,13.43,2.54,7C81.46,65,82.41,63,83.28,61.12Z"/><line class="cls-10" x1="21.03" y1="64.39" x2="7.5" y2="63.26"/><line class="cls-10" x1="21.03" y1="68.13" x2="7.5" y2="69.26"/><line class="cls-1" x1="21.07" y1="66.26" x2="12.32" y2="66.26"/><line class="cls-10" x1="74.62" y1="64.39" x2="88.14" y2="63.26"/><line class="cls-10" x1="74.62" y1="68.13" x2="88.14" y2="69.26"/><line class="cls-1" x1="74.58" y1="66.26" x2="83.33" y2="66.26"/><path class="cls-1" d="M27.22,50.54s4.87-2.3,8.45,0"/><path class="cls-1" d="M59.36,50.54s4.88-2.3,8.45,0"/><rect class="cls-11" x="0.06" y="-0.01" width="95" height="101"/><path class="cls-12" d="M53.22,77.11c3.78-.27,7.53-.82,11.29-1.27a2.54,2.54,0,0,0,1.77-1A4.9,4.9,0,0,0,67,73.64,6.22,6.22,0,0,0,66.35,67a3.4,3.4,0,0,0-3.74-1.47L60.48,66a20.26,20.26,0,0,1-3.39.41c-1.62.1-3.24.22-4.86.34m-11.18,1-5.32.59L30.25,69a2.38,2.38,0,0,0-2,1.33,10.67,10.67,0,0,0-1,3.57,3.83,3.83,0,0,0,0,1.07,6.76,6.76,0,0,0,1.9,3.67,2.75,2.75,0,0,0,2.28.85,6,6,0,0,0,1.12-.14,38.33,38.33,0,0,1,4.25-.8c1.8-.19,3.59-.39,5.39-.55"/><path class="cls-13" d="M52.23,66.74c1.62-.12,3.24-.24,4.86-.34A20.26,20.26,0,0,0,60.48,66l2.13-.46A3.4,3.4,0,0,1,66.35,67,6.22,6.22,0,0,1,67,73.64a4.9,4.9,0,0,1-.74,1.25,2.54,2.54,0,0,1-1.77,1c-3.76.45-7.51,1-11.29,1.27l-11,.88c-1.8.16-3.59.36-5.39.55a38.33,38.33,0,0,0-4.25.8,6,6,0,0,1-1.12.14,2.75,2.75,0,0,1-2.28-.85A6.76,6.76,0,0,1,27.28,75a3.83,3.83,0,0,1,0-1.07,10.67,10.67,0,0,1,1-3.57,2.38,2.38,0,0,1,2-1.33l5.48-.66,5.32-.59Zm13-.57a2,2,0,0,0-1.5-.55,8.41,8.41,0,0,0-1.32.12c-1.09.21-2.17.49-3.27.62-1.64.19-3.29.3-4.94.4-4.42.29-8.83.63-13.24,1.13-2.87.32-5.74.64-8.61,1-.83.1-1.66.13-2.48.31a1.83,1.83,0,0,0-1.34,1,10.14,10.14,0,0,0-1,3.88,6,6,0,0,0,1.7,4.15,3,3,0,0,0,2.91,1c.24,0,.48-.07.72-.12,1.19-.27,2.38-.54,3.59-.7,3.23-.44,6.48-.72,9.73-1,6.16-.45,12.31-1,18.42-1.86a2.46,2.46,0,0,0,1.83-1,6.68,6.68,0,0,0,1.13-4.29A6.34,6.34,0,0,0,65.18,66.17Z"/><path class="cls-14" d="M65.18,66.17a6.34,6.34,0,0,1,2.29,4.16,6.68,6.68,0,0,1-1.13,4.29,2.46,2.46,0,0,1-1.83,1c-6.11.89-12.26,1.41-18.42,1.86-3.25.23-6.5.51-9.73,1-1.21.16-2.4.43-3.59.7-.24,0-.48.08-.72.12a3,3,0,0,1-2.91-1,6,6,0,0,1-1.7-4.15,10.14,10.14,0,0,1,1-3.88,1.83,1.83,0,0,1,1.34-1c.82-.18,1.65-.21,2.48-.31,2.87-.36,5.74-.68,8.61-1,4.41-.5,8.82-.84,13.24-1.13,1.65-.1,3.3-.21,4.94-.4,1.1-.13,2.18-.41,3.27-.62a8.41,8.41,0,0,1,1.32-.12A2,2,0,0,1,65.18,66.17ZM54.5,72.82c-.09,0-.07-.09-.08-.14a3.89,3.89,0,0,1-.08-.83s0-.12,0-.14-.12,0-.14.1a.71.71,0,0,0,0,.21,5.61,5.61,0,0,0,.21,1.29,5.44,5.44,0,0,1,.2,1.44c-.06.71-.22.86-.92.9s-1.38.08-2.06.14c-2.41.24-4.81.53-7.24.61a11.33,11.33,0,0,0-2.83.42c0-.15,0-.28-.16-.31a.25.25,0,0,0-.3.2.24.24,0,0,0,.08.26.24.24,0,0,0,.32,0,13.69,13.69,0,0,1,2.86-.4c1.43-.09,2.86-.13,4.29-.3a44.22,44.22,0,0,1,4.87-.41,1.84,1.84,0,0,0,.66-.12.88.88,0,0,0,.57-.69c0-.12,0-.23.06-.34.1.07.22.14.34.06s.21-.21.12-.36-.3-.14-.46,0c-.07-.36-.13-.72-.2-1.09,0-.13-.1-.26,0-.4s.09,0,.13.07a.25.25,0,0,0,.4-.12.22.22,0,0,0-.12-.33c-.18-.08-.28,0-.36.16A.59.59,0,0,0,54.5,72.82Zm-14-3.32a1.69,1.69,0,0,0-.23.54,3.6,3.6,0,0,0,0,1.18,22.17,22.17,0,0,1,.48,4.67s0,.11.06.12a.13.13,0,0,0,.13-.08,1,1,0,0,0,0-.24,15.79,15.79,0,0,0-.29-3.29,15.6,15.6,0,0,1-.29-2,1.06,1.06,0,0,1,1-1.22,4.51,4.51,0,0,1,.53-.08c1.06-.13,2.12-.25,3.18-.39,2.09-.26,4.18-.56,6.28-.65h.16c.08,0,.16,0,.14-.14s-.1,0-.16,0c-.53,0-1.07.06-1.61.11-2.2.18-4.38.52-6.57.79a14.25,14.25,0,0,0-1.95.25A1.57,1.57,0,0,0,40.54,69.5ZM46,71.26a.25.25,0,0,0,0-.38.23.23,0,0,0-.35,0,.26.26,0,1,0,.38.35Zm4.06,3.55a.25.25,0,0,0-.37,0,.24.24,0,0,0,0,.37.23.23,0,0,0,.35,0A.25.25,0,0,0,50.09,74.81Zm8.72-3.43a.27.27,0,0,0-.37.06.25.25,0,0,0,0,.36.25.25,0,0,0,.38,0A.26.26,0,0,0,58.81,71.38Zm0,3.85a.26.26,0,0,0,.38,0,.25.25,0,0,0,0-.38.24.24,0,0,0-.35,0A.25.25,0,0,0,58.8,75.23Zm6.12-6.86a.23.23,0,0,0-.34,0,.23.23,0,0,0,0,.37.24.24,0,0,0,.36,0A.26.26,0,0,0,64.92,68.37Zm-.79,4.77a.26.26,0,1,0-.43-.29.24.24,0,0,0,0,.35C63.88,73.31,64,73.27,64.13,73.14ZM46.2,73a.26.26,0,1,0-.41-.32.23.23,0,0,0,0,.35A.25.25,0,0,0,46.2,73Zm7.46-1.17a.26.26,0,0,0-.37.05.25.25,0,0,0,0,.38.24.24,0,0,0,.35,0A.26.26,0,0,0,53.66,71.82Zm-6,3.32a.25.25,0,0,0-.38,0,.24.24,0,0,0,0,.36.23.23,0,0,0,.37,0A.25.25,0,0,0,47.67,75.14Zm.55-2.8a.25.25,0,0,0,.05.37c.13.11.26.07.37-.06a.24.24,0,0,0,0-.35A.25.25,0,0,0,48.22,72.34Zm10.42-2.68a.24.24,0,0,0-.37,0,.26.26,0,1,0,.4.34A.25.25,0,0,0,58.64,69.66Zm-23,.85a.25.25,0,0,0,0-.38.27.27,0,0,0-.34.41A.26.26,0,0,0,35.68,70.51Zm-1,2.79a.26.26,0,1,0-.37,0A.24.24,0,0,0,34.69,73.3Zm28.49-5.65a.25.25,0,0,0,0,.36.25.25,0,0,0,.38,0,.24.24,0,0,0-.05-.38A.26.26,0,0,0,63.18,67.65Zm-23.8,5.13a.27.27,0,0,0,.39-.06.24.24,0,0,0,0-.35.24.24,0,0,0-.38,0A.25.25,0,0,0,39.38,72.78ZM65.08,70a.27.27,0,0,0-.37.07.26.26,0,0,0,.42.32A.27.27,0,0,0,65.08,70Zm-25.17,4a.25.25,0,0,0-.37.06.24.24,0,0,0,.05.36.24.24,0,0,0,.37,0A.25.25,0,0,0,39.91,74.06Zm20.42.23a.26.26,0,0,0,0-.38.27.27,0,0,0-.36.4C60.07,74.43,60.2,74.4,60.33,74.29Zm-1.4-1.15a.25.25,0,0,0-.38,0,.25.25,0,0,0,0,.36.24.24,0,0,0,.37,0A.25.25,0,0,0,58.93,73.14Zm-1.18,1a.27.27,0,1,0,0,.37A.25.25,0,0,0,57.75,74.17ZM53.42,74a.25.25,0,0,0,.38,0,.23.23,0,0,0,0-.35.25.25,0,0,0-.4,0A.25.25,0,0,0,53.42,74ZM29.7,73.5a.26.26,0,0,0-.35.06.25.25,0,0,0,0,.38.24.24,0,0,0,.36,0A.25.25,0,0,0,29.7,73.5ZM31.13,76a.27.27,0,0,0-.33.42.24.24,0,0,0,.37,0A.25.25,0,0,0,31.13,76Zm7.07-6a.26.26,0,0,0-.37,0,.25.25,0,0,0,0,.38.23.23,0,0,0,.36,0A.24.24,0,0,0,38.2,69.92Zm-1.17,1a.25.25,0,0,0-.38,0,.24.24,0,0,0,0,.36.23.23,0,0,0,.36,0A.25.25,0,0,0,37,70.91Zm19.22.73a.25.25,0,0,0-.37,0,.24.24,0,0,0,0,.37.25.25,0,0,0,.36,0A.25.25,0,0,0,56.25,71.64Zm-2.77-1.56a.27.27,0,0,0-.32.43.24.24,0,0,0,.36,0A.26.26,0,0,0,53.48,70.08Zm8.11,3.23a.24.24,0,0,0,0-.36.25.25,0,0,0-.38,0,.26.26,0,1,0,.41.31ZM35.52,71.88a.26.26,0,0,0,0,.38.25.25,0,0,0,.36-.06.24.24,0,0,0,0-.38A.25.25,0,0,0,35.52,71.88Zm16.75-.43c.08-.13.11-.27,0-.38a.25.25,0,0,0-.36,0,.23.23,0,0,0,0,.36A.26.26,0,0,0,52.27,71.45Zm12,3a.26.26,0,0,0-.32.42.25.25,0,0,0,.36,0A.24.24,0,0,0,64.29,74.46ZM63.8,69.3a.27.27,0,0,0-.34.42.25.25,0,0,0,.38,0A.24.24,0,0,0,63.8,69.3ZM34.52,71.63a.23.23,0,0,0,0-.35.25.25,0,0,0-.38,0,.23.23,0,0,0,0,.36A.25.25,0,0,0,34.52,71.63Zm28.08-1c.08-.14.1-.27,0-.38a.23.23,0,0,0-.36,0,.25.25,0,0,0,0,.38A.26.26,0,0,0,62.6,70.6ZM52.47,73.15c.07-.13.1-.26,0-.36a.24.24,0,0,0-.38,0,.25.25,0,0,0,0,.38A.27.27,0,0,0,52.47,73.15ZM36.16,75.3a.24.24,0,0,0-.36.07.24.24,0,0,0,0,.35.26.26,0,1,0,.32-.42Zm8.59-3a.26.26,0,1,0-.38-.35.24.24,0,0,0,0,.38A.25.25,0,0,0,44.75,72.26Zm14.64-3.48c-.07.13-.09.26,0,.36a.24.24,0,0,0,.37,0,.25.25,0,0,0,0-.38A.27.27,0,0,0,59.39,68.78Zm-28,8.86a.25.25,0,0,0-.36,0,.24.24,0,0,0,0,.38.25.25,0,0,0,.38,0A.26.26,0,0,0,31.36,77.64Zm5.45-5a.25.25,0,0,0,0,.36.27.27,0,0,0,.35-.4A.25.25,0,0,0,36.81,72.63Zm.57,1.65a.26.26,0,0,0-.38.07.26.26,0,1,0,.42.3A.27.27,0,0,0,37.38,74.28Zm18.83.82a.25.25,0,0,0,0,.38.25.25,0,0,0,.36,0,.24.24,0,0,0,0-.36A.25.25,0,0,0,56.21,75.1Zm-26.3.13a.27.27,0,0,0-.35.4.24.24,0,0,0,.38,0A.23.23,0,0,0,29.91,75.23ZM49.59,70a.25.25,0,0,0,0-.36.26.26,0,1,0-.33.41A.24.24,0,0,0,49.59,70Zm-16.49.47a.27.27,0,0,0-.33.42.25.25,0,0,0,.38,0A.25.25,0,0,0,33.1,70.47Zm23.29,3.29a.25.25,0,0,0,0-.38.27.27,0,0,0-.34.41A.24.24,0,0,0,56.39,73.76Zm6.53-.06a.26.26,0,0,0-.37.07.26.26,0,1,0,.42.3C63.07,73.94,63,73.82,62.92,73.7Zm2.39-1.55a.26.26,0,0,0,0-.37.24.24,0,0,0-.38,0,.25.25,0,0,0,0,.38A.26.26,0,0,0,65.31,72.15Zm-.24,1.47a.24.24,0,0,0,.07.36.26.26,0,0,0,.3-.43A.25.25,0,0,0,65.07,73.62Zm-34,1a.26.26,0,0,0,0-.37.25.25,0,0,0-.38,0,.24.24,0,0,0,0,.36A.25.25,0,0,0,31.06,74.6Zm2.3-2.42a.27.27,0,0,0-.33.42.24.24,0,0,0,.36,0A.27.27,0,0,0,33.36,72.18Zm-3.2,5.14c.06-.07,0-.2-.07-.3a.27.27,0,1,0-.33.42C29.89,77.54,30,77.5,30.16,77.32Zm2.36-.57a.25.25,0,0,0-.38,0,.26.26,0,1,0,.38,0ZM33.7,76a.26.26,0,0,0-.05-.35.27.27,0,0,0-.35.4C33.43,76.19,33.56,76.14,33.7,76Zm1.16-1.38c-.15-.08-.28-.09-.39,0a.25.25,0,0,0,0,.36.24.24,0,0,0,.37,0A.27.27,0,0,0,34.86,74.64Zm.86-1a.25.25,0,0,0,0,.38.22.22,0,0,0,.35,0,.25.25,0,0,0,0-.38A.24.24,0,0,0,35.72,73.59Zm8.47-3.33a.23.23,0,0,0,.05.36.22.22,0,0,0,.35-.06.23.23,0,0,0,0-.37A.24.24,0,0,0,44.19,70.26Zm-1.72,4a.26.26,0,0,0,0-.38.27.27,0,1,0,0,.38Zm6-3.69a.27.27,0,0,0-.38,0,.26.26,0,0,0,.38.35A.26.26,0,0,0,48.44,70.56Zm-3.31,5.18a.26.26,0,0,0,0-.37.27.27,0,0,0-.34.42A.31.31,0,0,0,45.13,75.74Zm7-6a.25.25,0,0,0,0-.37.27.27,0,0,0-.35.4A.25.25,0,0,0,52.1,69.77Zm10.65,2.15a.25.25,0,0,0-.37.06.24.24,0,0,0,0,.36.25.25,0,0,0,.38,0A.25.25,0,0,0,62.75,71.92Zm-7-2a.25.25,0,0,0,0,.37.25.25,0,0,0,.36,0,.25.25,0,0,0,0-.38A.26.26,0,0,0,55.7,70Zm4.27.82a.25.25,0,0,0,0-.38.24.24,0,0,0-.36.06.23.23,0,0,0,0,.35A.25.25,0,0,0,60,70.78Zm2.43-2.25a.25.25,0,0,0-.36,0,.24.24,0,0,0,0,.38.23.23,0,0,0,.35,0A.26.26,0,0,0,62.4,68.53Zm-2.65,3.62a.25.25,0,0,0,0,.36.23.23,0,0,0,.37,0,.24.24,0,0,0,0-.36A.26.26,0,0,0,59.75,72.15Zm-30.15.06a.27.27,0,0,0-.05-.37.24.24,0,0,0-.37,0,.25.25,0,0,0,0,.36C29.35,72.37,29.48,72.31,29.6,72.21Zm1-1.44a.24.24,0,0,0-.35.08.24.24,0,0,0,.05.36.27.27,0,0,0,.3-.44Zm.31,2.09a.24.24,0,0,0,0-.36.25.25,0,0,0-.38,0,.24.24,0,0,0,0,.36A.25.25,0,0,0,30.89,72.86Zm2.61,4.52a.25.25,0,0,0,0,.37.24.24,0,0,0,.36,0,.26.26,0,1,0-.39-.34Zm13.79-5.75a.24.24,0,0,0-.35,0A.25.25,0,0,0,47,72a.23.23,0,0,0,.35,0A.25.25,0,0,0,47.29,71.63Zm-5,.52a.26.26,0,0,0-.37.06.23.23,0,0,0,0,.36.24.24,0,0,0,.37,0A.26.26,0,0,0,42.25,72.15Zm1.4,1.07a.25.25,0,0,0-.06-.37.24.24,0,0,0-.36.07.23.23,0,0,0,0,.35A.25.25,0,0,0,43.65,73.22Zm17.83-1.65a.25.25,0,0,0,0-.36.24.24,0,0,0-.38.05.23.23,0,0,0,0,.35A.25.25,0,0,0,61.48,71.57ZM64,71.41a.25.25,0,0,0,0-.36.27.27,0,0,0-.34.41A.26.26,0,0,0,64,71.41Zm-9.59-.53a.24.24,0,0,0,0,.37.22.22,0,0,0,.35,0,.26.26,0,1,0-.38-.34ZM61,67.76a.25.25,0,0,0-.37.06.24.24,0,0,0,0,.36.27.27,0,1,0,.33-.42ZM33.53,73.91a.27.27,0,0,0-.36,0,.25.25,0,0,0,0,.38.23.23,0,0,0,.37-.07A.26.26,0,0,0,33.53,73.91ZM58,68a.25.25,0,0,0,0,.36.24.24,0,0,0,.38,0,.25.25,0,0,0,0-.38A.26.26,0,0,0,58,68ZM31.6,71.62a.25.25,0,0,0,0,.34.27.27,0,0,0,.37-.38C31.88,71.46,31.74,71.48,31.6,71.62Zm24.22-3.43a.25.25,0,0,0-.36.07.25.25,0,1,0,.41.3A.25.25,0,0,0,55.82,68.19ZM51.11,72a.25.25,0,0,0-.37.08.23.23,0,0,0,0,.35.23.23,0,0,0,.37-.07A.25.25,0,0,0,51.11,72ZM31.79,73.28a.25.25,0,0,0,0,.38.27.27,0,0,0,.33-.42A.24.24,0,0,0,31.79,73.28Zm6.57,1.85a.26.26,0,1,0,.36,0A.24.24,0,0,0,38.36,75.13Zm11-3.78a.25.25,0,0,0,0,.38.24.24,0,0,0,.36,0,.24.24,0,0,0,0-.37A.25.25,0,0,0,49.35,71.35Zm-13.29,6a.23.23,0,0,0,.36,0,.25.25,0,0,0,0-.38A.24.24,0,0,0,36,77,.24.24,0,0,0,36.06,77.39Zm10.25-2.66a.24.24,0,0,0,0-.37.27.27,0,0,0-.36.39A.25.25,0,0,0,46.31,74.73Zm10.91-5.36a.25.25,0,0,0,0-.38.24.24,0,0,0-.36,0,.26.26,0,1,0,.36.37Zm-12.3,4.21a.25.25,0,0,0-.36,0,.24.24,0,0,0,0,.38.23.23,0,0,0,.35,0A.25.25,0,0,0,44.92,73.58Zm7.72,1.35a.23.23,0,0,0,0-.35.25.25,0,0,0-.38,0,.23.23,0,0,0,0,.35A.25.25,0,0,0,52.64,74.93Zm-3.9-.53a.23.23,0,0,0,0-.36.24.24,0,0,0-.36,0,.24.24,0,0,0,0,.38A.24.24,0,0,0,48.74,74.4ZM61.3,69.84a.25.25,0,1,0-.38-.34.25.25,0,0,0,0,.38A.24.24,0,0,0,61.3,69.84Zm-10,4.33a.25.25,0,0,0,0-.38.26.26,0,1,0,0,.38ZM39.73,75.91a.25.25,0,1,0,.39.32.25.25,0,1,0-.39-.32ZM57.39,71a.24.24,0,0,0,0-.39.24.24,0,0,0-.35.07.25.25,0,0,0,0,.36A.24.24,0,0,0,57.39,71ZM43.74,75a.24.24,0,0,0,0-.37.22.22,0,0,0-.35,0,.23.23,0,0,0,0,.37A.24.24,0,0,0,43.74,75Zm6.18-2a.27.27,0,1,0,0,.36A.25.25,0,0,0,49.92,73ZM37.57,76.45a.22.22,0,0,0,0-.36.23.23,0,0,0-.37,0,.25.25,0,1,0,.39.31Zm1.61-5.71a.25.25,0,0,0,.07.37.24.24,0,0,0,.35-.06.25.25,0,0,0-.05-.38A.26.26,0,0,0,39.18,70.74Zm-.23,6a.25.25,0,0,0-.38.06.23.23,0,0,0,0,.35.24.24,0,0,0,.36,0A.26.26,0,0,0,39,76.76Zm-.72-3.35a.24.24,0,0,0,0,.35.25.25,0,0,0,.38-.06.24.24,0,0,0,0-.35A.25.25,0,0,0,38.23,73.41Zm19.35-.67a.26.26,0,1,0-.39-.33.24.24,0,0,0,.05.37A.23.23,0,0,0,57.58,72.74ZM35,76.81a.25.25,0,1,0-.38-.33.25.25,0,1,0,.38.33Zm7.08-6a.23.23,0,0,0,0-.37.24.24,0,0,0-.35.06.25.25,0,1,0,.4.31ZM38.46,72a.25.25,0,0,0,0-.38.27.27,0,1,0,0,.38Zm-6.09,3.32a.23.23,0,0,0,0-.35A.24.24,0,0,0,32,75a.24.24,0,0,0,.05.37A.23.23,0,0,0,32.37,75.31ZM51,70.67a.24.24,0,0,0,0-.35.27.27,0,0,0-.34.41A.25.25,0,0,0,51,70.67Zm-3.48,3a.26.26,0,1,0-.4-.32.24.24,0,0,0,.06.37A.22.22,0,0,0,47.51,73.71Zm13.9,1a.24.24,0,0,0,0,.36.23.23,0,0,0,.37,0,.23.23,0,0,0,0-.35A.24.24,0,0,0,61.41,74.67ZM47.17,70.3a.24.24,0,0,0-.06-.36.23.23,0,0,0-.35.07.22.22,0,0,0,0,.35C46.92,70.47,47.05,70.44,47.17,70.3Zm7.06-1.07a.23.23,0,0,0,.05.34.26.26,0,1,0,.32-.42C54.47,69.06,54.35,69.09,54.23,69.23ZM43.47,71.5c.09-.13.11-.26,0-.36a.27.27,0,0,0-.36.39A.26.26,0,0,0,43.47,71.5Zm9.78-3.12c-.09,0-.21-.12-.27,0s-.22.25-.08.4a.23.23,0,0,0,.38,0C53.38,68.65,53.36,68.52,53.25,68.38ZM42.63,75.66a.26.26,0,0,0-.37,0c-.09.1-.13.25,0,.33a.38.38,0,0,0,.42-.06C42.78,75.88,42.71,75.75,42.63,75.66Z"/><path class="cls-13" d="M40.54,69.5a1.57,1.57,0,0,1,.88-.51,14.25,14.25,0,0,1,1.95-.25c2.19-.27,4.37-.61,6.57-.79.54,0,1.08-.07,1.61-.11.06,0,.15,0,.16,0s-.06.13-.14.14h-.16c-2.1.09-4.19.39-6.28.65-1.06.14-2.12.26-3.18.39a4.51,4.51,0,0,0-.53.08,1.06,1.06,0,0,0-1,1.22,15.6,15.6,0,0,0,.29,2A15.79,15.79,0,0,1,41,75.69a1,1,0,0,1,0,.24.13.13,0,0,1-.13.08c-.08,0-.07-.07-.06-.12a22.17,22.17,0,0,0-.48-4.67,3.6,3.6,0,0,1,0-1.18A1.69,1.69,0,0,1,40.54,69.5Z"/><path class="cls-13" d="M41.5,76.82a11.33,11.33,0,0,1,2.83-.42c2.43-.08,4.83-.37,7.24-.61.68-.06,1.37-.09,2.06-.14s.86-.19.92-.9a5.44,5.44,0,0,0-.2-1.44A5.61,5.61,0,0,1,54.14,72a.71.71,0,0,1,0-.21c0-.06.07-.12.14-.1s0,.09,0,.14a3.89,3.89,0,0,0,.08.83s0,.13.08.14h0s0,.06,0,.08h0c-.06.14,0,.27,0,.4.07.37.13.73.2,1.09-.06.11,0,.22,0,.33s0,.22-.06.34a.88.88,0,0,1-.57.69,1.84,1.84,0,0,1-.66.12,44.22,44.22,0,0,0-4.87.41c-1.43.17-2.86.21-4.29.3a13.69,13.69,0,0,0-2.86.4C41.41,76.91,41.49,76.88,41.5,76.82Z"/><path class="cls-12" d="M46,71.26a.26.26,0,1,1-.38-.35.23.23,0,0,1,.35,0A.25.25,0,0,1,46,71.26Z"/><path class="cls-12" d="M50.09,74.81a.25.25,0,0,1,0,.38.23.23,0,0,1-.35,0,.24.24,0,0,1,0-.37A.25.25,0,0,1,50.09,74.81Z"/><path class="cls-12" d="M58.81,71.38a.26.26,0,0,1,0,.39.25.25,0,0,1-.38,0,.25.25,0,0,1,0-.36A.27.27,0,0,1,58.81,71.38Z"/><path class="cls-12" d="M58.8,75.23a.25.25,0,0,1,0-.38.24.24,0,0,1,.35,0,.25.25,0,0,1,0,.38A.26.26,0,0,1,58.8,75.23Z"/><path class="cls-12" d="M64.92,68.37a.26.26,0,0,1,0,.4.24.24,0,0,1-.36,0,.23.23,0,0,1,0-.37A.23.23,0,0,1,64.92,68.37Z"/><path class="cls-12" d="M64.13,73.14c-.12.13-.25.17-.38.06a.24.24,0,0,1,0-.35.26.26,0,1,1,.43.29Z"/><path class="cls-12" d="M46.2,73a.25.25,0,0,1-.37,0,.23.23,0,0,1,0-.35.26.26,0,1,1,.41.32Z"/><path class="cls-12" d="M53.66,71.82a.26.26,0,0,1,0,.39.24.24,0,0,1-.35,0,.25.25,0,0,1,0-.38A.26.26,0,0,1,53.66,71.82Z"/><path class="cls-12" d="M47.67,75.14a.25.25,0,0,1,0,.36.23.23,0,0,1-.37,0,.24.24,0,0,1,0-.36A.25.25,0,0,1,47.67,75.14Z"/><path class="cls-12" d="M48.22,72.34a.25.25,0,0,1,.38,0,.24.24,0,0,1,0,.35c-.11.13-.24.17-.37.06A.25.25,0,0,1,48.22,72.34Z"/><path class="cls-12" d="M58.64,69.66a.25.25,0,0,1,0,.38.26.26,0,1,1-.4-.34A.24.24,0,0,1,58.64,69.66Z"/><path class="cls-12" d="M35.68,70.51a.26.26,0,0,1-.38,0,.27.27,0,0,1,.34-.41A.25.25,0,0,1,35.68,70.51Z"/><path class="cls-12" d="M34.69,73.3a.24.24,0,0,1-.37,0,.26.26,0,1,1,.37,0Z"/><path class="cls-12" d="M63.18,67.65a.26.26,0,0,1,.36-.06.24.24,0,0,1,.05.38.25.25,0,0,1-.38,0A.25.25,0,0,1,63.18,67.65Z"/><path class="cls-12" d="M39.38,72.78a.25.25,0,0,1,0-.36.24.24,0,0,1,.38,0,.24.24,0,0,1,0,.35A.27.27,0,0,1,39.38,72.78Z"/><path class="cls-12" d="M65.08,70a.27.27,0,0,1,0,.39.26.26,0,0,1-.42-.32A.27.27,0,0,1,65.08,70Z"/><path class="cls-12" d="M39.91,74.06a.25.25,0,0,1,.05.37.24.24,0,0,1-.37,0,.24.24,0,0,1-.05-.36A.25.25,0,0,1,39.91,74.06Z"/><path class="cls-12" d="M60.33,74.29c-.13.11-.26.14-.38,0a.27.27,0,0,1,.36-.4A.26.26,0,0,1,60.33,74.29Z"/><path class="cls-12" d="M54.5,72.82a.59.59,0,0,1,.06-.14c.08-.15.18-.24.36-.16a.22.22,0,0,1,.12.33.25.25,0,0,1-.4.12s-.06-.08-.13-.07h0c.05,0,0-.06,0-.08Z"/><path class="cls-12" d="M58.93,73.14a.25.25,0,0,1,0,.37.24.24,0,0,1-.37,0,.25.25,0,0,1,0-.36A.25.25,0,0,1,58.93,73.14Z"/><path class="cls-12" d="M57.75,74.17a.27.27,0,0,1-.35.4.27.27,0,1,1,.35-.4Z"/><path class="cls-12" d="M53.42,74a.25.25,0,0,1,0-.36.25.25,0,0,1,.4,0,.23.23,0,0,1,0,.35A.25.25,0,0,1,53.42,74Z"/><path class="cls-12" d="M29.7,73.5a.25.25,0,0,1,0,.39.24.24,0,0,1-.36,0,.25.25,0,0,1,0-.38A.26.26,0,0,1,29.7,73.5Z"/><path class="cls-12" d="M31.13,76a.25.25,0,0,1,0,.37.24.24,0,0,1-.37,0,.27.27,0,0,1,.33-.42Z"/><path class="cls-12" d="M38.2,69.92a.24.24,0,0,1,0,.37.23.23,0,0,1-.36,0,.25.25,0,0,1,0-.38A.26.26,0,0,1,38.2,69.92Z"/><path class="cls-12" d="M37,70.91a.25.25,0,0,1,0,.38.23.23,0,0,1-.36,0,.24.24,0,0,1,0-.36A.25.25,0,0,1,37,70.91Z"/><path class="cls-12" d="M56.25,71.64a.25.25,0,0,1,0,.37.25.25,0,0,1-.36,0,.24.24,0,0,1,0-.37A.25.25,0,0,1,56.25,71.64Z"/><path class="cls-12" d="M53.48,70.08a.26.26,0,0,1,0,.39.24.24,0,0,1-.36,0,.27.27,0,0,1,.32-.43Z"/><path class="cls-12" d="M61.59,73.31a.26.26,0,1,1-.41-.31.25.25,0,0,1,.38,0A.24.24,0,0,1,61.59,73.31Z"/><path class="cls-12" d="M35.52,71.88a.25.25,0,0,1,.36-.06.24.24,0,0,1,0,.38.25.25,0,0,1-.36.06A.26.26,0,0,1,35.52,71.88Z"/><path class="cls-12" d="M52.27,71.45a.26.26,0,0,1-.39,0,.23.23,0,0,1,0-.36.25.25,0,0,1,.36,0C52.38,71.18,52.35,71.32,52.27,71.45Z"/><path class="cls-12" d="M64.29,74.46a.24.24,0,0,1,0,.38.25.25,0,0,1-.36,0,.26.26,0,0,1,.32-.42Z"/><path class="cls-12" d="M63.8,69.3a.24.24,0,0,1,0,.37.25.25,0,0,1-.38,0,.27.27,0,0,1,.34-.42Z"/><path class="cls-12" d="M34.52,71.63a.25.25,0,0,1-.38,0,.23.23,0,0,1,0-.36.25.25,0,0,1,.38,0A.23.23,0,0,1,34.52,71.63Z"/><path class="cls-12" d="M62.6,70.6a.26.26,0,0,1-.37,0,.25.25,0,0,1,0-.38.23.23,0,0,1,.36,0C62.7,70.33,62.68,70.46,62.6,70.6Z"/><path class="cls-12" d="M52.47,73.15a.27.27,0,0,1-.37,0,.25.25,0,0,1,0-.38.24.24,0,0,1,.38,0C52.57,72.89,52.54,73,52.47,73.15Z"/><path class="cls-12" d="M36.16,75.3a.26.26,0,1,1-.32.42.24.24,0,0,1,0-.35A.24.24,0,0,1,36.16,75.3Z"/><path class="cls-12" d="M44.75,72.26a.25.25,0,0,1-.36,0,.24.24,0,0,1,0-.38.26.26,0,1,1,.38.35Z"/><path class="cls-12" d="M59.39,68.78a.27.27,0,0,1,.38-.06.25.25,0,0,1,0,.38.24.24,0,0,1-.37,0C59.3,69,59.32,68.91,59.39,68.78Z"/><path class="cls-12" d="M31.36,77.64a.26.26,0,0,1,0,.36.25.25,0,0,1-.38,0,.24.24,0,0,1,0-.38A.25.25,0,0,1,31.36,77.64Z"/><path class="cls-12" d="M36.81,72.63a.25.25,0,0,1,.38,0,.27.27,0,0,1-.35.4A.25.25,0,0,1,36.81,72.63Z"/><path class="cls-12" d="M37.38,74.28a.27.27,0,0,1,0,.37.26.26,0,1,1-.42-.3A.26.26,0,0,1,37.38,74.28Z"/><path class="cls-12" d="M56.21,75.1a.25.25,0,0,1,.38,0,.24.24,0,0,1,0,.36.25.25,0,0,1-.36,0A.25.25,0,0,1,56.21,75.1Z"/><path class="cls-12" d="M29.91,75.23a.23.23,0,0,1,0,.36.24.24,0,0,1-.38,0,.27.27,0,0,1,.35-.4Z"/><path class="cls-12" d="M49.59,70a.24.24,0,0,1-.36,0,.26.26,0,1,1,.33-.41A.25.25,0,0,1,49.59,70Z"/><path class="cls-12" d="M33.1,70.47a.25.25,0,0,1,0,.39.25.25,0,0,1-.38,0,.27.27,0,0,1,.33-.42Z"/><path class="cls-12" d="M56.39,73.76a.24.24,0,0,1-.37,0,.27.27,0,0,1,.34-.41A.25.25,0,0,1,56.39,73.76Z"/><path class="cls-12" d="M62.92,73.7c.11.12.15.24,0,.37a.26.26,0,1,1-.42-.3A.26.26,0,0,1,62.92,73.7Z"/><path class="cls-12" d="M65.31,72.15a.26.26,0,0,1-.36,0,.25.25,0,0,1,0-.38.24.24,0,0,1,.38,0A.26.26,0,0,1,65.31,72.15Z"/><path class="cls-12" d="M65.07,73.62a.25.25,0,0,1,.37-.07.26.26,0,0,1-.3.43A.24.24,0,0,1,65.07,73.62Z"/><path class="cls-12" d="M31.06,74.6a.25.25,0,0,1-.37,0,.24.24,0,0,1,0-.36.25.25,0,0,1,.38,0A.26.26,0,0,1,31.06,74.6Z"/><path class="cls-12" d="M33.36,72.18a.27.27,0,0,1,0,.39.24.24,0,0,1-.36,0,.27.27,0,0,1,.33-.42Z"/><path class="cls-12" d="M30.16,77.32c-.15.18-.27.22-.4.12a.27.27,0,1,1,.33-.42C30.2,77.12,30.22,77.25,30.16,77.32Z"/><path class="cls-12" d="M32.52,76.75a.27.27,0,1,1-.38,0A.25.25,0,0,1,32.52,76.75Z"/><path class="cls-12" d="M33.7,76c-.14.12-.27.17-.4,0a.27.27,0,0,1,.35-.4A.26.26,0,0,1,33.7,76Z"/><path class="cls-12" d="M34.86,74.64a.27.27,0,0,1,0,.37.24.24,0,0,1-.37,0,.25.25,0,0,1,0-.36C34.58,74.55,34.71,74.56,34.86,74.64Z"/><path class="cls-12" d="M35.72,73.59a.24.24,0,0,1,.36,0,.25.25,0,0,1,0,.38.22.22,0,0,1-.35,0A.25.25,0,0,1,35.72,73.59Z"/><path class="cls-12" d="M44.19,70.26a.24.24,0,0,1,.36-.07.23.23,0,0,1,0,.37.22.22,0,0,1-.35.06A.23.23,0,0,1,44.19,70.26Z"/><path class="cls-12" d="M42.47,74.25a.26.26,0,1,1,0-.38A.26.26,0,0,1,42.47,74.25Z"/><path class="cls-12" d="M48.44,70.56a.26.26,0,0,1,0,.39.26.26,0,0,1-.38-.35A.27.27,0,0,1,48.44,70.56Z"/><path class="cls-12" d="M45.13,75.74a.31.31,0,0,1-.38.05.27.27,0,0,1,.34-.42A.26.26,0,0,1,45.13,75.74Z"/><path class="cls-12" d="M52.1,69.77a.25.25,0,0,1-.36,0,.27.27,0,0,1,.35-.4A.25.25,0,0,1,52.1,69.77Z"/><path class="cls-12" d="M62.75,71.92a.25.25,0,0,1,0,.37.25.25,0,0,1-.38,0,.24.24,0,0,1,0-.36A.25.25,0,0,1,62.75,71.92Z"/><path class="cls-12" d="M55.7,70a.26.26,0,0,1,.38-.06.25.25,0,0,1,0,.38.25.25,0,0,1-.36,0A.25.25,0,0,1,55.7,70Z"/><path class="cls-12" d="M54.75,74.72c0-.11-.06-.22,0-.33s.33-.19.46,0,0,.27-.12.36S54.85,74.79,54.75,74.72Z"/><path class="cls-12" d="M60,70.78a.25.25,0,0,1-.38,0,.23.23,0,0,1,0-.35.24.24,0,0,1,.36-.06A.25.25,0,0,1,60,70.78Z"/><path class="cls-12" d="M62.4,68.53a.26.26,0,0,1,0,.38.23.23,0,0,1-.35,0,.24.24,0,0,1,0-.38A.25.25,0,0,1,62.4,68.53Z"/><path class="cls-12" d="M59.75,72.15a.26.26,0,0,1,.39,0,.24.24,0,0,1,0,.36.23.23,0,0,1-.37,0A.25.25,0,0,1,59.75,72.15Z"/><path class="cls-12" d="M29.6,72.21c-.12.1-.25.16-.39,0a.25.25,0,0,1,0-.36.24.24,0,0,1,.37,0A.27.27,0,0,1,29.6,72.21Z"/><path class="cls-12" d="M30.58,70.77a.27.27,0,0,1-.3.44.24.24,0,0,1-.05-.36A.24.24,0,0,1,30.58,70.77Z"/><path class="cls-12" d="M30.89,72.86a.25.25,0,0,1-.38,0,.24.24,0,0,1,0-.36.25.25,0,0,1,.38,0A.24.24,0,0,1,30.89,72.86Z"/><path class="cls-12" d="M33.5,77.38a.26.26,0,1,1,.39.34.24.24,0,0,1-.36,0A.25.25,0,0,1,33.5,77.38Z"/><path class="cls-12" d="M47.29,71.63a.25.25,0,0,1,0,.39A.23.23,0,0,1,47,72a.25.25,0,0,1,0-.38A.24.24,0,0,1,47.29,71.63Z"/><path class="cls-12" d="M42.25,72.15a.26.26,0,0,1,0,.37.24.24,0,0,1-.37,0,.23.23,0,0,1,0-.36A.26.26,0,0,1,42.25,72.15Z"/><path class="cls-12" d="M43.65,73.22a.25.25,0,0,1-.38,0,.23.23,0,0,1,0-.35.24.24,0,0,1,.36-.07A.25.25,0,0,1,43.65,73.22Z"/><path class="cls-12" d="M61.48,71.57a.25.25,0,0,1-.38,0,.23.23,0,0,1,0-.35.24.24,0,0,1,.38-.05A.25.25,0,0,1,61.48,71.57Z"/><path class="cls-12" d="M64,71.41a.26.26,0,0,1-.38,0,.27.27,0,0,1,.34-.41A.25.25,0,0,1,64,71.41Z"/><path class="cls-12" d="M54.42,70.88a.26.26,0,1,1,.38.34.22.22,0,0,1-.35,0A.24.24,0,0,1,54.42,70.88Z"/><path class="cls-12" d="M61,67.76a.27.27,0,1,1-.33.42.24.24,0,0,1,0-.36A.25.25,0,0,1,61,67.76Z"/><path class="cls-12" d="M33.53,73.91a.26.26,0,0,1,0,.36.23.23,0,0,1-.37.07.25.25,0,0,1,0-.38A.27.27,0,0,1,33.53,73.91Z"/><path class="cls-12" d="M58,68a.26.26,0,0,1,.36,0,.25.25,0,0,1,0,.38.24.24,0,0,1-.38,0A.25.25,0,0,1,58,68Z"/><path class="cls-12" d="M31.6,71.62c.14-.14.28-.16.4,0a.27.27,0,0,1-.37.38A.25.25,0,0,1,31.6,71.62Z"/><path class="cls-12" d="M55.82,68.19a.25.25,0,0,1,0,.37.25.25,0,1,1-.41-.3A.25.25,0,0,1,55.82,68.19Z"/><path class="cls-12" d="M51.11,72a.25.25,0,0,1,0,.36.23.23,0,0,1-.37.07.23.23,0,0,1,0-.35A.25.25,0,0,1,51.11,72Z"/><path class="cls-12" d="M31.79,73.28a.24.24,0,0,1,.35,0,.27.27,0,0,1-.33.42A.25.25,0,0,1,31.79,73.28Z"/><path class="cls-12" d="M38.36,75.13a.24.24,0,0,1,.36,0,.27.27,0,1,1-.36,0Z"/><path class="cls-12" d="M49.35,71.35a.25.25,0,0,1,.36,0,.24.24,0,0,1,0,.37.24.24,0,0,1-.36,0A.25.25,0,0,1,49.35,71.35Z"/><path class="cls-12" d="M36.06,77.39A.24.24,0,0,1,36,77a.24.24,0,0,1,.36,0,.25.25,0,0,1,0,.38A.23.23,0,0,1,36.06,77.39Z"/><path class="cls-12" d="M46.31,74.73a.25.25,0,0,1-.39,0,.27.27,0,0,1,.36-.39A.24.24,0,0,1,46.31,74.73Z"/><path class="cls-12" d="M57.22,69.37a.26.26,0,1,1-.36-.37.24.24,0,0,1,.36,0A.25.25,0,0,1,57.22,69.37Z"/><path class="cls-12" d="M44.92,73.58a.25.25,0,0,1,0,.38.23.23,0,0,1-.35,0,.24.24,0,0,1,0-.38A.25.25,0,0,1,44.92,73.58Z"/><path class="cls-12" d="M52.64,74.93a.25.25,0,0,1-.39,0,.23.23,0,0,1,0-.35.25.25,0,0,1,.38,0A.23.23,0,0,1,52.64,74.93Z"/><path class="cls-12" d="M48.74,74.4a.24.24,0,0,1-.36.06.24.24,0,0,1,0-.38.24.24,0,0,1,.36,0A.23.23,0,0,1,48.74,74.4Z"/><path class="cls-12" d="M61.3,69.84a.24.24,0,0,1-.36,0,.25.25,0,0,1,0-.38.25.25,0,1,1,.38.34Z"/><path class="cls-12" d="M51.25,74.17a.25.25,0,1,1,0-.38A.25.25,0,0,1,51.25,74.17Z"/><path class="cls-12" d="M39.73,75.91a.25.25,0,1,1,0,.37A.24.24,0,0,1,39.73,75.91Z"/><path class="cls-12" d="M57.39,71a.24.24,0,0,1-.36,0,.25.25,0,0,1,0-.36.24.24,0,0,1,.35-.07A.24.24,0,0,1,57.39,71Z"/><path class="cls-12" d="M43.74,75a.24.24,0,0,1-.37,0,.23.23,0,0,1,0-.37.22.22,0,0,1,.35,0A.24.24,0,0,1,43.74,75Z"/><path class="cls-12" d="M49.92,73a.27.27,0,1,1-.36,0A.25.25,0,0,1,49.92,73Z"/><path class="cls-12" d="M37.57,76.45a.25.25,0,1,1-.39-.31.23.23,0,0,1,.37,0A.22.22,0,0,1,37.57,76.45Z"/><path class="cls-12" d="M39.18,70.74a.26.26,0,0,1,.37-.07.25.25,0,0,1,.05.38.24.24,0,0,1-.35.06A.25.25,0,0,1,39.18,70.74Z"/><path class="cls-12" d="M39,76.76a.26.26,0,0,1,0,.38.24.24,0,0,1-.36,0,.23.23,0,0,1,0-.35A.25.25,0,0,1,39,76.76Z"/><path class="cls-12" d="M38.23,73.41a.25.25,0,0,1,.38-.06.24.24,0,0,1,0,.35.25.25,0,0,1-.38.06A.24.24,0,0,1,38.23,73.41Z"/><path class="cls-12" d="M57.58,72.74a.23.23,0,0,1-.34,0,.24.24,0,0,1-.05-.37.26.26,0,1,1,.39.33Z"/><path class="cls-12" d="M35,76.81a.25.25,0,1,1-.38-.33.25.25,0,1,1,.38.33Z"/><path class="cls-12" d="M42.12,70.84a.25.25,0,1,1,0-.37A.23.23,0,0,1,42.12,70.84Z"/><path class="cls-12" d="M38.46,72a.26.26,0,1,1,0-.38A.25.25,0,0,1,38.46,72Z"/><path class="cls-12" d="M32.37,75.31a.23.23,0,0,1-.35.06A.24.24,0,0,1,32,75a.24.24,0,0,1,.38,0A.23.23,0,0,1,32.37,75.31Z"/><path class="cls-12" d="M51,70.67a.25.25,0,0,1-.38.06.27.27,0,1,1,.38-.06Z"/><path class="cls-12" d="M47.51,73.71a.22.22,0,0,1-.34.05.24.24,0,0,1-.06-.37.26.26,0,1,1,.4.32Z"/><path class="cls-12" d="M61.41,74.67a.24.24,0,0,1,.37,0,.23.23,0,0,1,0,.35.23.23,0,0,1-.37,0A.24.24,0,0,1,61.41,74.67Z"/><path class="cls-12" d="M47.17,70.3c-.12.14-.25.17-.38.06a.22.22,0,0,1,0-.35.23.23,0,0,1,.35-.07A.24.24,0,0,1,47.17,70.3Z"/><path class="cls-12" d="M54.23,69.23c.12-.14.24-.17.37-.08a.26.26,0,1,1-.32.42A.23.23,0,0,1,54.23,69.23Z"/><path class="cls-12" d="M43.47,71.5a.26.26,0,0,1-.38,0,.27.27,0,0,1,.36-.39C43.58,71.24,43.56,71.37,43.47,71.5Z"/><path class="cls-12" d="M41.5,76.82c0,.06-.09.09-.06.16a.24.24,0,0,1-.32,0,.24.24,0,0,1-.08-.26.25.25,0,0,1,.3-.2C41.53,76.54,41.53,76.67,41.5,76.82Z"/><path class="cls-12" d="M53.25,68.38c.11.14.13.27,0,.38a.23.23,0,0,1-.38,0c-.14-.15,0-.28.08-.4S53.16,68.36,53.25,68.38Z"/><path class="cls-12" d="M42.63,75.66c.08.09.15.22,0,.3a.38.38,0,0,1-.42.06c-.12-.08-.08-.23,0-.33A.26.26,0,0,1,42.63,75.66Z"/><path class="cls-14" d="M54.5,72.82s.06,0,0,.08S54.45,72.86,54.5,72.82Z"/><line class="cls-4" x1="61.27" y1="54.12" x2="66.2" y2="59.87"/><line class="cls-4" x1="66.2" y1="54.12" x2="61.27" y2="59.87"/><line class="cls-4" x1="28.84" y1="54.12" x2="33.78" y2="59.87"/><line class="cls-4" x1="33.78" y1="54.12" x2="28.84" y2="59.87"/></svg>