<svg id="Layer_1" data-name="Layer 1" xmlns="http://www.w3.org/2000/svg" xmlns:xlink="http://www.w3.org/1999/xlink" viewBox="0 0 95 101"><defs><style>.cls-1,.cls-13{fill:none;}.cls-1,.cls-12,.cls-3,.cls-4,.cls-5,.cls-6{stroke:#1d1d1b;}.cls-1,.cls-12,.cls-3,.cls-5,.cls-6{stroke-linecap:round;stroke-linejoin:round;}.cls-2{opacity:0.39;}.cls-3{fill:#f6ae8b;}.cls-4{fill:#706f6f;stroke-miterlimit:10;stroke-width:0.5px;}.cls-5{fill:#f5d2a2;}.cls-6,.cls-8{fill:#e06ba3;}.cls-7{fill:#1d1d1b;}.cls-12,.cls-9{fill:#fff;}.cls-10{clip-path:url(#clip-path);}.cls-11{fill:#b17f4a;}</style><clipPath id="clip-path"><path class="cls-1" d="M47.37,84.66a46.78,46.78,0,0,0,21.56-4.51c4.63-2.26,10-5.25,11.62-10.79a15.08,15.08,0,0,0-.32-8.44c.17-1.47,4.12-15.83-10.58-28a32.57,32.57,0,0,0-22.2-7.56h-.08a32.55,32.55,0,0,0-22.2,7.56c-14.7,12.18-10.75,26.54-10.58,28a15,15,0,0,0-.32,8.44c1.61,5.54,7,8.53,11.62,10.79a46.76,46.76,0,0,0,21.56,4.51Z"/></clipPath></defs><title>V2Artboard 5</title><g class="cls-2"><circle class="cls-3" cx="47.17" cy="46.88" r="46.31"/><path class="cls-4" d="M12.9,59.82S0,77,10.28,81.34s23.13,10,37.13,10.14S83.22,81.34,83.22,81.34s7.4-3.48-.48-21.52"/><path class="cls-5" d="M42,83.29l-1.51,9.43s7.69,1.5,13.56,0l-1.27-9.4Z"/><path class="cls-5" d="M13.71,51.85C7.19,30.92,12.52,20.5,12.52,20.5s16.15.24,22,8.2"/><path class="cls-5" d="M80.66,51.85c6.53-20.93,1.2-31.35,1.2-31.35s-16.16.24-22,8.2"/><path class="cls-6" d="M18.12,44c-3.23-10.39-.59-15.56-.59-15.56s8,.11,10.9,4.06"/><path class="cls-6" d="M76.25,44c3.24-10.39.59-15.56.59-15.56s-8,.11-10.9,4.06"/><path class="cls-5" d="M47.37,84.66a46.78,46.78,0,0,0,21.56-4.51c4.63-2.26,10-5.25,11.62-10.79a15.08,15.08,0,0,0-.32-8.44c.17-1.47,4.12-15.83-10.58-28a32.57,32.57,0,0,0-22.2-7.56h-.08a32.55,32.55,0,0,0-22.2,7.56c-14.7,12.18-10.75,26.54-10.58,28a15,15,0,0,0-.32,8.44c1.61,5.54,7,8.53,11.62,10.79a46.76,46.76,0,0,0,21.56,4.51Z"/><ellipse class="cls-7" cx="31.28" cy="58.63" rx="5.03" ry="5.19"/><ellipse class="cls-8" cx="27.21" cy="65.96" rx="3.16" ry="1.78"/><path class="cls-7" d="M51,66.64c0,1.16-3.58,2.78-3.58,2.78s-3.59-1.62-3.59-2.78,1.61-2.09,3.59-2.09S51,65.49,51,66.64Z"/><ellipse class="cls-9" cx="29.32" cy="56.55" rx="0.89" ry="0.92"/><path class="cls-1" d="M47.37,69.42a7.54,7.54,0,0,1-5.35,2"/><path class="cls-1" d="M47.41,69.42a7.54,7.54,0,0,0,5.35,2"/><g class="cls-10"><ellipse class="cls-11" cx="65.94" cy="55.63" rx="17.28" ry="17.82"/></g><path class="cls-1" d="M47.37,84.66a46.78,46.78,0,0,0,21.56-4.51c4.63-2.26,10-5.25,11.62-10.79a15.08,15.08,0,0,0-.32-8.44c.17-1.47,4.12-15.83-10.58-28a32.57,32.57,0,0,0-22.2-7.56h-.08a32.55,32.55,0,0,0-22.2,7.56c-14.7,12.18-10.75,26.54-10.58,28a15,15,0,0,0-.32,8.44c1.61,5.54,7,8.53,11.62,10.79a46.76,46.76,0,0,0,21.56,4.51Z"/><ellipse class="cls-7" cx="63.58" cy="58.63" rx="5.03" ry="5.19"/><ellipse class="cls-8" cx="67.65" cy="65.96" rx="3.16" ry="1.78"/><ellipse class="cls-9" cx="61.48" cy="56.55" rx="0.89" ry="0.92"/><path class="cls-4" d="M83.17,61.12c1.5-3.17,1.51-6.52,1.21-9.87-.07-.72-.09-1.43-.14-2.15-.71-5.3-3.28-10.22-5-15.31-4.13-12.08-17.56-19.31-31.81-19-14.25-.34-27.68,6.89-31.81,19-1.75,5.09-4.31,10-5,15.31,0,.72-.06,1.43-.13,2.15-.3,3.35-.29,6.7,1.2,9.87.88,1.85,1.95,7.56,2.16,5.67.36-3.23,1.75-6.5,1.35-7.15s-.41-2.17,1.07-1.91c1.12.19,1.75-1.38,2.25-2.28a2,2,0,0,1,1.64-.92c-.56-1.87.8-1.07,1.12-2.83.56-3.09,0-6.19,2.17-8.9,2.94-3.64,7.41-5.48,12.46-6.55a52.83,52.83,0,0,1,11.55-1.19A52.83,52.83,0,0,1,59,36.25c5.05,1.07,9.52,2.91,12.46,6.55,2.18,2.71,1.59,5.81,2.15,8.9.32,1.76,1.68,1,1.11,2.83a2,2,0,0,1,1.65.92,6.19,6.19,0,0,0,2.24,2.28c1.11.67.87,1.4.4,2.17s3.08,13.43,2.54,7C81.36,65,82.3,63,83.17,61.12Z"/><line class="cls-12" x1="20.92" y1="64.39" x2="7.4" y2="63.26"/><line class="cls-12" x1="20.92" y1="68.13" x2="7.4" y2="69.26"/><line class="cls-1" x1="20.96" y1="66.26" x2="12.22" y2="66.26"/><line class="cls-12" x1="74.51" y1="64.39" x2="88.04" y2="63.26"/><line class="cls-12" x1="74.51" y1="68.13" x2="88.04" y2="69.26"/><line class="cls-1" x1="74.47" y1="66.26" x2="83.22" y2="66.26"/><path class="cls-1" d="M27.11,50.54s4.88-2.3,8.45,0"/><path class="cls-1" d="M59.26,50.54s4.87-2.3,8.45,0"/></g><rect class="cls-13" x="0.04" y="-0.01" width="95" height="101"/></svg>