<svg id="Layer_1" data-name="Layer 1" xmlns="http://www.w3.org/2000/svg" xmlns:xlink="http://www.w3.org/1999/xlink" viewBox="0 0 95 101"><defs><style>.cls-1,.cls-2,.cls-28{fill:none;}.cls-1,.cls-19,.cls-2,.cls-20,.cls-21,.cls-27{stroke:#1d1d1b;}.cls-1,.cls-19{stroke-miterlimit:10;}.cls-2,.cls-20,.cls-21,.cls-27{stroke-linecap:round;stroke-linejoin:round;}.cls-3{clip-path:url(#clip-path);}.cls-4{fill:#e31014;}.cls-5{fill:#3258a4;}.cls-6{fill:#fcea1b;}.cls-7{fill:#702381;}.cls-8{fill:#f28a1a;}.cls-9{fill:#0a8137;}.cls-10{fill:#ef7c26;}.cls-11{fill:#dadc30;}.cls-12{fill:#217b34;}.cls-13{fill:#3b4194;}.cls-14{fill:#5a2985;}.cls-15{fill:#e63913;}.cls-16{fill:#f19507;}.cls-17{fill:#016794;}.cls-18{fill:#00774b;}.cls-19{fill:#706f6f;stroke-width:0.5px;}.cls-20{fill:#f5d2a2;}.cls-21,.cls-23{fill:#e06ba3;}.cls-22{fill:#1d1d1b;}.cls-24,.cls-27{fill:#fff;}.cls-25{clip-path:url(#clip-path-2);}.cls-26{fill:#b17f4a;}</style><clipPath id="clip-path"><circle class="cls-1" cx="47.67" cy="46.88" r="46.31"/></clipPath><clipPath id="clip-path-2"><path class="cls-2" d="M47.87,84.66a46.78,46.78,0,0,0,21.56-4.51c4.63-2.26,10-5.25,11.62-10.79a15.08,15.08,0,0,0-.32-8.44c.17-1.47,4.12-15.83-10.58-28A32.55,32.55,0,0,0,48,25.35h-.08a32.55,32.55,0,0,0-22.2,7.56C11,45.09,14.92,59.45,15.09,60.92a15,15,0,0,0-.32,8.44c1.61,5.54,7,8.53,11.62,10.79A46.78,46.78,0,0,0,48,84.66Z"/></clipPath></defs><title>V1Artboard 2</title><g class="cls-3"><path class="cls-4" d="M93.75,78.29c0,4.81,0,9.61,0,14.41,0,.74-.17.9-.9.9q-45.59,0-91.15,0c-.74,0-.91-.16-.91-.9,0-4.8,0-9.6,0-14.41l.3-.23c.74,0,1.47,0,2.21,0H91.25c.73,0,1.47,0,2.2,0Z"/><path class="cls-5" d="M.83,31.54V16.25H93.75V31.83H85.23a1.44,1.44,0,0,0-1.79-.06c-.64,0-1.27,0-1.91,0H3.05c-.63,0-1.27,0-1.91,0Z"/><path class="cls-6" d="M.83,62.71V47.42H93.75V62.71l-.3,0-1.17,0H3.19L2,62.69h-.3Z"/><path class="cls-7" d="M.83,15.66c0-4.7,0-9.4,0-14.09,0-.7.1-.93.88-.92q45.59,0,91.19,0c.78,0,.88.22.88.92,0,4.69,0,9.39,0,14.09Z"/><path class="cls-8" d="M.83,62.71l.88,0c.1.14.2.15.3,0l1.18,0H92.28l1.17,0,.3.31V77.7H.83Z"/><path class="cls-9" d="M1.14,31.76c.64,0,1.28,0,1.91,0H81.53c.64,0,1.27,0,1.91,0a1.3,1.3,0,0,0,1.79.06h8.52v15H.83v-15Z"/><path class="cls-10" d="M.83,77.7H93.75V78l-.3.06c-.73,0-1.47,0-2.2,0H3.34c-.74,0-1.47,0-2.21,0L.83,78Z"/><ellipse class="cls-11" cx="47.29" cy="47.27" rx="65.7" ry="0.21"/><ellipse class="cls-12" cx="47.29" cy="46.98" rx="65.7" ry="0.21"/><ellipse class="cls-13" cx="47.29" cy="16.1" rx="65.7" ry="0.21"/><ellipse class="cls-14" cx="47.29" cy="15.81" rx="65.7" ry="0.21"/><path class="cls-15" d="M93.45,78.06l.3-.06v.29Z"/><path class="cls-15" d="M.83,78l.3.06-.3.23Z"/><path class="cls-16" d="M93.75,63l-.3-.31.3,0Z"/><path class="cls-17" d="M1.14,31.76l-.31.07v-.29Z"/><path class="cls-18" d="M85.23,31.83a1.3,1.3,0,0,1-1.79-.06A1.44,1.44,0,0,1,85.23,31.83Z"/><path class="cls-16" d="M2,62.69c-.1.14-.2.13-.3,0Z"/></g><circle class="cls-1" cx="47.67" cy="46.88" r="46.31"/><path class="cls-19" d="M13.4,59.82S.51,77,10.78,81.34s23.13,10,37.13,10.14S83.72,81.34,83.72,81.34s7.4-3.48-.48-21.52"/><path class="cls-20" d="M42.52,83.29,41,92.72s7.69,1.5,13.56,0l-1.27-9.4Z"/><path class="cls-20" d="M14.21,51.85C7.69,30.92,13,20.5,13,20.5s16.15.24,22,8.2"/><path class="cls-20" d="M81.16,51.85c6.53-20.93,1.2-31.35,1.2-31.35s-16.16.24-22,8.2"/><path class="cls-21" d="M18.62,44C15.39,33.57,18,28.4,18,28.4s8,.11,10.9,4.06"/><path class="cls-21" d="M76.75,44c3.24-10.39.59-15.56.59-15.56s-8,.11-10.9,4.06"/><path class="cls-20" d="M47.87,84.66a46.78,46.78,0,0,0,21.56-4.51c4.63-2.26,10-5.25,11.62-10.79a15.08,15.08,0,0,0-.32-8.44c.17-1.47,4.12-15.83-10.58-28A32.55,32.55,0,0,0,48,25.35h-.08a32.55,32.55,0,0,0-22.2,7.56C11,45.09,14.92,59.45,15.09,60.92a15,15,0,0,0-.32,8.44c1.61,5.54,7,8.53,11.62,10.79A46.78,46.78,0,0,0,48,84.66Z"/><ellipse class="cls-22" cx="31.78" cy="58.63" rx="5.03" ry="5.19"/><ellipse class="cls-23" cx="27.71" cy="65.96" rx="3.16" ry="1.78"/><path class="cls-22" d="M51.45,66.64c0,1.16-3.58,2.78-3.58,2.78s-3.58-1.62-3.58-2.78,1.6-2.09,3.58-2.09S51.45,65.49,51.45,66.64Z"/><ellipse class="cls-24" cx="29.82" cy="56.55" rx="0.89" ry="0.92"/><path class="cls-2" d="M47.87,69.42a7.54,7.54,0,0,1-5.35,2"/><path class="cls-2" d="M47.91,69.42a7.54,7.54,0,0,0,5.35,2"/><g class="cls-25"><ellipse class="cls-26" cx="66.44" cy="55.63" rx="17.28" ry="17.82"/></g><path class="cls-2" d="M47.87,84.66a46.78,46.78,0,0,0,21.56-4.51c4.63-2.26,10-5.25,11.62-10.79a15.08,15.08,0,0,0-.32-8.44c.17-1.47,4.12-15.83-10.58-28A32.55,32.55,0,0,0,48,25.35h-.08a32.55,32.55,0,0,0-22.2,7.56C11,45.09,14.92,59.45,15.09,60.92a15,15,0,0,0-.32,8.44c1.61,5.54,7,8.53,11.62,10.79A46.78,46.78,0,0,0,48,84.66Z"/><ellipse class="cls-22" cx="64.08" cy="58.63" rx="5.03" ry="5.19"/><ellipse class="cls-23" cx="68.15" cy="65.96" rx="3.16" ry="1.78"/><ellipse class="cls-24" cx="61.99" cy="56.55" rx="0.89" ry="0.92"/><path class="cls-19" d="M83.67,61.12c1.5-3.17,1.51-6.52,1.21-9.87-.07-.72-.09-1.43-.14-2.15-.71-5.3-3.28-10.22-5-15.31-4.13-12.08-17.56-19.31-31.81-19-14.25-.34-27.68,6.89-31.81,19-1.75,5.09-4.31,10-5,15.31,0,.72-.06,1.43-.13,2.15-.3,3.35-.29,6.7,1.21,9.87C13,63,14.09,68.68,14.3,66.79c.36-3.23,1.75-6.5,1.35-7.15s-.41-2.17,1.07-1.91c1.12.19,1.75-1.38,2.25-2.28a2,2,0,0,1,1.64-.92c-.56-1.87.8-1.07,1.12-2.83.56-3.09,0-6.19,2.17-8.9,2.94-3.64,7.41-5.48,12.46-6.55a52.83,52.83,0,0,1,11.55-1.19,52.83,52.83,0,0,1,11.55,1.19c5.05,1.07,9.52,2.91,12.46,6.55,2.19,2.71,1.59,5.81,2.15,8.9.32,1.76,1.68,1,1.12,2.83a2,2,0,0,1,1.64.92,6.19,6.19,0,0,0,2.24,2.28c1.11.67.88,1.4.4,2.17s3.08,13.43,2.54,7C81.86,65,82.8,63,83.67,61.12Z"/><line class="cls-27" x1="21.42" y1="64.39" x2="7.9" y2="63.26"/><line class="cls-27" x1="21.42" y1="68.13" x2="7.9" y2="69.26"/><line class="cls-2" x1="21.46" y1="66.26" x2="12.72" y2="66.26"/><line class="cls-27" x1="75.02" y1="64.39" x2="88.54" y2="63.26"/><line class="cls-27" x1="75.02" y1="68.13" x2="88.54" y2="69.26"/><line class="cls-2" x1="74.97" y1="66.26" x2="83.72" y2="66.26"/><path class="cls-2" d="M27.61,50.54s4.88-2.3,8.45,0"/><path class="cls-2" d="M59.76,50.54s4.87-2.3,8.45,0"/><rect class="cls-28" x="-0.02" y="-0.01" width="95" height="101"/></svg>