<svg id="Layer_1" data-name="Layer 1" xmlns="http://www.w3.org/2000/svg" xmlns:xlink="http://www.w3.org/1999/xlink" viewBox="0 0 95 101"><defs><style>.cls-1,.cls-11,.cls-15,.cls-7{fill:none;}.cls-1,.cls-19,.cls-2,.cls-3,.cls-4,.cls-6,.cls-7{stroke:#1d1d1b;}.cls-1,.cls-11{stroke-miterlimit:10;}.cls-2{fill:#b2b2b2;}.cls-19,.cls-2,.cls-3,.cls-4,.cls-6,.cls-7{stroke-linecap:round;stroke-linejoin:round;}.cls-3{fill:#e2cfb2;}.cls-4,.cls-5{fill:#7b6a58;}.cls-12,.cls-6{fill:#fff;}.cls-8{clip-path:url(#clip-path);}.cls-9{fill:#cbbba0;}.cls-10{fill:#009fe3;}.cls-11{stroke:#fff;stroke-width:2px;}.cls-13{fill:#706f6f;}.cls-14{fill:#1d1d1b;}.cls-16{fill:#fbf6ef;}.cls-17{fill:#121324;}.cls-18{fill:#da9444;}.cls-19{fill:#f5d2a2;}</style><clipPath id="clip-path"><path class="cls-1" d="M47.08,85.3a46.78,46.78,0,0,0,21.56-4.51c4.63-2.26,10-5.25,11.62-10.8a15.05,15.05,0,0,0-.32-8.43c.16-1.48,4.12-15.83-10.58-28A32.51,32.51,0,0,0,47.16,26h-.08a32.5,32.5,0,0,0-22.2,7.56c-14.71,12.18-10.75,26.53-10.58,28A15,15,0,0,0,14,70c1.6,5.55,7,8.54,11.61,10.8A46.82,46.82,0,0,0,47.16,85.3Z"/></clipPath></defs><title>V2Artboard 3 copy 5</title><circle class="cls-2" cx="47.43" cy="47.52" r="46.31"/><path class="cls-3" d="M13.42,52.49C6.9,31.56,12.23,21.14,12.23,21.14s16.15.24,22,8.19"/><path class="cls-3" d="M80.37,52.49c6.53-20.93,1.19-31.35,1.19-31.35s-16.15.24-22,8.19"/><path class="cls-4" d="M17.83,44.59C14.59,34.21,17.24,29,17.24,29s8,.12,10.9,4.07"/><path class="cls-4" d="M76,44.59C79.2,34.21,76.55,29,76.55,29s-8,.12-10.9,4.07"/><path class="cls-3" d="M47.08,85.3a46.78,46.78,0,0,0,21.56-4.51c4.63-2.26,10-5.25,11.62-10.8a15.05,15.05,0,0,0-.32-8.43c.16-1.48,4.12-15.83-10.58-28A32.51,32.51,0,0,0,47.16,26h-.08a32.5,32.5,0,0,0-22.2,7.56c-14.71,12.18-10.75,26.53-10.58,28A15,15,0,0,0,14,70c1.6,5.55,7,8.54,11.61,10.8A46.82,46.82,0,0,0,47.16,85.3Z"/><ellipse class="cls-5" cx="26.92" cy="66.6" rx="3.16" ry="1.78"/><ellipse class="cls-5" cx="67.35" cy="66.6" rx="3.16" ry="1.78"/><line class="cls-6" x1="74.22" y1="65.03" x2="87.75" y2="63.9"/><line class="cls-6" x1="74.22" y1="68.77" x2="87.75" y2="69.89"/><line class="cls-7" x1="74.18" y1="66.9" x2="82.93" y2="66.9"/><line class="cls-6" x1="20.63" y1="65.03" x2="7.11" y2="63.9"/><line class="cls-6" x1="20.63" y1="68.77" x2="7.11" y2="69.89"/><line class="cls-7" x1="20.67" y1="66.9" x2="11.92" y2="66.9"/><g class="cls-8"><path class="cls-9" d="M42,69.43c-1.74,3.2-4.65,13.86-22.72,16.75.7.68,2.14,1.41,3,2.08,9.22,7.64,21.73,6.36,25.53,6.34h0c3.8,0,15.92.81,25.15-6.83.8-.66,2.55-1.75,3.25-2.42C55.75,84.1,53.92,73.79,52.47,69.89,52.47,69.89,47.7,58.86,42,69.43Z"/></g><path class="cls-1" d="M47.08,85.3a46.78,46.78,0,0,0,21.56-4.51c4.63-2.26,10-5.25,11.62-10.8a15.05,15.05,0,0,0-.32-8.43c.16-1.48,4.12-15.83-10.58-28A32.51,32.51,0,0,0,47.16,26h-.08a32.5,32.5,0,0,0-22.2,7.56c-14.71,12.18-10.75,26.53-10.58,28A15,15,0,0,0,14,70c1.6,5.55,7,8.54,11.61,10.8A46.82,46.82,0,0,0,47.16,85.3Z"/><path d="M70.84,33.39l2.54,7.85c-2.27-2-4.85-2.19-7.76-2.2l-.2,3.87L50.25,41.24l5,3.9-.22.42L38.5,44.1l3.36,4.44-.3.27-12.51-6L27.53,49l-2.9-3.7L21.1,55.39l-3-4-2,7.26c-.78-.54-1.18-3.26-1.89-3.75-.23.42-2.44,2.62-2.49,2.83l.89-7.36L14.25,44c.67-.86.1-2,1.2-2.06A154.46,154.46,0,0,0,63.92,30.68a5,5,0,0,1,3.53.06Z"/><path class="cls-10" d="M65.25,29c-9.13,6.09-40.49,12.37-49.49,11.48C21.08,26.05,52.11,17.94,65.25,29Z"/><path class="cls-11" d="M66,29.37c-8.55,6.84-44.31,13.3-50.72,11.77"/><path class="cls-12" d="M53.68,24.23a36.48,36.48,0,0,0-5-.38,156.28,156.28,0,0,1-20.81,4.84,34.59,34.59,0,0,0-4.56,2.73C33.13,30.09,45.31,27.46,53.68,24.23Z"/><path class="cls-13" d="M17.22,44.48a4.79,4.79,0,0,1-.06-1.63,5.54,5.54,0,0,1,.33-1.39c.28-.89,1.09-1.45,1.67-2.16s1.18-1.39,1.81-2.07,1.25-1.36,1.93-2l.25.15c-.27.9-.6,1.75-.91,2.63s-.67,1.71-1,2.55A7.13,7.13,0,0,1,20,43,5.56,5.56,0,0,1,19,44a4.84,4.84,0,0,1-1.48.68Z"/><path class="cls-14" d="M50.66,69.09c0,1.16-3.58,2.78-3.58,2.78s-3.59-1.62-3.59-2.78S45.1,67,47.08,67,50.66,67.94,50.66,69.09Z"/><path class="cls-7" d="M47.08,71.49s-1,4.12-4.85,4.63"/><path class="cls-7" d="M47.08,71.49s1,4.12,4.84,4.63"/><rect class="cls-15" y="-0.03" width="95" height="101"/><path class="cls-16" d="M53.22,78.47c3.78-.27,7.53-.82,11.29-1.27a2.54,2.54,0,0,0,1.77-1A4.73,4.73,0,0,0,67,75a6.22,6.22,0,0,0-.67-6.64,3.4,3.4,0,0,0-3.74-1.47c-.71.17-1.42.3-2.13.46a20.26,20.26,0,0,1-3.39.41c-1.62.1-3.24.23-4.86.34m-11.18,1-5.32.59-5.48.66a2.39,2.39,0,0,0-2,1.34,10.55,10.55,0,0,0-1,3.56,3.91,3.91,0,0,0,0,1.08A6.73,6.73,0,0,0,29.18,80a2.72,2.72,0,0,0,2.28.85,6,6,0,0,0,1.12-.14,40.79,40.79,0,0,1,4.25-.8c1.8-.18,3.59-.39,5.39-.55"/><path class="cls-17" d="M52.23,68.1c1.62-.11,3.24-.24,4.86-.34a20.26,20.26,0,0,0,3.39-.41c.71-.16,1.42-.29,2.13-.46a3.4,3.4,0,0,1,3.74,1.47A6.22,6.22,0,0,1,67,75a4.73,4.73,0,0,1-.74,1.25,2.54,2.54,0,0,1-1.77,1c-3.76.45-7.51,1-11.29,1.27l-11,.88c-1.8.16-3.59.37-5.39.55a40.79,40.79,0,0,0-4.25.8,6,6,0,0,1-1.12.14A2.72,2.72,0,0,1,29.18,80a6.73,6.73,0,0,1-1.9-3.66,3.91,3.91,0,0,1,0-1.08,10.55,10.55,0,0,1,1-3.56,2.39,2.39,0,0,1,2-1.34l5.48-.66,5.32-.59Zm13-.57a2,2,0,0,0-1.5-.55,7.38,7.38,0,0,0-1.32.13c-1.09.2-2.17.49-3.27.61-1.64.19-3.29.3-4.94.41-4.42.29-8.83.62-13.24,1.12-2.87.33-5.74.64-8.61,1-.83.1-1.66.13-2.48.31a1.83,1.83,0,0,0-1.34,1,10.14,10.14,0,0,0-1,3.88,6,6,0,0,0,1.7,4.15,3,3,0,0,0,2.91,1c.24,0,.48-.07.72-.12,1.19-.27,2.38-.53,3.59-.7,3.23-.44,6.48-.72,9.73-1,6.16-.45,12.31-1,18.42-1.86a2.43,2.43,0,0,0,1.83-1,6.68,6.68,0,0,0,1.13-4.29A6.34,6.34,0,0,0,65.18,67.53Z"/><path class="cls-18" d="M65.18,67.53a6.34,6.34,0,0,1,2.29,4.16A6.68,6.68,0,0,1,66.34,76a2.43,2.43,0,0,1-1.83,1c-6.11.89-12.26,1.41-18.42,1.86-3.25.23-6.5.51-9.73,1-1.21.17-2.4.43-3.59.7-.24,0-.48.08-.72.12a3,3,0,0,1-2.91-1,6,6,0,0,1-1.7-4.15,10.14,10.14,0,0,1,1-3.88,1.83,1.83,0,0,1,1.34-1c.82-.18,1.65-.21,2.48-.31,2.87-.36,5.74-.67,8.61-1,4.41-.5,8.82-.83,13.24-1.12,1.65-.11,3.3-.22,4.94-.41,1.1-.12,2.18-.41,3.27-.61A7.38,7.38,0,0,1,63.68,67,2,2,0,0,1,65.18,67.53ZM54.5,74.18c-.09,0-.07-.09-.08-.14a3.89,3.89,0,0,1-.08-.83s0-.12,0-.14-.12,0-.14.1a.75.75,0,0,0,0,.21,5.78,5.78,0,0,0,.21,1.3,5.31,5.31,0,0,1,.2,1.43c-.06.71-.22.86-.92.91s-1.38.07-2.06.13c-2.41.24-4.81.53-7.24.61a11.33,11.33,0,0,0-2.83.42c0-.15,0-.28-.16-.31a.25.25,0,0,0-.3.2.26.26,0,0,0,.4.27,13.69,13.69,0,0,1,2.86-.4c1.43-.08,2.86-.13,4.29-.29a41.92,41.92,0,0,1,4.87-.42,1.65,1.65,0,0,0,.66-.12.86.86,0,0,0,.57-.69c0-.11,0-.23.06-.34a.28.28,0,0,0,.34.06.24.24,0,0,0,.12-.36c-.13-.22-.3-.14-.46,0-.07-.36-.13-.72-.2-1.08,0-.14-.1-.27,0-.41s.09,0,.13.07a.25.25,0,0,0,.4-.11.23.23,0,0,0-.12-.34c-.18-.08-.28,0-.36.16A1.47,1.47,0,0,0,54.5,74.18Zm-14-3.32a1.79,1.79,0,0,0-.23.54,3.59,3.59,0,0,0,0,1.18,22.17,22.17,0,0,1,.48,4.67s0,.11.06.12a.13.13,0,0,0,.13-.08,1,1,0,0,0,0-.24,15.79,15.79,0,0,0-.29-3.29,15.35,15.35,0,0,1-.29-2,1.06,1.06,0,0,1,1-1.22,4.51,4.51,0,0,1,.53-.08l3.18-.38c2.09-.27,4.18-.56,6.28-.66h.16c.08,0,.16,0,.14-.13s-.1-.06-.16-.05c-.53,0-1.07.05-1.61.1-2.2.18-4.38.52-6.57.79a16,16,0,0,0-1.95.25A1.57,1.57,0,0,0,40.54,70.86ZM46,72.62a.25.25,0,0,0,0-.38.24.24,0,0,0-.35,0,.25.25,0,0,0,0,.38A.24.24,0,0,0,46,72.62Zm4.06,3.55a.25.25,0,0,0-.37,0,.25.25,0,0,0,0,.38.24.24,0,0,0,.35,0A.26.26,0,0,0,50.09,76.17Zm8.72-3.42a.26.26,0,0,0-.37,0,.26.26,0,1,0,.37,0Zm0,3.84a.26.26,0,0,0,.38,0,.25.25,0,0,0,0-.38.24.24,0,0,0-.35,0A.25.25,0,0,0,58.8,76.59Zm6.12-6.86a.23.23,0,0,0-.34,0,.26.26,0,1,0,.37.36A.26.26,0,0,0,64.92,69.73Zm-.79,4.78a.25.25,0,0,0-.06-.37.24.24,0,0,0-.37.07.24.24,0,0,0,0,.35C63.88,74.67,64,74.63,64.13,74.51ZM46.2,74.35a.25.25,0,0,0,0-.38.25.25,0,0,0-.37.06.24.24,0,0,0,0,.36A.26.26,0,0,0,46.2,74.35Zm7.46-1.16a.27.27,0,0,0-.33.42.24.24,0,0,0,.35,0A.25.25,0,0,0,53.66,73.19Zm-6,3.31a.25.25,0,0,0-.38,0,.24.24,0,0,0,0,.36.23.23,0,0,0,.37,0A.25.25,0,0,0,47.67,76.5Zm.55-2.8a.25.25,0,0,0,.05.37.24.24,0,0,0,.37,0,.26.26,0,0,0-.42-.32ZM58.64,71a.24.24,0,0,0-.37,0,.24.24,0,0,0,0,.37.27.27,0,0,0,.33-.42Zm-23,.85a.25.25,0,0,0,0-.38.25.25,0,0,0-.37.06.24.24,0,0,0,0,.35A.25.25,0,0,0,35.68,71.87Zm-1,2.79a.26.26,0,1,0-.4-.32.25.25,0,0,0,0,.38A.25.25,0,0,0,34.69,74.66ZM63.18,69a.25.25,0,0,0,0,.36.24.24,0,0,0,.38,0,.23.23,0,0,0-.05-.37A.25.25,0,0,0,63.18,69Zm-23.8,5.13a.27.27,0,0,0,.39,0,.25.25,0,0,0,0-.36.24.24,0,0,0-.38,0A.25.25,0,0,0,39.38,74.14Zm25.7-2.73a.25.25,0,0,0-.37.07.24.24,0,0,0,0,.35.25.25,0,0,0,.38,0A.26.26,0,0,0,65.08,71.41Zm-25.17,4a.25.25,0,0,0-.37.07.23.23,0,0,0,.05.35.24.24,0,0,0,.37,0A.25.25,0,0,0,39.91,75.42Zm20.42.24a.27.27,0,0,0,0-.39.27.27,0,0,0-.36.4C60.07,75.79,60.2,75.76,60.33,75.66Zm-1.4-1.16a.25.25,0,0,0-.38,0,.25.25,0,0,0,0,.36.24.24,0,0,0,.37,0A.25.25,0,0,0,58.93,74.5Zm-1.18,1a.24.24,0,0,0-.38,0,.24.24,0,0,0,0,.37.24.24,0,0,0,.36,0A.25.25,0,0,0,57.75,75.53Zm-4.33-.2a.25.25,0,0,0,.38,0,.25.25,0,0,0,0-.36.25.25,0,0,0-.4,0A.25.25,0,0,0,53.42,75.33ZM29.7,74.87a.27.27,0,0,0-.32.43.23.23,0,0,0,.36,0A.24.24,0,0,0,29.7,74.87Zm1.43,2.45a.27.27,0,0,0-.33.42.24.24,0,0,0,.37,0A.25.25,0,0,0,31.13,77.32Zm7.07-6a.26.26,0,0,0-.37,0,.25.25,0,0,0,0,.38.24.24,0,0,0,.36,0A.25.25,0,0,0,38.2,71.28Zm-1.17,1a.25.25,0,0,0-.38,0,.26.26,0,0,0,.39.35A.26.26,0,0,0,37,72.27ZM56.25,73a.27.27,0,0,0-.33.43.26.26,0,0,0,.36-.05A.26.26,0,0,0,56.25,73Zm-2.77-1.56a.24.24,0,0,0-.35,0,.26.26,0,0,0,0,.39.25.25,0,0,0,.36,0A.26.26,0,0,0,53.48,71.44Zm8.11,3.23a.25.25,0,0,0,0-.36.25.25,0,0,0-.38,0,.26.26,0,1,0,.41.31ZM35.52,73.24a.26.26,0,0,0,0,.38.27.27,0,0,0,.31-.44A.25.25,0,0,0,35.52,73.24Zm16.75-.43c.08-.13.11-.27,0-.38a.24.24,0,0,0-.36,0,.23.23,0,0,0,0,.36A.26.26,0,0,0,52.27,72.81Zm12,3a.24.24,0,0,0-.37.07.23.23,0,0,0,0,.35.25.25,0,0,0,.36,0A.24.24,0,0,0,64.29,75.82Zm-.49-5.16a.26.26,0,0,0-.37.06.25.25,0,0,0,0,.36.25.25,0,0,0,.38,0A.26.26,0,0,0,63.8,70.66ZM34.52,73a.23.23,0,0,0,0-.35.24.24,0,0,0-.38,0,.22.22,0,0,0,0,.35A.25.25,0,0,0,34.52,73ZM62.6,72a.26.26,0,0,0,0-.38.24.24,0,0,0-.36,0,.25.25,0,0,0,0,.38A.26.26,0,0,0,62.6,72ZM52.47,74.51c.07-.13.1-.25,0-.36a.27.27,0,1,0-.34.41A.27.27,0,0,0,52.47,74.51ZM36.16,76.66a.24.24,0,0,0-.36.07.25.25,0,0,0,0,.36.26.26,0,0,0,.38-.06A.25.25,0,0,0,36.16,76.66Zm8.59-3c.1-.14.12-.28,0-.39a.27.27,0,0,0-.34.42A.26.26,0,0,0,44.75,73.63Zm14.64-3.48a.24.24,0,0,0,0,.35.27.27,0,0,0,.34-.41C59.63,70,59.5,70,59.39,70.15ZM31.36,79A.24.24,0,0,0,31,79a.23.23,0,0,0,0,.37.25.25,0,0,0,.38,0A.26.26,0,0,0,31.36,79Zm5.45-5a.27.27,0,0,0,0,.37.27.27,0,0,0,.35-.41A.26.26,0,0,0,36.81,74Zm.57,1.66a.26.26,0,0,0-.38.06.26.26,0,1,0,.42.3A.25.25,0,0,0,37.38,75.65Zm18.83.81c-.09.14-.1.28,0,.38a.25.25,0,0,0,.36,0,.24.24,0,0,0,0-.36A.25.25,0,0,0,56.21,76.46Zm-26.3.13a.27.27,0,0,0-.35.41.25.25,0,0,0,.38,0A.23.23,0,0,0,29.91,76.59Zm19.68-5.23a.25.25,0,0,0,0-.36.24.24,0,0,0-.37,0,.24.24,0,0,0,0,.38A.25.25,0,0,0,49.59,71.36Zm-16.49.47a.27.27,0,0,0-.33.42.25.25,0,0,0,.38,0A.25.25,0,0,0,33.1,71.83Zm23.29,3.29a.25.25,0,0,0,0-.38.24.24,0,0,0-.36,0,.24.24,0,0,0,0,.37A.24.24,0,0,0,56.39,75.12Zm6.53-.06a.26.26,0,0,0-.37.08.23.23,0,0,0,.05.35.24.24,0,0,0,.37-.06C63.07,75.3,63,75.18,62.92,75.06Zm2.39-1.55a.26.26,0,0,0,0-.37.24.24,0,0,0-.38,0,.25.25,0,0,0,0,.38A.26.26,0,0,0,65.31,73.51ZM65.07,75a.23.23,0,0,0,.07.35.26.26,0,0,0,.3-.43C65.32,74.82,65.19,74.84,65.07,75Zm-34,1a.26.26,0,0,0,0-.37.25.25,0,0,0-.38,0,.26.26,0,0,0,.41.33Zm2.3-2.42A.27.27,0,0,0,33,74a.24.24,0,0,0,.36,0A.27.27,0,0,0,33.36,73.54Zm-3.2,5.14c.06-.07,0-.2-.07-.3a.25.25,0,0,0-.38.05.24.24,0,0,0,.05.37C29.89,78.9,30,78.86,30.16,78.68Zm2.36-.57a.25.25,0,0,0-.38,0,.26.26,0,1,0,.38,0Zm1.18-.73a.26.26,0,0,0-.05-.35.27.27,0,0,0-.35.4C33.43,77.55,33.56,77.5,33.7,77.38ZM34.86,76a.28.28,0,0,0-.39,0,.25.25,0,0,0,0,.36.24.24,0,0,0,.37,0A.27.27,0,0,0,34.86,76Zm.86-1a.25.25,0,0,0,0,.38.23.23,0,0,0,.35,0,.26.26,0,0,0,0-.39A.25.25,0,0,0,35.72,75Zm8.47-3.33a.24.24,0,0,0,.05.37.24.24,0,0,0,.35-.06.24.24,0,0,0,0-.38A.24.24,0,0,0,44.19,71.62Zm-1.72,4a.26.26,0,0,0,0-.38.27.27,0,1,0,0,.38Zm6-3.69a.26.26,0,0,0-.38,0,.23.23,0,0,0,0,.35.24.24,0,0,0,.36,0A.26.26,0,0,0,48.44,71.92ZM45.13,77.1a.24.24,0,0,0,0-.36.23.23,0,0,0-.37.05.24.24,0,0,0,0,.36A.31.31,0,0,0,45.13,77.1Zm7-6a.25.25,0,0,0,0-.37.24.24,0,0,0-.37,0,.24.24,0,0,0,0,.38A.26.26,0,0,0,52.1,71.13Zm10.65,2.16a.24.24,0,0,0-.37,0,.24.24,0,0,0,0,.36.25.25,0,0,0,.38,0A.24.24,0,0,0,62.75,73.29Zm-7-2a.25.25,0,0,0,0,.37.25.25,0,0,0,.36,0,.25.25,0,0,0,0-.38A.26.26,0,0,0,55.7,71.32Zm4.27.82a.25.25,0,0,0,0-.38.25.25,0,0,0-.36.06.23.23,0,0,0,0,.35A.25.25,0,0,0,60,72.14Zm2.43-2.25a.25.25,0,0,0-.36,0,.24.24,0,0,0,0,.38.23.23,0,0,0,.35,0A.26.26,0,0,0,62.4,69.89Zm-2.65,3.63a.25.25,0,0,0,0,.36.27.27,0,0,0,.36-.39C60,73.37,59.88,73.4,59.75,73.52Zm-30.15,0a.25.25,0,0,0-.05-.36.23.23,0,0,0-.37,0,.25.25,0,0,0,0,.36C29.35,73.73,29.48,73.68,29.6,73.57Zm1-1.44a.24.24,0,0,0-.35.09.23.23,0,0,0,.05.35.24.24,0,0,0,.37-.06A.25.25,0,0,0,30.58,72.13Zm.31,2.1a.25.25,0,0,0,0-.37.25.25,0,0,0-.38,0,.24.24,0,0,0,0,.36A.25.25,0,0,0,30.89,74.23Zm2.61,4.51a.25.25,0,0,0,0,.37.23.23,0,0,0,.36,0,.26.26,0,1,0-.39-.34ZM47.29,73a.25.25,0,0,0-.35,0,.25.25,0,0,0,0,.38.23.23,0,0,0,.35,0A.25.25,0,0,0,47.29,73Zm-5,.52a.25.25,0,0,0-.37.07.22.22,0,0,0,0,.35.23.23,0,0,0,.37-.05A.26.26,0,0,0,42.25,73.51Zm1.4,1.07a.26.26,0,1,0-.42-.3.23.23,0,0,0,0,.35A.25.25,0,0,0,43.65,74.58Zm17.83-1.65a.25.25,0,0,0,0-.36.25.25,0,0,0-.38.05.24.24,0,0,0,0,.36A.25.25,0,0,0,61.48,72.93ZM64,72.77a.25.25,0,0,0,0-.36.27.27,0,0,0-.34.41A.26.26,0,0,0,64,72.77Zm-9.59-.53a.24.24,0,0,0,0,.37.22.22,0,0,0,.35,0,.23.23,0,0,0,0-.37A.24.24,0,0,0,54.42,72.24ZM61,69.13a.24.24,0,0,0-.37.05.24.24,0,0,0,0,.36.25.25,0,0,0,.38-.05A.23.23,0,0,0,61,69.13ZM33.53,75.27a.27.27,0,0,0-.36,0,.25.25,0,0,0,0,.38.24.24,0,0,0,.37-.06A.27.27,0,0,0,33.53,75.27ZM58,69.35c-.08.13-.11.25,0,.36a.24.24,0,0,0,.38,0,.24.24,0,0,0,0-.37A.25.25,0,0,0,58,69.35ZM31.6,73a.25.25,0,0,0,0,.34.27.27,0,0,0,.37-.38C31.88,72.82,31.74,72.84,31.6,73Zm24.22-3.43a.25.25,0,0,0-.36.08.23.23,0,0,0,0,.35.24.24,0,0,0,.37-.06A.25.25,0,0,0,55.82,69.55ZM51.11,73.4a.25.25,0,0,0-.37.08.23.23,0,0,0,0,.35.23.23,0,0,0,.37-.07A.25.25,0,0,0,51.11,73.4ZM31.79,74.64a.25.25,0,0,0,0,.38.24.24,0,0,0,.36,0,.23.23,0,0,0,0-.37A.23.23,0,0,0,31.79,74.64Zm6.57,1.85a.26.26,0,1,0,.36,0A.24.24,0,0,0,38.36,76.49Zm11-3.78a.25.25,0,0,0,0,.38.24.24,0,0,0,.36,0,.25.25,0,0,0,0-.38A.25.25,0,0,0,49.35,72.71Zm-13.29,6a.23.23,0,0,0,.36,0,.25.25,0,0,0,0-.38.24.24,0,0,0-.36,0A.24.24,0,0,0,36.06,78.75ZM46.31,76.1a.25.25,0,0,0,0-.38.27.27,0,0,0-.36.39A.26.26,0,0,0,46.31,76.1Zm10.91-5.37a.25.25,0,0,0,0-.38.24.24,0,0,0-.36,0,.26.26,0,1,0,.36.37Zm-12.3,4.21a.25.25,0,0,0-.36,0,.24.24,0,0,0,0,.38.23.23,0,0,0,.35,0A.25.25,0,0,0,44.92,74.94Zm7.72,1.36a.26.26,0,1,0-.39,0A.27.27,0,0,0,52.64,76.3Zm-3.9-.54a.23.23,0,0,0,0-.36.26.26,0,0,0-.32.42A.24.24,0,0,0,48.74,75.76ZM61.3,71.2a.24.24,0,0,0,0-.37.23.23,0,0,0-.35,0,.24.24,0,0,0,0,.37A.24.24,0,0,0,61.3,71.2Zm-10,4.33a.25.25,0,0,0,0-.38.26.26,0,1,0,0,.38ZM39.73,77.27a.23.23,0,0,0,0,.37.22.22,0,0,0,.35,0,.25.25,0,1,0-.39-.32Zm17.66-4.88a.23.23,0,0,0,0-.38.23.23,0,0,0-.35.06.25.25,0,0,0,0,.36A.24.24,0,0,0,57.39,72.39Zm-13.65,4a.24.24,0,0,0,0-.37.22.22,0,0,0-.35,0,.24.24,0,0,0,0,.38A.24.24,0,0,0,43.74,76.35Zm6.18-2a.27.27,0,0,0-.35.41.24.24,0,0,0,.37-.05A.25.25,0,0,0,49.92,74.38ZM37.57,77.81a.22.22,0,0,0,0-.36.23.23,0,0,0-.37,0,.24.24,0,0,0,0,.36A.23.23,0,0,0,37.57,77.81Zm1.61-5.71a.25.25,0,0,0,.07.37.24.24,0,0,0,.35-.06.25.25,0,0,0-.05-.38A.26.26,0,0,0,39.18,72.1Zm-.23,6a.26.26,0,0,0-.38.06.23.23,0,0,0,0,.35.24.24,0,0,0,.36,0A.26.26,0,0,0,39,78.12Zm-.72-3.35a.24.24,0,0,0,0,.35.27.27,0,1,0,0-.35Zm19.35-.67a.26.26,0,1,0-.39-.33.25.25,0,0,0,.05.38A.23.23,0,0,0,57.58,74.1ZM35,78.17a.25.25,0,1,0-.38-.33.24.24,0,0,0,0,.38A.23.23,0,0,0,35,78.17Zm7.08-6a.26.26,0,1,0-.35.06A.25.25,0,0,0,42.12,72.21Zm-3.66,1.14a.25.25,0,0,0,0-.38.27.27,0,0,0-.35.41A.24.24,0,0,0,38.46,73.35Zm-6.09,3.32a.23.23,0,0,0,0-.35.24.24,0,0,0-.38,0,.24.24,0,0,0,.05.37A.23.23,0,0,0,32.37,76.67ZM51,72a.25.25,0,1,0-.41-.29.23.23,0,0,0,0,.35C50.74,72.2,50.87,72.17,51,72Zm-3.48,3a.24.24,0,0,0,0-.38.24.24,0,0,0-.36.06.24.24,0,0,0,.06.37A.22.22,0,0,0,47.51,75.07Zm13.9,1a.25.25,0,1,0,.37,0A.24.24,0,0,0,61.41,76ZM47.17,71.66a.24.24,0,0,0-.06-.36.23.23,0,0,0-.35.07.22.22,0,0,0,0,.35C46.92,71.83,47.05,71.8,47.17,71.66Zm7.06-1.06a.22.22,0,0,0,.05.33.23.23,0,0,0,.37-.05.24.24,0,0,0,0-.37C54.47,70.42,54.35,70.45,54.23,70.6ZM43.47,72.86c.09-.13.11-.26,0-.36a.27.27,0,0,0-.36.39A.25.25,0,0,0,43.47,72.86Zm9.78-3.12c-.09,0-.21-.11-.27,0s-.22.25-.08.4a.23.23,0,0,0,.38,0C53.38,70,53.36,69.88,53.25,69.74ZM42.63,77a.25.25,0,0,0-.37,0c-.09.1-.13.25,0,.33a.37.37,0,0,0,.42-.06C42.78,77.25,42.71,77.11,42.63,77Z"/><path class="cls-17" d="M40.54,70.86a1.57,1.57,0,0,1,.88-.51,16,16,0,0,1,1.95-.25c2.19-.27,4.37-.61,6.57-.79.54,0,1.08-.07,1.61-.1.06,0,.15,0,.16.05s-.06.12-.14.13h-.16c-2.1.1-4.19.39-6.28.66L42,70.44a4.51,4.51,0,0,0-.53.08,1.06,1.06,0,0,0-1,1.22,15.35,15.35,0,0,0,.29,2A15.79,15.79,0,0,1,41,77.05a1,1,0,0,1,0,.24.13.13,0,0,1-.13.08c-.08,0-.07-.07-.06-.12a22.17,22.17,0,0,0-.48-4.67,3.59,3.59,0,0,1,0-1.18A1.79,1.79,0,0,1,40.54,70.86Z"/><path class="cls-17" d="M41.5,78.18a11.33,11.33,0,0,1,2.83-.42c2.43-.08,4.83-.37,7.24-.61.68-.06,1.37-.09,2.06-.13s.86-.2.92-.91a5.31,5.31,0,0,0-.2-1.43,5.78,5.78,0,0,1-.21-1.3.75.75,0,0,1,0-.21c0-.06.07-.12.14-.1s0,.09,0,.14a3.89,3.89,0,0,0,.08.83s0,.13.08.14h0s0,.06,0,.08h0c-.06.14,0,.27,0,.41.07.36.13.72.2,1.08-.06.11,0,.22,0,.33s0,.23-.06.34a.86.86,0,0,1-.57.69,1.65,1.65,0,0,1-.66.12,41.92,41.92,0,0,0-4.87.42c-1.43.16-2.86.21-4.29.29a13.69,13.69,0,0,0-2.86.4C41.41,78.27,41.49,78.24,41.5,78.18Z"/><path class="cls-16" d="M46,72.62a.24.24,0,0,1-.37,0,.25.25,0,0,1,0-.38.24.24,0,0,1,.35,0A.25.25,0,0,1,46,72.62Z"/><path class="cls-16" d="M50.09,76.17a.26.26,0,0,1,0,.39.24.24,0,0,1-.35,0,.25.25,0,0,1,0-.38A.25.25,0,0,1,50.09,76.17Z"/><path class="cls-16" d="M58.81,72.75a.27.27,0,1,1-.37,0A.26.26,0,0,1,58.81,72.75Z"/><path class="cls-16" d="M58.8,76.59a.25.25,0,0,1,0-.38.24.24,0,0,1,.35,0,.25.25,0,0,1,0,.38A.26.26,0,0,1,58.8,76.59Z"/><path class="cls-16" d="M64.92,69.73a.26.26,0,0,1,0,.4.26.26,0,1,1-.37-.36A.23.23,0,0,1,64.92,69.73Z"/><path class="cls-16" d="M64.13,74.51c-.12.12-.25.16-.38,0a.24.24,0,0,1,0-.35.24.24,0,0,1,.37-.07A.25.25,0,0,1,64.13,74.51Z"/><path class="cls-16" d="M46.2,74.35a.26.26,0,0,1-.37,0,.24.24,0,0,1,0-.36.25.25,0,0,1,.37-.06A.25.25,0,0,1,46.2,74.35Z"/><path class="cls-16" d="M53.66,73.19a.25.25,0,0,1,0,.38.24.24,0,0,1-.35,0,.27.27,0,0,1,.33-.42Z"/><path class="cls-16" d="M47.67,76.5a.25.25,0,0,1,0,.36.23.23,0,0,1-.37,0,.24.24,0,0,1,0-.36A.25.25,0,0,1,47.67,76.5Z"/><path class="cls-16" d="M48.22,73.7a.26.26,0,0,1,.42.32.24.24,0,0,1-.37,0A.25.25,0,0,1,48.22,73.7Z"/><path class="cls-16" d="M58.64,71a.27.27,0,0,1-.33.42.24.24,0,0,1,0-.37A.24.24,0,0,1,58.64,71Z"/><path class="cls-16" d="M35.68,71.87a.25.25,0,0,1-.38,0,.24.24,0,0,1,0-.35.25.25,0,0,1,.37-.06A.25.25,0,0,1,35.68,71.87Z"/><path class="cls-16" d="M34.69,74.66a.25.25,0,0,1-.37.06.25.25,0,0,1,0-.38.26.26,0,1,1,.4.32Z"/><path class="cls-16" d="M63.18,69a.25.25,0,0,1,.36-.05.23.23,0,0,1,.05.37.24.24,0,0,1-.38,0A.25.25,0,0,1,63.18,69Z"/><path class="cls-16" d="M39.38,74.14a.25.25,0,0,1,0-.36.24.24,0,0,1,.38,0,.25.25,0,0,1,0,.36A.27.27,0,0,1,39.38,74.14Z"/><path class="cls-16" d="M65.08,71.41a.26.26,0,0,1,0,.38.25.25,0,0,1-.38,0,.24.24,0,0,1,0-.35A.25.25,0,0,1,65.08,71.41Z"/><path class="cls-16" d="M39.91,75.42a.25.25,0,0,1,.05.37.24.24,0,0,1-.37,0,.23.23,0,0,1-.05-.35A.25.25,0,0,1,39.91,75.42Z"/><path class="cls-16" d="M60.33,75.66c-.13.1-.26.13-.38,0a.27.27,0,0,1,.36-.4A.27.27,0,0,1,60.33,75.66Z"/><path class="cls-16" d="M54.5,74.18a1.47,1.47,0,0,1,.06-.14c.08-.15.18-.24.36-.16a.23.23,0,0,1,.12.34.25.25,0,0,1-.4.11s-.06-.08-.13-.07h0c.05,0,0-.06,0-.08Z"/><path class="cls-16" d="M58.93,74.5a.25.25,0,0,1,0,.37.24.24,0,0,1-.37,0,.25.25,0,0,1,0-.36A.25.25,0,0,1,58.93,74.5Z"/><path class="cls-16" d="M57.75,75.53a.25.25,0,0,1,0,.37.24.24,0,0,1-.36,0,.24.24,0,0,1,0-.37A.24.24,0,0,1,57.75,75.53Z"/><path class="cls-16" d="M53.42,75.33a.25.25,0,0,1,0-.36.25.25,0,0,1,.4,0,.25.25,0,0,1,0,.36A.25.25,0,0,1,53.42,75.33Z"/><path class="cls-16" d="M29.7,74.87a.24.24,0,0,1,0,.38.23.23,0,0,1-.36,0,.27.27,0,0,1,.32-.43Z"/><path class="cls-16" d="M31.13,77.32a.25.25,0,0,1,0,.37.24.24,0,0,1-.37,0,.27.27,0,0,1,.33-.42Z"/><path class="cls-16" d="M38.2,71.28a.25.25,0,0,1,0,.38.24.24,0,0,1-.36,0,.25.25,0,0,1,0-.38A.26.26,0,0,1,38.2,71.28Z"/><path class="cls-16" d="M37,72.27a.26.26,0,0,1,0,.39.26.26,0,0,1-.39-.35A.25.25,0,0,1,37,72.27Z"/><path class="cls-16" d="M56.25,73a.26.26,0,0,1,0,.38.26.26,0,0,1-.36.05.27.27,0,0,1,.33-.43Z"/><path class="cls-16" d="M53.48,71.44a.26.26,0,0,1,0,.39.25.25,0,0,1-.36,0,.26.26,0,0,1,0-.39A.24.24,0,0,1,53.48,71.44Z"/><path class="cls-16" d="M61.59,74.67a.26.26,0,1,1-.41-.31.25.25,0,0,1,.38,0A.25.25,0,0,1,61.59,74.67Z"/><path class="cls-16" d="M35.52,73.24a.25.25,0,0,1,.36-.06.27.27,0,0,1-.31.44A.26.26,0,0,1,35.52,73.24Z"/><path class="cls-16" d="M52.27,72.81a.26.26,0,0,1-.39,0,.23.23,0,0,1,0-.36.24.24,0,0,1,.36,0C52.38,72.54,52.35,72.68,52.27,72.81Z"/><path class="cls-16" d="M64.29,75.82a.24.24,0,0,1,0,.38.25.25,0,0,1-.36,0,.23.23,0,0,1,0-.35A.24.24,0,0,1,64.29,75.82Z"/><path class="cls-16" d="M63.8,70.66a.26.26,0,0,1,0,.38.25.25,0,0,1-.38,0,.25.25,0,0,1,0-.36A.26.26,0,0,1,63.8,70.66Z"/><path class="cls-16" d="M34.52,73a.25.25,0,0,1-.38,0,.22.22,0,0,1,0-.35.24.24,0,0,1,.38,0A.23.23,0,0,1,34.52,73Z"/><path class="cls-16" d="M62.6,72a.26.26,0,0,1-.37,0,.25.25,0,0,1,0-.38.24.24,0,0,1,.36,0A.26.26,0,0,1,62.6,72Z"/><path class="cls-16" d="M52.47,74.51a.27.27,0,0,1-.37,0,.27.27,0,1,1,.34-.41C52.57,74.26,52.54,74.38,52.47,74.51Z"/><path class="cls-16" d="M36.16,76.66a.25.25,0,0,1,.06.37.26.26,0,0,1-.38.06.25.25,0,0,1,0-.36A.24.24,0,0,1,36.16,76.66Z"/><path class="cls-16" d="M44.75,73.63a.26.26,0,0,1-.36,0,.27.27,0,0,1,.34-.42C44.87,73.35,44.85,73.49,44.75,73.63Z"/><path class="cls-16" d="M59.39,70.15c.11-.11.24-.17.38-.06a.27.27,0,0,1-.34.41A.24.24,0,0,1,59.39,70.15Z"/><path class="cls-16" d="M31.36,79a.26.26,0,0,1,0,.36.25.25,0,0,1-.38,0A.23.23,0,0,1,31,79,.24.24,0,0,1,31.36,79Z"/><path class="cls-16" d="M36.81,74a.26.26,0,0,1,.38,0,.27.27,0,0,1-.35.41A.27.27,0,0,1,36.81,74Z"/><path class="cls-16" d="M37.38,75.65a.25.25,0,0,1,0,.36.26.26,0,1,1-.42-.3A.26.26,0,0,1,37.38,75.65Z"/><path class="cls-16" d="M56.21,76.46a.25.25,0,0,1,.38,0,.24.24,0,0,1,0,.36.25.25,0,0,1-.36,0C56.11,76.74,56.12,76.6,56.21,76.46Z"/><path class="cls-16" d="M29.91,76.59a.23.23,0,0,1,0,.36.25.25,0,0,1-.38,0,.27.27,0,0,1,.35-.41Z"/><path class="cls-16" d="M49.59,71.36a.25.25,0,0,1-.36.06.24.24,0,0,1,0-.38.24.24,0,0,1,.37,0A.25.25,0,0,1,49.59,71.36Z"/><path class="cls-16" d="M33.1,71.83a.25.25,0,0,1,0,.39.25.25,0,0,1-.38,0,.27.27,0,0,1,.33-.42Z"/><path class="cls-16" d="M56.39,75.12a.24.24,0,0,1-.37,0,.24.24,0,0,1,0-.37.24.24,0,0,1,.36,0A.25.25,0,0,1,56.39,75.12Z"/><path class="cls-16" d="M62.92,75.06c.11.12.15.24,0,.37a.24.24,0,0,1-.37.06.23.23,0,0,1-.05-.35A.26.26,0,0,1,62.92,75.06Z"/><path class="cls-16" d="M65.31,73.51a.26.26,0,0,1-.36,0,.25.25,0,0,1,0-.38.24.24,0,0,1,.38,0A.26.26,0,0,1,65.31,73.51Z"/><path class="cls-16" d="M65.07,75c.12-.15.25-.17.37-.08a.26.26,0,0,1-.3.43A.23.23,0,0,1,65.07,75Z"/><path class="cls-16" d="M31.06,76a.26.26,0,0,1-.41-.33.25.25,0,0,1,.38,0A.26.26,0,0,1,31.06,76Z"/><path class="cls-16" d="M33.36,73.54a.27.27,0,0,1,0,.39A.24.24,0,0,1,33,74a.27.27,0,0,1,.33-.42Z"/><path class="cls-16" d="M30.16,78.68c-.15.18-.27.22-.4.12a.24.24,0,0,1-.05-.37.25.25,0,0,1,.38-.05C30.2,78.48,30.22,78.61,30.16,78.68Z"/><path class="cls-16" d="M32.52,78.11a.27.27,0,1,1-.38,0A.25.25,0,0,1,32.52,78.11Z"/><path class="cls-16" d="M33.7,77.38c-.14.12-.27.17-.4.05a.27.27,0,0,1,.35-.4A.26.26,0,0,1,33.7,77.38Z"/><path class="cls-16" d="M34.86,76a.27.27,0,0,1,0,.37.24.24,0,0,1-.37,0,.25.25,0,0,1,0-.36A.28.28,0,0,1,34.86,76Z"/><path class="cls-16" d="M35.72,75a.25.25,0,0,1,.36,0,.26.26,0,0,1,0,.39.23.23,0,0,1-.35,0A.25.25,0,0,1,35.72,75Z"/><path class="cls-16" d="M44.19,71.62a.24.24,0,0,1,.36-.07.24.24,0,0,1,0,.38.24.24,0,0,1-.35.06A.24.24,0,0,1,44.19,71.62Z"/><path class="cls-16" d="M42.47,75.61a.26.26,0,1,1,0-.38A.26.26,0,0,1,42.47,75.61Z"/><path class="cls-16" d="M48.44,71.92a.26.26,0,0,1,0,.39.24.24,0,0,1-.36,0,.23.23,0,0,1,0-.35A.26.26,0,0,1,48.44,71.92Z"/><path class="cls-16" d="M45.13,77.1a.31.31,0,0,1-.38.05.24.24,0,0,1,0-.36.23.23,0,0,1,.37-.05A.24.24,0,0,1,45.13,77.1Z"/><path class="cls-16" d="M52.1,71.13a.26.26,0,0,1-.36,0,.24.24,0,0,1,0-.38.24.24,0,0,1,.37,0A.25.25,0,0,1,52.1,71.13Z"/><path class="cls-16" d="M62.75,73.29a.24.24,0,0,1,0,.36.25.25,0,0,1-.38,0,.24.24,0,0,1,0-.36A.24.24,0,0,1,62.75,73.29Z"/><path class="cls-16" d="M55.7,71.32a.26.26,0,0,1,.38-.06.25.25,0,0,1,0,.38.25.25,0,0,1-.36,0A.25.25,0,0,1,55.7,71.32Z"/><path class="cls-16" d="M54.75,76.08c0-.11-.06-.22,0-.33s.33-.19.46,0a.24.24,0,0,1-.12.36A.28.28,0,0,1,54.75,76.08Z"/><path class="cls-16" d="M60,72.14a.25.25,0,0,1-.38,0,.23.23,0,0,1,0-.35.25.25,0,0,1,.36-.06A.25.25,0,0,1,60,72.14Z"/><path class="cls-16" d="M62.4,69.89a.26.26,0,0,1,0,.38.23.23,0,0,1-.35,0,.24.24,0,0,1,0-.38A.25.25,0,0,1,62.4,69.89Z"/><path class="cls-16" d="M59.75,73.52c.13-.12.26-.15.39,0a.27.27,0,0,1-.36.39A.25.25,0,0,1,59.75,73.52Z"/><path class="cls-16" d="M29.6,73.57c-.12.11-.25.16-.39,0a.25.25,0,0,1,0-.36.23.23,0,0,1,.37,0A.25.25,0,0,1,29.6,73.57Z"/><path class="cls-16" d="M30.58,72.13a.25.25,0,0,1,.07.38.24.24,0,0,1-.37.06.23.23,0,0,1-.05-.35A.24.24,0,0,1,30.58,72.13Z"/><path class="cls-16" d="M30.89,74.23a.25.25,0,0,1-.38,0,.24.24,0,0,1,0-.36.25.25,0,0,1,.38,0A.25.25,0,0,1,30.89,74.23Z"/><path class="cls-16" d="M33.5,78.74a.26.26,0,1,1,.39.34.23.23,0,0,1-.36,0A.25.25,0,0,1,33.5,78.74Z"/><path class="cls-16" d="M47.29,73a.25.25,0,0,1,0,.39.23.23,0,0,1-.35,0,.25.25,0,0,1,0-.38A.25.25,0,0,1,47.29,73Z"/><path class="cls-16" d="M42.25,73.51a.26.26,0,0,1,0,.37.23.23,0,0,1-.37.05.22.22,0,0,1,0-.35A.25.25,0,0,1,42.25,73.51Z"/><path class="cls-16" d="M43.65,74.58a.25.25,0,0,1-.38,0,.23.23,0,0,1,0-.35.26.26,0,1,1,.42.3Z"/><path class="cls-16" d="M61.48,72.93a.25.25,0,0,1-.38,0,.24.24,0,0,1,0-.36.25.25,0,0,1,.38-.05A.25.25,0,0,1,61.48,72.93Z"/><path class="cls-16" d="M64,72.77a.26.26,0,0,1-.38,0,.27.27,0,0,1,.34-.41A.25.25,0,0,1,64,72.77Z"/><path class="cls-16" d="M54.42,72.24a.24.24,0,0,1,.36,0,.23.23,0,0,1,0,.37.22.22,0,0,1-.35,0A.24.24,0,0,1,54.42,72.24Z"/><path class="cls-16" d="M61,69.13a.23.23,0,0,1,0,.36.25.25,0,0,1-.38.05.24.24,0,0,1,0-.36A.24.24,0,0,1,61,69.13Z"/><path class="cls-16" d="M33.53,75.27a.27.27,0,0,1,0,.37.24.24,0,0,1-.37.06.25.25,0,0,1,0-.38A.27.27,0,0,1,33.53,75.27Z"/><path class="cls-16" d="M58,69.35a.25.25,0,0,1,.36,0,.24.24,0,0,1,0,.37.24.24,0,0,1-.38,0C57.92,69.6,58,69.48,58,69.35Z"/><path class="cls-16" d="M31.6,73c.14-.14.28-.16.4,0a.27.27,0,0,1-.37.38A.25.25,0,0,1,31.6,73Z"/><path class="cls-16" d="M55.82,69.55a.25.25,0,0,1,0,.37.24.24,0,0,1-.37.06.23.23,0,0,1,0-.35A.25.25,0,0,1,55.82,69.55Z"/><path class="cls-16" d="M51.11,73.4a.25.25,0,0,1,0,.36.23.23,0,0,1-.37.07.23.23,0,0,1,0-.35A.25.25,0,0,1,51.11,73.4Z"/><path class="cls-16" d="M31.79,74.64a.23.23,0,0,1,.35,0,.23.23,0,0,1,0,.37.24.24,0,0,1-.36,0A.25.25,0,0,1,31.79,74.64Z"/><path class="cls-16" d="M38.36,76.49a.24.24,0,0,1,.36,0,.27.27,0,1,1-.36,0Z"/><path class="cls-16" d="M49.35,72.71a.25.25,0,0,1,.36,0,.25.25,0,0,1,0,.38.24.24,0,0,1-.36,0A.25.25,0,0,1,49.35,72.71Z"/><path class="cls-16" d="M36.06,78.75a.24.24,0,0,1,0-.37.24.24,0,0,1,.36,0,.25.25,0,0,1,0,.38A.23.23,0,0,1,36.06,78.75Z"/><path class="cls-16" d="M46.31,76.1a.26.26,0,0,1-.39,0,.27.27,0,0,1,.36-.39A.25.25,0,0,1,46.31,76.1Z"/><path class="cls-16" d="M57.22,70.73a.26.26,0,1,1-.36-.37.24.24,0,0,1,.36,0A.25.25,0,0,1,57.22,70.73Z"/><path class="cls-16" d="M44.92,74.94a.25.25,0,0,1,0,.38.23.23,0,0,1-.35,0,.24.24,0,0,1,0-.38A.25.25,0,0,1,44.92,74.94Z"/><path class="cls-16" d="M52.64,76.3a.27.27,0,0,1-.39,0,.27.27,0,1,1,.39,0Z"/><path class="cls-16" d="M48.74,75.76a.24.24,0,0,1-.36.06.26.26,0,0,1,.32-.42A.23.23,0,0,1,48.74,75.76Z"/><path class="cls-16" d="M61.3,71.2a.24.24,0,0,1-.36,0,.24.24,0,0,1,0-.37.23.23,0,0,1,.35,0A.24.24,0,0,1,61.3,71.2Z"/><path class="cls-16" d="M51.25,75.53a.25.25,0,1,1,0-.38A.25.25,0,0,1,51.25,75.53Z"/><path class="cls-16" d="M39.73,77.27a.25.25,0,1,1,.39.32.22.22,0,0,1-.35,0A.23.23,0,0,1,39.73,77.27Z"/><path class="cls-16" d="M57.39,72.39a.24.24,0,0,1-.36,0,.25.25,0,0,1,0-.36.23.23,0,0,1,.35-.06A.23.23,0,0,1,57.39,72.39Z"/><path class="cls-16" d="M43.74,76.35a.24.24,0,0,1-.37,0,.24.24,0,0,1,0-.38.22.22,0,0,1,.35,0A.24.24,0,0,1,43.74,76.35Z"/><path class="cls-16" d="M49.92,74.38a.25.25,0,0,1,0,.36.24.24,0,0,1-.37.05.27.27,0,0,1,.35-.41Z"/><path class="cls-16" d="M37.57,77.81a.23.23,0,0,1-.36,0,.24.24,0,0,1,0-.36.23.23,0,0,1,.37,0A.22.22,0,0,1,37.57,77.81Z"/><path class="cls-16" d="M39.18,72.1a.26.26,0,0,1,.37-.07.25.25,0,0,1,.05.38.24.24,0,0,1-.35.06A.25.25,0,0,1,39.18,72.1Z"/><path class="cls-16" d="M39,78.12a.26.26,0,0,1,0,.38.24.24,0,0,1-.36,0,.23.23,0,0,1,0-.35A.26.26,0,0,1,39,78.12Z"/><path class="cls-16" d="M38.23,74.77a.25.25,0,0,1,.38-.06.27.27,0,0,1-.34.41A.24.24,0,0,1,38.23,74.77Z"/><path class="cls-16" d="M57.58,74.1a.23.23,0,0,1-.34.05.25.25,0,0,1-.05-.38.26.26,0,1,1,.39.33Z"/><path class="cls-16" d="M35,78.17a.23.23,0,0,1-.35,0,.24.24,0,0,1,0-.38.25.25,0,1,1,.38.33Z"/><path class="cls-16" d="M42.12,72.21a.25.25,0,0,1-.35.06.24.24,0,0,1-.05-.38.26.26,0,1,1,.4.32Z"/><path class="cls-16" d="M38.46,73.35a.24.24,0,0,1-.36,0,.27.27,0,0,1,.35-.41A.25.25,0,0,1,38.46,73.35Z"/><path class="cls-16" d="M32.37,76.67a.23.23,0,0,1-.35.06.24.24,0,0,1-.05-.37.24.24,0,0,1,.38,0A.23.23,0,0,1,32.37,76.67Z"/><path class="cls-16" d="M51,72c-.12.14-.25.17-.38.06a.23.23,0,0,1,0-.35A.25.25,0,1,1,51,72Z"/><path class="cls-16" d="M47.51,75.07a.22.22,0,0,1-.34.05.24.24,0,0,1-.06-.37.24.24,0,0,1,.36-.06A.24.24,0,0,1,47.51,75.07Z"/><path class="cls-16" d="M61.41,76a.24.24,0,0,1,.37,0,.27.27,0,1,1-.37,0Z"/><path class="cls-16" d="M47.17,71.66c-.12.14-.25.17-.38.06a.22.22,0,0,1,0-.35.23.23,0,0,1,.35-.07A.24.24,0,0,1,47.17,71.66Z"/><path class="cls-16" d="M54.23,70.6c.12-.15.24-.18.37-.09a.24.24,0,0,1,0,.37.23.23,0,0,1-.37.05A.22.22,0,0,1,54.23,70.6Z"/><path class="cls-16" d="M43.47,72.86a.25.25,0,0,1-.38,0,.27.27,0,0,1,.36-.39C43.58,72.6,43.56,72.73,43.47,72.86Z"/><path class="cls-16" d="M41.5,78.18c0,.06-.09.09-.06.16a.26.26,0,0,1-.4-.27.25.25,0,0,1,.3-.2C41.53,77.9,41.53,78,41.5,78.18Z"/><path class="cls-16" d="M53.25,69.74c.11.14.13.27,0,.38a.23.23,0,0,1-.38,0c-.14-.15,0-.28.08-.4S53.16,69.72,53.25,69.74Z"/><path class="cls-16" d="M42.63,77c.08.08.15.22,0,.29a.37.37,0,0,1-.42.06c-.12-.08-.08-.23,0-.33A.25.25,0,0,1,42.63,77Z"/><path class="cls-18" d="M54.5,74.18s.06,0,0,.08S54.45,74.22,54.5,74.18Z"/><line class="cls-19" x1="61.27" y1="54.12" x2="66.2" y2="59.87"/><line class="cls-19" x1="66.2" y1="54.12" x2="61.27" y2="59.87"/><line class="cls-19" x1="28.84" y1="54.12" x2="33.78" y2="59.87"/><line class="cls-19" x1="33.78" y1="54.12" x2="28.84" y2="59.87"/></svg>