<svg id="Layer_1" data-name="Layer 1" xmlns="http://www.w3.org/2000/svg" xmlns:xlink="http://www.w3.org/1999/xlink" viewBox="0 0 95 101"><defs><style>.cls-1,.cls-24,.cls-28,.cls-30{fill:none;}.cls-1,.cls-18,.cls-19,.cls-23,.cls-24{stroke:#1d1d1b;}.cls-1,.cls-28{stroke-miterlimit:10;}.cls-2{clip-path:url(#clip-path);}.cls-3{fill:#e31014;}.cls-4{fill:#3258a4;}.cls-5{fill:#fcea1b;}.cls-6{fill:#702381;}.cls-7{fill:#f28a1a;}.cls-8{fill:#0a8137;}.cls-9{fill:#ef7c26;}.cls-10{fill:#dadc30;}.cls-11{fill:#217b34;}.cls-12{fill:#3b4194;}.cls-13{fill:#5a2985;}.cls-14{fill:#e63913;}.cls-15{fill:#f19507;}.cls-16{fill:#016794;}.cls-17{fill:#00774b;}.cls-18{fill:#e2cfb2;}.cls-18,.cls-19,.cls-23,.cls-24{stroke-linecap:round;stroke-linejoin:round;}.cls-19,.cls-21{fill:#7b6a58;}.cls-20{fill:#1d1d1b;}.cls-22,.cls-23{fill:#fff;}.cls-25{clip-path:url(#clip-path-2);}.cls-26{fill:#cbbba0;}.cls-27{fill:#009fe3;}.cls-28{stroke:#fff;stroke-width:2px;}.cls-29{fill:#706f6f;}</style><clipPath id="clip-path"><circle class="cls-1" cx="47.67" cy="47.56" r="46.31"/></clipPath><clipPath id="clip-path-2"><path class="cls-1" d="M47.33,85.34a46.78,46.78,0,0,0,21.56-4.51c4.63-2.26,10-5.25,11.62-10.79a15.18,15.18,0,0,0-.32-8.44c.16-1.47,4.12-15.83-10.59-28A32.54,32.54,0,0,0,47.41,26h-.08a32.55,32.55,0,0,0-22.2,7.56c-14.71,12.18-10.75,26.54-10.59,28A15.1,15.1,0,0,0,14.23,70c1.6,5.54,7,8.53,11.61,10.79a46.82,46.82,0,0,0,21.57,4.51Z"/></clipPath></defs><title>V1Artboard 2 copy</title><g class="cls-2"><path class="cls-3" d="M93.75,79c0,4.81,0,9.61,0,14.41,0,.74-.17.9-.9.9q-45.59,0-91.15,0c-.74,0-.91-.16-.91-.9,0-4.8,0-9.6,0-14.41l.3-.23c.74,0,1.47,0,2.21,0H91.25l2.2,0Z"/><path class="cls-4" d="M.83,32.22V16.93H93.75V32.52H85.23a1.44,1.44,0,0,0-1.79-.06c-.64,0-1.27,0-1.91,0H3.05c-.63,0-1.27,0-1.91,0Z"/><path class="cls-5" d="M.83,63.39V48.1H93.75V63.39l-.3,0-1.17,0q-44.55,0-89.09,0L2,63.37h-.3Z"/><path class="cls-6" d="M.83,16.34c0-4.7,0-9.39,0-14.09,0-.69.1-.92.88-.92q45.59,0,91.19,0c.78,0,.88.23.88.92,0,4.7,0,9.39,0,14.09Z"/><path class="cls-7" d="M.83,63.39l.88,0c.1.14.2.15.3,0l1.18,0q44.55,0,89.09,0l1.17,0,.3.31V78.39H.83Z"/><path class="cls-8" d="M1.14,32.44c.64,0,1.28,0,1.91,0H81.53c.64,0,1.27,0,1.91,0a1.29,1.29,0,0,0,1.79.06h8.52v15H.83v-15Z"/><path class="cls-9" d="M.83,78.39H93.75v.29l-.3.06-2.2,0H3.34c-.74,0-1.47,0-2.21,0l-.3-.06Z"/><ellipse class="cls-10" cx="47.29" cy="47.95" rx="65.7" ry="0.21"/><ellipse class="cls-11" cx="47.29" cy="47.66" rx="65.7" ry="0.21"/><ellipse class="cls-12" cx="47.29" cy="16.78" rx="65.7" ry="0.21"/><ellipse class="cls-13" cx="47.29" cy="16.49" rx="65.7" ry="0.21"/><path class="cls-14" d="M93.45,78.74l.3-.06V79Z"/><path class="cls-14" d="M.83,78.68l.3.06L.83,79Z"/><path class="cls-15" d="M93.75,63.68l-.3-.31.3,0Z"/><path class="cls-16" d="M1.14,32.44l-.31.08v-.3Z"/><path class="cls-17" d="M85.23,32.51a1.29,1.29,0,0,1-1.79-.06A1.44,1.44,0,0,1,85.23,32.51Z"/><path class="cls-15" d="M2,63.37c-.1.14-.2.13-.3,0Z"/></g><circle class="cls-1" cx="47.67" cy="47.56" r="46.31"/><path class="cls-18" d="M13.67,52.53c-6.53-20.93-1.2-31.35-1.2-31.35s16.16.24,22,8.2"/><path class="cls-18" d="M80.62,52.53c6.52-20.93,1.19-31.35,1.19-31.35s-16.15.24-22,8.2"/><path class="cls-19" d="M18.08,44.64c-3.24-10.39-.59-15.56-.59-15.56s8,.11,10.9,4.06"/><path class="cls-19" d="M76.21,44.64c3.24-10.39.59-15.56.59-15.56s-8,.11-10.9,4.06"/><path class="cls-18" d="M47.33,85.34a46.78,46.78,0,0,0,21.56-4.51c4.63-2.26,10-5.25,11.62-10.79a15.18,15.18,0,0,0-.32-8.44c.16-1.47,4.12-15.83-10.59-28A32.54,32.54,0,0,0,47.41,26h-.08a32.55,32.55,0,0,0-22.2,7.56c-14.71,12.18-10.75,26.54-10.59,28A15.1,15.1,0,0,0,14.23,70c1.6,5.54,7,8.53,11.61,10.79a46.82,46.82,0,0,0,21.57,4.51Z"/><ellipse class="cls-20" cx="31.23" cy="59.31" rx="5.03" ry="5.19"/><ellipse class="cls-21" cx="27.17" cy="66.64" rx="3.16" ry="1.78"/><ellipse class="cls-20" cx="63.54" cy="59.31" rx="5.03" ry="5.19"/><ellipse class="cls-21" cx="67.6" cy="66.64" rx="3.16" ry="1.78"/><ellipse class="cls-22" cx="29.28" cy="57.23" rx="0.89" ry="0.92"/><line class="cls-23" x1="74.47" y1="65.07" x2="87.99" y2="63.94"/><line class="cls-23" x1="74.47" y1="68.81" x2="87.99" y2="69.94"/><line class="cls-24" x1="74.43" y1="66.94" x2="83.18" y2="66.94"/><ellipse class="cls-22" cx="61.44" cy="57.23" rx="0.89" ry="0.92"/><line class="cls-23" x1="20.88" y1="65.07" x2="7.35" y2="63.94"/><line class="cls-23" x1="20.88" y1="68.81" x2="7.35" y2="69.94"/><line class="cls-24" x1="20.92" y1="66.94" x2="12.17" y2="66.94"/><g class="cls-25"><path class="cls-26" d="M42.21,69.48c-1.74,3.2-4.65,13.85-22.72,16.74.7.69,2.14,1.41,3,2.08,9.23,7.64,21.74,6.37,25.54,6.35h0c3.79,0,15.92.8,25.14-6.83.81-.67,2.56-1.75,3.26-2.43C56,84.14,54.17,73.84,52.72,69.93,52.72,69.93,48,58.9,42.21,69.48Z"/></g><path class="cls-1" d="M47.33,85.34a46.78,46.78,0,0,0,21.56-4.51c4.63-2.26,10-5.25,11.62-10.79a15.18,15.18,0,0,0-.32-8.44c.16-1.47,4.12-15.83-10.59-28A32.54,32.54,0,0,0,47.41,26h-.08a32.55,32.55,0,0,0-22.2,7.56c-14.71,12.18-10.75,26.54-10.59,28A15.1,15.1,0,0,0,14.23,70c1.6,5.54,7,8.53,11.61,10.79a46.82,46.82,0,0,0,21.57,4.51Z"/><path d="M71.09,33.43l2.54,7.85c-2.27-2-4.86-2.19-7.76-2.2L65.67,43,50.49,41.28l5,3.9-.22.43L38.74,44.15l3.37,4.43-.3.27-12.51-6L27.78,49l-2.9-3.7L21.35,55.44l-3-4-2,7.25c-.79-.54-1.18-3.26-1.9-3.75-.22.42-2.43,2.63-2.49,2.83l.9-7.36L14.5,44c.67-.85.1-2,1.19-2A154.74,154.74,0,0,0,64.17,30.73a5,5,0,0,1,3.53.06Z"/><path class="cls-27" d="M65.5,29C56.37,35.12,25,41.4,16,40.51,21.32,26.09,52.36,18,65.5,29Z"/><path class="cls-28" d="M66.28,29.41C57.73,36.25,22,42.71,15.56,41.18"/><path class="cls-22" d="M53.92,24.27A37.87,37.87,0,0,0,49,23.89a154.74,154.74,0,0,1-20.81,4.84,36.9,36.9,0,0,0-4.56,2.73C33.38,30.14,45.56,27.5,53.92,24.27Z"/><path class="cls-29" d="M17.46,44.52a4.79,4.79,0,0,1-.06-1.63,5.65,5.65,0,0,1,.33-1.39,7.38,7.38,0,0,1,1.68-2.15c.58-.71,1.18-1.4,1.8-2.08s1.26-1.36,1.94-2l.25.16c-.27.89-.61,1.75-.91,2.62s-.67,1.72-1,2.55a7.13,7.13,0,0,1-1.17,2.47A5.51,5.51,0,0,1,19.2,44a5,5,0,0,1-1.48.68Z"/><path class="cls-20" d="M50.91,69.13c0,1.16-3.58,2.78-3.58,2.78s-3.59-1.62-3.59-2.78S45.35,67,47.33,67,50.91,68,50.91,69.13Z"/><path class="cls-24" d="M47.33,71.53s-1,4.12-4.85,4.63"/><path class="cls-24" d="M47.33,71.53s1,4.12,4.84,4.63"/><rect class="cls-30" x="-0.02" y="0.01" width="95" height="101"/></svg>