<svg id="Layer_1" data-name="Layer 1" xmlns="http://www.w3.org/2000/svg" xmlns:xlink="http://www.w3.org/1999/xlink" viewBox="0 0 95 101"><defs><style>.cls-1,.cls-13,.cls-15,.cls-9{fill:none;}.cls-1,.cls-2,.cls-3,.cls-4,.cls-8,.cls-9{stroke:#1d1d1b;}.cls-1,.cls-13{stroke-miterlimit:10;}.cls-2{fill:#b2b2b2;}.cls-2,.cls-3,.cls-4,.cls-8,.cls-9{stroke-linecap:round;stroke-linejoin:round;}.cls-3{fill:#e2cfb2;}.cls-4,.cls-6{fill:#7b6a58;}.cls-5{fill:#1d1d1b;}.cls-7,.cls-8{fill:#fff;}.cls-10{clip-path:url(#clip-path);}.cls-11{fill:#cbbba0;}.cls-12{fill:#009fe3;}.cls-13{stroke:#fff;stroke-width:2px;}.cls-14{fill:#706f6f;}</style><clipPath id="clip-path"><path class="cls-1" d="M47.08,85.3a46.78,46.78,0,0,0,21.56-4.51c4.63-2.26,10-5.25,11.62-10.8a15.05,15.05,0,0,0-.32-8.43c.16-1.48,4.12-15.83-10.58-28A32.51,32.51,0,0,0,47.16,26h-.08a32.5,32.5,0,0,0-22.2,7.56c-14.71,12.18-10.75,26.53-10.58,28A15,15,0,0,0,14,70c1.6,5.55,7,8.54,11.61,10.8A46.82,46.82,0,0,0,47.16,85.3Z"/></clipPath></defs><title>V2Artboard 3 copy</title><circle class="cls-2" cx="47.43" cy="47.52" r="46.31"/><path class="cls-3" d="M13.42,52.49C6.9,31.56,12.23,21.14,12.23,21.14s16.15.24,22,8.19"/><path class="cls-3" d="M80.37,52.49c6.53-20.93,1.19-31.35,1.19-31.35s-16.15.24-22,8.19"/><path class="cls-4" d="M17.83,44.59C14.59,34.21,17.24,29,17.24,29s8,.12,10.9,4.07"/><path class="cls-4" d="M76,44.59C79.2,34.21,76.55,29,76.55,29s-8,.12-10.9,4.07"/><path class="cls-3" d="M47.08,85.3a46.78,46.78,0,0,0,21.56-4.51c4.63-2.26,10-5.25,11.62-10.8a15.05,15.05,0,0,0-.32-8.43c.16-1.48,4.12-15.83-10.58-28A32.51,32.51,0,0,0,47.16,26h-.08a32.5,32.5,0,0,0-22.2,7.56c-14.71,12.18-10.75,26.53-10.58,28A15,15,0,0,0,14,70c1.6,5.55,7,8.54,11.61,10.8A46.82,46.82,0,0,0,47.16,85.3Z"/><ellipse class="cls-5" cx="30.98" cy="59.27" rx="5.03" ry="5.19"/><ellipse class="cls-6" cx="26.92" cy="66.6" rx="3.16" ry="1.78"/><ellipse class="cls-5" cx="63.29" cy="59.27" rx="5.03" ry="5.19"/><ellipse class="cls-6" cx="67.35" cy="66.6" rx="3.16" ry="1.78"/><ellipse class="cls-7" cx="29.03" cy="57.19" rx="0.89" ry="0.92"/><line class="cls-8" x1="74.22" y1="65.03" x2="87.75" y2="63.9"/><line class="cls-8" x1="74.22" y1="68.77" x2="87.75" y2="69.89"/><line class="cls-9" x1="74.18" y1="66.9" x2="82.93" y2="66.9"/><ellipse class="cls-7" cx="61.19" cy="57.19" rx="0.89" ry="0.92"/><line class="cls-8" x1="20.63" y1="65.03" x2="7.11" y2="63.9"/><line class="cls-8" x1="20.63" y1="68.77" x2="7.11" y2="69.89"/><line class="cls-9" x1="20.67" y1="66.9" x2="11.92" y2="66.9"/><g class="cls-10"><path class="cls-11" d="M42,69.43c-1.74,3.2-4.65,13.86-22.72,16.75.7.68,2.14,1.41,3,2.08,9.22,7.64,21.73,6.36,25.53,6.34h0c3.8,0,15.92.81,25.15-6.83.8-.66,2.55-1.75,3.25-2.42C55.75,84.1,53.92,73.79,52.47,69.89,52.47,69.89,47.7,58.86,42,69.43Z"/></g><path class="cls-1" d="M47.08,85.3a46.78,46.78,0,0,0,21.56-4.51c4.63-2.26,10-5.25,11.62-10.8a15.05,15.05,0,0,0-.32-8.43c.16-1.48,4.12-15.83-10.58-28A32.51,32.51,0,0,0,47.16,26h-.08a32.5,32.5,0,0,0-22.2,7.56c-14.71,12.18-10.75,26.53-10.58,28A15,15,0,0,0,14,70c1.6,5.55,7,8.54,11.61,10.8A46.82,46.82,0,0,0,47.16,85.3Z"/><path d="M70.84,33.39l2.54,7.85c-2.27-2-4.85-2.19-7.76-2.2l-.2,3.87L50.25,41.24l5,3.9-.22.42L38.5,44.1l3.36,4.44-.3.27-12.51-6L27.53,49l-2.9-3.7L21.1,55.39l-3-4-2,7.26c-.78-.54-1.18-3.26-1.89-3.75-.23.42-2.44,2.62-2.49,2.83l.89-7.36L14.25,44c.67-.86.1-2,1.2-2.06A154.46,154.46,0,0,0,63.92,30.68a5,5,0,0,1,3.53.06Z"/><path class="cls-12" d="M65.25,29c-9.13,6.09-40.49,12.37-49.49,11.48C21.08,26.05,52.11,17.94,65.25,29Z"/><path class="cls-13" d="M66,29.37c-8.55,6.84-44.31,13.3-50.72,11.77"/><path class="cls-7" d="M53.68,24.23a36.48,36.48,0,0,0-5-.38,156.28,156.28,0,0,1-20.81,4.84,34.59,34.59,0,0,0-4.56,2.73C33.13,30.09,45.31,27.46,53.68,24.23Z"/><path class="cls-14" d="M17.22,44.48a4.79,4.79,0,0,1-.06-1.63,5.54,5.54,0,0,1,.33-1.39c.28-.89,1.09-1.45,1.67-2.16s1.18-1.39,1.81-2.07,1.25-1.36,1.93-2l.25.15c-.27.9-.6,1.75-.91,2.63s-.67,1.71-1,2.55A7.13,7.13,0,0,1,20,43,5.56,5.56,0,0,1,19,44a4.84,4.84,0,0,1-1.48.68Z"/><path class="cls-5" d="M50.66,69.09c0,1.16-3.58,2.78-3.58,2.78s-3.59-1.62-3.59-2.78S45.1,67,47.08,67,50.66,67.94,50.66,69.09Z"/><path class="cls-9" d="M47.08,71.49s-1,4.12-4.85,4.63"/><path class="cls-9" d="M47.08,71.49s1,4.12,4.84,4.63"/><rect class="cls-15" y="-0.03" width="95" height="101"/></svg>