<svg id="Layer_1" data-name="Layer 1" xmlns="http://www.w3.org/2000/svg" viewBox="0 0 95 101"><defs><style>.cls-1,.cls-10,.cls-12,.cls-8{fill:none;}.cls-2{fill:#f6ae8b;}.cls-10,.cls-12,.cls-16,.cls-2,.cls-3,.cls-4,.cls-5,.cls-8,.cls-9{stroke:#1d1d1b;}.cls-10,.cls-16,.cls-2,.cls-4,.cls-5,.cls-8,.cls-9{stroke-linecap:round;stroke-linejoin:round;}.cls-3{fill:#a0709c;}.cls-12,.cls-3{stroke-miterlimit:10;}.cls-10,.cls-12,.cls-3{stroke-width:0.5px;}.cls-4{fill:#ddb272;}.cls-5,.cls-6{fill:#e06ba3;}.cls-7{fill:#1d1d1b;}.cls-9{fill:#fff;}.cls-11{fill:#662483;}.cls-13{fill:#fbf6ef;}.cls-14{fill:#121324;}.cls-15{fill:#da9444;}.cls-16{fill:#f5d2a2;}</style></defs><title>V2Artboard 4 copy 5</title><rect class="cls-1" x="0.06" y="-0.16" width="95" height="101"/><circle class="cls-2" cx="47.53" cy="47.46" r="46.31"/><path class="cls-3" d="M57.71,79.27a17.8,17.8,0,0,0-3.51,9.3C53.5,96.88,65,97.66,65,97.66s13.84-.83,19.42-4.34A11.75,11.75,0,0,0,90,84s-5-12.48-16.12-13C64.13,70.53,57.71,79.27,57.71,79.27Z"/><path class="cls-4" d="M13.46,52.43c-6.53-20.93-1.2-31.35-1.2-31.35s16.16.23,22,8.19"/><path class="cls-4" d="M80.41,52.43C86.93,31.5,81.6,21.08,81.6,21.08s-16.15.23-22,8.19"/><path class="cls-5" d="M17.87,44.53C14.63,34.14,17.28,29,17.28,29s8,.12,10.9,4.07"/><path class="cls-5" d="M76,44.53c3.24-10.39.59-15.56.59-15.56s-8,.12-10.9,4.07"/><path class="cls-4" d="M47.12,85.23a46.75,46.75,0,0,0,21.56-4.5c4.63-2.26,10-5.25,11.62-10.8A15.14,15.14,0,0,0,80,61.5c.16-1.48,4.12-15.84-10.58-28a32.53,32.53,0,0,0-22.2-7.56h-.08a32.5,32.5,0,0,0-22.2,7.56C10.21,45.66,14.17,60,14.33,61.5A15.07,15.07,0,0,0,14,69.93c1.6,5.55,7,8.54,11.61,10.8a46.79,46.79,0,0,0,21.57,4.5Z"/><ellipse class="cls-6" cx="26.96" cy="66.54" rx="3.16" ry="1.78"/><path class="cls-7" d="M50.7,67.22c0,1.16-3.58,2.78-3.58,2.78s-3.59-1.62-3.59-2.78,1.61-2.09,3.59-2.09S50.7,66.07,50.7,67.22Z"/><path class="cls-8" d="M47.12,70a7.55,7.55,0,0,1-5.36,2"/><path class="cls-8" d="M47.16,70a7.54,7.54,0,0,0,5.35,2"/><ellipse class="cls-6" cx="67.39" cy="66.54" rx="3.16" ry="1.78"/><path class="cls-8" d="M29.12,52.9s4.88-2.3,8.45,0"/><path class="cls-8" d="M54.92,52.74s4.87-2.3,8.45,0"/><path class="cls-7" d="M50.83,23.21,45.44,44.57s-10.21,8.34-19.12,9C19,54.14,16.73,58.83,17.84,76l-2.46-2.27S1.55,20.82,50.83,23.21Z"/><path class="cls-7" d="M51.81,23.21,46.49,44.53s9,11.24,18.75,8.55c22.81-6.3,8.7,7.8,9.79,24.22l5.36-4.47S88,23.94,51.81,23.21Z"/><line class="cls-9" x1="20.67" y1="64.96" x2="7.14" y2="63.84"/><line class="cls-9" x1="20.67" y1="68.71" x2="7.14" y2="69.83"/><line class="cls-8" x1="20.71" y1="66.84" x2="11.96" y2="66.84"/><line class="cls-9" x1="74.26" y1="64.96" x2="87.79" y2="63.84"/><line class="cls-9" x1="74.26" y1="68.71" x2="87.79" y2="69.83"/><line class="cls-8" x1="74.22" y1="66.84" x2="82.97" y2="66.84"/><path class="cls-10" d="M76.75,75.44s-.38-2-2-2.17"/><path class="cls-3" d="M80.39,72.83s-13.28-31.19-33-32.22-32,33.14-32,33.14c-7.76-9,.79-28.25.79-28.25-1.28-12.39-4.77-34.56,30-36.26,34-1.66,30.13,30.3,30.13,30.3S83.79,49.81,80.39,72.83Z"/><path class="cls-11" d="M18.9,46.55a17.71,17.71,0,0,1,1.63-2.71,24.68,24.68,0,0,1,2-2.45,19.08,19.08,0,0,1,2.36-2.13,9.88,9.88,0,0,1,2.79-1.54,58.72,58.72,0,0,0-4.42,4.36C21.84,43.57,20.45,45.11,18.9,46.55Z"/><path class="cls-11" d="M60.64,38.47l-4-1.95c-1.32-.64-2.64-1.29-4-1.88S50,33.47,48.61,33a24.14,24.14,0,0,0-4.25-1.12,12.53,12.53,0,0,1,4.47.38,24.23,24.23,0,0,1,4.24,1.49A32.11,32.11,0,0,1,60.64,38.47Z"/><path class="cls-12" d="M61.37,46.3a60.47,60.47,0,0,0-15-7c-5.34-1.65-11.81-3.75-20.08-2.64a30,30,0,0,0-10.66,3.15"/><path class="cls-12" d="M43.06,24.9a53.14,53.14,0,0,1,15.66,7.49,47.86,47.86,0,0,1,13.62,14A47,47,0,0,1,78.81,63"/><path class="cls-3" d="M15.74,60.09a44.2,44.2,0,0,1,6.39-13.27A40,40,0,0,1,32.72,36.37"/><path class="cls-12" d="M27.57,17.07c4.09-.79,17.34-2.8,30.3,4.77A44.1,44.1,0,0,1,72,35.46,46,46,0,0,1,79.49,58.6"/><path class="cls-3" d="M24.16,17.17a11.77,11.77,0,0,0-2.32,6.14c-.46,5.49,7.1,6,7.1,6s9.14-.55,12.82-2.87a7.76,7.76,0,0,0,3.69-6.14s-3.34-8.24-10.65-8.59C28.4,11.4,24.16,17.17,24.16,17.17Z"/><path class="cls-3" d="M26.38,14.62a8.25,8.25,0,0,0-1.63,4.32c-.32,3.86,5,4.22,5,4.22s6.43-.38,9-2a5.46,5.46,0,0,0,2.59-4.32S39,11,33.87,10.79C29.36,10.57,26.38,14.62,26.38,14.62Z"/><path class="cls-13" d="M53.22,78.11c3.78-.27,7.53-.82,11.29-1.27a2.54,2.54,0,0,0,1.77-1A4.9,4.9,0,0,0,67,74.64,6.22,6.22,0,0,0,66.35,68a3.4,3.4,0,0,0-3.74-1.47L60.48,67a20.26,20.26,0,0,1-3.39.41c-1.62.1-3.24.22-4.86.34m-11.18,1-5.32.59L30.25,70a2.38,2.38,0,0,0-2,1.33,10.67,10.67,0,0,0-1,3.57,3.83,3.83,0,0,0,0,1.07,6.76,6.76,0,0,0,1.9,3.67,2.75,2.75,0,0,0,2.28.85,6,6,0,0,0,1.12-.14,38.33,38.33,0,0,1,4.25-.8c1.8-.19,3.59-.39,5.39-.55"/><path class="cls-14" d="M52.23,67.74c1.62-.12,3.24-.24,4.86-.34A20.26,20.26,0,0,0,60.48,67l2.13-.46A3.4,3.4,0,0,1,66.35,68,6.22,6.22,0,0,1,67,74.64a4.9,4.9,0,0,1-.74,1.25,2.54,2.54,0,0,1-1.77,1c-3.76.45-7.51,1-11.29,1.27l-11,.88c-1.8.16-3.59.36-5.39.55a38.33,38.33,0,0,0-4.25.8,6,6,0,0,1-1.12.14,2.75,2.75,0,0,1-2.28-.85A6.76,6.76,0,0,1,27.28,76a3.83,3.83,0,0,1,0-1.07,10.67,10.67,0,0,1,1-3.57,2.38,2.38,0,0,1,2-1.33l5.48-.66,5.32-.59Zm13-.57a2,2,0,0,0-1.5-.55,8.41,8.41,0,0,0-1.32.12c-1.09.21-2.17.49-3.27.62-1.64.19-3.29.3-4.94.4-4.42.29-8.83.63-13.24,1.13-2.87.32-5.74.64-8.61,1-.83.1-1.66.13-2.48.31a1.83,1.83,0,0,0-1.34,1,10.14,10.14,0,0,0-1,3.88,6,6,0,0,0,1.7,4.15,3,3,0,0,0,2.91,1c.24,0,.48-.07.72-.12,1.19-.27,2.38-.54,3.59-.7,3.23-.44,6.48-.72,9.73-1,6.16-.45,12.31-1,18.42-1.86a2.46,2.46,0,0,0,1.83-1,6.68,6.68,0,0,0,1.13-4.29A6.34,6.34,0,0,0,65.18,67.17Z"/><path class="cls-15" d="M65.18,67.17a6.34,6.34,0,0,1,2.29,4.16,6.68,6.68,0,0,1-1.13,4.29,2.46,2.46,0,0,1-1.83,1c-6.11.89-12.26,1.41-18.42,1.86-3.25.23-6.5.51-9.73,1-1.21.16-2.4.43-3.59.7-.24,0-.48.08-.72.12a3,3,0,0,1-2.91-1,6,6,0,0,1-1.7-4.15,10.14,10.14,0,0,1,1-3.88,1.83,1.83,0,0,1,1.34-1c.82-.18,1.65-.21,2.48-.31,2.87-.36,5.74-.68,8.61-1,4.41-.5,8.82-.84,13.24-1.13,1.65-.1,3.3-.21,4.94-.4,1.1-.13,2.18-.41,3.27-.62a8.41,8.41,0,0,1,1.32-.12A2,2,0,0,1,65.18,67.17ZM54.5,73.82c-.09,0-.07-.09-.08-.14a3.89,3.89,0,0,1-.08-.83s0-.12,0-.14-.12,0-.14.1a.71.71,0,0,0,0,.21,5.61,5.61,0,0,0,.21,1.29,5.44,5.44,0,0,1,.2,1.44c-.06.71-.22.86-.92.9s-1.38.08-2.06.14c-2.41.24-4.81.53-7.24.61a11.33,11.33,0,0,0-2.83.42c0-.15,0-.28-.16-.31a.25.25,0,0,0-.3.2.24.24,0,0,0,.08.26.24.24,0,0,0,.32,0,13.69,13.69,0,0,1,2.86-.4c1.43-.09,2.86-.13,4.29-.3a44.22,44.22,0,0,1,4.87-.41,1.84,1.84,0,0,0,.66-.12.88.88,0,0,0,.57-.69c0-.12,0-.23.06-.34.1.07.22.14.34.06s.21-.21.12-.36-.3-.14-.46,0c-.07-.36-.13-.72-.2-1.09,0-.13-.1-.26,0-.4s.09,0,.13.07a.25.25,0,0,0,.4-.12.22.22,0,0,0-.12-.33c-.18-.08-.28,0-.36.16A.59.59,0,0,0,54.5,73.82Zm-14-3.32a1.69,1.69,0,0,0-.23.54,3.6,3.6,0,0,0,0,1.18,22.17,22.17,0,0,1,.48,4.67s0,.11.06.12a.13.13,0,0,0,.13-.08,1,1,0,0,0,0-.24,15.79,15.79,0,0,0-.29-3.29,15.6,15.6,0,0,1-.29-2,1.06,1.06,0,0,1,1-1.22,4.51,4.51,0,0,1,.53-.08c1.06-.13,2.12-.25,3.18-.39,2.09-.26,4.18-.56,6.28-.65h.16c.08,0,.16,0,.14-.14s-.1,0-.16,0c-.53,0-1.07.06-1.61.11-2.2.18-4.38.52-6.57.79a14.25,14.25,0,0,0-1.95.25A1.57,1.57,0,0,0,40.54,70.5ZM46,72.26a.25.25,0,0,0,0-.38.23.23,0,0,0-.35,0,.26.26,0,1,0,.38.35Zm4.06,3.55a.25.25,0,0,0-.37,0,.24.24,0,0,0,0,.37.23.23,0,0,0,.35,0A.25.25,0,0,0,50.09,75.81Zm8.72-3.43a.27.27,0,0,0-.37.06.25.25,0,0,0,0,.36.25.25,0,0,0,.38,0A.26.26,0,0,0,58.81,72.38Zm0,3.85a.26.26,0,0,0,.38,0,.25.25,0,0,0,0-.38.24.24,0,0,0-.35,0A.25.25,0,0,0,58.8,76.23Zm6.12-6.86a.23.23,0,0,0-.34,0,.23.23,0,0,0,0,.37.24.24,0,0,0,.36,0A.26.26,0,0,0,64.92,69.37Zm-.79,4.77a.26.26,0,1,0-.43-.29.24.24,0,0,0,0,.35C63.88,74.31,64,74.27,64.13,74.14ZM46.2,74a.26.26,0,1,0-.41-.32.23.23,0,0,0,0,.35A.25.25,0,0,0,46.2,74Zm7.46-1.17a.26.26,0,0,0-.37.05.25.25,0,0,0,0,.38.24.24,0,0,0,.35,0A.26.26,0,0,0,53.66,72.82Zm-6,3.32a.25.25,0,0,0-.38,0,.24.24,0,0,0,0,.36.23.23,0,0,0,.37,0A.25.25,0,0,0,47.67,76.14Zm.55-2.8a.25.25,0,0,0,.05.37c.13.11.26.07.37-.06a.24.24,0,0,0,0-.35A.25.25,0,0,0,48.22,73.34Zm10.42-2.68a.24.24,0,0,0-.37,0,.26.26,0,1,0,.4.34A.25.25,0,0,0,58.64,70.66Zm-23,.85a.25.25,0,0,0,0-.38.27.27,0,0,0-.34.41A.26.26,0,0,0,35.68,71.51Zm-1,2.79a.26.26,0,1,0-.37,0A.24.24,0,0,0,34.69,74.3Zm28.49-5.65a.25.25,0,0,0,0,.36.25.25,0,0,0,.38,0,.24.24,0,0,0-.05-.38A.26.26,0,0,0,63.18,68.65Zm-23.8,5.13a.27.27,0,0,0,.39-.06.24.24,0,0,0,0-.35.24.24,0,0,0-.38,0A.25.25,0,0,0,39.38,73.78ZM65.08,71a.27.27,0,0,0-.37.07.26.26,0,0,0,.42.32A.27.27,0,0,0,65.08,71Zm-25.17,4a.25.25,0,0,0-.37.06.24.24,0,0,0,.05.36.24.24,0,0,0,.37,0A.25.25,0,0,0,39.91,75.06Zm20.42.23a.26.26,0,0,0,0-.38.27.27,0,0,0-.36.4C60.07,75.43,60.2,75.4,60.33,75.29Zm-1.4-1.15a.25.25,0,0,0-.38,0,.25.25,0,0,0,0,.36.24.24,0,0,0,.37,0A.25.25,0,0,0,58.93,74.14Zm-1.18,1a.27.27,0,1,0,0,.37A.25.25,0,0,0,57.75,75.17ZM53.42,75a.25.25,0,0,0,.38,0,.23.23,0,0,0,0-.35.25.25,0,0,0-.4,0A.25.25,0,0,0,53.42,75ZM29.7,74.5a.26.26,0,0,0-.35.06.25.25,0,0,0,0,.38.24.24,0,0,0,.36,0A.25.25,0,0,0,29.7,74.5ZM31.13,77a.27.27,0,0,0-.33.42.24.24,0,0,0,.37,0A.25.25,0,0,0,31.13,77Zm7.07-6a.26.26,0,0,0-.37,0,.25.25,0,0,0,0,.38.23.23,0,0,0,.36,0A.24.24,0,0,0,38.2,70.92Zm-1.17,1a.25.25,0,0,0-.38,0,.24.24,0,0,0,0,.36.23.23,0,0,0,.36,0A.25.25,0,0,0,37,71.91Zm19.22.73a.25.25,0,0,0-.37,0,.24.24,0,0,0,0,.37.25.25,0,0,0,.36,0A.25.25,0,0,0,56.25,72.64Zm-2.77-1.56a.27.27,0,0,0-.32.43.24.24,0,0,0,.36,0A.26.26,0,0,0,53.48,71.08Zm8.11,3.23a.24.24,0,0,0,0-.36.25.25,0,0,0-.38,0,.26.26,0,1,0,.41.31ZM35.52,72.88a.26.26,0,0,0,0,.38.25.25,0,0,0,.36-.06.24.24,0,0,0,0-.38A.25.25,0,0,0,35.52,72.88Zm16.75-.43c.08-.13.11-.27,0-.38a.25.25,0,0,0-.36,0,.23.23,0,0,0,0,.36A.26.26,0,0,0,52.27,72.45Zm12,3a.26.26,0,0,0-.32.42.25.25,0,0,0,.36,0A.24.24,0,0,0,64.29,75.46ZM63.8,70.3a.27.27,0,0,0-.34.42.25.25,0,0,0,.38,0A.24.24,0,0,0,63.8,70.3ZM34.52,72.63a.23.23,0,0,0,0-.35.25.25,0,0,0-.38,0,.23.23,0,0,0,0,.36A.25.25,0,0,0,34.52,72.63Zm28.08-1c.08-.14.1-.27,0-.38a.23.23,0,0,0-.36,0,.25.25,0,0,0,0,.38A.26.26,0,0,0,62.6,71.6ZM52.47,74.15c.07-.13.1-.26,0-.36a.24.24,0,0,0-.38,0,.25.25,0,0,0,0,.38A.27.27,0,0,0,52.47,74.15ZM36.16,76.3a.24.24,0,0,0-.36.07.24.24,0,0,0,0,.35.26.26,0,1,0,.32-.42Zm8.59-3a.26.26,0,1,0-.38-.35.24.24,0,0,0,0,.38A.25.25,0,0,0,44.75,73.26Zm14.64-3.48c-.07.13-.09.26,0,.36a.24.24,0,0,0,.37,0,.25.25,0,0,0,0-.38A.27.27,0,0,0,59.39,69.78Zm-28,8.86a.25.25,0,0,0-.36,0,.24.24,0,0,0,0,.38.25.25,0,0,0,.38,0A.26.26,0,0,0,31.36,78.64Zm5.45-5a.25.25,0,0,0,0,.36.27.27,0,0,0,.35-.4A.25.25,0,0,0,36.81,73.63Zm.57,1.65a.26.26,0,0,0-.38.07.26.26,0,1,0,.42.3A.27.27,0,0,0,37.38,75.28Zm18.83.82a.25.25,0,0,0,0,.38.25.25,0,0,0,.36,0,.24.24,0,0,0,0-.36A.25.25,0,0,0,56.21,76.1Zm-26.3.13a.27.27,0,0,0-.35.4.24.24,0,0,0,.38,0A.23.23,0,0,0,29.91,76.23ZM49.59,71a.25.25,0,0,0,0-.36.26.26,0,1,0-.33.41A.24.24,0,0,0,49.59,71Zm-16.49.47a.27.27,0,0,0-.33.42.25.25,0,0,0,.38,0A.25.25,0,0,0,33.1,71.47Zm23.29,3.29a.25.25,0,0,0,0-.38.27.27,0,0,0-.34.41A.24.24,0,0,0,56.39,74.76Zm6.53-.06a.26.26,0,0,0-.37.07.26.26,0,1,0,.42.3C63.07,74.94,63,74.82,62.92,74.7Zm2.39-1.55a.26.26,0,0,0,0-.37.24.24,0,0,0-.38,0,.25.25,0,0,0,0,.38A.26.26,0,0,0,65.31,73.15Zm-.24,1.47a.24.24,0,0,0,.07.36.26.26,0,0,0,.3-.43A.25.25,0,0,0,65.07,74.62Zm-34,1a.26.26,0,0,0,0-.37.25.25,0,0,0-.38,0,.24.24,0,0,0,0,.36A.25.25,0,0,0,31.06,75.6Zm2.3-2.42a.27.27,0,0,0-.33.42.24.24,0,0,0,.36,0A.27.27,0,0,0,33.36,73.18Zm-3.2,5.14c.06-.07,0-.2-.07-.3a.27.27,0,1,0-.33.42C29.89,78.54,30,78.5,30.16,78.32Zm2.36-.57a.25.25,0,0,0-.38,0,.26.26,0,1,0,.38,0ZM33.7,77a.26.26,0,0,0-.05-.35.27.27,0,0,0-.35.4C33.43,77.19,33.56,77.14,33.7,77Zm1.16-1.38c-.15-.08-.28-.09-.39,0a.25.25,0,0,0,0,.36.24.24,0,0,0,.37,0A.27.27,0,0,0,34.86,75.64Zm.86-1a.25.25,0,0,0,0,.38.22.22,0,0,0,.35,0,.25.25,0,0,0,0-.38A.24.24,0,0,0,35.72,74.59Zm8.47-3.33a.23.23,0,0,0,.05.36.22.22,0,0,0,.35-.06.23.23,0,0,0,0-.37A.24.24,0,0,0,44.19,71.26Zm-1.72,4a.26.26,0,0,0,0-.38.27.27,0,1,0,0,.38Zm6-3.69a.27.27,0,0,0-.38,0,.26.26,0,0,0,.38.35A.26.26,0,0,0,48.44,71.56Zm-3.31,5.18a.26.26,0,0,0,0-.37.27.27,0,0,0-.34.42A.31.31,0,0,0,45.13,76.74Zm7-6a.25.25,0,0,0,0-.37.27.27,0,0,0-.35.4A.25.25,0,0,0,52.1,70.77Zm10.65,2.15a.25.25,0,0,0-.37.06.24.24,0,0,0,0,.36.25.25,0,0,0,.38,0A.25.25,0,0,0,62.75,72.92Zm-7-2a.25.25,0,0,0,0,.37.25.25,0,0,0,.36,0,.25.25,0,0,0,0-.38A.26.26,0,0,0,55.7,71Zm4.27.82a.25.25,0,0,0,0-.38.24.24,0,0,0-.36.06.23.23,0,0,0,0,.35A.25.25,0,0,0,60,71.78Zm2.43-2.25a.25.25,0,0,0-.36,0,.24.24,0,0,0,0,.38.23.23,0,0,0,.35,0A.26.26,0,0,0,62.4,69.53Zm-2.65,3.62a.25.25,0,0,0,0,.36.23.23,0,0,0,.37,0,.24.24,0,0,0,0-.36A.26.26,0,0,0,59.75,73.15Zm-30.15.06a.27.27,0,0,0-.05-.37.24.24,0,0,0-.37,0,.25.25,0,0,0,0,.36C29.35,73.37,29.48,73.31,29.6,73.21Zm1-1.44a.24.24,0,0,0-.35.08.24.24,0,0,0,.05.36.27.27,0,0,0,.3-.44Zm.31,2.09a.24.24,0,0,0,0-.36.25.25,0,0,0-.38,0,.24.24,0,0,0,0,.36A.25.25,0,0,0,30.89,73.86Zm2.61,4.52a.25.25,0,0,0,0,.37.24.24,0,0,0,.36,0,.26.26,0,1,0-.39-.34Zm13.79-5.75a.24.24,0,0,0-.35,0A.25.25,0,0,0,47,73a.23.23,0,0,0,.35,0A.25.25,0,0,0,47.29,72.63Zm-5,.52a.26.26,0,0,0-.37.06.23.23,0,0,0,0,.36.24.24,0,0,0,.37,0A.26.26,0,0,0,42.25,73.15Zm1.4,1.07a.25.25,0,0,0-.06-.37.24.24,0,0,0-.36.07.23.23,0,0,0,0,.35A.25.25,0,0,0,43.65,74.22Zm17.83-1.65a.25.25,0,0,0,0-.36.24.24,0,0,0-.38.05.23.23,0,0,0,0,.35A.25.25,0,0,0,61.48,72.57ZM64,72.41a.25.25,0,0,0,0-.36.27.27,0,0,0-.34.41A.26.26,0,0,0,64,72.41Zm-9.59-.53a.24.24,0,0,0,0,.37.22.22,0,0,0,.35,0,.26.26,0,1,0-.38-.34ZM61,68.76a.25.25,0,0,0-.37.06.24.24,0,0,0,0,.36.27.27,0,1,0,.33-.42ZM33.53,74.91a.27.27,0,0,0-.36,0,.25.25,0,0,0,0,.38.23.23,0,0,0,.37-.07A.26.26,0,0,0,33.53,74.91ZM58,69a.25.25,0,0,0,0,.36.24.24,0,0,0,.38,0,.25.25,0,0,0,0-.38A.26.26,0,0,0,58,69ZM31.6,72.62a.25.25,0,0,0,0,.34.27.27,0,0,0,.37-.38C31.88,72.46,31.74,72.48,31.6,72.62Zm24.22-3.43a.25.25,0,0,0-.36.07.25.25,0,1,0,.41.3A.25.25,0,0,0,55.82,69.19ZM51.11,73a.25.25,0,0,0-.37.08.23.23,0,0,0,0,.35.23.23,0,0,0,.37-.07A.25.25,0,0,0,51.11,73ZM31.79,74.28a.25.25,0,0,0,0,.38.27.27,0,0,0,.33-.42A.24.24,0,0,0,31.79,74.28Zm6.57,1.85a.26.26,0,1,0,.36,0A.24.24,0,0,0,38.36,76.13Zm11-3.78a.25.25,0,0,0,0,.38.24.24,0,0,0,.36,0,.24.24,0,0,0,0-.37A.25.25,0,0,0,49.35,72.35Zm-13.29,6a.23.23,0,0,0,.36,0,.25.25,0,0,0,0-.38A.24.24,0,0,0,36,78,.24.24,0,0,0,36.06,78.39Zm10.25-2.66a.24.24,0,0,0,0-.37.27.27,0,0,0-.36.39A.25.25,0,0,0,46.31,75.73Zm10.91-5.36a.25.25,0,0,0,0-.38.24.24,0,0,0-.36,0,.26.26,0,1,0,.36.37Zm-12.3,4.21a.25.25,0,0,0-.36,0,.24.24,0,0,0,0,.38.23.23,0,0,0,.35,0A.25.25,0,0,0,44.92,74.58Zm7.72,1.35a.23.23,0,0,0,0-.35.25.25,0,0,0-.38,0,.23.23,0,0,0,0,.35A.25.25,0,0,0,52.64,75.93Zm-3.9-.53a.23.23,0,0,0,0-.36.24.24,0,0,0-.36,0,.24.24,0,0,0,0,.38A.24.24,0,0,0,48.74,75.4ZM61.3,70.84a.25.25,0,1,0-.38-.34.25.25,0,0,0,0,.38A.24.24,0,0,0,61.3,70.84Zm-10,4.33a.25.25,0,0,0,0-.38.26.26,0,1,0,0,.38ZM39.73,76.91a.25.25,0,1,0,.39.32.25.25,0,1,0-.39-.32ZM57.39,72a.24.24,0,0,0,0-.39.24.24,0,0,0-.35.07.25.25,0,0,0,0,.36A.24.24,0,0,0,57.39,72ZM43.74,76a.24.24,0,0,0,0-.37.22.22,0,0,0-.35,0,.23.23,0,0,0,0,.37A.24.24,0,0,0,43.74,76Zm6.18-2a.27.27,0,1,0,0,.36A.25.25,0,0,0,49.92,74ZM37.57,77.45a.22.22,0,0,0,0-.36.23.23,0,0,0-.37,0,.25.25,0,1,0,.39.31Zm1.61-5.71a.25.25,0,0,0,.07.37.24.24,0,0,0,.35-.06.25.25,0,0,0-.05-.38A.26.26,0,0,0,39.18,71.74Zm-.23,6a.25.25,0,0,0-.38.06.23.23,0,0,0,0,.35.24.24,0,0,0,.36,0A.26.26,0,0,0,39,77.76Zm-.72-3.35a.24.24,0,0,0,0,.35.25.25,0,0,0,.38-.06.24.24,0,0,0,0-.35A.25.25,0,0,0,38.23,74.41Zm19.35-.67a.26.26,0,1,0-.39-.33.24.24,0,0,0,.05.37A.23.23,0,0,0,57.58,73.74ZM35,77.81a.25.25,0,1,0-.38-.33.25.25,0,1,0,.38.33Zm7.08-6a.23.23,0,0,0,0-.37.24.24,0,0,0-.35.06.25.25,0,1,0,.4.31ZM38.46,73a.25.25,0,0,0,0-.38.27.27,0,1,0,0,.38Zm-6.09,3.32a.23.23,0,0,0,0-.35A.24.24,0,0,0,32,76a.24.24,0,0,0,.05.37A.23.23,0,0,0,32.37,76.31ZM51,71.67a.24.24,0,0,0,0-.35.27.27,0,0,0-.34.41A.25.25,0,0,0,51,71.67Zm-3.48,3a.26.26,0,1,0-.4-.32.24.24,0,0,0,.06.37A.22.22,0,0,0,47.51,74.71Zm13.9,1a.24.24,0,0,0,0,.36.23.23,0,0,0,.37,0,.23.23,0,0,0,0-.35A.24.24,0,0,0,61.41,75.67ZM47.17,71.3a.24.24,0,0,0-.06-.36.23.23,0,0,0-.35.07.22.22,0,0,0,0,.35C46.92,71.47,47.05,71.44,47.17,71.3Zm7.06-1.07a.23.23,0,0,0,.05.34.26.26,0,1,0,.32-.42C54.47,70.06,54.35,70.09,54.23,70.23ZM43.47,72.5c.09-.13.11-.26,0-.36a.27.27,0,0,0-.36.39A.26.26,0,0,0,43.47,72.5Zm9.78-3.12c-.09,0-.21-.12-.27,0s-.22.25-.08.4a.23.23,0,0,0,.38,0C53.38,69.65,53.36,69.52,53.25,69.38ZM42.63,76.66a.26.26,0,0,0-.37,0c-.09.1-.13.25,0,.33a.38.38,0,0,0,.42-.06C42.78,76.88,42.71,76.75,42.63,76.66Z"/><path class="cls-14" d="M40.54,70.5a1.57,1.57,0,0,1,.88-.51,14.25,14.25,0,0,1,1.95-.25c2.19-.27,4.37-.61,6.57-.79.54,0,1.08-.07,1.61-.11.06,0,.15,0,.16,0s-.06.13-.14.14h-.16c-2.1.09-4.19.39-6.28.65-1.06.14-2.12.26-3.18.39a4.51,4.51,0,0,0-.53.08,1.06,1.06,0,0,0-1,1.22,15.6,15.6,0,0,0,.29,2A15.79,15.79,0,0,1,41,76.69a1,1,0,0,1,0,.24.13.13,0,0,1-.13.08c-.08,0-.07-.07-.06-.12a22.17,22.17,0,0,0-.48-4.67,3.6,3.6,0,0,1,0-1.18A1.69,1.69,0,0,1,40.54,70.5Z"/><path class="cls-14" d="M41.5,77.82a11.33,11.33,0,0,1,2.83-.42c2.43-.08,4.83-.37,7.24-.61.68-.06,1.37-.09,2.06-.14s.86-.19.92-.9a5.44,5.44,0,0,0-.2-1.44A5.61,5.61,0,0,1,54.14,73a.71.71,0,0,1,0-.21c0-.06.07-.12.14-.1s0,.09,0,.14a3.89,3.89,0,0,0,.08.83s0,.13.08.14h0s0,.06,0,.08h0c-.06.14,0,.27,0,.4.07.37.13.73.2,1.09-.06.11,0,.22,0,.33s0,.22-.06.34a.88.88,0,0,1-.57.69,1.84,1.84,0,0,1-.66.12,44.22,44.22,0,0,0-4.87.41c-1.43.17-2.86.21-4.29.3a13.69,13.69,0,0,0-2.86.4C41.41,77.91,41.49,77.88,41.5,77.82Z"/><path class="cls-13" d="M46,72.26a.26.26,0,1,1-.38-.35.23.23,0,0,1,.35,0A.25.25,0,0,1,46,72.26Z"/><path class="cls-13" d="M50.09,75.81a.25.25,0,0,1,0,.38.23.23,0,0,1-.35,0,.24.24,0,0,1,0-.37A.25.25,0,0,1,50.09,75.81Z"/><path class="cls-13" d="M58.81,72.38a.26.26,0,0,1,0,.39.25.25,0,0,1-.38,0,.25.25,0,0,1,0-.36A.27.27,0,0,1,58.81,72.38Z"/><path class="cls-13" d="M58.8,76.23a.25.25,0,0,1,0-.38.24.24,0,0,1,.35,0,.25.25,0,0,1,0,.38A.26.26,0,0,1,58.8,76.23Z"/><path class="cls-13" d="M64.92,69.37a.26.26,0,0,1,0,.4.24.24,0,0,1-.36,0,.23.23,0,0,1,0-.37A.23.23,0,0,1,64.92,69.37Z"/><path class="cls-13" d="M64.13,74.14c-.12.13-.25.17-.38.06a.24.24,0,0,1,0-.35.26.26,0,1,1,.43.29Z"/><path class="cls-13" d="M46.2,74a.25.25,0,0,1-.37,0,.23.23,0,0,1,0-.35.26.26,0,1,1,.41.32Z"/><path class="cls-13" d="M53.66,72.82a.26.26,0,0,1,0,.39.24.24,0,0,1-.35,0,.25.25,0,0,1,0-.38A.26.26,0,0,1,53.66,72.82Z"/><path class="cls-13" d="M47.67,76.14a.25.25,0,0,1,0,.36.23.23,0,0,1-.37,0,.24.24,0,0,1,0-.36A.25.25,0,0,1,47.67,76.14Z"/><path class="cls-13" d="M48.22,73.34a.25.25,0,0,1,.38,0,.24.24,0,0,1,0,.35c-.11.13-.24.17-.37.06A.25.25,0,0,1,48.22,73.34Z"/><path class="cls-13" d="M58.64,70.66a.25.25,0,0,1,0,.38.26.26,0,1,1-.4-.34A.24.24,0,0,1,58.64,70.66Z"/><path class="cls-13" d="M35.68,71.51a.26.26,0,0,1-.38,0,.27.27,0,0,1,.34-.41A.25.25,0,0,1,35.68,71.51Z"/><path class="cls-13" d="M34.69,74.3a.24.24,0,0,1-.37,0,.26.26,0,1,1,.37,0Z"/><path class="cls-13" d="M63.18,68.65a.26.26,0,0,1,.36-.06.24.24,0,0,1,.05.38.25.25,0,0,1-.38,0A.25.25,0,0,1,63.18,68.65Z"/><path class="cls-13" d="M39.38,73.78a.25.25,0,0,1,0-.36.24.24,0,0,1,.38,0,.24.24,0,0,1,0,.35A.27.27,0,0,1,39.38,73.78Z"/><path class="cls-13" d="M65.08,71a.27.27,0,0,1,0,.39.26.26,0,0,1-.42-.32A.27.27,0,0,1,65.08,71Z"/><path class="cls-13" d="M39.91,75.06a.25.25,0,0,1,.05.37.24.24,0,0,1-.37,0,.24.24,0,0,1-.05-.36A.25.25,0,0,1,39.91,75.06Z"/><path class="cls-13" d="M60.33,75.29c-.13.11-.26.14-.38,0a.27.27,0,0,1,.36-.4A.26.26,0,0,1,60.33,75.29Z"/><path class="cls-13" d="M54.5,73.82a.59.59,0,0,1,.06-.14c.08-.15.18-.24.36-.16a.22.22,0,0,1,.12.33.25.25,0,0,1-.4.12s-.06-.08-.13-.07h0c.05,0,0-.06,0-.08Z"/><path class="cls-13" d="M58.93,74.14a.25.25,0,0,1,0,.37.24.24,0,0,1-.37,0,.25.25,0,0,1,0-.36A.25.25,0,0,1,58.93,74.14Z"/><path class="cls-13" d="M57.75,75.17a.27.27,0,0,1-.35.4.27.27,0,1,1,.35-.4Z"/><path class="cls-13" d="M53.42,75a.25.25,0,0,1,0-.36.25.25,0,0,1,.4,0,.23.23,0,0,1,0,.35A.25.25,0,0,1,53.42,75Z"/><path class="cls-13" d="M29.7,74.5a.25.25,0,0,1,0,.39.24.24,0,0,1-.36,0,.25.25,0,0,1,0-.38A.26.26,0,0,1,29.7,74.5Z"/><path class="cls-13" d="M31.13,77a.25.25,0,0,1,0,.37.24.24,0,0,1-.37,0,.27.27,0,0,1,.33-.42Z"/><path class="cls-13" d="M38.2,70.92a.24.24,0,0,1,0,.37.23.23,0,0,1-.36,0,.25.25,0,0,1,0-.38A.26.26,0,0,1,38.2,70.92Z"/><path class="cls-13" d="M37,71.91a.25.25,0,0,1,0,.38.23.23,0,0,1-.36,0,.24.24,0,0,1,0-.36A.25.25,0,0,1,37,71.91Z"/><path class="cls-13" d="M56.25,72.64a.25.25,0,0,1,0,.37.25.25,0,0,1-.36,0,.24.24,0,0,1,0-.37A.25.25,0,0,1,56.25,72.64Z"/><path class="cls-13" d="M53.48,71.08a.26.26,0,0,1,0,.39.24.24,0,0,1-.36,0,.27.27,0,0,1,.32-.43Z"/><path class="cls-13" d="M61.59,74.31a.26.26,0,1,1-.41-.31.25.25,0,0,1,.38,0A.24.24,0,0,1,61.59,74.31Z"/><path class="cls-13" d="M35.52,72.88a.25.25,0,0,1,.36-.06.24.24,0,0,1,0,.38.25.25,0,0,1-.36.06A.26.26,0,0,1,35.52,72.88Z"/><path class="cls-13" d="M52.27,72.45a.26.26,0,0,1-.39,0,.23.23,0,0,1,0-.36.25.25,0,0,1,.36,0C52.38,72.18,52.35,72.32,52.27,72.45Z"/><path class="cls-13" d="M64.29,75.46a.24.24,0,0,1,0,.38.25.25,0,0,1-.36,0,.26.26,0,0,1,.32-.42Z"/><path class="cls-13" d="M63.8,70.3a.24.24,0,0,1,0,.37.25.25,0,0,1-.38,0,.27.27,0,0,1,.34-.42Z"/><path class="cls-13" d="M34.52,72.63a.25.25,0,0,1-.38,0,.23.23,0,0,1,0-.36.25.25,0,0,1,.38,0A.23.23,0,0,1,34.52,72.63Z"/><path class="cls-13" d="M62.6,71.6a.26.26,0,0,1-.37,0,.25.25,0,0,1,0-.38.23.23,0,0,1,.36,0C62.7,71.33,62.68,71.46,62.6,71.6Z"/><path class="cls-13" d="M52.47,74.15a.27.27,0,0,1-.37,0,.25.25,0,0,1,0-.38.24.24,0,0,1,.38,0C52.57,73.89,52.54,74,52.47,74.15Z"/><path class="cls-13" d="M36.16,76.3a.26.26,0,1,1-.32.42.24.24,0,0,1,0-.35A.24.24,0,0,1,36.16,76.3Z"/><path class="cls-13" d="M44.75,73.26a.25.25,0,0,1-.36,0,.24.24,0,0,1,0-.38.26.26,0,1,1,.38.35Z"/><path class="cls-13" d="M59.39,69.78a.27.27,0,0,1,.38-.06.25.25,0,0,1,0,.38.24.24,0,0,1-.37,0C59.3,70,59.32,69.91,59.39,69.78Z"/><path class="cls-13" d="M31.36,78.64a.26.26,0,0,1,0,.36.25.25,0,0,1-.38,0,.24.24,0,0,1,0-.38A.25.25,0,0,1,31.36,78.64Z"/><path class="cls-13" d="M36.81,73.63a.25.25,0,0,1,.38,0,.27.27,0,0,1-.35.4A.25.25,0,0,1,36.81,73.63Z"/><path class="cls-13" d="M37.38,75.28a.27.27,0,0,1,0,.37.26.26,0,1,1-.42-.3A.26.26,0,0,1,37.38,75.28Z"/><path class="cls-13" d="M56.21,76.1a.25.25,0,0,1,.38,0,.24.24,0,0,1,0,.36.25.25,0,0,1-.36,0A.25.25,0,0,1,56.21,76.1Z"/><path class="cls-13" d="M29.91,76.23a.23.23,0,0,1,0,.36.24.24,0,0,1-.38,0,.27.27,0,0,1,.35-.4Z"/><path class="cls-13" d="M49.59,71a.24.24,0,0,1-.36,0,.26.26,0,1,1,.33-.41A.25.25,0,0,1,49.59,71Z"/><path class="cls-13" d="M33.1,71.47a.25.25,0,0,1,0,.39.25.25,0,0,1-.38,0,.27.27,0,0,1,.33-.42Z"/><path class="cls-13" d="M56.39,74.76a.24.24,0,0,1-.37,0,.27.27,0,0,1,.34-.41A.25.25,0,0,1,56.39,74.76Z"/><path class="cls-13" d="M62.92,74.7c.11.12.15.24,0,.37a.26.26,0,1,1-.42-.3A.26.26,0,0,1,62.92,74.7Z"/><path class="cls-13" d="M65.31,73.15a.26.26,0,0,1-.36,0,.25.25,0,0,1,0-.38.24.24,0,0,1,.38,0A.26.26,0,0,1,65.31,73.15Z"/><path class="cls-13" d="M65.07,74.62a.25.25,0,0,1,.37-.07.26.26,0,0,1-.3.43A.24.24,0,0,1,65.07,74.62Z"/><path class="cls-13" d="M31.06,75.6a.25.25,0,0,1-.37,0,.24.24,0,0,1,0-.36.25.25,0,0,1,.38,0A.26.26,0,0,1,31.06,75.6Z"/><path class="cls-13" d="M33.36,73.18a.27.27,0,0,1,0,.39.24.24,0,0,1-.36,0,.27.27,0,0,1,.33-.42Z"/><path class="cls-13" d="M30.16,78.32c-.15.18-.27.22-.4.12a.27.27,0,1,1,.33-.42C30.2,78.12,30.22,78.25,30.16,78.32Z"/><path class="cls-13" d="M32.52,77.75a.27.27,0,1,1-.38,0A.25.25,0,0,1,32.52,77.75Z"/><path class="cls-13" d="M33.7,77c-.14.12-.27.17-.4,0a.27.27,0,0,1,.35-.4A.26.26,0,0,1,33.7,77Z"/><path class="cls-13" d="M34.86,75.64a.27.27,0,0,1,0,.37.24.24,0,0,1-.37,0,.25.25,0,0,1,0-.36C34.58,75.55,34.71,75.56,34.86,75.64Z"/><path class="cls-13" d="M35.72,74.59a.24.24,0,0,1,.36,0,.25.25,0,0,1,0,.38.22.22,0,0,1-.35,0A.25.25,0,0,1,35.72,74.59Z"/><path class="cls-13" d="M44.19,71.26a.24.24,0,0,1,.36-.07.23.23,0,0,1,0,.37.22.22,0,0,1-.35.06A.23.23,0,0,1,44.19,71.26Z"/><path class="cls-13" d="M42.47,75.25a.26.26,0,1,1,0-.38A.26.26,0,0,1,42.47,75.25Z"/><path class="cls-13" d="M48.44,71.56a.26.26,0,0,1,0,.39.26.26,0,0,1-.38-.35A.27.27,0,0,1,48.44,71.56Z"/><path class="cls-13" d="M45.13,76.74a.31.31,0,0,1-.38.05.27.27,0,0,1,.34-.42A.26.26,0,0,1,45.13,76.74Z"/><path class="cls-13" d="M52.1,70.77a.25.25,0,0,1-.36,0,.27.27,0,0,1,.35-.4A.25.25,0,0,1,52.1,70.77Z"/><path class="cls-13" d="M62.75,72.92a.25.25,0,0,1,0,.37.25.25,0,0,1-.38,0,.24.24,0,0,1,0-.36A.25.25,0,0,1,62.75,72.92Z"/><path class="cls-13" d="M55.7,71a.26.26,0,0,1,.38-.06.25.25,0,0,1,0,.38.25.25,0,0,1-.36,0A.25.25,0,0,1,55.7,71Z"/><path class="cls-13" d="M54.75,75.72c0-.11-.06-.22,0-.33s.33-.19.46,0,0,.27-.12.36S54.85,75.79,54.75,75.72Z"/><path class="cls-13" d="M60,71.78a.25.25,0,0,1-.38,0,.23.23,0,0,1,0-.35.24.24,0,0,1,.36-.06A.25.25,0,0,1,60,71.78Z"/><path class="cls-13" d="M62.4,69.53a.26.26,0,0,1,0,.38.23.23,0,0,1-.35,0,.24.24,0,0,1,0-.38A.25.25,0,0,1,62.4,69.53Z"/><path class="cls-13" d="M59.75,73.15a.26.26,0,0,1,.39,0,.24.24,0,0,1,0,.36.23.23,0,0,1-.37,0A.25.25,0,0,1,59.75,73.15Z"/><path class="cls-13" d="M29.6,73.21c-.12.1-.25.16-.39,0a.25.25,0,0,1,0-.36.24.24,0,0,1,.37,0A.27.27,0,0,1,29.6,73.21Z"/><path class="cls-13" d="M30.58,71.77a.27.27,0,0,1-.3.44.24.24,0,0,1-.05-.36A.24.24,0,0,1,30.58,71.77Z"/><path class="cls-13" d="M30.89,73.86a.25.25,0,0,1-.38,0,.24.24,0,0,1,0-.36.25.25,0,0,1,.38,0A.24.24,0,0,1,30.89,73.86Z"/><path class="cls-13" d="M33.5,78.38a.26.26,0,1,1,.39.34.24.24,0,0,1-.36,0A.25.25,0,0,1,33.5,78.38Z"/><path class="cls-13" d="M47.29,72.63a.25.25,0,0,1,0,.39A.23.23,0,0,1,47,73a.25.25,0,0,1,0-.38A.24.24,0,0,1,47.29,72.63Z"/><path class="cls-13" d="M42.25,73.15a.26.26,0,0,1,0,.37.24.24,0,0,1-.37,0,.23.23,0,0,1,0-.36A.26.26,0,0,1,42.25,73.15Z"/><path class="cls-13" d="M43.65,74.22a.25.25,0,0,1-.38,0,.23.23,0,0,1,0-.35.24.24,0,0,1,.36-.07A.25.25,0,0,1,43.65,74.22Z"/><path class="cls-13" d="M61.48,72.57a.25.25,0,0,1-.38,0,.23.23,0,0,1,0-.35.24.24,0,0,1,.38-.05A.25.25,0,0,1,61.48,72.57Z"/><path class="cls-13" d="M64,72.41a.26.26,0,0,1-.38,0,.27.27,0,0,1,.34-.41A.25.25,0,0,1,64,72.41Z"/><path class="cls-13" d="M54.42,71.88a.26.26,0,1,1,.38.34.22.22,0,0,1-.35,0A.24.24,0,0,1,54.42,71.88Z"/><path class="cls-13" d="M61,68.76a.27.27,0,1,1-.33.42.24.24,0,0,1,0-.36A.25.25,0,0,1,61,68.76Z"/><path class="cls-13" d="M33.53,74.91a.26.26,0,0,1,0,.36.23.23,0,0,1-.37.07.25.25,0,0,1,0-.38A.27.27,0,0,1,33.53,74.91Z"/><path class="cls-13" d="M58,69a.26.26,0,0,1,.36,0,.25.25,0,0,1,0,.38.24.24,0,0,1-.38,0A.25.25,0,0,1,58,69Z"/><path class="cls-13" d="M31.6,72.62c.14-.14.28-.16.4,0a.27.27,0,0,1-.37.38A.25.25,0,0,1,31.6,72.62Z"/><path class="cls-13" d="M55.82,69.19a.25.25,0,0,1,0,.37.25.25,0,1,1-.41-.3A.25.25,0,0,1,55.82,69.19Z"/><path class="cls-13" d="M51.11,73a.25.25,0,0,1,0,.36.23.23,0,0,1-.37.07.23.23,0,0,1,0-.35A.25.25,0,0,1,51.11,73Z"/><path class="cls-13" d="M31.79,74.28a.24.24,0,0,1,.35,0,.27.27,0,0,1-.33.42A.25.25,0,0,1,31.79,74.28Z"/><path class="cls-13" d="M38.36,76.13a.24.24,0,0,1,.36,0,.27.27,0,1,1-.36,0Z"/><path class="cls-13" d="M49.35,72.35a.25.25,0,0,1,.36,0,.24.24,0,0,1,0,.37.24.24,0,0,1-.36,0A.25.25,0,0,1,49.35,72.35Z"/><path class="cls-13" d="M36.06,78.39A.24.24,0,0,1,36,78a.24.24,0,0,1,.36,0,.25.25,0,0,1,0,.38A.23.23,0,0,1,36.06,78.39Z"/><path class="cls-13" d="M46.31,75.73a.25.25,0,0,1-.39,0,.27.27,0,0,1,.36-.39A.24.24,0,0,1,46.31,75.73Z"/><path class="cls-13" d="M57.22,70.37a.26.26,0,1,1-.36-.37.24.24,0,0,1,.36,0A.25.25,0,0,1,57.22,70.37Z"/><path class="cls-13" d="M44.92,74.58a.25.25,0,0,1,0,.38.23.23,0,0,1-.35,0,.24.24,0,0,1,0-.38A.25.25,0,0,1,44.92,74.58Z"/><path class="cls-13" d="M52.64,75.93a.25.25,0,0,1-.39,0,.23.23,0,0,1,0-.35.25.25,0,0,1,.38,0A.23.23,0,0,1,52.64,75.93Z"/><path class="cls-13" d="M48.74,75.4a.24.24,0,0,1-.36.06.24.24,0,0,1,0-.38.24.24,0,0,1,.36,0A.23.23,0,0,1,48.74,75.4Z"/><path class="cls-13" d="M61.3,70.84a.24.24,0,0,1-.36,0,.25.25,0,0,1,0-.38.25.25,0,1,1,.38.34Z"/><path class="cls-13" d="M51.25,75.17a.25.25,0,1,1,0-.38A.25.25,0,0,1,51.25,75.17Z"/><path class="cls-13" d="M39.73,76.91a.25.25,0,1,1,0,.37A.24.24,0,0,1,39.73,76.91Z"/><path class="cls-13" d="M57.39,72a.24.24,0,0,1-.36,0,.25.25,0,0,1,0-.36.24.24,0,0,1,.35-.07A.24.24,0,0,1,57.39,72Z"/><path class="cls-13" d="M43.74,76a.24.24,0,0,1-.37,0,.23.23,0,0,1,0-.37.22.22,0,0,1,.35,0A.24.24,0,0,1,43.74,76Z"/><path class="cls-13" d="M49.92,74a.27.27,0,1,1-.36,0A.25.25,0,0,1,49.92,74Z"/><path class="cls-13" d="M37.57,77.45a.25.25,0,1,1-.39-.31.23.23,0,0,1,.37,0A.22.22,0,0,1,37.57,77.45Z"/><path class="cls-13" d="M39.18,71.74a.26.26,0,0,1,.37-.07.25.25,0,0,1,.05.38.24.24,0,0,1-.35.06A.25.25,0,0,1,39.18,71.74Z"/><path class="cls-13" d="M39,77.76a.26.26,0,0,1,0,.38.24.24,0,0,1-.36,0,.23.23,0,0,1,0-.35A.25.25,0,0,1,39,77.76Z"/><path class="cls-13" d="M38.23,74.41a.25.25,0,0,1,.38-.06.24.24,0,0,1,0,.35.25.25,0,0,1-.38.06A.24.24,0,0,1,38.23,74.41Z"/><path class="cls-13" d="M57.58,73.74a.23.23,0,0,1-.34,0,.24.24,0,0,1-.05-.37.26.26,0,1,1,.39.33Z"/><path class="cls-13" d="M35,77.81a.25.25,0,1,1-.38-.33.25.25,0,1,1,.38.33Z"/><path class="cls-13" d="M42.12,71.84a.25.25,0,1,1,0-.37A.23.23,0,0,1,42.12,71.84Z"/><path class="cls-13" d="M38.46,73a.26.26,0,1,1,0-.38A.25.25,0,0,1,38.46,73Z"/><path class="cls-13" d="M32.37,76.31a.23.23,0,0,1-.35.06A.24.24,0,0,1,32,76a.24.24,0,0,1,.38,0A.23.23,0,0,1,32.37,76.31Z"/><path class="cls-13" d="M51,71.67a.25.25,0,0,1-.38.06.27.27,0,1,1,.38-.06Z"/><path class="cls-13" d="M47.51,74.71a.22.22,0,0,1-.34.05.24.24,0,0,1-.06-.37.26.26,0,1,1,.4.32Z"/><path class="cls-13" d="M61.41,75.67a.24.24,0,0,1,.37,0,.23.23,0,0,1,0,.35.23.23,0,0,1-.37,0A.24.24,0,0,1,61.41,75.67Z"/><path class="cls-13" d="M47.17,71.3c-.12.14-.25.17-.38.06a.22.22,0,0,1,0-.35.23.23,0,0,1,.35-.07A.24.24,0,0,1,47.17,71.3Z"/><path class="cls-13" d="M54.23,70.23c.12-.14.24-.17.37-.08a.26.26,0,1,1-.32.42A.23.23,0,0,1,54.23,70.23Z"/><path class="cls-13" d="M43.47,72.5a.26.26,0,0,1-.38,0,.27.27,0,0,1,.36-.39C43.58,72.24,43.56,72.37,43.47,72.5Z"/><path class="cls-13" d="M41.5,77.82c0,.06-.09.09-.06.16a.24.24,0,0,1-.32,0,.24.24,0,0,1-.08-.26.25.25,0,0,1,.3-.2C41.53,77.54,41.53,77.67,41.5,77.82Z"/><path class="cls-13" d="M53.25,69.38c.11.14.13.27,0,.38a.23.23,0,0,1-.38,0c-.14-.15,0-.28.08-.4S53.16,69.36,53.25,69.38Z"/><path class="cls-13" d="M42.63,76.66c.08.09.15.22,0,.3a.38.38,0,0,1-.42.06c-.12-.08-.08-.23,0-.33A.26.26,0,0,1,42.63,76.66Z"/><path class="cls-15" d="M54.5,73.82s.06,0,0,.08S54.45,73.86,54.5,73.82Z"/><line class="cls-16" x1="61.27" y1="55.12" x2="66.2" y2="60.87"/><line class="cls-16" x1="66.2" y1="55.12" x2="61.27" y2="60.87"/><line class="cls-16" x1="28.84" y1="55.12" x2="33.78" y2="60.87"/><line class="cls-16" x1="33.78" y1="55.12" x2="28.84" y2="60.87"/></svg>