<svg id="Layer_1" data-name="Layer 1" xmlns="http://www.w3.org/2000/svg" xmlns:xlink="http://www.w3.org/1999/xlink" viewBox="0 0 176 101.96"><defs><style>.cls-1,.cls-10,.cls-14,.cls-20,.cls-22,.cls-23{fill:none;}.cls-1,.cls-10,.cls-16,.cls-17,.cls-18,.cls-2,.cls-20,.cls-22,.cls-3,.cls-4,.cls-5,.cls-9{stroke:#1d1d1b;}.cls-1,.cls-14,.cls-16,.cls-22{stroke-miterlimit:10;}.cls-2{fill:#b2b2b2;}.cls-10,.cls-17,.cls-18,.cls-2,.cls-20,.cls-3,.cls-4,.cls-5,.cls-9{stroke-linecap:round;stroke-linejoin:round;}.cls-3{fill:#f6ae8b;}.cls-4{fill:#e2cfb2;}.cls-5,.cls-7{fill:#7b6a58;}.cls-6{fill:#1d1d1b;}.cls-8,.cls-9{fill:#fff;}.cls-11{clip-path:url(#clip-path);}.cls-12{fill:#cbbba0;}.cls-13{fill:#009fe3;}.cls-14{stroke:#fff;stroke-width:2px;}.cls-15{fill:#706f6f;}.cls-16{fill:#a0709c;}.cls-16,.cls-20,.cls-22{stroke-width:0.5px;}.cls-17{fill:#ddb272;}.cls-18,.cls-19{fill:#e06ba3;}.cls-21{fill:#662483;}</style><clipPath id="clip-path"><path class="cls-1" d="M47.05,86.48A46.82,46.82,0,0,0,68.62,82c4.63-2.26,10-5.25,11.61-10.79a15.09,15.09,0,0,0-.31-8.44c.16-1.48,4.12-15.83-10.59-28a32.55,32.55,0,0,0-22.2-7.56h-.08a32.57,32.57,0,0,0-22.2,7.56c-14.7,12.18-10.74,26.53-10.58,28A15.08,15.08,0,0,0,14,71.18c1.61,5.54,7,8.53,11.62,10.79a46.78,46.78,0,0,0,21.56,4.51Z"/></clipPath></defs><title>V2Artboard 31</title><circle class="cls-2" cx="47.4" cy="48.7" r="46.31"/><circle class="cls-3" cx="128.45" cy="48.7" r="46.31"/><path class="cls-4" d="M13.4,53.67c-6.53-20.93-1.2-31.35-1.2-31.35s16.15.24,22,8.2"/><path class="cls-4" d="M80.35,53.67c6.52-20.93,1.19-31.35,1.19-31.35s-16.15.24-22,8.2"/><path class="cls-5" d="M17.81,45.78c-3.24-10.39-.59-15.56-.59-15.56s8,.11,10.9,4.06"/><path class="cls-5" d="M75.93,45.78c3.24-10.39.6-15.56.6-15.56s-8,.11-10.9,4.06"/><path class="cls-4" d="M47.05,86.48A46.82,46.82,0,0,0,68.62,82c4.63-2.26,10-5.25,11.61-10.79a15.09,15.09,0,0,0-.31-8.44c.16-1.48,4.12-15.83-10.59-28a32.55,32.55,0,0,0-22.2-7.56h-.08a32.57,32.57,0,0,0-22.2,7.56c-14.7,12.18-10.74,26.53-10.58,28A15.08,15.08,0,0,0,14,71.18c1.61,5.54,7,8.53,11.62,10.79a46.78,46.78,0,0,0,21.56,4.51Z"/><ellipse class="cls-6" cx="30.96" cy="60.45" rx="5.03" ry="5.19"/><ellipse class="cls-7" cx="26.9" cy="67.78" rx="3.16" ry="1.78"/><ellipse class="cls-6" cx="63.27" cy="60.45" rx="5.03" ry="5.19"/><ellipse class="cls-7" cx="67.33" cy="67.78" rx="3.16" ry="1.78"/><ellipse class="cls-8" cx="29.01" cy="58.37" rx="0.89" ry="0.92"/><line class="cls-9" x1="74.2" y1="66.21" x2="87.72" y2="65.08"/><line class="cls-9" x1="74.2" y1="69.95" x2="87.72" y2="71.08"/><line class="cls-10" x1="74.16" y1="68.08" x2="82.9" y2="68.08"/><ellipse class="cls-8" cx="61.17" cy="58.37" rx="0.89" ry="0.92"/><line class="cls-9" x1="20.6" y1="66.21" x2="7.08" y2="65.08"/><line class="cls-9" x1="20.6" y1="69.95" x2="7.08" y2="71.08"/><line class="cls-10" x1="20.64" y1="68.08" x2="11.9" y2="68.08"/><g class="cls-11"><path class="cls-12" d="M41.94,70.62c-1.74,3.2-4.65,13.85-22.73,16.74.71.69,2.14,1.41,3,2.08,9.22,7.64,21.73,6.37,25.53,6.34h0c3.8,0,15.93.81,25.15-6.83.81-.66,2.56-1.74,3.26-2.42C55.72,85.28,53.89,75,52.45,71.07,52.45,71.07,47.68,60,41.94,70.62Z"/></g><path class="cls-1" d="M47.05,86.48A46.82,46.82,0,0,0,68.62,82c4.63-2.26,10-5.25,11.61-10.79a15.09,15.09,0,0,0-.31-8.44c.16-1.48,4.12-15.83-10.59-28a32.55,32.55,0,0,0-22.2-7.56h-.08a32.57,32.57,0,0,0-22.2,7.56c-14.7,12.18-10.74,26.53-10.58,28A15.08,15.08,0,0,0,14,71.18c1.61,5.54,7,8.53,11.62,10.79a46.78,46.78,0,0,0,21.56,4.51Z"/><path d="M70.82,34.57l2.54,7.85c-2.27-2-4.86-2.19-7.76-2.2l-.2,3.87L50.22,42.42l5,3.9-.22.42L38.47,45.29l3.37,4.43-.31.27L29,44l-1.51,6.11-2.91-3.7L21.08,56.58l-3-4.06-2,7.26c-.79-.54-1.18-3.26-1.9-3.75-.22.42-2.43,2.63-2.49,2.83l.9-7.36,1.64-6.35c.67-.85.1-2,1.19-2A154.48,154.48,0,0,0,63.89,31.86a5.1,5.1,0,0,1,3.53.06Z"/><path class="cls-13" d="M65.23,30.16c-9.13,6.1-40.5,12.37-49.49,11.48C21.05,27.23,52.09,19.12,65.23,30.16Z"/><path class="cls-14" d="M66,30.55c-8.56,6.84-44.32,13.3-50.72,11.77"/><path class="cls-8" d="M53.65,25.41A38,38,0,0,0,48.71,25,154.74,154.74,0,0,1,27.9,29.87a36.54,36.54,0,0,0-4.57,2.73C33.11,31.28,45.29,28.64,53.65,25.41Z"/><path class="cls-15" d="M17.19,45.66A4.79,4.79,0,0,1,17.13,44a5.65,5.65,0,0,1,.33-1.39c.28-.89,1.1-1.45,1.68-2.15s1.18-1.4,1.8-2.08,1.26-1.36,1.93-2l.26.15c-.27.9-.61,1.76-.91,2.63s-.67,1.72-1,2.55A7.11,7.11,0,0,1,20,44.21a5.81,5.81,0,0,1-1.09.93,5.07,5.07,0,0,1-1.48.68Z"/><path class="cls-6" d="M50.64,70.27c0,1.16-3.59,2.78-3.59,2.78s-3.58-1.62-3.58-2.78,1.6-2.09,3.58-2.09S50.64,69.12,50.64,70.27Z"/><path class="cls-10" d="M47.05,72.67s-1,4.12-4.84,4.63"/><path class="cls-10" d="M47.05,72.67s1,4.12,4.85,4.63"/><path class="cls-16" d="M139,80.58a17.85,17.85,0,0,0-3.52,9.3c-.7,8.31,10.75,9.09,10.75,9.09s13.85-.83,19.42-4.34a11.75,11.75,0,0,0,5.58-9.3s-5.05-12.48-16.11-13C145.42,71.84,139,80.58,139,80.58Z"/><path class="cls-17" d="M94.37,53.67c-6.52-20.93-1.19-31.35-1.19-31.35s16.15.24,22,8.2"/><path class="cls-17" d="M161.33,53.67c6.52-20.93,1.19-31.35,1.19-31.35s-16.15.24-22,8.2"/><path class="cls-18" d="M98.79,45.78c-3.24-10.39-.6-15.56-.6-15.56s8,.11,10.9,4.06"/><path class="cls-18" d="M156.91,45.78c3.24-10.39.6-15.56.6-15.56s-8,.11-10.9,4.06"/><path class="cls-17" d="M128,86.48A46.82,46.82,0,0,0,149.6,82c4.63-2.26,10-5.25,11.61-10.79a15,15,0,0,0-.32-8.44c.17-1.48,4.12-15.83-10.58-28a32.55,32.55,0,0,0-22.2-7.56H128a32.57,32.57,0,0,0-22.2,7.56c-14.7,12.18-10.75,26.53-10.58,28a15.08,15.08,0,0,0-.32,8.44c1.61,5.54,7,8.53,11.62,10.79a46.78,46.78,0,0,0,21.56,4.51Z"/><ellipse class="cls-6" cx="111.94" cy="60.45" rx="5.03" ry="5.19"/><ellipse class="cls-19" cx="107.87" cy="67.78" rx="3.16" ry="1.78"/><path class="cls-6" d="M131.62,68.46c0,1.16-3.59,2.78-3.59,2.78s-3.58-1.62-3.58-2.78,1.6-2.09,3.58-2.09S131.62,67.31,131.62,68.46Z"/><ellipse class="cls-8" cx="109.98" cy="58.37" rx="0.89" ry="0.92"/><path class="cls-10" d="M128,71.24a7.54,7.54,0,0,1-5.35,2"/><path class="cls-10" d="M128.07,71.24a7.54,7.54,0,0,0,5.35,2"/><ellipse class="cls-6" cx="144.24" cy="60.45" rx="5.03" ry="5.19"/><ellipse class="cls-19" cx="148.31" cy="67.78" rx="3.16" ry="1.78"/><ellipse class="cls-8" cx="142.15" cy="58.37" rx="0.89" ry="0.92"/><path class="cls-10" d="M107.86,54.06s4.88-2.29,8.45,0"/><path class="cls-10" d="M135.83,54s4.88-2.3,8.45,0"/><path class="cls-6" d="M131.75,24.45l-5.39,21.37s-10.22,8.34-19.12,9c-7.31.55-9.6,5.24-8.49,22.43L96.29,75S82.47,22.06,131.75,24.45Z"/><path class="cls-6" d="M132.73,24.45l-5.32,21.32s9,11.24,18.74,8.56c22.81-6.3,8.71,7.79,9.79,24.21l5.36-4.47S168.94,25.18,132.73,24.45Z"/><path class="cls-20" d="M157.67,76.69s-.39-2-2-2.17"/><path class="cls-16" d="M161.68,74.14s-13.27-31.19-33-32.22-32,33.14-32,33.14c-7.75-9,.79-28.25.79-28.25-1.27-12.39-4.76-34.56,30-36.26,34-1.67,30.13,30.3,30.13,30.3S165.09,51.12,161.68,74.14Z"/><path class="cls-21" d="M100.19,47.86a17.71,17.71,0,0,1,1.63-2.71,24.78,24.78,0,0,1,2-2.45,18.38,18.38,0,0,1,2.36-2.13A10,10,0,0,1,109,39c-1.59,1.38-3,2.85-4.42,4.36S101.75,46.42,100.19,47.86Z"/><path class="cls-21" d="M141.93,39.78l-4-2c-1.33-.64-2.64-1.29-4-1.88s-2.67-1.18-4-1.66a24.14,24.14,0,0,0-4.25-1.12,12.49,12.49,0,0,1,4.47.38A24,24,0,0,1,134.36,35,31.91,31.91,0,0,1,141.93,39.78Z"/><path class="cls-22" d="M142.67,47.6a61,61,0,0,0-15-7C122.35,39,115.87,36.88,107.6,38a30,30,0,0,0-10.66,3.15"/><path class="cls-22" d="M124.36,26.21A53.26,53.26,0,0,1,140,33.7a47.73,47.73,0,0,1,13.61,14,47,47,0,0,1,6.47,16.68"/><path class="cls-16" d="M97,61.4a44.13,44.13,0,0,1,6.38-13.27A39.82,39.82,0,0,1,114,37.68"/><path class="cls-22" d="M108.87,18.38c4.09-.79,17.33-2.8,30.3,4.77a44.15,44.15,0,0,1,14.12,13.61,46.08,46.08,0,0,1,7.49,23.15"/><path class="cls-16" d="M105.45,18.48a11.77,11.77,0,0,0-2.32,6.14c-.46,5.49,7.1,6,7.1,6s9.14-.55,12.83-2.87a7.76,7.76,0,0,0,3.68-6.14S123.4,13.38,116.1,13C109.69,12.71,105.45,18.48,105.45,18.48Z"/><path class="cls-16" d="M107.68,15.93a8.25,8.25,0,0,0-1.63,4.32c-.33,3.86,5,4.22,5,4.22s6.43-.38,9-2a5.46,5.46,0,0,0,2.59-4.32s-2.34-5.8-7.48-6C110.65,11.88,107.68,15.93,107.68,15.93Z"/><line class="cls-9" x1="155.18" y1="66.21" x2="168.7" y2="65.08"/><line class="cls-9" x1="155.18" y1="69.95" x2="168.7" y2="71.08"/><line class="cls-10" x1="155.14" y1="68.08" x2="163.88" y2="68.08"/><line class="cls-9" x1="101.58" y1="66.21" x2="88.06" y2="65.08"/><line class="cls-9" x1="101.58" y1="69.95" x2="88.06" y2="71.08"/><line class="cls-10" x1="101.62" y1="68.08" x2="92.88" y2="68.08"/><rect class="cls-23" x="-0.51" y="-0.17" width="176.34" height="101.79"/></svg>