<svg id="Layer_1" data-name="Layer 1" xmlns="http://www.w3.org/2000/svg" viewBox="0 0 95 101"><defs><style>.cls-1{fill:#f6ae8b;}.cls-1,.cls-12,.cls-13,.cls-2,.cls-3,.cls-7,.cls-8{stroke:#1d1d1b;}.cls-1,.cls-12,.cls-13,.cls-2,.cls-3,.cls-7{stroke-linecap:round;stroke-linejoin:round;}.cls-2{fill:#ddb272;}.cls-3,.cls-5{fill:#e06ba3;}.cls-4{fill:#1d1d1b;}.cls-12,.cls-6{fill:#fff;}.cls-13,.cls-15,.cls-7{fill:none;}.cls-10,.cls-8{fill:#a0709c;}.cls-8{stroke-miterlimit:10;}.cls-13,.cls-8{stroke-width:0.5px;}.cls-9{fill:#e94190;}.cls-11{fill:#8b719b;}.cls-14{fill:#662483;}</style></defs><title>V1Artboard 4 copy</title><circle class="cls-1" cx="47.15" cy="47.39" r="46.31"/><path class="cls-2" d="M13.08,52.36C6.56,31.43,11.89,21,11.89,21s16.15.24,22,8.2"/><path class="cls-2" d="M80,52.36C86.56,31.43,81.23,21,81.23,21s-16.16.24-22,8.2"/><path class="cls-3" d="M17.49,44.47c-3.23-10.39-.59-15.56-.59-15.56s8,.11,10.9,4.06"/><path class="cls-3" d="M75.62,44.47c3.24-10.39.59-15.56.59-15.56S68.2,29,65.31,33"/><path class="cls-2" d="M46.74,85.17A46.78,46.78,0,0,0,68.3,80.66c4.63-2.26,10-5.25,11.62-10.79a15.09,15.09,0,0,0-.32-8.44C79.77,60,83.72,45.6,69,33.42a32.57,32.57,0,0,0-22.2-7.56h-.08a32.55,32.55,0,0,0-22.2,7.56C9.84,45.6,13.79,60,14,61.43a15,15,0,0,0-.32,8.44c1.61,5.54,7,8.53,11.62,10.79a46.76,46.76,0,0,0,21.56,4.51Z"/><ellipse class="cls-4" cx="30.65" cy="59.14" rx="5.03" ry="5.19"/><ellipse class="cls-5" cx="26.58" cy="66.47" rx="3.16" ry="1.78"/><path class="cls-4" d="M50.32,67.16c0,1.15-3.58,2.77-3.58,2.77s-3.59-1.62-3.59-2.77,1.61-2.1,3.59-2.1S50.32,66,50.32,67.16Z"/><ellipse class="cls-6" cx="28.69" cy="57.06" rx="0.89" ry="0.92"/><path class="cls-7" d="M46.74,69.93a7.54,7.54,0,0,1-5.35,1.95"/><path class="cls-7" d="M46.78,69.93a7.54,7.54,0,0,0,5.35,1.95"/><ellipse class="cls-4" cx="62.95" cy="59.14" rx="5.03" ry="5.19"/><ellipse class="cls-5" cx="67.02" cy="66.47" rx="3.16" ry="1.78"/><ellipse class="cls-6" cx="60.85" cy="57.06" rx="0.89" ry="0.92"/><path class="cls-7" d="M26.57,52.75s4.87-2.29,8.45,0"/><path class="cls-7" d="M54.54,52.67s4.88-2.3,8.45,0"/><path class="cls-4" d="M50.45,23.15,45.06,44.51s-10.21,8.34-19.11,9c-7.31.55-9.6,5.24-8.49,22.43L15,73.69S1.17,20.75,50.45,23.15Z"/><path class="cls-4" d="M51.44,23.15,46.12,44.46s9,11.25,18.74,8.56c22.81-6.3,8.71,7.79,9.79,24.21L80,72.76S87.64,23.87,51.44,23.15Z"/><path class="cls-8" d="M80,72.76S66.73,41.57,47,40.55,15,73.69,15,73.69c-7.75-9-1.37-21-1.37-21-1.28-12.38,7.91-30,33.7-30.13C78.86,22.46,80,50.8,80,50.8S83.42,49.74,80,72.76Z"/><path class="cls-9" d="M24.9,56.05a3.55,3.55,0,0,1-1.24-.32,3.3,3.3,0,0,1-.85-.56c-.5-.41-.46-1.14-.66-1.72s-.38-1.19-.54-1.8-.31-1.23-.41-1.88l.26-.15c.51.4,1,.85,1.44,1.27s.9.88,1.31,1.34,1.07.78,1.19,1.42a3,3,0,0,1,.08,1,3.55,3.55,0,0,1-.32,1.24Z"/><path class="cls-9" d="M67,54.54a3.5,3.5,0,0,1-.31-1.25,2.77,2.77,0,0,1,.08-1c.11-.63.76-1,1.18-1.41s.85-.91,1.31-1.34.93-.87,1.45-1.27l.25.15c-.1.65-.27,1.25-.4,1.88s-.34,1.21-.54,1.8-.17,1.31-.67,1.72a3,3,0,0,1-.85.56,3.49,3.49,0,0,1-1.24.32Z"/><path class="cls-8" d="M67.63,78.25s1.66,2.3-2.17,5.75,6.64,5.61,6.64,5.61,8.55-.51,12-2.68a7.26,7.26,0,0,0,3.44-5.74s-8.42-7-10-8S67.63,78.25,67.63,78.25Z"/><path class="cls-10" d="M71.08,81.25a15.4,15.4,0,0,1-3-.33c-2.81-.55-4.41-1.56-4.73-3-.61-2.67,3.44-5.74,3.61-5.87s6.56-3,9.81-6a1.82,1.82,0,0,1,1.27-.55c2.55,0,4.75,6,4.75,7.91,0,.81-.37.93-.58.93a1,1,0,0,1-.58-.25,2.45,2.45,0,0,0-1.56-.54,6.51,6.51,0,0,0-3.75,1.83,5.35,5.35,0,0,1-.81,4.13c-.89,1.14-2.39,1.72-4.44,1.72Z"/><path class="cls-4" d="M78.05,65.77c2.75,0,5.44,8.34,4.17,8.34a.71.71,0,0,1-.42-.2,2.68,2.68,0,0,0-1.72-.59c-2,0-4,2-4,2s1.4,5.68-5,5.68a15.5,15.5,0,0,1-2.94-.32c-9.7-1.92-1-8.43-1-8.43s6.51-2.9,9.83-6a1.57,1.57,0,0,1,1.1-.48m0-.5a2,2,0,0,0-1.44.62c-3.22,3-9.63,5.88-9.7,5.9l-.09.06c-.18.13-4.35,3.3-3.71,6.13.36,1.54,2,2.61,4.93,3.19a15.8,15.8,0,0,0,3,.33c2.13,0,3.69-.61,4.64-1.81a5.6,5.6,0,0,0,.88-4.2,6.11,6.11,0,0,1,3.48-1.67,2.25,2.25,0,0,1,1.41.48,1.18,1.18,0,0,0,.73.31.76.76,0,0,0,.7-.48,1.56,1.56,0,0,0,.13-.7c0-2-2.25-8.16-5-8.16Z"/><path class="cls-11" d="M78.34,67.69h0m-.22.2a10,10,0,0,1,1.93,3.43c-2.77,0-5.15,2.32-5.41,2.58a2,2,0,0,0-.53,1.88,3.19,3.19,0,0,1-.37,2.37,3.52,3.52,0,0,1-2.66.85,13.27,13.27,0,0,1-2.55-.29c-2.29-.45-2.93-1.09-3-1.29-.14-.61,1.13-2.28,2.61-3.44,1.19-.55,6.69-3.16,10-6.09m-.07-2.12a1.57,1.57,0,0,0-1.1.48c-3.32,3.1-9.83,6-9.83,6s-8.68,6.51,1,8.43a15.5,15.5,0,0,0,2.94.32c6.37,0,5-5.68,5-5.68s2-2,4-2a2.68,2.68,0,0,1,1.72.59.71.71,0,0,0,.42.2c1.27,0-1.42-8.34-4.17-8.34Z"/><line class="cls-12" x1="20.29" y1="64.9" x2="6.77" y2="63.77"/><line class="cls-12" x1="20.29" y1="68.64" x2="6.77" y2="69.77"/><line class="cls-7" x1="20.33" y1="66.77" x2="11.59" y2="66.77"/><line class="cls-12" x1="73.88" y1="64.9" x2="87.41" y2="63.77"/><line class="cls-12" x1="73.88" y1="68.64" x2="87.41" y2="69.77"/><line class="cls-7" x1="73.84" y1="66.77" x2="82.59" y2="66.77"/><path class="cls-13" d="M76.37,75.38s-.38-2-2-2.17"/><path class="cls-14" d="M24.62,49.58a17.08,17.08,0,0,1-1.31-2.89,24.08,24.08,0,0,1-.88-3A19.4,19.4,0,0,1,22,40.5a9.94,9.94,0,0,1,.31-3.17,60.91,60.91,0,0,0,1.09,6.11C23.83,45.47,24.31,47.48,24.62,49.58Z"/><path class="cls-14" d="M67.21,49.58c.3-2.1.78-4.11,1.2-6.14a58.2,58.2,0,0,0,1.09-6.11,9.94,9.94,0,0,1,.31,3.17,18.36,18.36,0,0,1-.42,3.15,24,24,0,0,1-.87,3A17.08,17.08,0,0,1,67.21,49.58Z"/><path class="cls-14" d="M75,87.71c.3-2.1.78-4.12,1.2-6.14a58.38,58.38,0,0,0,1.09-6.12,10,10,0,0,1,.31,3.18,18.63,18.63,0,0,1-.42,3.15,24.53,24.53,0,0,1-.87,3A17.44,17.44,0,0,1,75,87.71Z"/><rect class="cls-15" x="0.06" y="-0.16" width="95" height="101"/></svg>