<svg id="Layer_1" data-name="Layer 1" xmlns="http://www.w3.org/2000/svg" viewBox="0 0 95 101"><defs><style>.cls-1{opacity:0.39;}.cls-2{fill:#f6ae8b;}.cls-13,.cls-14,.cls-2,.cls-3,.cls-4,.cls-8,.cls-9{stroke:#1d1d1b;}.cls-13,.cls-14,.cls-2,.cls-3,.cls-4,.cls-8{stroke-linecap:round;stroke-linejoin:round;}.cls-3{fill:#ddb272;}.cls-4,.cls-6{fill:#e06ba3;}.cls-5{fill:#1d1d1b;}.cls-13,.cls-7{fill:#fff;}.cls-14,.cls-16,.cls-8{fill:none;}.cls-11,.cls-9{fill:#a0709c;}.cls-9{stroke-miterlimit:10;}.cls-14,.cls-9{stroke-width:0.5px;}.cls-10{fill:#e94190;}.cls-12{fill:#8b719b;}.cls-15{fill:#662483;}</style></defs><title>V1Artboard 5 copy</title><g class="cls-1"><circle class="cls-2" cx="47.39" cy="47.39" r="46.31"/><path class="cls-3" d="M13.32,52.36C6.79,31.43,12.12,21,12.12,21s16.15.24,22,8.2"/><path class="cls-3" d="M80.27,52.36C86.79,31.43,81.46,21,81.46,21s-16.15.24-22,8.2"/><path class="cls-4" d="M17.73,44.47c-3.24-10.39-.59-15.56-.59-15.56S25.15,29,28,33"/><path class="cls-4" d="M75.85,44.47c3.24-10.39.6-15.56.6-15.56s-8,.11-10.9,4.06"/><path class="cls-3" d="M47,85.17a46.82,46.82,0,0,0,21.57-4.51c4.63-2.26,10-5.25,11.61-10.79a15,15,0,0,0-.32-8.44C80,60,84,45.6,69.25,33.42a32.55,32.55,0,0,0-22.2-7.56H47a32.57,32.57,0,0,0-22.2,7.56C10.07,45.6,14,60,14.19,61.43a15.09,15.09,0,0,0-.32,8.44c1.61,5.54,7,8.53,11.62,10.79a46.78,46.78,0,0,0,21.56,4.51Z"/><ellipse class="cls-5" cx="30.88" cy="59.14" rx="5.03" ry="5.19"/><ellipse class="cls-6" cx="26.82" cy="66.47" rx="3.16" ry="1.78"/><path class="cls-5" d="M50.56,67.16c0,1.15-3.59,2.77-3.59,2.77s-3.58-1.62-3.58-2.77,1.6-2.1,3.58-2.1S50.56,66,50.56,67.16Z"/><ellipse class="cls-7" cx="28.92" cy="57.06" rx="0.89" ry="0.92"/><path class="cls-8" d="M47,69.93a7.54,7.54,0,0,1-5.35,1.95"/><path class="cls-8" d="M47,69.93a7.54,7.54,0,0,0,5.35,1.95"/><ellipse class="cls-5" cx="63.18" cy="59.14" rx="5.03" ry="5.19"/><ellipse class="cls-6" cx="67.25" cy="66.47" rx="3.16" ry="1.78"/><ellipse class="cls-7" cx="61.09" cy="57.06" rx="0.89" ry="0.92"/><path class="cls-8" d="M26.8,52.75s4.88-2.29,8.45,0"/><path class="cls-8" d="M54.77,52.67s4.88-2.3,8.45,0"/><path class="cls-5" d="M50.69,23.15,45.3,44.51s-10.22,8.34-19.12,9c-7.31.55-9.59,5.24-8.49,22.43l-2.46-2.26S1.41,20.75,50.69,23.15Z"/><path class="cls-5" d="M51.67,23.15,46.35,44.46s9,11.25,18.74,8.56c22.81-6.3,8.71,7.79,9.79,24.21l5.37-4.47S87.88,23.87,51.67,23.15Z"/><path class="cls-9" d="M80.25,72.76S67,41.57,47.22,40.55s-32,33.14-32,33.14c-7.75-9-1.37-21-1.37-21-1.27-12.38,7.92-30,33.7-30.13C79.1,22.46,80.25,50.8,80.25,50.8S83.65,49.74,80.25,72.76Z"/><path class="cls-10" d="M25.14,56.05a3.61,3.61,0,0,1-1.25-.32,3.08,3.08,0,0,1-.84-.56c-.5-.41-.47-1.14-.67-1.72s-.38-1.19-.54-1.8-.3-1.23-.41-1.88l.26-.15c.52.4,1,.85,1.45,1.27s.89.88,1.31,1.34,1.07.78,1.18,1.42a2.73,2.73,0,0,1,.08,1,3.51,3.51,0,0,1-.31,1.24Z"/><path class="cls-10" d="M67.24,54.54a3.54,3.54,0,0,1-.32-1.25,3,3,0,0,1,.08-1c.11-.63.77-1,1.18-1.41S69,50,69.5,49.53s.92-.87,1.44-1.27l.26.15c-.1.65-.28,1.25-.41,1.88s-.34,1.21-.54,1.8-.16,1.31-.67,1.72a3.08,3.08,0,0,1-.84.56,3.61,3.61,0,0,1-1.24.32Z"/><path class="cls-9" d="M67.86,78.25s1.66,2.3-2.17,5.75,6.64,5.61,6.64,5.61,8.55-.51,12-2.68a7.25,7.25,0,0,0,3.45-5.74s-8.43-7-10-8S67.86,78.25,67.86,78.25Z"/><path class="cls-11" d="M71.31,81.25a15.4,15.4,0,0,1-3-.33c-2.81-.55-4.4-1.56-4.73-3C63,75.25,67,72.18,67.2,72.05s6.56-3,9.81-6a1.82,1.82,0,0,1,1.27-.55c2.56,0,4.75,6,4.75,7.91,0,.81-.36.93-.58.93a.94.94,0,0,1-.57-.25,2.47,2.47,0,0,0-1.56-.54c-1.66,0-3.34,1.45-3.76,1.83a5.35,5.35,0,0,1-.81,4.13c-.89,1.14-2.38,1.72-4.44,1.72Z"/><path class="cls-5" d="M78.28,65.77c2.76,0,5.45,8.34,4.17,8.34a.71.71,0,0,1-.42-.2,2.67,2.67,0,0,0-1.71-.59c-2,0-4,2-4,2s1.39,5.68-5,5.68a15.5,15.5,0,0,1-2.94-.32c-9.7-1.92-1-8.43-1-8.43s6.51-2.9,9.83-6a1.57,1.57,0,0,1,1.1-.48m0-.5a2.05,2.05,0,0,0-1.44.62c-3.22,3-9.63,5.88-9.69,5.9l-.1.06c-.18.13-4.35,3.3-3.7,6.13.35,1.54,2,2.61,4.93,3.19a15.79,15.79,0,0,0,3,.33c2.14,0,3.7-.61,4.64-1.81a5.55,5.55,0,0,0,.88-4.2,6.14,6.14,0,0,1,3.49-1.67,2.2,2.2,0,0,1,1.4.48,1.18,1.18,0,0,0,.73.31.78.78,0,0,0,.71-.48,1.73,1.73,0,0,0,.12-.7c0-2-2.25-8.16-5-8.16Z"/><path class="cls-12" d="M78.57,67.69h0m-.22.2a10,10,0,0,1,1.93,3.43c-2.76,0-5.14,2.32-5.41,2.58a2.06,2.06,0,0,0-.53,1.88A3.14,3.14,0,0,1,74,78.15a3.49,3.49,0,0,1-2.66.85,13.27,13.27,0,0,1-2.55-.29c-2.29-.45-2.93-1.09-3-1.29-.15-.61,1.13-2.28,2.6-3.44,1.19-.55,6.7-3.16,10-6.09m-.07-2.12a1.57,1.57,0,0,0-1.1.48c-3.32,3.1-9.83,6-9.83,6s-8.68,6.51,1,8.43a15.5,15.5,0,0,0,2.94.32c6.37,0,5-5.68,5-5.68s2-2,4-2a2.67,2.67,0,0,1,1.71.59.71.71,0,0,0,.42.2c1.28,0-1.41-8.34-4.17-8.34Z"/><line class="cls-13" x1="20.52" y1="64.9" x2="7" y2="63.77"/><line class="cls-13" x1="20.52" y1="68.64" x2="7" y2="69.77"/><line class="cls-8" x1="20.56" y1="66.77" x2="11.82" y2="66.77"/><line class="cls-13" x1="74.12" y1="64.9" x2="87.64" y2="63.77"/><line class="cls-13" x1="74.12" y1="68.64" x2="87.64" y2="69.77"/><line class="cls-8" x1="74.08" y1="66.77" x2="82.82" y2="66.77"/><path class="cls-14" d="M76.61,75.38s-.39-2-2-2.17"/><path class="cls-15" d="M24.85,49.58a17.08,17.08,0,0,1-1.31-2.89,24,24,0,0,1-.87-3,18.36,18.36,0,0,1-.42-3.15,9.94,9.94,0,0,1,.3-3.17c.24,2.1.66,4.09,1.09,6.11S24.55,47.48,24.85,49.58Z"/><path class="cls-15" d="M67.44,49.58c.31-2.1.79-4.11,1.21-6.14a60.91,60.91,0,0,0,1.09-6.11A9.66,9.66,0,0,1,70,40.5a19.39,19.39,0,0,1-.41,3.15,24.08,24.08,0,0,1-.88,3A17.08,17.08,0,0,1,67.44,49.58Z"/><path class="cls-15" d="M75.27,87.71c.31-2.1.79-4.12,1.21-6.14a61.11,61.11,0,0,0,1.09-6.12,9.75,9.75,0,0,1,.3,3.18,19.68,19.68,0,0,1-.41,3.15,24.58,24.58,0,0,1-.88,3A17.44,17.44,0,0,1,75.27,87.71Z"/></g><rect class="cls-16" x="0.04" y="-0.16" width="95" height="101"/></svg>