<svg id="Layer_1" data-name="Layer 1" xmlns="http://www.w3.org/2000/svg" viewBox="0 0 95 101"><defs><style>.cls-1{fill:#f6ae8b;}.cls-1,.cls-11,.cls-12,.cls-2,.cls-3,.cls-4,.cls-8,.cls-9{stroke:#1d1d1b;}.cls-1,.cls-12,.cls-3,.cls-4,.cls-8,.cls-9{stroke-linecap:round;stroke-linejoin:round;}.cls-2{fill:#a0709c;}.cls-11,.cls-2{stroke-miterlimit:10;}.cls-11,.cls-2,.cls-9{stroke-width:0.5px;}.cls-3{fill:#ddb272;}.cls-4,.cls-6{fill:#e06ba3;}.cls-5{fill:#1d1d1b;}.cls-12,.cls-7{fill:#fff;}.cls-11,.cls-13,.cls-8,.cls-9{fill:none;}.cls-10{fill:#662483;}</style></defs><title>V2Artboard 4 copy</title><circle class="cls-1" cx="47.15" cy="47.39" r="46.31"/><path class="cls-2" d="M57.71,79.27a17.8,17.8,0,0,0-3.51,9.3C53.5,96.88,65,97.66,65,97.66s13.84-.83,19.42-4.34A11.75,11.75,0,0,0,90,84s-5-12.48-16.12-13C64.13,70.53,57.71,79.27,57.71,79.27Z"/><path class="cls-3" d="M13.08,52.36C6.56,31.43,11.89,21,11.89,21s16.15.24,22,8.2"/><path class="cls-3" d="M80,52.36C86.56,31.43,81.23,21,81.23,21s-16.16.24-22,8.2"/><path class="cls-4" d="M17.49,44.47c-3.23-10.39-.59-15.56-.59-15.56s8,.11,10.9,4.06"/><path class="cls-4" d="M75.62,44.47c3.24-10.39.59-15.56.59-15.56S68.2,29,65.31,33"/><path class="cls-3" d="M46.74,85.17A46.78,46.78,0,0,0,68.3,80.66c4.63-2.26,10-5.25,11.62-10.79a15.09,15.09,0,0,0-.32-8.44C79.77,60,83.72,45.6,69,33.42a32.57,32.57,0,0,0-22.2-7.56h-.08a32.55,32.55,0,0,0-22.2,7.56C9.84,45.6,13.79,60,14,61.43a15,15,0,0,0-.32,8.44c1.61,5.54,7,8.53,11.62,10.79a46.76,46.76,0,0,0,21.56,4.51Z"/><ellipse class="cls-5" cx="30.65" cy="59.14" rx="5.03" ry="5.19"/><ellipse class="cls-6" cx="26.58" cy="66.47" rx="3.16" ry="1.78"/><path class="cls-5" d="M50.32,67.16c0,1.15-3.58,2.77-3.58,2.77s-3.59-1.62-3.59-2.77,1.61-2.1,3.59-2.1S50.32,66,50.32,67.16Z"/><ellipse class="cls-7" cx="28.69" cy="57.06" rx="0.89" ry="0.92"/><path class="cls-8" d="M46.74,69.93a7.54,7.54,0,0,1-5.35,1.95"/><path class="cls-8" d="M46.78,69.93a7.54,7.54,0,0,0,5.35,1.95"/><ellipse class="cls-5" cx="62.95" cy="59.14" rx="5.03" ry="5.19"/><ellipse class="cls-6" cx="67.02" cy="66.47" rx="3.16" ry="1.78"/><ellipse class="cls-7" cx="60.85" cy="57.06" rx="0.89" ry="0.92"/><path class="cls-8" d="M26.57,52.75s4.87-2.29,8.45,0"/><path class="cls-8" d="M54.54,52.67s4.88-2.3,8.45,0"/><path class="cls-5" d="M50.45,23.15,45.06,44.51s-10.21,8.34-19.11,9c-7.31.55-9.6,5.24-8.49,22.43L15,73.69S1.17,20.75,50.45,23.15Z"/><path class="cls-5" d="M51.44,23.15,46.12,44.46s9,11.25,18.74,8.56c22.81-6.3,8.71,7.79,9.79,24.21L80,72.76S87.64,23.87,51.44,23.15Z"/><path class="cls-9" d="M76.37,75.38s-.38-2-2-2.17"/><path class="cls-2" d="M80.39,72.83s-13.28-31.19-33-32.22-32,33.14-32,33.14c-7.76-9,.79-28.25.79-28.25-1.28-12.39-4.77-34.56,30-36.26,34-1.66,30.13,30.3,30.13,30.3S83.79,49.81,80.39,72.83Z"/><path class="cls-10" d="M18.9,46.55a17.71,17.71,0,0,1,1.63-2.71,24.68,24.68,0,0,1,2-2.45,19.08,19.08,0,0,1,2.36-2.13,9.88,9.88,0,0,1,2.79-1.54,58.72,58.72,0,0,0-4.42,4.36C21.84,43.57,20.45,45.11,18.9,46.55Z"/><path class="cls-10" d="M60.64,38.47l-4-1.95c-1.32-.64-2.64-1.29-4-1.88S50,33.47,48.61,33a24.14,24.14,0,0,0-4.25-1.12,12.53,12.53,0,0,1,4.47.38,24.23,24.23,0,0,1,4.24,1.49A32.11,32.11,0,0,1,60.64,38.47Z"/><path class="cls-11" d="M61.37,46.3a60.47,60.47,0,0,0-15-7c-5.34-1.65-11.81-3.75-20.08-2.64a30,30,0,0,0-10.66,3.15"/><path class="cls-11" d="M43.06,24.9a53.14,53.14,0,0,1,15.66,7.49,47.86,47.86,0,0,1,13.62,14A47,47,0,0,1,78.81,63"/><path class="cls-2" d="M15.74,60.09a44.2,44.2,0,0,1,6.39-13.27A40,40,0,0,1,32.72,36.37"/><path class="cls-11" d="M27.57,17.07c4.09-.79,17.34-2.8,30.3,4.77A44.1,44.1,0,0,1,72,35.46,46,46,0,0,1,79.49,58.6"/><path class="cls-2" d="M24.16,17.17a11.77,11.77,0,0,0-2.32,6.14c-.46,5.49,7.1,6,7.1,6s9.14-.55,12.82-2.87a7.76,7.76,0,0,0,3.69-6.14s-3.34-8.24-10.65-8.59C28.4,11.4,24.16,17.17,24.16,17.17Z"/><path class="cls-2" d="M26.38,14.62a8.25,8.25,0,0,0-1.63,4.32c-.32,3.86,5,4.22,5,4.22s6.43-.38,9-2a5.46,5.46,0,0,0,2.59-4.32S39,11,33.87,10.79C29.36,10.57,26.38,14.62,26.38,14.62Z"/><line class="cls-12" x1="73.88" y1="64.9" x2="87.41" y2="63.77"/><line class="cls-12" x1="73.88" y1="68.64" x2="87.41" y2="69.77"/><line class="cls-8" x1="73.84" y1="66.77" x2="82.59" y2="66.77"/><line class="cls-12" x1="20.29" y1="64.9" x2="6.77" y2="63.77"/><line class="cls-12" x1="20.29" y1="68.64" x2="6.77" y2="69.77"/><line class="cls-8" x1="20.33" y1="66.77" x2="11.59" y2="66.77"/><rect class="cls-13" x="0.06" y="-0.16" width="95" height="101"/></svg>