<svg id="Layer_1" data-name="Layer 1" xmlns="http://www.w3.org/2000/svg" viewBox="0 0 95 101"><defs><style>.cls-1{fill:#b2b2b2;}.cls-1,.cls-10,.cls-2,.cls-3,.cls-4,.cls-5{stroke:#1d1d1b;}.cls-1,.cls-10,.cls-2,.cls-4,.cls-5{stroke-linecap:round;stroke-linejoin:round;}.cls-2,.cls-6{fill:#938254;}.cls-11,.cls-3{fill:#b5a271;}.cls-3{stroke-miterlimit:10;}.cls-4,.cls-8{fill:#ad8a58;}.cls-5,.cls-9{fill:#fff;}.cls-7{fill:#1d1d1b;}.cls-10,.cls-12{fill:none;}</style></defs><title>V2Artboard 3 copy 3</title><circle class="cls-1" cx="47.48" cy="47.05" r="46.31"/><path class="cls-2" d="M13.47,52C7,31.09,12.28,20.67,12.28,20.67s16.15.24,22,8.2"/><path class="cls-3" d="M80.43,52C87,31.09,81.62,20.67,81.62,20.67s-16.15.24-22,8.2"/><path class="cls-4" d="M17.89,44.12c-3.24-10.38-.6-15.56-.6-15.56s8,.12,10.9,4.07"/><path class="cls-4" d="M76,44.12c3.24-10.38.6-15.56.6-15.56s-8,.12-10.9,4.07"/><path class="cls-5" d="M47.13,84.83a46.76,46.76,0,0,0,21.56-4.51c4.64-2.26,10-5.25,11.62-10.8A15,15,0,0,0,80,61.09c.17-1.48,4.12-15.83-10.58-28a32.55,32.55,0,0,0-22.2-7.56h-.08a32.57,32.57,0,0,0-22.2,7.56c-14.7,12.18-10.75,26.53-10.58,28A15.05,15.05,0,0,0,14,69.52c1.61,5.55,7,8.54,11.62,10.8a46.78,46.78,0,0,0,21.56,4.51Z"/><path class="cls-6" d="M47.31,25.52h-.18a32.57,32.57,0,0,0-22.2,7.56c-14.7,12.18-10.75,26.53-10.58,28A15.05,15.05,0,0,0,14,69.52a11.64,11.64,0,0,0,.69,1.79C58,69.48,48.78,30.83,47.31,25.52Z"/><ellipse class="cls-7" cx="31.04" cy="58.8" rx="5.03" ry="5.19"/><ellipse class="cls-8" cx="26.97" cy="66.13" rx="3.16" ry="1.78"/><ellipse class="cls-9" cx="29.08" cy="56.72" rx="0.89" ry="0.92"/><line class="cls-5" x1="20.68" y1="64.56" x2="7.16" y2="63.43"/><line class="cls-5" x1="20.68" y1="68.3" x2="7.16" y2="69.43"/><line class="cls-10" x1="20.72" y1="66.43" x2="11.98" y2="66.43"/><path class="cls-11" d="M47,25.52h.17a32.55,32.55,0,0,1,22.2,7.56c14.7,12.18,10.75,26.53,10.58,28a15,15,0,0,1,.32,8.43,11.64,11.64,0,0,1-.69,1.79C36.37,69.48,45.57,30.83,47,25.52Z"/><path class="cls-10" d="M47.13,84.83a46.76,46.76,0,0,0,21.56-4.51c4.64-2.26,10-5.25,11.62-10.8A15,15,0,0,0,80,61.09c.17-1.48,4.12-15.83-10.58-28a32.55,32.55,0,0,0-22.2-7.56h-.08a32.57,32.57,0,0,0-22.2,7.56c-14.7,12.18-10.75,26.53-10.58,28A15.05,15.05,0,0,0,14,69.52c1.61,5.55,7,8.54,11.62,10.8a46.78,46.78,0,0,0,21.56,4.51Z"/><ellipse class="cls-7" cx="63.34" cy="58.8" rx="5.03" ry="5.19"/><ellipse class="cls-8" cx="67.41" cy="66.13" rx="3.16" ry="1.78"/><line class="cls-5" x1="74.28" y1="64.56" x2="87.8" y2="63.43"/><line class="cls-5" x1="74.28" y1="68.3" x2="87.8" y2="69.43"/><line class="cls-10" x1="74.24" y1="66.43" x2="82.98" y2="66.43"/><ellipse class="cls-9" cx="61.25" cy="56.72" rx="0.89" ry="0.92"/><path d="M58.6,50c9.74-.17,13.85.07,13.85.07"/><path class="cls-7" d="M58.6,50a11.8,11.8,0,0,1,3.45-1.22,17.85,17.85,0,0,1,3.48-.34,17.12,17.12,0,0,1,3.48.35,11,11,0,0,1,3.44,1.28A14.06,14.06,0,0,1,69,51.19a20.09,20.09,0,0,1-3.45.29,19.32,19.32,0,0,1-3.45-.31A12.56,12.56,0,0,1,58.6,50Z"/><line x1="35.96" y1="50.11" x2="23.09" y2="49.02"/><path class="cls-7" d="M36,50.11a11.29,11.29,0,0,1-3.31.9,16.85,16.85,0,0,1-3.25.05,15.86,15.86,0,0,1-3.19-.59A10.71,10.71,0,0,1,23.09,49a10.7,10.7,0,0,1,3.31-.9,16.4,16.4,0,0,1,6.44.54A10.71,10.71,0,0,1,36,50.11Z"/><path class="cls-7" d="M50.66,69.09c0,1.16-3.58,2.78-3.58,2.78s-3.59-1.62-3.59-2.78S45.1,67,47.08,67,50.66,67.94,50.66,69.09Z"/><path class="cls-10" d="M47.08,71.49s-1,4.12-4.85,4.63"/><path class="cls-10" d="M47.08,71.49s1,4.12,4.84,4.63"/><rect class="cls-12" y="0.02" width="95" height="101"/></svg>