<svg id="Layer_1" data-name="Layer 1" xmlns="http://www.w3.org/2000/svg" xmlns:xlink="http://www.w3.org/1999/xlink" viewBox="0 0 95 101"><defs><style>.cls-1,.cls-19,.cls-2{fill:none;}.cls-1,.cls-2,.cls-20,.cls-21,.cls-24,.cls-30{stroke:#1d1d1b;}.cls-1{stroke-miterlimit:10;}.cls-2,.cls-20,.cls-21,.cls-24,.cls-26,.cls-30{stroke-linecap:round;stroke-linejoin:round;}.cls-3{clip-path:url(#clip-path);}.cls-4{fill:#e31014;}.cls-5{fill:#3258a4;}.cls-6{fill:#fcea1b;}.cls-7{fill:#702381;}.cls-8{fill:#f28a1a;}.cls-9{fill:#0a8137;}.cls-10{fill:#ef7c26;}.cls-11{fill:#dadc30;}.cls-12{fill:#217b34;}.cls-13{fill:#3b4194;}.cls-14{fill:#5a2985;}.cls-15{fill:#e63913;}.cls-16{fill:#f19507;}.cls-17{fill:#016794;}.cls-18{fill:#00774b;}.cls-20{fill:#cbbba0;}.cls-21{fill:#7b6a58;}.cls-22{fill:#a48a7b;}.cls-23{fill:#1d1d1b;}.cls-24{fill:#fff;}.cls-25{clip-path:url(#clip-path-2);}.cls-26{fill:#ca9e67;stroke:#7b6a58;stroke-width:7px;}.cls-27{fill:#fbf6ef;}.cls-28{fill:#121324;}.cls-29{fill:#da9444;}.cls-30{fill:#f5d2a2;}</style><clipPath id="clip-path"><circle class="cls-1" cx="47.67" cy="47.05" r="46.31"/></clipPath><clipPath id="clip-path-2"><path class="cls-2" d="M47.41,84.83A46.78,46.78,0,0,0,69,80.32c4.64-2.26,10-5.25,11.62-10.8a15.05,15.05,0,0,0-.32-8.43c.17-1.48,4.12-15.83-10.58-28a32.55,32.55,0,0,0-22.2-7.56h-.08a32.55,32.55,0,0,0-22.2,7.56c-14.7,12.18-10.75,26.53-10.58,28a15.05,15.05,0,0,0-.32,8.43c1.61,5.55,7,8.54,11.62,10.8a46.78,46.78,0,0,0,21.56,4.51Z"/></clipPath></defs><title>V2Artboard 2 copy 4</title><g class="cls-3"><path class="cls-4" d="M93.75,78.46c0,4.81,0,9.61,0,14.41,0,.74-.17.9-.9.9q-45.59,0-91.15,0c-.74,0-.91-.16-.91-.9,0-4.8,0-9.6,0-14.41l.3-.23c.74,0,1.47,0,2.21,0H91.25c.73,0,1.47,0,2.2,0Z"/><path class="cls-5" d="M.83,31.71V16.42H93.75V32H85.23a1.44,1.44,0,0,0-1.79-.06c-.64,0-1.27,0-1.91,0H3.05c-.63,0-1.27,0-1.91,0Z"/><path class="cls-6" d="M.83,62.88V47.59H93.75V62.88l-.3,0-1.17,0H3.19L2,62.86h-.3Z"/><path class="cls-7" d="M.83,15.83c0-4.7,0-9.4,0-14.09,0-.7.1-.93.88-.93q45.59,0,91.19,0c.78,0,.88.23.88.93,0,4.69,0,9.39,0,14.09Z"/><path class="cls-8" d="M.83,62.88l.88,0c.1.14.2.15.3,0l1.18,0H92.28l1.17,0,.3.31v14.7H.83Z"/><path class="cls-9" d="M1.14,31.93c.64,0,1.28,0,1.91,0H81.53c.64,0,1.27,0,1.91,0a1.3,1.3,0,0,0,1.79.06h8.52V47H.83V32Z"/><path class="cls-10" d="M.83,77.87H93.75v.3l-.3.06c-.73,0-1.47,0-2.2,0H3.34c-.74,0-1.47,0-2.21,0l-.3-.06Z"/><ellipse class="cls-11" cx="47.29" cy="47.44" rx="65.7" ry="0.21"/><ellipse class="cls-12" cx="47.29" cy="47.15" rx="65.7" ry="0.21"/><ellipse class="cls-13" cx="47.29" cy="16.27" rx="65.7" ry="0.21"/><ellipse class="cls-14" cx="47.29" cy="15.98" rx="65.7" ry="0.21"/><path class="cls-15" d="M93.45,78.23l.3-.06v.29Z"/><path class="cls-15" d="M.83,78.17l.3.06-.3.23Z"/><path class="cls-16" d="M93.75,63.17l-.3-.31.3,0Z"/><path class="cls-17" d="M1.14,31.93.83,32v-.29Z"/><path class="cls-18" d="M85.23,32a1.3,1.3,0,0,1-1.79-.06A1.44,1.44,0,0,1,85.23,32Z"/><path class="cls-16" d="M2,62.86c-.1.14-.2.13-.3,0Z"/></g><circle class="cls-1" cx="47.67" cy="47.05" r="46.31"/><rect class="cls-19" x="-0.02" y="0.02" width="95" height="101"/><path class="cls-20" d="M13.75,52c-6.52-20.93-1.19-31.35-1.19-31.35s16.15.24,22,8.2"/><path class="cls-20" d="M80.7,52c6.53-20.93,1.2-31.35,1.2-31.35s-16.15.24-22,8.2"/><path class="cls-21" d="M18.17,44.12c-3.24-10.38-.6-15.56-.6-15.56s8,.12,10.9,4.07"/><path class="cls-21" d="M76.29,44.12c3.24-10.38.59-15.56.59-15.56s-8,.12-10.9,4.07"/><path class="cls-20" d="M47.41,84.83A46.78,46.78,0,0,0,69,80.32c4.64-2.26,10-5.25,11.62-10.8a15.05,15.05,0,0,0-.32-8.43c.17-1.48,4.12-15.83-10.58-28a32.55,32.55,0,0,0-22.2-7.56h-.08a32.55,32.55,0,0,0-22.2,7.56c-14.7,12.18-10.75,26.53-10.58,28a15.05,15.05,0,0,0-.32,8.43c1.61,5.55,7,8.54,11.62,10.8a46.78,46.78,0,0,0,21.56,4.51Z"/><ellipse class="cls-22" cx="27.25" cy="66.13" rx="3.16" ry="1.78"/><ellipse class="cls-22" cx="67.69" cy="66.13" rx="3.16" ry="1.78"/><path class="cls-23" d="M51,68.62c0,1.16-3.58,2.78-3.58,2.78s-3.58-1.62-3.58-2.78,1.6-2.09,3.58-2.09S51,67.47,51,68.62Z"/><line class="cls-24" x1="74.56" y1="64.56" x2="88.08" y2="63.43"/><line class="cls-24" x1="74.56" y1="68.3" x2="88.08" y2="69.43"/><line class="cls-2" x1="74.52" y1="66.43" x2="83.26" y2="66.43"/><line class="cls-24" x1="20.96" y1="64.56" x2="7.44" y2="63.43"/><line class="cls-24" x1="20.96" y1="68.3" x2="7.44" y2="69.43"/><line class="cls-2" x1="21" y1="66.43" x2="12.26" y2="66.43"/><path class="cls-2" d="M47.41,71s-1,4.12-4.85,4.63"/><path class="cls-2" d="M47.41,71s1,4.12,4.85,4.63"/><g class="cls-25"><line class="cls-26" x1="47.49" y1="26.52" x2="47.49" y2="42.86"/><line class="cls-26" x1="38.43" y1="22.44" x2="38.43" y2="38.78"/><line class="cls-26" x1="56.47" y1="22.44" x2="56.47" y2="38.78"/></g><path class="cls-2" d="M47.41,84.83A46.78,46.78,0,0,0,69,80.32c4.64-2.26,10-5.25,11.62-10.8a15.05,15.05,0,0,0-.32-8.43c.17-1.48,4.12-15.83-10.58-28a32.55,32.55,0,0,0-22.2-7.56h-.08a32.55,32.55,0,0,0-22.2,7.56c-14.7,12.18-10.75,26.53-10.58,28a15.05,15.05,0,0,0-.32,8.43c1.61,5.55,7,8.54,11.62,10.8a46.78,46.78,0,0,0,21.56,4.51Z"/><path class="cls-27" d="M53.22,79.58c3.78-.27,7.53-.82,11.29-1.27a2.54,2.54,0,0,0,1.77-1A4.9,4.9,0,0,0,67,76.11a6.22,6.22,0,0,0-.67-6.64A3.4,3.4,0,0,0,62.61,68l-2.13.46a20.26,20.26,0,0,1-3.39.41c-1.62.1-3.24.22-4.86.34m-11.18,1-5.32.59-5.48.66a2.39,2.39,0,0,0-2,1.34,10.55,10.55,0,0,0-1,3.56,3.91,3.91,0,0,0,0,1.08,6.73,6.73,0,0,0,1.9,3.66,2.75,2.75,0,0,0,2.28.85,6,6,0,0,0,1.12-.14,40.79,40.79,0,0,1,4.25-.8c1.8-.19,3.59-.39,5.39-.55"/><path class="cls-28" d="M52.23,69.21c1.62-.12,3.24-.24,4.86-.34a20.26,20.26,0,0,0,3.39-.41L62.61,68a3.4,3.4,0,0,1,3.74,1.47A6.22,6.22,0,0,1,67,76.11a4.9,4.9,0,0,1-.74,1.25,2.54,2.54,0,0,1-1.77,1c-3.76.45-7.51,1-11.29,1.27l-11,.88c-1.8.16-3.59.36-5.39.55a40.79,40.79,0,0,0-4.25.8,6,6,0,0,1-1.12.14,2.75,2.75,0,0,1-2.28-.85,6.73,6.73,0,0,1-1.9-3.66,3.91,3.91,0,0,1,0-1.08,10.55,10.55,0,0,1,1-3.56,2.39,2.39,0,0,1,2-1.34l5.48-.66,5.32-.59Zm13-.57a2,2,0,0,0-1.5-.55,8.41,8.41,0,0,0-1.32.12c-1.09.21-2.17.49-3.27.62-1.64.19-3.29.3-4.94.4-4.42.29-8.83.63-13.24,1.13-2.87.32-5.74.64-8.61,1-.83.1-1.66.13-2.48.31a1.83,1.83,0,0,0-1.34,1,10.14,10.14,0,0,0-1,3.88,6,6,0,0,0,1.7,4.15,3,3,0,0,0,2.91,1c.24,0,.48-.07.72-.12,1.19-.27,2.38-.54,3.59-.7,3.23-.44,6.48-.72,9.73-1,6.16-.45,12.31-1,18.42-1.86a2.43,2.43,0,0,0,1.83-1,6.68,6.68,0,0,0,1.13-4.29A6.34,6.34,0,0,0,65.18,68.64Z"/><path class="cls-29" d="M65.18,68.64a6.34,6.34,0,0,1,2.29,4.16,6.68,6.68,0,0,1-1.13,4.29,2.43,2.43,0,0,1-1.83,1C58.4,79,52.25,79.55,46.09,80c-3.25.23-6.5.51-9.73,1-1.21.16-2.4.43-3.59.7-.24,0-.48.08-.72.12a3,3,0,0,1-2.91-1,6,6,0,0,1-1.7-4.15,10.14,10.14,0,0,1,1-3.88,1.83,1.83,0,0,1,1.34-1c.82-.18,1.65-.21,2.48-.31,2.87-.36,5.74-.68,8.61-1,4.41-.5,8.82-.84,13.24-1.13,1.65-.1,3.3-.21,4.94-.4,1.1-.13,2.18-.41,3.27-.62a8.41,8.41,0,0,1,1.32-.12A2,2,0,0,1,65.18,68.64ZM54.5,75.29c-.09,0-.07-.09-.08-.14a3.89,3.89,0,0,1-.08-.83s0-.12,0-.14-.12,0-.14.1a.71.71,0,0,0,0,.21,5.78,5.78,0,0,0,.21,1.3,5.31,5.31,0,0,1,.2,1.43c-.06.71-.22.86-.92.91s-1.38.07-2.06.13c-2.41.24-4.81.53-7.24.61a11.33,11.33,0,0,0-2.83.42c0-.15,0-.28-.16-.31a.25.25,0,0,0-.3.2.24.24,0,0,0,.08.26.24.24,0,0,0,.32,0,13.69,13.69,0,0,1,2.86-.4c1.43-.09,2.86-.13,4.29-.29a41.92,41.92,0,0,1,4.87-.42,1.84,1.84,0,0,0,.66-.12.88.88,0,0,0,.57-.69c0-.11,0-.23.06-.34.1.07.22.14.34.06a.24.24,0,0,0,.12-.36c-.13-.22-.3-.14-.46,0-.07-.36-.13-.72-.2-1.09,0-.13-.1-.26,0-.4s.09,0,.13.07a.25.25,0,0,0,.4-.12.22.22,0,0,0-.12-.33c-.18-.08-.28,0-.36.16A.59.59,0,0,0,54.5,75.29ZM40.54,72a1.69,1.69,0,0,0-.23.54,3.59,3.59,0,0,0,0,1.18,22.17,22.17,0,0,1,.48,4.67s0,.11.06.12A.13.13,0,0,0,41,78.4a1,1,0,0,0,0-.24,15.79,15.79,0,0,0-.29-3.29,15.35,15.35,0,0,1-.29-2,1.06,1.06,0,0,1,1-1.22,4.51,4.51,0,0,1,.53-.08l3.18-.38c2.09-.27,4.18-.56,6.28-.66h.16c.08,0,.16,0,.14-.14s-.1,0-.16,0c-.53,0-1.07.06-1.61.11-2.2.18-4.38.52-6.57.79a14.25,14.25,0,0,0-1.95.25A1.57,1.57,0,0,0,40.54,72ZM46,73.73a.25.25,0,0,0,0-.38.24.24,0,0,0-.35,0,.25.25,0,0,0,0,.38A.24.24,0,0,0,46,73.73Zm4.06,3.55a.25.25,0,0,0-.37,0,.26.26,0,0,0,.38.35A.26.26,0,0,0,50.09,77.28Zm8.72-3.42a.26.26,0,0,0-.37,0,.26.26,0,1,0,.37,0Zm0,3.84a.26.26,0,0,0,.38,0,.25.25,0,0,0,0-.38.24.24,0,0,0-.35,0A.25.25,0,0,0,58.8,77.7Zm6.12-6.86a.23.23,0,0,0-.34,0,.26.26,0,1,0,.37.36A.26.26,0,0,0,64.92,70.84Zm-.79,4.78a.25.25,0,0,0-.06-.37.24.24,0,0,0-.37.07.24.24,0,0,0,0,.35C63.88,75.78,64,75.74,64.13,75.62ZM46.2,75.46a.25.25,0,0,0,0-.38.25.25,0,0,0-.37.06.23.23,0,0,0,0,.35A.25.25,0,0,0,46.2,75.46Zm7.46-1.16a.25.25,0,0,0-.37,0,.25.25,0,0,0,0,.38.24.24,0,0,0,.35,0A.25.25,0,0,0,53.66,74.3Zm-6,3.31a.25.25,0,0,0-.38,0,.24.24,0,0,0,0,.36.23.23,0,0,0,.37,0A.25.25,0,0,0,47.67,77.61Zm.55-2.8a.25.25,0,0,0,.05.37.24.24,0,0,0,.37-.05.26.26,0,0,0-.42-.32Zm10.42-2.68a.24.24,0,0,0-.37,0,.26.26,0,1,0,.4.34A.25.25,0,0,0,58.64,72.13Zm-23,.85a.25.25,0,0,0,0-.38.25.25,0,0,0-.37.06.24.24,0,0,0,0,.35A.25.25,0,0,0,35.68,73Zm-1,2.79a.26.26,0,1,0-.4-.32.25.25,0,0,0,0,.38A.25.25,0,0,0,34.69,75.77Zm28.49-5.65a.25.25,0,0,0,0,.36.24.24,0,0,0,.38,0,.23.23,0,0,0-.05-.37A.25.25,0,0,0,63.18,70.12Zm-23.8,5.13a.27.27,0,0,0,.39-.06.24.24,0,0,0,0-.35.24.24,0,0,0-.38,0A.25.25,0,0,0,39.38,75.25Zm25.7-2.73a.26.26,0,0,0-.37.06.26.26,0,0,0,.42.32A.26.26,0,0,0,65.08,72.52Zm-25.17,4a.25.25,0,0,0-.37.06.24.24,0,0,0,.05.36.24.24,0,0,0,.37,0A.25.25,0,0,0,39.91,76.53Zm20.42.23a.26.26,0,0,0,0-.38.27.27,0,0,0-.36.4C60.07,76.9,60.2,76.87,60.33,76.76Zm-1.4-1.15a.25.25,0,0,0-.38,0,.25.25,0,0,0,0,.36A.24.24,0,0,0,59,76,.25.25,0,0,0,58.93,75.61Zm-1.18,1a.24.24,0,0,0-.38,0,.24.24,0,0,0,0,.37.24.24,0,0,0,.36,0A.25.25,0,0,0,57.75,76.64Zm-4.33-.2a.25.25,0,0,0,.38,0,.25.25,0,0,0,0-.36.25.25,0,0,0-.4,0A.25.25,0,0,0,53.42,76.44ZM29.7,76a.26.26,0,0,0-.35.06.25.25,0,0,0,0,.38.23.23,0,0,0,.36,0A.25.25,0,0,0,29.7,76Zm1.43,2.46a.27.27,0,0,0-.33.42.24.24,0,0,0,.37,0A.25.25,0,0,0,31.13,78.43Zm7.07-6a.26.26,0,0,0-.37,0,.25.25,0,0,0,0,.38.24.24,0,0,0,.36,0A.25.25,0,0,0,38.2,72.39Zm-1.17,1a.25.25,0,0,0-.38,0,.26.26,0,0,0,.39.35A.26.26,0,0,0,37,73.38Zm19.22.73a.25.25,0,0,0-.37,0,.24.24,0,0,0,0,.37.25.25,0,0,0,.36,0A.25.25,0,0,0,56.25,74.11Zm-2.77-1.56a.27.27,0,0,0-.32.43.24.24,0,0,0,.36,0A.26.26,0,0,0,53.48,72.55Zm8.11,3.23a.25.25,0,0,0,0-.36.25.25,0,0,0-.38,0,.26.26,0,1,0,.41.31ZM35.52,74.35a.26.26,0,0,0,0,.38.25.25,0,0,0,.36-.06.24.24,0,0,0,0-.38A.25.25,0,0,0,35.52,74.35Zm16.75-.43c.08-.13.11-.27,0-.38a.25.25,0,0,0-.36,0,.23.23,0,0,0,0,.36A.26.26,0,0,0,52.27,73.92Zm12,3a.24.24,0,0,0-.37.06.24.24,0,0,0,0,.36.25.25,0,0,0,.36,0A.24.24,0,0,0,64.29,76.93Zm-.49-5.16a.26.26,0,0,0-.37.06.25.25,0,0,0,0,.36.24.24,0,0,0,.38,0A.24.24,0,0,0,63.8,71.77ZM34.52,74.1a.23.23,0,0,0,0-.35.25.25,0,0,0-.38,0,.23.23,0,0,0,0,.36A.25.25,0,0,0,34.52,74.1Zm28.08-1a.26.26,0,0,0,0-.38.23.23,0,0,0-.36,0,.25.25,0,0,0,0,.38A.26.26,0,0,0,62.6,73.07ZM52.47,75.62c.07-.13.1-.25,0-.36a.27.27,0,1,0-.34.41A.27.27,0,0,0,52.47,75.62ZM36.16,77.77a.24.24,0,0,0-.36.07.23.23,0,0,0,0,.35.26.26,0,1,0,.32-.42Zm8.59-3a.26.26,0,1,0-.38-.35.24.24,0,0,0,0,.38A.25.25,0,0,0,44.75,74.73Zm14.64-3.48c-.07.13-.09.26,0,.36a.24.24,0,0,0,.37,0,.25.25,0,0,0,0-.38A.28.28,0,0,0,59.39,71.25Zm-28,8.86a.24.24,0,0,0-.36,0,.23.23,0,0,0,0,.37.25.25,0,0,0,.38,0A.26.26,0,0,0,31.36,80.11Zm5.45-5a.25.25,0,0,0,0,.36.24.24,0,0,0,.38,0,.25.25,0,0,0,0-.36A.26.26,0,0,0,36.81,75.1Zm.57,1.65a.26.26,0,0,0-.38.07.26.26,0,1,0,.42.3A.27.27,0,0,0,37.38,76.75Zm18.83.82a.25.25,0,0,0,0,.38.25.25,0,0,0,.36,0,.24.24,0,0,0,0-.36A.25.25,0,0,0,56.21,77.57Zm-26.3.13a.27.27,0,0,0-.35.4.24.24,0,0,0,.38,0A.23.23,0,0,0,29.91,77.7Zm19.68-5.23a.25.25,0,0,0,0-.36.24.24,0,0,0-.37,0,.24.24,0,0,0,0,.38A.25.25,0,0,0,49.59,72.47Zm-16.49.47a.27.27,0,0,0-.33.42.25.25,0,0,0,.38,0A.25.25,0,0,0,33.1,72.94Zm23.29,3.29a.25.25,0,0,0,0-.38.24.24,0,0,0-.36,0,.24.24,0,0,0,0,.37A.24.24,0,0,0,56.39,76.23Zm6.53-.06a.26.26,0,0,0-.37.07.26.26,0,1,0,.42.3C63.07,76.41,63,76.29,62.92,76.17Zm2.39-1.55a.26.26,0,0,0,0-.37.24.24,0,0,0-.38,0,.25.25,0,0,0,0,.38A.26.26,0,0,0,65.31,74.62Zm-.24,1.47a.24.24,0,0,0,.07.36.26.26,0,0,0,.3-.43A.25.25,0,0,0,65.07,76.09Zm-34,1a.26.26,0,0,0,0-.37.25.25,0,0,0-.38,0,.24.24,0,0,0,0,.36A.25.25,0,0,0,31.06,77.07Zm2.3-2.42a.27.27,0,0,0-.33.42.24.24,0,0,0,.36,0A.27.27,0,0,0,33.36,74.65Zm-3.2,5.14c.06-.07,0-.2-.07-.3a.25.25,0,0,0-.38.05.24.24,0,0,0,.05.37C29.89,80,30,80,30.16,79.79Zm2.36-.57a.25.25,0,0,0-.38,0,.26.26,0,1,0,.38,0Zm1.18-.73a.26.26,0,0,0-.05-.35.27.27,0,0,0-.35.4C33.43,78.66,33.56,78.61,33.7,78.49Zm1.16-1.38a.28.28,0,0,0-.39,0,.25.25,0,0,0,0,.36.24.24,0,0,0,.37,0A.27.27,0,0,0,34.86,77.11Zm.86-1a.25.25,0,0,0,0,.38.22.22,0,0,0,.35,0,.26.26,0,1,0-.35-.37Zm8.47-3.33a.23.23,0,0,0,.05.36.23.23,0,0,0,.35,0,.24.24,0,0,0,0-.38A.24.24,0,0,0,44.19,72.73Zm-1.72,4a.26.26,0,0,0,0-.38.27.27,0,1,0,0,.38Zm6-3.69a.27.27,0,0,0-.38,0,.26.26,0,0,0,.38.35A.26.26,0,0,0,48.44,73Zm-3.31,5.18a.26.26,0,0,0,0-.37.27.27,0,0,0-.34.42A.31.31,0,0,0,45.13,78.21Zm7-6a.25.25,0,0,0,0-.37.24.24,0,0,0-.37,0,.23.23,0,0,0,0,.37A.25.25,0,0,0,52.1,72.24ZM62.75,74.4a.24.24,0,0,0-.37,0,.24.24,0,0,0,0,.36.25.25,0,0,0,.38,0A.24.24,0,0,0,62.75,74.4Zm-7-2a.25.25,0,0,0,0,.37.25.25,0,0,0,.36,0,.25.25,0,0,0,0-.38A.26.26,0,0,0,55.7,72.43Zm4.27.82a.25.25,0,0,0,0-.38.25.25,0,0,0-.36.06.23.23,0,0,0,0,.35A.25.25,0,0,0,60,73.25ZM62.4,71a.25.25,0,0,0-.36,0,.24.24,0,0,0,0,.38.23.23,0,0,0,.35-.05A.26.26,0,0,0,62.4,71Zm-2.65,3.62a.25.25,0,0,0,0,.36.23.23,0,0,0,.37,0,.24.24,0,0,0,0-.36A.26.26,0,0,0,59.75,74.62Zm-30.15.06a.27.27,0,0,0-.05-.37.24.24,0,0,0-.37,0,.25.25,0,0,0,0,.36C29.35,74.84,29.48,74.78,29.6,74.68Zm1-1.44a.24.24,0,0,0-.35.09.23.23,0,0,0,.05.35.27.27,0,0,0,.3-.44Zm.31,2.09a.24.24,0,0,0,0-.36.25.25,0,0,0-.38,0,.24.24,0,0,0,0,.36A.25.25,0,0,0,30.89,75.33Zm2.61,4.52a.25.25,0,0,0,0,.37.24.24,0,0,0,.36,0,.26.26,0,1,0-.39-.34ZM47.29,74.1a.24.24,0,0,0-.35,0,.25.25,0,0,0,0,.38.23.23,0,0,0,.35,0A.25.25,0,0,0,47.29,74.1Zm-5,.52a.25.25,0,0,0-.37.07.22.22,0,0,0,0,.35.24.24,0,0,0,.37-.05A.26.26,0,0,0,42.25,74.62Zm1.4,1.07a.25.25,0,0,0-.06-.37.24.24,0,0,0-.36.07.23.23,0,0,0,0,.35A.25.25,0,0,0,43.65,75.69ZM61.48,74a.25.25,0,0,0,0-.36.25.25,0,0,0-.38,0,.24.24,0,0,0,0,.36A.25.25,0,0,0,61.48,74ZM64,73.88a.25.25,0,0,0,0-.36.27.27,0,0,0-.34.41A.26.26,0,0,0,64,73.88Zm-9.59-.53a.24.24,0,0,0,0,.37.22.22,0,0,0,.35,0,.23.23,0,0,0,0-.37A.24.24,0,0,0,54.42,73.35ZM61,70.23a.25.25,0,0,0-.37.06.24.24,0,0,0,0,.36.27.27,0,1,0,.33-.42ZM33.53,76.38a.27.27,0,0,0-.36.05.25.25,0,0,0,0,.38.23.23,0,0,0,.37-.07A.26.26,0,0,0,33.53,76.38ZM58,70.46a.25.25,0,0,0,0,.36.24.24,0,0,0,.38,0,.25.25,0,0,0,0-.38A.26.26,0,0,0,58,70.46ZM31.6,74.09a.25.25,0,0,0,0,.34.27.27,0,0,0,.37-.38C31.88,73.93,31.74,74,31.6,74.09Zm24.22-3.43a.25.25,0,0,0-.36.08.23.23,0,0,0,0,.35.24.24,0,0,0,.37-.06A.25.25,0,0,0,55.82,70.66Zm-4.71,3.85a.25.25,0,0,0-.37.08.23.23,0,0,0,0,.35.23.23,0,0,0,.37-.07A.25.25,0,0,0,51.11,74.51ZM31.79,75.75a.25.25,0,0,0,0,.38.24.24,0,0,0,.36,0,.23.23,0,0,0,0-.37A.23.23,0,0,0,31.79,75.75Zm6.57,1.85a.26.26,0,1,0,.36,0A.24.24,0,0,0,38.36,77.6Zm11-3.78a.25.25,0,0,0,0,.38.24.24,0,0,0,.36,0,.25.25,0,0,0,0-.38A.25.25,0,0,0,49.35,73.82Zm-13.29,6a.23.23,0,0,0,.36,0,.25.25,0,0,0,0-.38.24.24,0,0,0-.36,0A.24.24,0,0,0,36.06,79.86ZM46.31,77.2a.24.24,0,0,0,0-.37.27.27,0,0,0-.36.39A.25.25,0,0,0,46.31,77.2Zm10.91-5.36a.25.25,0,0,0,0-.38.24.24,0,0,0-.36,0,.26.26,0,1,0,.36.37Zm-12.3,4.21a.25.25,0,0,0-.36,0,.24.24,0,0,0,0,.38.23.23,0,0,0,.35,0A.25.25,0,0,0,44.92,76.05Zm7.72,1.36a.26.26,0,1,0-.39,0A.27.27,0,0,0,52.64,77.41Zm-3.9-.54a.23.23,0,0,0,0-.36.24.24,0,0,0-.36,0,.24.24,0,0,0,0,.38A.24.24,0,0,0,48.74,76.87ZM61.3,72.31a.24.24,0,0,0,0-.37.23.23,0,0,0-.35,0,.24.24,0,0,0,0,.37A.24.24,0,0,0,61.3,72.31Zm-10,4.33a.25.25,0,0,0,0-.38.26.26,0,1,0,0,.38ZM39.73,78.38a.23.23,0,0,0,0,.37.23.23,0,0,0,.35,0,.25.25,0,1,0-.39-.32ZM57.39,73.5a.24.24,0,0,0,0-.39.24.24,0,0,0-.35.07.25.25,0,0,0,0,.36A.24.24,0,0,0,57.39,73.5Zm-13.65,4a.24.24,0,0,0,0-.37.22.22,0,0,0-.35,0,.24.24,0,0,0,0,.38A.25.25,0,0,0,43.74,77.46Zm6.18-2a.27.27,0,1,0,0,.36A.25.25,0,0,0,49.92,75.49ZM37.57,78.92a.22.22,0,0,0,0-.36.23.23,0,0,0-.37,0,.24.24,0,0,0,0,.36A.23.23,0,0,0,37.57,78.92Zm1.61-5.71a.25.25,0,0,0,.07.37.24.24,0,0,0,.35-.06.25.25,0,0,0-.05-.38A.26.26,0,0,0,39.18,73.21Zm-.23,6a.25.25,0,0,0-.38.06.23.23,0,0,0,0,.35.24.24,0,0,0,.36,0A.26.26,0,0,0,39,79.23Zm-.72-3.35a.24.24,0,0,0,0,.35.25.25,0,0,0,.38-.06.24.24,0,0,0,0-.35A.25.25,0,0,0,38.23,75.88Zm19.35-.67a.26.26,0,1,0-.39-.33.26.26,0,0,0,.05.38A.23.23,0,0,0,57.58,75.21ZM35,79.28a.25.25,0,1,0-.38-.33.24.24,0,0,0,0,.38A.24.24,0,0,0,35,79.28Zm7.08-6a.23.23,0,0,0,0-.37.24.24,0,0,0-.35.06.25.25,0,1,0,.4.31Zm-3.66,1.15a.25.25,0,0,0,0-.38.27.27,0,0,0-.35.41A.24.24,0,0,0,38.46,74.46Zm-6.09,3.32a.23.23,0,0,0,0-.35.24.24,0,0,0-.38,0,.24.24,0,0,0,.05.37A.23.23,0,0,0,32.37,77.78ZM51,73.14a.24.24,0,0,0,0-.35.27.27,0,0,0-.34.41C50.74,73.31,50.87,73.28,51,73.14Zm-3.48,3a.26.26,0,1,0-.4-.32.24.24,0,0,0,.06.37A.22.22,0,0,0,47.51,76.18Zm13.9,1a.25.25,0,1,0,.37,0A.24.24,0,0,0,61.41,77.14ZM47.17,72.77a.24.24,0,0,0-.06-.36.23.23,0,0,0-.35.07.22.22,0,0,0,0,.35C46.92,72.94,47.05,72.91,47.17,72.77Zm7.06-1.06a.22.22,0,0,0,.05.33.26.26,0,1,0,.32-.42C54.47,71.53,54.35,71.56,54.23,71.71ZM43.47,74c.09-.13.11-.26,0-.36a.27.27,0,0,0-.36.39A.25.25,0,0,0,43.47,74Zm9.78-3.12c-.09,0-.21-.12-.27,0s-.22.25-.08.4a.23.23,0,0,0,.38,0C53.38,71.12,53.36,71,53.25,70.85ZM42.63,78.13a.26.26,0,0,0-.37,0c-.09.1-.13.25,0,.33a.37.37,0,0,0,.42-.06C42.78,78.35,42.71,78.22,42.63,78.13Z"/><path class="cls-28" d="M40.54,72a1.57,1.57,0,0,1,.88-.51,14.25,14.25,0,0,1,1.95-.25c2.19-.27,4.37-.61,6.57-.79.54,0,1.08-.07,1.61-.11.06,0,.15,0,.16,0s-.06.13-.14.14h-.16c-2.1.1-4.19.39-6.28.66L42,71.55a4.51,4.51,0,0,0-.53.08,1.06,1.06,0,0,0-1,1.22,15.35,15.35,0,0,0,.29,2A15.79,15.79,0,0,1,41,78.16a1,1,0,0,1,0,.24.13.13,0,0,1-.13.08c-.08,0-.07-.07-.06-.12a22.17,22.17,0,0,0-.48-4.67,3.59,3.59,0,0,1,0-1.18A1.69,1.69,0,0,1,40.54,72Z"/><path class="cls-28" d="M41.5,79.29a11.33,11.33,0,0,1,2.83-.42c2.43-.08,4.83-.37,7.24-.61.68-.06,1.37-.09,2.06-.13s.86-.2.92-.91a5.31,5.31,0,0,0-.2-1.43,5.78,5.78,0,0,1-.21-1.3.71.71,0,0,1,0-.21c0-.06.07-.12.14-.1s0,.09,0,.14a3.89,3.89,0,0,0,.08.83s0,.13.08.14h0s0,.06,0,.08h0c-.06.14,0,.27,0,.4.07.37.13.73.2,1.09-.06.11,0,.22,0,.33s0,.23-.06.34a.88.88,0,0,1-.57.69,1.84,1.84,0,0,1-.66.12,41.92,41.92,0,0,0-4.87.42c-1.43.16-2.86.2-4.29.29a13.69,13.69,0,0,0-2.86.4C41.41,79.38,41.49,79.35,41.5,79.29Z"/><path class="cls-27" d="M46,73.73a.24.24,0,0,1-.37,0,.25.25,0,0,1,0-.38.24.24,0,0,1,.35,0A.25.25,0,0,1,46,73.73Z"/><path class="cls-27" d="M50.09,77.28a.26.26,0,0,1,0,.39.26.26,0,0,1-.38-.35A.25.25,0,0,1,50.09,77.28Z"/><path class="cls-27" d="M58.81,73.86a.27.27,0,1,1-.37,0A.26.26,0,0,1,58.81,73.86Z"/><path class="cls-27" d="M58.8,77.7a.25.25,0,0,1,0-.38.24.24,0,0,1,.35,0,.25.25,0,0,1,0,.38A.26.26,0,0,1,58.8,77.7Z"/><path class="cls-27" d="M64.92,70.84a.26.26,0,0,1,0,.4.26.26,0,1,1-.37-.36A.23.23,0,0,1,64.92,70.84Z"/><path class="cls-27" d="M64.13,75.62c-.12.12-.25.16-.38,0a.24.24,0,0,1,0-.35.24.24,0,0,1,.37-.07A.25.25,0,0,1,64.13,75.62Z"/><path class="cls-27" d="M46.2,75.46a.25.25,0,0,1-.37,0,.23.23,0,0,1,0-.35.25.25,0,0,1,.37-.06A.25.25,0,0,1,46.2,75.46Z"/><path class="cls-27" d="M53.66,74.3a.25.25,0,0,1,0,.38.24.24,0,0,1-.35,0,.25.25,0,0,1,0-.38A.25.25,0,0,1,53.66,74.3Z"/><path class="cls-27" d="M47.67,77.61a.25.25,0,0,1,0,.36.23.23,0,0,1-.37,0,.24.24,0,0,1,0-.36A.25.25,0,0,1,47.67,77.61Z"/><path class="cls-27" d="M48.22,74.81a.26.26,0,0,1,.42.32.24.24,0,0,1-.37.05A.25.25,0,0,1,48.22,74.81Z"/><path class="cls-27" d="M58.64,72.13a.25.25,0,0,1,0,.38.26.26,0,1,1-.4-.34A.24.24,0,0,1,58.64,72.13Z"/><path class="cls-27" d="M35.68,73a.25.25,0,0,1-.38,0,.24.24,0,0,1,0-.35.25.25,0,0,1,.37-.06A.25.25,0,0,1,35.68,73Z"/><path class="cls-27" d="M34.69,75.77a.25.25,0,0,1-.37.06.25.25,0,0,1,0-.38.26.26,0,1,1,.4.32Z"/><path class="cls-27" d="M63.18,70.12a.25.25,0,0,1,.36-.05.23.23,0,0,1,.05.37.24.24,0,0,1-.38,0A.25.25,0,0,1,63.18,70.12Z"/><path class="cls-27" d="M39.38,75.25a.25.25,0,0,1,0-.36.24.24,0,0,1,.38,0,.24.24,0,0,1,0,.35A.27.27,0,0,1,39.38,75.25Z"/><path class="cls-27" d="M65.08,72.52a.26.26,0,0,1,0,.38.26.26,0,0,1-.42-.32A.26.26,0,0,1,65.08,72.52Z"/><path class="cls-27" d="M39.91,76.53a.25.25,0,0,1,.05.37.24.24,0,0,1-.37,0,.24.24,0,0,1-.05-.36A.25.25,0,0,1,39.91,76.53Z"/><path class="cls-27" d="M60.33,76.76c-.13.11-.26.14-.38,0a.27.27,0,0,1,.36-.4A.26.26,0,0,1,60.33,76.76Z"/><path class="cls-27" d="M54.5,75.29a.59.59,0,0,1,.06-.14c.08-.15.18-.24.36-.16a.22.22,0,0,1,.12.33.25.25,0,0,1-.4.12s-.06-.08-.13-.07h0c.05,0,0-.06,0-.08Z"/><path class="cls-27" d="M58.93,75.61A.25.25,0,0,1,59,76a.24.24,0,0,1-.37,0,.25.25,0,0,1,0-.36A.25.25,0,0,1,58.93,75.61Z"/><path class="cls-27" d="M57.75,76.64a.25.25,0,0,1,0,.37.24.24,0,0,1-.36,0,.24.24,0,0,1,0-.37A.24.24,0,0,1,57.75,76.64Z"/><path class="cls-27" d="M53.42,76.44a.25.25,0,0,1,0-.36.25.25,0,0,1,.4,0,.25.25,0,0,1,0,.36A.25.25,0,0,1,53.42,76.44Z"/><path class="cls-27" d="M29.7,76a.25.25,0,0,1,0,.39.23.23,0,0,1-.36,0,.25.25,0,0,1,0-.38A.26.26,0,0,1,29.7,76Z"/><path class="cls-27" d="M31.13,78.43a.25.25,0,0,1,0,.37.24.24,0,0,1-.37,0,.27.27,0,0,1,.33-.42Z"/><path class="cls-27" d="M38.2,72.39a.25.25,0,0,1,0,.38.24.24,0,0,1-.36,0,.25.25,0,0,1,0-.38A.26.26,0,0,1,38.2,72.39Z"/><path class="cls-27" d="M37,73.38a.26.26,0,0,1,0,.39.26.26,0,0,1-.39-.35A.25.25,0,0,1,37,73.38Z"/><path class="cls-27" d="M56.25,74.11a.25.25,0,0,1,0,.37.25.25,0,0,1-.36,0,.24.24,0,0,1,0-.37A.25.25,0,0,1,56.25,74.11Z"/><path class="cls-27" d="M53.48,72.55a.26.26,0,0,1,0,.39.24.24,0,0,1-.36,0,.27.27,0,0,1,.32-.43Z"/><path class="cls-27" d="M61.59,75.78a.26.26,0,1,1-.41-.31.25.25,0,0,1,.38,0A.25.25,0,0,1,61.59,75.78Z"/><path class="cls-27" d="M35.52,74.35a.25.25,0,0,1,.36-.06.24.24,0,0,1,0,.38.25.25,0,0,1-.36.06A.26.26,0,0,1,35.52,74.35Z"/><path class="cls-27" d="M52.27,73.92a.26.26,0,0,1-.39,0,.23.23,0,0,1,0-.36.25.25,0,0,1,.36,0C52.38,73.65,52.35,73.79,52.27,73.92Z"/><path class="cls-27" d="M64.29,76.93a.24.24,0,0,1,0,.38.25.25,0,0,1-.36,0,.24.24,0,0,1,0-.36A.24.24,0,0,1,64.29,76.93Z"/><path class="cls-27" d="M63.8,71.77a.24.24,0,0,1,0,.37.24.24,0,0,1-.38,0,.25.25,0,0,1,0-.36A.26.26,0,0,1,63.8,71.77Z"/><path class="cls-27" d="M34.52,74.1a.25.25,0,0,1-.38,0,.23.23,0,0,1,0-.36.25.25,0,0,1,.38,0A.23.23,0,0,1,34.52,74.1Z"/><path class="cls-27" d="M62.6,73.07a.26.26,0,0,1-.37,0,.25.25,0,0,1,0-.38.23.23,0,0,1,.36,0A.26.26,0,0,1,62.6,73.07Z"/><path class="cls-27" d="M52.47,75.62a.27.27,0,0,1-.37,0,.27.27,0,1,1,.34-.41C52.57,75.37,52.54,75.49,52.47,75.62Z"/><path class="cls-27" d="M36.16,77.77a.26.26,0,1,1-.32.42.23.23,0,0,1,0-.35A.24.24,0,0,1,36.16,77.77Z"/><path class="cls-27" d="M44.75,74.73a.25.25,0,0,1-.36,0,.24.24,0,0,1,0-.38.26.26,0,1,1,.38.35Z"/><path class="cls-27" d="M59.39,71.25a.28.28,0,0,1,.38-.06.25.25,0,0,1,0,.38.24.24,0,0,1-.37,0C59.3,71.51,59.32,71.38,59.39,71.25Z"/><path class="cls-27" d="M31.36,80.11a.26.26,0,0,1,0,.36.25.25,0,0,1-.38,0,.23.23,0,0,1,0-.37A.24.24,0,0,1,31.36,80.11Z"/><path class="cls-27" d="M36.81,75.1a.26.26,0,0,1,.38,0,.25.25,0,0,1,0,.36.24.24,0,0,1-.38,0A.25.25,0,0,1,36.81,75.1Z"/><path class="cls-27" d="M37.38,76.75a.27.27,0,0,1,0,.37.26.26,0,1,1-.42-.3A.26.26,0,0,1,37.38,76.75Z"/><path class="cls-27" d="M56.21,77.57a.25.25,0,0,1,.38,0,.24.24,0,0,1,0,.36.25.25,0,0,1-.36,0A.25.25,0,0,1,56.21,77.57Z"/><path class="cls-27" d="M29.91,77.7a.23.23,0,0,1,0,.36.24.24,0,0,1-.38,0,.27.27,0,0,1,.35-.4Z"/><path class="cls-27" d="M49.59,72.47a.25.25,0,0,1-.36.06.24.24,0,0,1,0-.38.24.24,0,0,1,.37,0A.25.25,0,0,1,49.59,72.47Z"/><path class="cls-27" d="M33.1,72.94a.25.25,0,0,1,0,.39.25.25,0,0,1-.38,0,.27.27,0,0,1,.33-.42Z"/><path class="cls-27" d="M56.39,76.23a.24.24,0,0,1-.37,0,.24.24,0,0,1,0-.37.24.24,0,0,1,.36,0A.25.25,0,0,1,56.39,76.23Z"/><path class="cls-27" d="M62.92,76.17c.11.12.15.24,0,.37a.26.26,0,1,1-.42-.3A.26.26,0,0,1,62.92,76.17Z"/><path class="cls-27" d="M65.31,74.62a.26.26,0,0,1-.36,0,.25.25,0,0,1,0-.38.24.24,0,0,1,.38,0A.26.26,0,0,1,65.31,74.62Z"/><path class="cls-27" d="M65.07,76.09a.25.25,0,0,1,.37-.07.26.26,0,0,1-.3.43A.24.24,0,0,1,65.07,76.09Z"/><path class="cls-27" d="M31.06,77.07a.25.25,0,0,1-.37,0,.24.24,0,0,1,0-.36.25.25,0,0,1,.38,0A.26.26,0,0,1,31.06,77.07Z"/><path class="cls-27" d="M33.36,74.65a.27.27,0,0,1,0,.39.24.24,0,0,1-.36,0,.27.27,0,0,1,.33-.42Z"/><path class="cls-27" d="M30.16,79.79c-.15.18-.27.22-.4.12a.24.24,0,0,1-.05-.37.25.25,0,0,1,.38-.05C30.2,79.59,30.22,79.72,30.16,79.79Z"/><path class="cls-27" d="M32.52,79.22a.27.27,0,1,1-.38,0A.25.25,0,0,1,32.52,79.22Z"/><path class="cls-27" d="M33.7,78.49c-.14.12-.27.17-.4.05a.27.27,0,0,1,.35-.4A.26.26,0,0,1,33.7,78.49Z"/><path class="cls-27" d="M34.86,77.11a.27.27,0,0,1,0,.37.24.24,0,0,1-.37,0,.25.25,0,0,1,0-.36A.28.28,0,0,1,34.86,77.11Z"/><path class="cls-27" d="M35.72,76.06a.26.26,0,1,1,.35.37.22.22,0,0,1-.35,0A.25.25,0,0,1,35.72,76.06Z"/><path class="cls-27" d="M44.19,72.73a.24.24,0,0,1,.36-.07.24.24,0,0,1,0,.38.23.23,0,0,1-.35,0A.23.23,0,0,1,44.19,72.73Z"/><path class="cls-27" d="M42.47,76.72a.26.26,0,1,1,0-.38A.26.26,0,0,1,42.47,76.72Z"/><path class="cls-27" d="M48.44,73a.26.26,0,0,1,0,.39.26.26,0,0,1-.38-.35A.27.27,0,0,1,48.44,73Z"/><path class="cls-27" d="M45.13,78.21a.31.31,0,0,1-.38.05.27.27,0,0,1,.34-.42A.26.26,0,0,1,45.13,78.21Z"/><path class="cls-27" d="M52.1,72.24a.25.25,0,0,1-.36,0,.23.23,0,0,1,0-.37.24.24,0,0,1,.37,0A.25.25,0,0,1,52.1,72.24Z"/><path class="cls-27" d="M62.75,74.4a.24.24,0,0,1,0,.36.25.25,0,0,1-.38,0,.24.24,0,0,1,0-.36A.24.24,0,0,1,62.75,74.4Z"/><path class="cls-27" d="M55.7,72.43a.26.26,0,0,1,.38-.06.25.25,0,0,1,0,.38.25.25,0,0,1-.36,0A.25.25,0,0,1,55.7,72.43Z"/><path class="cls-27" d="M54.75,77.19c0-.11-.06-.22,0-.33s.33-.19.46,0a.24.24,0,0,1-.12.36C55,77.33,54.85,77.26,54.75,77.19Z"/><path class="cls-27" d="M60,73.25a.25.25,0,0,1-.38,0,.23.23,0,0,1,0-.35.25.25,0,0,1,.36-.06A.25.25,0,0,1,60,73.25Z"/><path class="cls-27" d="M62.4,71a.26.26,0,0,1,0,.38.23.23,0,0,1-.35.05.24.24,0,0,1,0-.38A.25.25,0,0,1,62.4,71Z"/><path class="cls-27" d="M59.75,74.62a.26.26,0,0,1,.39,0,.24.24,0,0,1,0,.36.23.23,0,0,1-.37,0A.25.25,0,0,1,59.75,74.62Z"/><path class="cls-27" d="M29.6,74.68c-.12.1-.25.16-.39,0a.25.25,0,0,1,0-.36.24.24,0,0,1,.37,0A.27.27,0,0,1,29.6,74.68Z"/><path class="cls-27" d="M30.58,73.24a.27.27,0,0,1-.3.44.23.23,0,0,1-.05-.35A.24.24,0,0,1,30.58,73.24Z"/><path class="cls-27" d="M30.89,75.33a.25.25,0,0,1-.38,0,.24.24,0,0,1,0-.36.25.25,0,0,1,.38,0A.24.24,0,0,1,30.89,75.33Z"/><path class="cls-27" d="M33.5,79.85a.26.26,0,1,1,.39.34.24.24,0,0,1-.36,0A.25.25,0,0,1,33.5,79.85Z"/><path class="cls-27" d="M47.29,74.1a.25.25,0,0,1,0,.39.23.23,0,0,1-.35,0,.25.25,0,0,1,0-.38A.24.24,0,0,1,47.29,74.1Z"/><path class="cls-27" d="M42.25,74.62a.26.26,0,0,1,0,.37.24.24,0,0,1-.37.05.22.22,0,0,1,0-.35A.25.25,0,0,1,42.25,74.62Z"/><path class="cls-27" d="M43.65,75.69a.25.25,0,0,1-.38,0,.23.23,0,0,1,0-.35.24.24,0,0,1,.36-.07A.25.25,0,0,1,43.65,75.69Z"/><path class="cls-27" d="M61.48,74a.25.25,0,0,1-.38,0,.24.24,0,0,1,0-.36.25.25,0,0,1,.38,0A.25.25,0,0,1,61.48,74Z"/><path class="cls-27" d="M64,73.88a.26.26,0,0,1-.38.05.27.27,0,0,1,.34-.41A.25.25,0,0,1,64,73.88Z"/><path class="cls-27" d="M54.42,73.35a.24.24,0,0,1,.36,0,.23.23,0,0,1,0,.37.22.22,0,0,1-.35,0A.24.24,0,0,1,54.42,73.35Z"/><path class="cls-27" d="M61,70.23a.27.27,0,1,1-.33.42.24.24,0,0,1,0-.36A.25.25,0,0,1,61,70.23Z"/><path class="cls-27" d="M33.53,76.38a.26.26,0,0,1,0,.36.23.23,0,0,1-.37.07.25.25,0,0,1,0-.38A.27.27,0,0,1,33.53,76.38Z"/><path class="cls-27" d="M58,70.46a.26.26,0,0,1,.36,0,.25.25,0,0,1,0,.38.24.24,0,0,1-.38,0A.25.25,0,0,1,58,70.46Z"/><path class="cls-27" d="M31.6,74.09c.14-.14.28-.16.4,0a.27.27,0,0,1-.37.38A.25.25,0,0,1,31.6,74.09Z"/><path class="cls-27" d="M55.82,70.66a.25.25,0,0,1,0,.37.24.24,0,0,1-.37.06.23.23,0,0,1,0-.35A.25.25,0,0,1,55.82,70.66Z"/><path class="cls-27" d="M51.11,74.51a.25.25,0,0,1,0,.36.23.23,0,0,1-.37.07.23.23,0,0,1,0-.35A.25.25,0,0,1,51.11,74.51Z"/><path class="cls-27" d="M31.79,75.75a.23.23,0,0,1,.35,0,.23.23,0,0,1,0,.37.24.24,0,0,1-.36,0A.25.25,0,0,1,31.79,75.75Z"/><path class="cls-27" d="M38.36,77.6a.24.24,0,0,1,.36,0,.27.27,0,1,1-.36,0Z"/><path class="cls-27" d="M49.35,73.82a.25.25,0,0,1,.36,0,.25.25,0,0,1,0,.38.24.24,0,0,1-.36,0A.25.25,0,0,1,49.35,73.82Z"/><path class="cls-27" d="M36.06,79.86a.24.24,0,0,1,0-.37.24.24,0,0,1,.36,0,.25.25,0,0,1,0,.38A.23.23,0,0,1,36.06,79.86Z"/><path class="cls-27" d="M46.31,77.2a.25.25,0,0,1-.39,0,.27.27,0,0,1,.36-.39A.24.24,0,0,1,46.31,77.2Z"/><path class="cls-27" d="M57.22,71.84a.26.26,0,1,1-.36-.37.24.24,0,0,1,.36,0A.25.25,0,0,1,57.22,71.84Z"/><path class="cls-27" d="M44.92,76.05a.25.25,0,0,1,0,.38.23.23,0,0,1-.35,0,.24.24,0,0,1,0-.38A.25.25,0,0,1,44.92,76.05Z"/><path class="cls-27" d="M52.64,77.41a.27.27,0,0,1-.39,0,.27.27,0,1,1,.39,0Z"/><path class="cls-27" d="M48.74,76.87a.24.24,0,0,1-.36.06.24.24,0,0,1,0-.38.24.24,0,0,1,.36,0A.23.23,0,0,1,48.74,76.87Z"/><path class="cls-27" d="M61.3,72.31a.24.24,0,0,1-.36,0,.24.24,0,0,1,0-.37.23.23,0,0,1,.35,0A.24.24,0,0,1,61.3,72.31Z"/><path class="cls-27" d="M51.25,76.64a.25.25,0,1,1,0-.38A.25.25,0,0,1,51.25,76.64Z"/><path class="cls-27" d="M39.73,78.38a.25.25,0,1,1,.39.32.23.23,0,0,1-.35,0A.23.23,0,0,1,39.73,78.38Z"/><path class="cls-27" d="M57.39,73.5a.24.24,0,0,1-.36,0,.25.25,0,0,1,0-.36.24.24,0,0,1,.35-.07A.24.24,0,0,1,57.39,73.5Z"/><path class="cls-27" d="M43.74,77.46a.25.25,0,0,1-.37,0,.24.24,0,0,1,0-.38.22.22,0,0,1,.35,0A.24.24,0,0,1,43.74,77.46Z"/><path class="cls-27" d="M49.92,75.49a.27.27,0,1,1-.36,0A.25.25,0,0,1,49.92,75.49Z"/><path class="cls-27" d="M37.57,78.92a.23.23,0,0,1-.36,0,.24.24,0,0,1,0-.36.23.23,0,0,1,.37,0A.22.22,0,0,1,37.57,78.92Z"/><path class="cls-27" d="M39.18,73.21a.26.26,0,0,1,.37-.07.25.25,0,0,1,.05.38.24.24,0,0,1-.35.06A.25.25,0,0,1,39.18,73.21Z"/><path class="cls-27" d="M39,79.23a.26.26,0,0,1,0,.38.24.24,0,0,1-.36,0,.23.23,0,0,1,0-.35A.25.25,0,0,1,39,79.23Z"/><path class="cls-27" d="M38.23,75.88a.25.25,0,0,1,.38-.06.24.24,0,0,1,0,.35.25.25,0,0,1-.38.06A.24.24,0,0,1,38.23,75.88Z"/><path class="cls-27" d="M57.58,75.21a.23.23,0,0,1-.34.05.26.26,0,0,1-.05-.38.26.26,0,1,1,.39.33Z"/><path class="cls-27" d="M35,79.28a.24.24,0,0,1-.35,0,.24.24,0,0,1,0-.38.25.25,0,1,1,.38.33Z"/><path class="cls-27" d="M42.12,73.31a.25.25,0,1,1,0-.37A.23.23,0,0,1,42.12,73.31Z"/><path class="cls-27" d="M38.46,74.46a.24.24,0,0,1-.36,0,.27.27,0,0,1,.35-.41A.25.25,0,0,1,38.46,74.46Z"/><path class="cls-27" d="M32.37,77.78a.23.23,0,0,1-.35.06.24.24,0,0,1-.05-.37.24.24,0,0,1,.38,0A.23.23,0,0,1,32.37,77.78Z"/><path class="cls-27" d="M51,73.14c-.12.14-.25.17-.38.06a.27.27,0,1,1,.38-.06Z"/><path class="cls-27" d="M47.51,76.18a.22.22,0,0,1-.34,0,.24.24,0,0,1-.06-.37.26.26,0,1,1,.4.32Z"/><path class="cls-27" d="M61.41,77.14a.24.24,0,0,1,.37,0,.27.27,0,1,1-.37,0Z"/><path class="cls-27" d="M47.17,72.77c-.12.14-.25.17-.38.06a.22.22,0,0,1,0-.35.23.23,0,0,1,.35-.07A.24.24,0,0,1,47.17,72.77Z"/><path class="cls-27" d="M54.23,71.71c.12-.15.24-.18.37-.09a.26.26,0,1,1-.32.42A.22.22,0,0,1,54.23,71.71Z"/><path class="cls-27" d="M43.47,74a.25.25,0,0,1-.38,0,.27.27,0,0,1,.36-.39C43.58,73.71,43.56,73.84,43.47,74Z"/><path class="cls-27" d="M41.5,79.29c0,.06-.09.09-.06.16a.24.24,0,0,1-.32,0,.24.24,0,0,1-.08-.26.25.25,0,0,1,.3-.2C41.53,79,41.53,79.14,41.5,79.29Z"/><path class="cls-27" d="M53.25,70.85c.11.14.13.27,0,.38a.23.23,0,0,1-.38,0c-.14-.15,0-.28.08-.4S53.16,70.83,53.25,70.85Z"/><path class="cls-27" d="M42.63,78.13c.08.09.15.22,0,.3a.37.37,0,0,1-.42.06c-.12-.08-.08-.23,0-.33A.26.26,0,0,1,42.63,78.13Z"/><path class="cls-29" d="M54.5,75.29s.06,0,0,.08S54.45,75.33,54.5,75.29Z"/><line class="cls-30" x1="61.27" y1="54.12" x2="66.2" y2="59.87"/><line class="cls-30" x1="66.2" y1="54.12" x2="61.27" y2="59.87"/><line class="cls-30" x1="28.84" y1="54.12" x2="33.78" y2="59.87"/><line class="cls-30" x1="33.78" y1="54.12" x2="28.84" y2="59.87"/></svg>