<svg id="Layer_1" data-name="Layer 1" xmlns="http://www.w3.org/2000/svg" viewBox="0 0 95 101"><defs><style>.cls-1{fill:#b2b2b2;}.cls-1,.cls-10,.cls-2,.cls-3,.cls-4,.cls-5{stroke:#1d1d1b;}.cls-1,.cls-10,.cls-2,.cls-4,.cls-5{stroke-linecap:round;stroke-linejoin:round;}.cls-2,.cls-6{fill:#938254;}.cls-11,.cls-3{fill:#b5a271;}.cls-3{stroke-miterlimit:10;}.cls-4,.cls-8{fill:#ad8a58;}.cls-5,.cls-9{fill:#fff;}.cls-7{fill:#1d1d1b;}.cls-10,.cls-12{fill:none;}</style></defs><title>V1Artboard 3 copy 3</title><circle class="cls-1" cx="47.48" cy="47.05" r="46.31"/><path class="cls-2" d="M13.47,52C7,31.09,12.28,20.67,12.28,20.67s16.15.24,22,8.2"/><path class="cls-3" d="M80.43,52C87,31.09,81.62,20.67,81.62,20.67s-16.15.24-22,8.2"/><path class="cls-4" d="M17.89,44.12c-3.24-10.38-.6-15.56-.6-15.56s8,.12,10.9,4.07"/><path class="cls-4" d="M76,44.12c3.24-10.38.6-15.56.6-15.56s-8,.12-10.9,4.07"/><path class="cls-5" d="M47.13,84.83a46.76,46.76,0,0,0,21.56-4.51c4.64-2.26,10-5.25,11.62-10.8A15,15,0,0,0,80,61.09c.17-1.48,4.12-15.83-10.58-28a32.55,32.55,0,0,0-22.2-7.56h-.08a32.57,32.57,0,0,0-22.2,7.56c-14.7,12.18-10.75,26.53-10.58,28A15.05,15.05,0,0,0,14,69.52c1.61,5.55,7,8.54,11.62,10.8a46.78,46.78,0,0,0,21.56,4.51Z"/><path class="cls-6" d="M47.31,25.52h-.18a32.57,32.57,0,0,0-22.2,7.56c-14.7,12.18-10.75,26.53-10.58,28A15.05,15.05,0,0,0,14,69.52a11.64,11.64,0,0,0,.69,1.79C58,69.48,48.78,30.83,47.31,25.52Z"/><ellipse class="cls-7" cx="31.04" cy="58.8" rx="5.03" ry="5.19"/><ellipse class="cls-8" cx="26.97" cy="66.13" rx="3.16" ry="1.78"/><path class="cls-7" d="M50.72,66.81c0,1.16-3.59,2.78-3.59,2.78S43.55,68,43.55,66.81s1.6-2.09,3.58-2.09S50.72,65.66,50.72,66.81Z"/><ellipse class="cls-9" cx="29.08" cy="56.72" rx="0.89" ry="0.92"/><line class="cls-5" x1="20.68" y1="64.56" x2="7.16" y2="63.43"/><line class="cls-5" x1="20.68" y1="68.3" x2="7.16" y2="69.43"/><line class="cls-10" x1="20.72" y1="66.43" x2="11.98" y2="66.43"/><path class="cls-7" d="M47.22,69A2.82,2.82,0,0,1,47,71.12a3.62,3.62,0,0,1-1.48,1.34,5.69,5.69,0,0,1-1.83.82,4.53,4.53,0,0,1-1.94,0,.1.1,0,0,1-.08-.12.11.11,0,0,1,.07-.08h0a4.91,4.91,0,0,0,1.55-.72,7.65,7.65,0,0,0,1.17-1.1c.34-.42.48-1,.91-1.32A5.56,5.56,0,0,1,47,69h0a.14.14,0,0,1,.17.08Z"/><path class="cls-7" d="M47.26,69a5.43,5.43,0,0,1,1.63,1c.43.34.57.9.92,1.32A6.83,6.83,0,0,0,51,72.36a4.75,4.75,0,0,0,1.54.72h0a.1.1,0,0,1,.07.13.1.1,0,0,1-.08.07,4.49,4.49,0,0,1-1.93,0,5.74,5.74,0,0,1-1.84-.82,3.53,3.53,0,0,1-1.47-1.34,2.82,2.82,0,0,1-.2-2.08.13.13,0,0,1,.16-.09h0Z"/><path class="cls-11" d="M47,25.52h.17a32.55,32.55,0,0,1,22.2,7.56c14.7,12.18,10.75,26.53,10.58,28a15,15,0,0,1,.32,8.43,11.64,11.64,0,0,1-.69,1.79C36.37,69.48,45.57,30.83,47,25.52Z"/><path class="cls-10" d="M47.13,84.83a46.76,46.76,0,0,0,21.56-4.51c4.64-2.26,10-5.25,11.62-10.8A15,15,0,0,0,80,61.09c.17-1.48,4.12-15.83-10.58-28a32.55,32.55,0,0,0-22.2-7.56h-.08a32.57,32.57,0,0,0-22.2,7.56c-14.7,12.18-10.75,26.53-10.58,28A15.05,15.05,0,0,0,14,69.52c1.61,5.55,7,8.54,11.62,10.8a46.78,46.78,0,0,0,21.56,4.51Z"/><ellipse class="cls-7" cx="63.34" cy="58.8" rx="5.03" ry="5.19"/><ellipse class="cls-8" cx="67.41" cy="66.13" rx="3.16" ry="1.78"/><line class="cls-5" x1="74.28" y1="64.56" x2="87.8" y2="63.43"/><line class="cls-5" x1="74.28" y1="68.3" x2="87.8" y2="69.43"/><line class="cls-10" x1="74.24" y1="66.43" x2="82.98" y2="66.43"/><ellipse class="cls-9" cx="61.25" cy="56.72" rx="0.89" ry="0.92"/><path d="M58.77,48.86c9.47,2.31,13.38,3.58,13.38,3.58"/><path class="cls-7" d="M58.77,48.86a11.8,11.8,0,0,1,3.65-.31,17.25,17.25,0,0,1,3.45.56,16.56,16.56,0,0,1,3.27,1.22,11.11,11.11,0,0,1,3,2.11,13.29,13.29,0,0,1-3.64.16A20.25,20.25,0,0,1,65.1,52a19.9,19.9,0,0,1-3.26-1.18A13.07,13.07,0,0,1,58.77,48.86Z"/><line x1="35.89" y1="48.43" x2="23.16" y2="50.7"/><path class="cls-7" d="M35.89,48.43a10.79,10.79,0,0,1-3,1.72,16.19,16.19,0,0,1-6.36,1.14,11,11,0,0,1-3.39-.59,10.45,10.45,0,0,1,3-1.73,15.13,15.13,0,0,1,3.12-.88,15.87,15.87,0,0,1,3.24-.25A11,11,0,0,1,35.89,48.43Z"/><rect class="cls-12" y="0.02" width="95" height="101"/></svg>