<svg width="65" height="69" viewBox="0 0 65 69" fill="none" xmlns="http://www.w3.org/2000/svg">
<g clip-path="url(#clip0_236_1151)">
<mask id="mask0_236_1151" style="mask-type:luminance" maskUnits="userSpaceOnUse" x="1" y="0" width="64" height="64">
<path d="M32.7156 63.2883C50.0536 63.2883 64.1089 49.2331 64.1089 31.895C64.1089 14.557 50.0536 0.501709 32.7156 0.501709C15.3775 0.501709 1.32227 14.557 1.32227 31.895C1.32227 49.2331 15.3775 63.2883 32.7156 63.2883Z" fill="white"/>
</mask>
<g mask="url(#mask0_236_1151)">
<path d="M63.9526 53.1877C63.9526 56.4483 63.9526 59.7022 63.9526 62.9561C63.9526 63.4578 63.8374 63.5662 63.3425 63.5662C42.7391 63.5662 22.1424 63.5662 1.55243 63.5662C1.05079 63.5662 0.935547 63.4578 0.935547 62.9561C0.935547 59.7022 0.935547 56.4483 0.935547 53.1877L1.13892 53.0317C1.64056 53.0317 2.13542 53.0317 2.63706 53.0317H62.2579C62.7528 53.0317 63.2544 53.0317 63.7493 53.0317L63.9526 53.1877Z" fill="#E31014"/>
<path d="M0.962891 21.4961V11.1311H63.9529V21.6927H58.1772C58.0093 21.5499 57.7979 21.4682 57.5776 21.4608C57.3573 21.4534 57.1409 21.5208 56.9638 21.652C56.5299 21.652 56.1028 21.652 55.669 21.652H2.46782C2.04074 21.652 1.60689 21.652 1.17304 21.652L0.962891 21.4961Z" fill="#3258A4"/>
<path d="M0.962891 42.626V32.261H63.9529V42.626H63.7495H62.9564H2.56272L1.75603 42.6124H1.55266L0.962891 42.626Z" fill="#FCEA1B"/>
<path d="M0.962891 10.7311C0.962891 7.54495 0.962891 4.35884 0.962891 1.17951C0.962891 0.704988 1.03068 0.549072 1.55944 0.549072C22.1629 0.549072 42.7687 0.549072 63.3767 0.549072C63.9054 0.549072 63.9732 0.704988 63.9732 1.17951C63.9732 4.35884 63.9732 7.54495 63.9732 10.7311H0.962891Z" fill="#702381"/>
<path d="M0.962891 42.626H1.55944C1.62723 42.7209 1.69502 42.7277 1.76281 42.626H2.56272H62.9564H63.7495L63.9529 42.8361V52.8012H0.962891V42.626Z" fill="#F28A1A"/>
<path d="M1.17304 21.6453C1.60689 21.6453 2.04074 21.6453 2.46782 21.6453H55.669C56.1028 21.6453 56.5299 21.6453 56.9638 21.6453C57.1223 21.8063 57.3366 21.9003 57.5624 21.9079C57.7882 21.9155 58.0083 21.836 58.1772 21.6859H63.9529V31.8611H0.962891V21.6927L1.17304 21.6453Z" fill="#0A8137"/>
<path d="M0.962891 52.7876H63.9529V52.991L63.7495 53.0316C63.2546 53.0316 62.753 53.0316 62.2581 53.0316H2.66441C2.16276 53.0316 1.6679 53.0316 1.16626 53.0316L0.962891 52.991V52.7876Z" fill="#EF7C26"/>
<path d="M32.4576 32.3016C57.0551 32.3016 76.9953 32.2378 76.9953 32.1592C76.9953 32.0806 57.0551 32.0168 32.4576 32.0168C7.86012 32.0168 -12.0801 32.0806 -12.0801 32.1592C-12.0801 32.2378 7.86012 32.3016 32.4576 32.3016Z" fill="#DADC30"/>
<path d="M32.4576 32.105C57.0551 32.105 76.9953 32.0413 76.9953 31.9627C76.9953 31.8841 57.0551 31.8203 32.4576 31.8203C7.86012 31.8203 -12.0801 31.8841 -12.0801 31.9627C-12.0801 32.0413 7.86012 32.105 32.4576 32.105Z" fill="#217B34"/>
<path d="M32.4576 11.1717C57.0551 11.1717 76.9953 11.1079 76.9953 11.0293C76.9953 10.9507 57.0551 10.887 32.4576 10.887C7.86012 10.887 -12.0801 10.9507 -12.0801 11.0293C-12.0801 11.1079 7.86012 11.1717 32.4576 11.1717Z" fill="#3B4194"/>
<path d="M32.4576 10.9751C57.0551 10.9751 76.9953 10.9114 76.9953 10.8328C76.9953 10.7542 57.0551 10.6904 32.4576 10.6904C7.86012 10.6904 -12.0801 10.7542 -12.0801 10.8328C-12.0801 10.9114 7.86012 10.9751 32.4576 10.9751Z" fill="#5A2985"/>
<path d="M63.749 53.0315L63.9518 52.991V53.1869L63.749 53.0315Z" fill="#E63913"/>
<path d="M63.9518 42.822L63.749 42.6125H63.9518V42.822Z" fill="#F19507"/>
<path d="M58.1763 21.6927C58.0074 21.8428 57.7873 21.9222 57.5615 21.9146C57.3357 21.9071 57.1214 21.8131 56.9629 21.652C57.14 21.5208 57.3564 21.4534 57.5767 21.4608C57.797 21.4681 58.0084 21.5499 58.1763 21.6927Z" fill="#00774B"/>
<path d="M1.75547 42.6125C1.68789 42.7072 1.62031 42.7004 1.55273 42.6125H1.75547Z" fill="#F19507"/>
</g>
<path d="M32.7156 63.2883C50.0536 63.2883 64.1089 49.2331 64.1089 31.895C64.1089 14.557 50.0536 0.501709 32.7156 0.501709C15.3775 0.501709 1.32227 14.557 1.32227 31.895C1.32227 49.2331 15.3775 63.2883 32.7156 63.2883Z" stroke="#1D1D1B" stroke-width="0.677895" stroke-miterlimit="10"/>
<path d="M9.66682 35.2505C5.24017 21.0622 8.85335 13.9985 8.85335 13.9985C8.85335 13.9985 19.8081 14.1612 23.767 19.5573" fill="#EACE5D"/>
<path d="M9.66682 35.2505C5.24017 21.0622 8.85335 13.9985 8.85335 13.9985C8.85335 13.9985 19.8081 14.1612 23.767 19.5573" stroke="#1D1D1B" stroke-width="0.677895" stroke-linecap="round" stroke-linejoin="round"/>
<path d="M55.0513 35.2505C59.4712 21.0622 55.858 13.9985 55.858 13.9985C55.858 13.9985 44.91 14.1612 40.9443 19.5573" fill="#EACE5D"/>
<path d="M55.0513 35.2505C59.4712 21.0622 55.858 13.9985 55.858 13.9985C55.858 13.9985 44.91 14.1612 40.9443 19.5573" stroke="#1D1D1B" stroke-width="0.677895" stroke-linecap="round" stroke-linejoin="round"/>
<path d="M12.6563 29.9086C10.4599 22.8721 12.2564 19.3606 12.2564 19.3606C12.2564 19.3606 17.6795 19.4419 19.6454 22.1196" fill="#E06BA3"/>
<path d="M12.6563 29.9086C10.4599 22.8721 12.2564 19.3606 12.2564 19.3606C12.2564 19.3606 17.6795 19.4419 19.6454 22.1196" stroke="#1D1D1B" stroke-width="0.677895" stroke-linecap="round" stroke-linejoin="round"/>
<path d="M52.0623 29.9086C54.2587 22.8721 52.4623 19.3606 52.4623 19.3606C52.4623 19.3606 47.0391 19.4419 45.0732 22.1196" fill="#E06BA3"/>
<path d="M52.0623 29.9086C54.2587 22.8721 52.4623 19.3606 52.4623 19.3606C52.4623 19.3606 47.0391 19.4419 45.0732 22.1196" stroke="#1D1D1B" stroke-width="0.677895" stroke-linecap="round" stroke-linejoin="round"/>
<path d="M32.5324 57.5059C37.5871 57.6679 42.6073 56.6197 47.1749 54.4486C50.3136 52.9166 53.9538 50.8897 55.0453 47.1273C55.5207 45.2413 55.4478 43.2587 54.8351 41.4127C54.9436 40.4094 57.628 30.6816 47.6562 22.4316C43.4508 18.9128 38.0859 17.0858 32.6069 17.3068H32.5324C27.0556 17.0868 21.6932 18.9138 17.4899 22.4316C7.51805 30.6884 10.2025 40.4162 10.311 41.4127C9.69871 43.2586 9.62348 45.2404 10.0941 47.1273C11.1855 50.8897 14.8393 52.9166 17.9712 54.4486C22.5302 56.6165 27.5409 57.6646 32.5866 57.5059H32.5324Z" fill="#EACE5D" stroke="#1D1D1B" stroke-width="0.677895" stroke-linecap="round" stroke-linejoin="round"/>
<path d="M32.8434 17.2999H32.7214C27.2424 17.079 21.8775 18.9059 17.6721 22.4248C7.70706 30.6816 10.3847 40.4094 10.5 41.4059C9.88436 43.2511 9.8091 45.2339 10.2831 47.1205C10.4053 47.5372 10.5618 47.943 10.7508 48.3339C40.0698 47.1002 33.8399 20.8995 32.8434 17.2999Z" fill="#F0A642"/>
<path d="M21.5709 43.3786C23.4541 43.3786 24.9808 41.8034 24.9808 39.8603C24.9808 37.9172 23.4541 36.342 21.5709 36.342C19.6878 36.342 18.1611 37.9172 18.1611 39.8603C18.1611 41.8034 19.6878 43.3786 21.5709 43.3786Z" fill="#1D1D1B"/>
<path d="M18.8179 46.0359C20.001 46.0359 20.9601 45.4956 20.9601 44.8292C20.9601 44.1628 20.001 43.6226 18.8179 43.6226C17.6349 43.6226 16.6758 44.1628 16.6758 44.8292C16.6758 45.4956 17.6349 46.0359 18.8179 46.0359Z" fill="#E06BA3"/>
<path d="M43.4733 43.3786C45.3565 43.3786 46.8831 41.8034 46.8831 39.8603C46.8831 37.9172 45.3565 36.342 43.4733 36.342C41.5901 36.342 40.0635 37.9172 40.0635 39.8603C40.0635 41.8034 41.5901 43.3786 43.4733 43.3786Z" fill="#1D1D1B"/>
<path d="M46.2261 46.0359C47.4092 46.0359 48.3683 45.4956 48.3683 44.8292C48.3683 44.1628 47.4092 43.6226 46.2261 43.6226C45.0431 43.6226 44.084 44.1628 44.084 44.8292C44.084 45.4956 45.0431 46.0359 46.2261 46.0359Z" fill="#E06BA3"/>
<path d="M34.9123 45.2901C34.9123 46.0764 32.4854 47.1746 32.4854 47.1746C32.4854 47.1746 30.0518 46.0968 30.0518 45.2901C30.0518 44.4834 31.1432 43.8733 32.4854 43.8733C33.8276 43.8733 34.9123 44.5105 34.9123 45.2901Z" fill="#1D1D1B"/>
<path d="M20.2488 39.0737C20.582 39.0737 20.8522 38.7945 20.8522 38.4501C20.8522 38.1056 20.582 37.8264 20.2488 37.8264C19.9156 37.8264 19.6455 38.1056 19.6455 38.4501C19.6455 38.7945 19.9156 39.0737 20.2488 39.0737Z" fill="white"/>
<path d="M50.8828 43.7648L60.0479 42.9988" stroke="#1D1D1B" stroke-width="0.677895" stroke-linecap="round" stroke-linejoin="round"/>
<path d="M50.8828 46.3003L60.0479 47.0663" stroke="#1D1D1B" stroke-width="0.677895" stroke-linecap="round" stroke-linejoin="round"/>
<path d="M50.8555 45.0325H56.787" stroke="#1D1D1B" stroke-width="0.677895" stroke-linecap="round" stroke-linejoin="round"/>
<path d="M42.0496 39.0737C42.3828 39.0737 42.6529 38.7945 42.6529 38.4501C42.6529 38.1056 42.3828 37.8264 42.0496 37.8264C41.7164 37.8264 41.4463 38.1056 41.4463 38.4501C41.4463 38.7945 41.7164 39.0737 42.0496 39.0737Z" fill="white"/>
<path d="M14.5538 43.7648L5.38184 42.9988" stroke="#1D1D1B" stroke-width="0.677895" stroke-linecap="round" stroke-linejoin="round"/>
<path d="M14.5538 46.3003L5.38184 47.0663" stroke="#1D1D1B" stroke-width="0.677895" stroke-linecap="round" stroke-linejoin="round"/>
<path d="M14.582 45.0325H8.65039" stroke="#1D1D1B" stroke-width="0.677895" stroke-linecap="round" stroke-linejoin="round"/>
<path d="M32.4845 57.5059C37.5302 57.6646 42.5409 56.6165 47.0999 54.4486C50.2385 52.9166 53.8788 50.8897 54.977 47.1273C55.4476 45.2404 55.3724 43.2586 54.7601 41.4127C54.8686 40.4094 57.553 30.6816 47.5812 22.4316C43.3779 18.9138 38.0155 17.0868 32.5387 17.3068H32.4845C27.0055 17.0858 21.6406 18.9128 17.4352 22.4316C7.46339 30.6884 10.1479 40.4162 10.2563 41.4127C9.64368 43.2587 9.57077 45.2413 10.0462 47.1273C11.1308 50.8897 14.7914 52.9166 17.9165 54.4486C22.4779 56.6166 27.4908 57.6647 32.5387 57.5059H32.4845Z" stroke="#1D1D1B" stroke-width="0.677895" stroke-linecap="round" stroke-linejoin="round"/>
<path d="M32.4841 47.1748C31.4977 48.0859 30.1927 48.5728 28.8506 48.5306" stroke="#1D1D1B" stroke-width="0.677895" stroke-linecap="round" stroke-linejoin="round"/>
<path d="M32.5117 47.1748C33.4949 48.0867 34.7982 48.574 36.1385 48.5306" stroke="#1D1D1B" stroke-width="0.677895" stroke-linecap="round" stroke-linejoin="round"/>
<path d="M39.8672 34.4369C40.825 33.7274 41.9926 33.3588 43.1842 33.3895C44.3757 33.4202 45.5227 33.8485 46.4428 34.6063" stroke="#1D1D1B" stroke-width="0.677895" stroke-linecap="round" stroke-linejoin="round"/>
<path d="M17.5371 34.3761C18.5849 33.5739 19.8627 33.1297 21.1821 33.1089C22.5015 33.0882 23.7927 33.492 24.8652 34.2608" stroke="#1D1D1B" stroke-width="0.677895" stroke-linecap="round" stroke-linejoin="round"/>
</g>
<defs>
<clipPath id="clip0_236_1151">
<rect width="64.4" height="68.4674" fill="white" transform="translate(0.400391)"/>
</clipPath>
</defs>
</svg>
