<svg id="Layer_1" data-name="Layer 1" xmlns="http://www.w3.org/2000/svg" viewBox="0 0 95 101"><defs><style>.cls-1{fill:#b2b2b2;}.cls-1,.cls-15,.cls-2,.cls-3,.cls-4,.cls-5,.cls-8{stroke:#1d1d1b;}.cls-1,.cls-15,.cls-2,.cls-4,.cls-5,.cls-8{stroke-linecap:round;stroke-linejoin:round;}.cls-2,.cls-6{fill:#938254;}.cls-3,.cls-9{fill:#b5a271;}.cls-3{stroke-miterlimit:10;}.cls-4,.cls-7{fill:#ad8a58;}.cls-5{fill:#fff;}.cls-11,.cls-8{fill:none;}.cls-10{fill:#1d1d1b;}.cls-12{fill:#fbf6ef;}.cls-13{fill:#121324;}.cls-14{fill:#da9444;}.cls-15{fill:#f5d2a2;}</style></defs><title>V2Artboard 3 copy 7</title><circle class="cls-1" cx="47.48" cy="47.05" r="46.31"/><path class="cls-2" d="M13.47,52C7,31.09,12.28,20.67,12.28,20.67s16.15.24,22,8.2"/><path class="cls-3" d="M80.43,52C87,31.09,81.62,20.67,81.62,20.67s-16.15.24-22,8.2"/><path class="cls-4" d="M17.89,44.12c-3.24-10.38-.6-15.56-.6-15.56s8,.12,10.9,4.07"/><path class="cls-4" d="M76,44.12c3.24-10.38.6-15.56.6-15.56s-8,.12-10.9,4.07"/><path class="cls-5" d="M47.13,84.83a46.76,46.76,0,0,0,21.56-4.51c4.64-2.26,10-5.25,11.62-10.8A15,15,0,0,0,80,61.09c.17-1.48,4.12-15.83-10.58-28a32.55,32.55,0,0,0-22.2-7.56h-.08a32.57,32.57,0,0,0-22.2,7.56c-14.7,12.18-10.75,26.53-10.58,28A15.05,15.05,0,0,0,14,69.52c1.61,5.55,7,8.54,11.62,10.8a46.78,46.78,0,0,0,21.56,4.51Z"/><path class="cls-6" d="M47.31,25.52h-.18a32.57,32.57,0,0,0-22.2,7.56c-14.7,12.18-10.75,26.53-10.58,28A15.05,15.05,0,0,0,14,69.52a11.64,11.64,0,0,0,.69,1.79C58,69.48,48.78,30.83,47.31,25.52Z"/><ellipse class="cls-7" cx="26.97" cy="66.13" rx="3.16" ry="1.78"/><line class="cls-5" x1="20.68" y1="64.56" x2="7.16" y2="63.43"/><line class="cls-5" x1="20.68" y1="68.3" x2="7.16" y2="69.43"/><line class="cls-8" x1="20.72" y1="66.43" x2="11.98" y2="66.43"/><path class="cls-9" d="M47,25.52h.17a32.55,32.55,0,0,1,22.2,7.56c14.7,12.18,10.75,26.53,10.58,28a15,15,0,0,1,.32,8.43,11.64,11.64,0,0,1-.69,1.79C36.37,69.48,45.57,30.83,47,25.52Z"/><path class="cls-8" d="M47.13,84.83a46.76,46.76,0,0,0,21.56-4.51c4.64-2.26,10-5.25,11.62-10.8A15,15,0,0,0,80,61.09c.17-1.48,4.12-15.83-10.58-28a32.55,32.55,0,0,0-22.2-7.56h-.08a32.57,32.57,0,0,0-22.2,7.56c-14.7,12.18-10.75,26.53-10.58,28A15.05,15.05,0,0,0,14,69.52c1.61,5.55,7,8.54,11.62,10.8a46.78,46.78,0,0,0,21.56,4.51Z"/><ellipse class="cls-7" cx="67.41" cy="66.13" rx="3.16" ry="1.78"/><line class="cls-5" x1="74.28" y1="64.56" x2="87.8" y2="63.43"/><line class="cls-5" x1="74.28" y1="68.3" x2="87.8" y2="69.43"/><line class="cls-8" x1="74.24" y1="66.43" x2="82.98" y2="66.43"/><path d="M58.77,48.86c9.47,2.31,13.38,3.58,13.38,3.58"/><path class="cls-10" d="M58.77,48.86a11.8,11.8,0,0,1,3.65-.31,17.25,17.25,0,0,1,3.45.56,16.56,16.56,0,0,1,3.27,1.22,11.11,11.11,0,0,1,3,2.11,13.29,13.29,0,0,1-3.64.16A20.25,20.25,0,0,1,65.1,52a19.9,19.9,0,0,1-3.26-1.18A13.07,13.07,0,0,1,58.77,48.86Z"/><line x1="35.89" y1="48.43" x2="23.16" y2="50.7"/><path class="cls-10" d="M35.89,48.43a10.79,10.79,0,0,1-3,1.72,16.19,16.19,0,0,1-6.36,1.14,11,11,0,0,1-3.39-.59,10.45,10.45,0,0,1,3-1.73,15.13,15.13,0,0,1,3.12-.88,15.87,15.87,0,0,1,3.24-.25A11,11,0,0,1,35.89,48.43Z"/><path class="cls-10" d="M50.66,69.09c0,1.16-3.58,2.78-3.58,2.78s-3.59-1.62-3.59-2.78S45.1,67,47.08,67,50.66,67.94,50.66,69.09Z"/><path class="cls-8" d="M47.08,71.49s-1,4.12-4.85,4.63"/><path class="cls-8" d="M47.08,71.49s1,4.12,4.84,4.63"/><rect class="cls-11" y="0.02" width="95" height="101"/><path class="cls-12" d="M53.22,80.41c3.78-.27,7.53-.82,11.29-1.27a2.54,2.54,0,0,0,1.77-1A4.73,4.73,0,0,0,67,76.94a6.22,6.22,0,0,0-.67-6.64,3.4,3.4,0,0,0-3.74-1.47c-.71.17-1.42.3-2.13.46a20.26,20.26,0,0,1-3.39.41c-1.62.1-3.24.23-4.86.34M41.05,71l-5.32.59-5.48.66a2.39,2.39,0,0,0-2,1.34,10.55,10.55,0,0,0-1,3.56,3.91,3.91,0,0,0,0,1.08,6.73,6.73,0,0,0,1.9,3.66,2.76,2.76,0,0,0,2.28.86,7,7,0,0,0,1.12-.15,40.79,40.79,0,0,1,4.25-.8c1.8-.18,3.59-.39,5.39-.55"/><path class="cls-13" d="M52.23,70c1.62-.11,3.24-.24,4.86-.34a20.26,20.26,0,0,0,3.39-.41c.71-.16,1.42-.29,2.13-.46a3.4,3.4,0,0,1,3.74,1.47A6.22,6.22,0,0,1,67,76.94a4.73,4.73,0,0,1-.74,1.25,2.54,2.54,0,0,1-1.77,1c-3.76.45-7.51,1-11.29,1.27l-11,.88c-1.8.16-3.59.37-5.39.55a40.79,40.79,0,0,0-4.25.8,7,7,0,0,1-1.12.15,2.76,2.76,0,0,1-2.28-.86,6.73,6.73,0,0,1-1.9-3.66,3.91,3.91,0,0,1,0-1.08,10.55,10.55,0,0,1,1-3.56,2.39,2.39,0,0,1,2-1.34l5.48-.66L41.05,71Zm13-.57a2,2,0,0,0-1.5-.55,7.38,7.38,0,0,0-1.32.13c-1.09.2-2.17.49-3.27.61-1.64.19-3.29.3-4.94.41-4.42.29-8.83.62-13.24,1.12-2.87.33-5.74.64-8.61,1-.83.1-1.66.13-2.48.31a1.83,1.83,0,0,0-1.34,1,10.14,10.14,0,0,0-1,3.88,6,6,0,0,0,1.7,4.15,3,3,0,0,0,2.91,1c.24,0,.48-.07.72-.12,1.19-.27,2.38-.53,3.59-.7,3.23-.44,6.48-.72,9.73-1,6.16-.45,12.31-1,18.42-1.86a2.43,2.43,0,0,0,1.83-1,6.68,6.68,0,0,0,1.13-4.29A6.34,6.34,0,0,0,65.18,69.47Z"/><path class="cls-14" d="M65.18,69.47a6.34,6.34,0,0,1,2.29,4.16,6.68,6.68,0,0,1-1.13,4.29,2.43,2.43,0,0,1-1.83,1c-6.11.89-12.26,1.41-18.42,1.86-3.25.23-6.5.51-9.73,1-1.21.17-2.4.43-3.59.7-.24,0-.48.08-.72.12a3,3,0,0,1-2.91-1,6,6,0,0,1-1.7-4.15,10.14,10.14,0,0,1,1-3.88,1.83,1.83,0,0,1,1.34-1c.82-.18,1.65-.21,2.48-.31,2.87-.36,5.74-.67,8.61-1,4.41-.5,8.82-.83,13.24-1.12,1.65-.11,3.3-.22,4.94-.41,1.1-.12,2.18-.41,3.27-.61a7.38,7.38,0,0,1,1.32-.13A2,2,0,0,1,65.18,69.47ZM54.5,76.12c-.09,0-.07-.09-.08-.14a3.89,3.89,0,0,1-.08-.83c0-.05,0-.12,0-.14s-.12,0-.14.1a.75.75,0,0,0,0,.21,5.78,5.78,0,0,0,.21,1.3,5.31,5.31,0,0,1,.2,1.43c-.06.71-.22.86-.92.91s-1.38.07-2.06.13c-2.41.24-4.81.53-7.24.61a11.33,11.33,0,0,0-2.83.42c0-.15,0-.28-.16-.31a.25.25,0,0,0-.3.2.26.26,0,0,0,.4.27,13.69,13.69,0,0,1,2.86-.4c1.43-.08,2.86-.13,4.29-.29a39.82,39.82,0,0,1,4.87-.41,1.85,1.85,0,0,0,.66-.13.86.86,0,0,0,.57-.69c0-.11,0-.23.06-.34a.28.28,0,0,0,.34.06.24.24,0,0,0,.12-.36c-.13-.22-.3-.14-.46,0-.07-.36-.13-.72-.2-1.08,0-.14-.1-.27,0-.41s.09,0,.13.08a.26.26,0,0,0,.4-.12.23.23,0,0,0-.12-.34c-.18-.08-.28,0-.36.16A1.47,1.47,0,0,0,54.5,76.12Zm-14-3.32a1.79,1.79,0,0,0-.23.54,3.59,3.59,0,0,0,0,1.18,22.17,22.17,0,0,1,.48,4.67s0,.11.06.12a.13.13,0,0,0,.13-.08A1,1,0,0,0,41,79a15.79,15.79,0,0,0-.29-3.29,15.35,15.35,0,0,1-.29-2,1.06,1.06,0,0,1,1-1.22,4.51,4.51,0,0,1,.53-.08L45.13,72c2.09-.27,4.18-.56,6.28-.66h.16c.08,0,.16,0,.14-.13s-.1-.06-.16,0c-.53,0-1.07,0-1.61.1-2.2.18-4.38.52-6.57.79a16,16,0,0,0-1.95.25A1.57,1.57,0,0,0,40.54,72.8ZM46,74.56a.25.25,0,0,0,0-.38.24.24,0,0,0-.35,0,.25.25,0,0,0,0,.38A.24.24,0,0,0,46,74.56Zm4.06,3.55a.26.26,0,0,0-.37,0,.25.25,0,0,0,0,.38.24.24,0,0,0,.35,0A.26.26,0,0,0,50.09,78.11Zm8.72-3.42a.26.26,0,0,0-.37,0,.26.26,0,1,0,.37,0Zm0,3.84a.26.26,0,0,0,.38,0,.24.24,0,0,0,0-.37.23.23,0,0,0-.35,0A.25.25,0,0,0,58.8,78.53Zm6.12-6.86a.23.23,0,0,0-.34,0,.26.26,0,1,0,.37.36A.26.26,0,0,0,64.92,71.67Zm-.79,4.78a.25.25,0,0,0-.06-.37.24.24,0,0,0-.37.07.24.24,0,0,0,0,.35C63.88,76.61,64,76.57,64.13,76.45ZM46.2,76.29a.25.25,0,0,0,0-.38.25.25,0,0,0-.37.06.24.24,0,0,0,0,.36A.26.26,0,0,0,46.2,76.29Zm7.46-1.16a.27.27,0,0,0-.33.42.24.24,0,0,0,.35,0A.25.25,0,0,0,53.66,75.13Zm-6,3.31a.25.25,0,0,0-.38,0,.24.24,0,0,0,0,.36.23.23,0,0,0,.37,0A.25.25,0,0,0,47.67,78.44Zm.55-2.8a.25.25,0,0,0,.05.37.24.24,0,0,0,.37-.05.26.26,0,0,0-.42-.32ZM58.64,73a.24.24,0,0,0-.37.05.24.24,0,0,0,0,.37.27.27,0,0,0,.33-.42Zm-23,.85a.25.25,0,0,0,0-.38.25.25,0,0,0-.37.06.24.24,0,0,0,0,.35A.25.25,0,0,0,35.68,73.81Zm-1,2.79a.26.26,0,1,0-.4-.32.25.25,0,0,0,0,.38A.25.25,0,0,0,34.69,76.6ZM63.18,71a.25.25,0,0,0,0,.36.24.24,0,0,0,.38,0,.23.23,0,0,0-.05-.37A.25.25,0,0,0,63.18,71Zm-23.8,5.13a.27.27,0,0,0,.39,0,.25.25,0,0,0,0-.36.24.24,0,0,0-.38,0A.25.25,0,0,0,39.38,76.08Zm25.7-2.73a.25.25,0,0,0-.37.07.24.24,0,0,0,0,.35.25.25,0,0,0,.38,0A.26.26,0,0,0,65.08,73.35Zm-25.17,4a.25.25,0,0,0-.37.07.23.23,0,0,0,.05.35.24.24,0,0,0,.37,0A.25.25,0,0,0,39.91,77.36Zm20.42.24a.27.27,0,0,0,0-.39.27.27,0,0,0-.36.4C60.07,77.73,60.2,77.7,60.33,77.6Zm-1.4-1.16a.25.25,0,0,0-.38,0,.25.25,0,0,0,0,.36.24.24,0,0,0,.37,0A.25.25,0,0,0,58.93,76.44Zm-1.18,1a.24.24,0,0,0-.38,0,.24.24,0,0,0,0,.37.24.24,0,0,0,.36,0A.25.25,0,0,0,57.75,77.47Zm-4.33-.2a.25.25,0,0,0,.38,0,.25.25,0,0,0,0-.36.25.25,0,0,0-.4,0A.25.25,0,0,0,53.42,77.27ZM29.7,76.81a.25.25,0,0,0-.35,0,.25.25,0,0,0,0,.38.24.24,0,0,0,.36,0A.25.25,0,0,0,29.7,76.81Zm1.43,2.45a.27.27,0,0,0-.33.42.24.24,0,0,0,.37-.05A.25.25,0,0,0,31.13,79.26Zm7.07-6a.26.26,0,0,0-.37,0,.25.25,0,0,0,0,.38.24.24,0,0,0,.36,0A.25.25,0,0,0,38.2,73.22Zm-1.17,1a.25.25,0,0,0-.38,0,.26.26,0,0,0,.39.35A.25.25,0,0,0,37,74.22Zm19.22.72a.27.27,0,0,0-.33.43.26.26,0,0,0,.36-.05A.26.26,0,0,0,56.25,74.94Zm-2.77-1.56a.24.24,0,0,0-.35.05.26.26,0,0,0,0,.39.25.25,0,0,0,.36,0A.26.26,0,0,0,53.48,73.38Zm8.11,3.23a.25.25,0,0,0,0-.36.25.25,0,0,0-.38,0,.26.26,0,1,0,.41.31ZM35.52,75.18a.26.26,0,0,0,0,.38.27.27,0,0,0,.31-.44A.25.25,0,0,0,35.52,75.18Zm16.75-.43c.08-.13.11-.27,0-.38a.24.24,0,0,0-.36,0,.23.23,0,0,0,0,.36A.26.26,0,0,0,52.27,74.75Zm12,3a.24.24,0,0,0-.37.07.23.23,0,0,0,0,.35.25.25,0,0,0,.36,0A.24.24,0,0,0,64.29,77.76ZM63.8,72.6a.26.26,0,0,0-.37.06.25.25,0,0,0,0,.36.25.25,0,0,0,.38,0A.26.26,0,0,0,63.8,72.6ZM34.52,74.94c.09-.13.11-.25,0-.36a.24.24,0,0,0-.38,0,.23.23,0,0,0,0,.36A.26.26,0,0,0,34.52,74.94Zm28.08-1a.26.26,0,0,0,0-.38.24.24,0,0,0-.36,0,.25.25,0,0,0,0,.38A.26.26,0,0,0,62.6,73.9ZM52.47,76.45c.07-.13.1-.25,0-.36a.27.27,0,1,0-.34.41A.27.27,0,0,0,52.47,76.45ZM36.16,78.6a.24.24,0,0,0-.36.07.25.25,0,0,0,0,.36.26.26,0,0,0,.38-.06A.25.25,0,0,0,36.16,78.6Zm8.59-3c.1-.14.12-.28,0-.39a.27.27,0,0,0-.34.42A.26.26,0,0,0,44.75,75.57Zm14.64-3.48a.24.24,0,0,0,0,.35.27.27,0,0,0,.34-.41C59.63,71.92,59.5,72,59.39,72.09Zm-28,8.85A.24.24,0,0,0,31,81a.23.23,0,0,0,0,.37.24.24,0,0,0,.38,0A.26.26,0,0,0,31.36,80.94Zm5.45-5a.27.27,0,0,0,0,.37.27.27,0,0,0,.35-.41A.26.26,0,0,0,36.81,75.93Zm.57,1.66a.26.26,0,0,0-.38.06.26.26,0,1,0,.42.3A.25.25,0,0,0,37.38,77.59Zm18.83.81c-.09.14-.1.28,0,.38a.25.25,0,0,0,.36,0,.24.24,0,0,0,0-.36A.25.25,0,0,0,56.21,78.4Zm-26.3.13a.27.27,0,0,0-.35.41.25.25,0,0,0,.38,0A.23.23,0,0,0,29.91,78.53ZM49.59,73.3a.25.25,0,0,0,0-.36.24.24,0,0,0-.37,0,.24.24,0,0,0,0,.38A.25.25,0,0,0,49.59,73.3Zm-16.49.47a.27.27,0,0,0-.33.42.25.25,0,0,0,.38,0A.25.25,0,0,0,33.1,73.77Zm23.29,3.29a.25.25,0,0,0,0-.38.24.24,0,0,0-.36,0,.24.24,0,0,0,0,.37A.24.24,0,0,0,56.39,77.06ZM62.92,77a.26.26,0,0,0-.37.08.23.23,0,0,0,.05.35.24.24,0,0,0,.37-.06C63.07,77.24,63,77.12,62.92,77Zm2.39-1.55a.26.26,0,0,0,0-.37.24.24,0,0,0-.38,0,.25.25,0,0,0,0,.38A.26.26,0,0,0,65.31,75.45Zm-.24,1.48a.23.23,0,0,0,.07.35.26.26,0,0,0,.3-.43C65.32,76.76,65.19,76.78,65.07,76.93Zm-34,1a.26.26,0,0,0,0-.37.25.25,0,0,0-.38,0,.26.26,0,0,0,.41.33Zm2.3-2.42a.27.27,0,0,0-.33.42.24.24,0,0,0,.36,0A.27.27,0,0,0,33.36,75.48Zm-3.2,5.14c.06-.07,0-.2-.07-.3a.25.25,0,0,0-.38.05.24.24,0,0,0,.05.37C29.89,80.84,30,80.8,30.16,80.62Zm2.36-.57a.25.25,0,0,0-.38,0,.26.26,0,1,0,.38,0Zm1.18-.73a.26.26,0,0,0-.05-.35.27.27,0,0,0-.35.4C33.43,79.49,33.56,79.44,33.7,79.32Zm1.16-1.38a.28.28,0,0,0-.39,0,.25.25,0,0,0,0,.36.24.24,0,0,0,.37,0A.27.27,0,0,0,34.86,77.94Zm.86-1a.25.25,0,0,0,0,.38.23.23,0,0,0,.35,0,.26.26,0,1,0-.35-.38Zm8.47-3.33a.24.24,0,0,0,.05.37.24.24,0,0,0,.35-.06.24.24,0,0,0,0-.38A.24.24,0,0,0,44.19,73.56Zm-1.72,4a.26.26,0,0,0,0-.38.27.27,0,1,0,0,.38Zm6-3.69a.26.26,0,0,0-.38,0,.23.23,0,0,0,0,.35.24.24,0,0,0,.36,0A.26.26,0,0,0,48.44,73.86ZM45.13,79a.24.24,0,0,0,0-.36.23.23,0,0,0-.37,0,.24.24,0,0,0,0,.36A.31.31,0,0,0,45.13,79Zm7-6a.25.25,0,0,0,0-.37.24.24,0,0,0-.37,0,.24.24,0,0,0,0,.38A.26.26,0,0,0,52.1,73.07Zm10.65,2.16a.24.24,0,0,0-.37,0,.24.24,0,0,0,0,.36.25.25,0,0,0,.38,0A.24.24,0,0,0,62.75,75.23Zm-7-2a.25.25,0,0,0,0,.37.25.25,0,0,0,.36,0,.25.25,0,0,0,0-.38A.26.26,0,0,0,55.7,73.26Zm4.27.82a.25.25,0,0,0,0-.38.25.25,0,0,0-.36.06.23.23,0,0,0,0,.35A.25.25,0,0,0,60,74.08Zm2.43-2.25a.25.25,0,0,0-.36,0,.24.24,0,0,0,0,.38.23.23,0,0,0,.35-.05A.26.26,0,0,0,62.4,71.83Zm-2.65,3.63a.25.25,0,0,0,0,.36.27.27,0,0,0,.36-.39C60,75.31,59.88,75.34,59.75,75.46Zm-30.15.05a.25.25,0,0,0-.05-.36.23.23,0,0,0-.37,0,.25.25,0,0,0,0,.36C29.35,75.67,29.48,75.62,29.6,75.51Zm1-1.44a.24.24,0,0,0-.35.09.23.23,0,0,0,.05.35.24.24,0,0,0,.37-.06A.25.25,0,0,0,30.58,74.07Zm.31,2.1a.25.25,0,0,0,0-.37.25.25,0,0,0-.38,0,.24.24,0,0,0,0,.36A.25.25,0,0,0,30.89,76.17Zm2.61,4.51a.25.25,0,0,0,0,.37.23.23,0,0,0,.36,0,.26.26,0,1,0-.39-.34Zm13.79-5.75a.25.25,0,0,0-.35,0,.25.25,0,0,0,0,.38.23.23,0,0,0,.35,0A.25.25,0,0,0,47.29,74.93Zm-5,.52a.25.25,0,0,0-.37.07.22.22,0,0,0,0,.35.23.23,0,0,0,.37-.05A.26.26,0,0,0,42.25,75.45Zm1.4,1.07a.26.26,0,1,0-.42-.3.23.23,0,0,0,0,.35A.25.25,0,0,0,43.65,76.52Zm17.83-1.65a.25.25,0,0,0,0-.36.25.25,0,0,0-.38,0,.24.24,0,0,0,0,.36A.25.25,0,0,0,61.48,74.87ZM64,74.71a.25.25,0,0,0,0-.36.27.27,0,0,0-.34.41A.26.26,0,0,0,64,74.71Zm-9.59-.53a.24.24,0,0,0,0,.37.22.22,0,0,0,.35,0,.23.23,0,0,0,0-.37A.24.24,0,0,0,54.42,74.18ZM61,71.07a.24.24,0,0,0-.37.05.24.24,0,0,0,0,.36.25.25,0,0,0,.38,0A.23.23,0,0,0,61,71.07ZM33.53,77.21a.27.27,0,0,0-.36.05.25.25,0,0,0,0,.38.24.24,0,0,0,.37-.06A.27.27,0,0,0,33.53,77.21ZM58,71.29c-.08.13-.11.25,0,.36a.24.24,0,0,0,.38,0,.24.24,0,0,0,0-.37A.25.25,0,0,0,58,71.29ZM31.6,74.92a.25.25,0,0,0,0,.34.27.27,0,0,0,.37-.38C31.88,74.76,31.74,74.78,31.6,74.92Zm24.22-3.43a.25.25,0,0,0-.36.08.23.23,0,0,0,0,.35.24.24,0,0,0,.37-.06A.25.25,0,0,0,55.82,71.49Zm-4.71,3.85a.25.25,0,0,0-.37.08.25.25,0,1,0,.42.28A.25.25,0,0,0,51.11,75.34ZM31.79,76.58a.25.25,0,0,0,0,.38.24.24,0,0,0,.36,0,.23.23,0,0,0,0-.37A.23.23,0,0,0,31.79,76.58Zm6.57,1.85a.26.26,0,1,0,.36,0A.24.24,0,0,0,38.36,78.43Zm11-3.78a.25.25,0,0,0,0,.38.24.24,0,0,0,.36,0,.25.25,0,0,0,0-.38A.25.25,0,0,0,49.35,74.65Zm-13.29,6a.24.24,0,0,0,.36,0,.25.25,0,0,0,0-.38.24.24,0,0,0-.36,0A.25.25,0,0,0,36.06,80.7ZM46.31,78a.25.25,0,0,0,0-.38.27.27,0,0,0-.36.39A.26.26,0,0,0,46.31,78Zm10.91-5.37a.25.25,0,0,0,0-.38.24.24,0,0,0-.36,0,.26.26,0,1,0,.36.37Zm-12.3,4.21a.25.25,0,0,0-.36,0,.24.24,0,0,0,0,.38.23.23,0,0,0,.35,0A.25.25,0,0,0,44.92,76.88Zm7.72,1.36a.26.26,0,1,0-.39,0A.27.27,0,0,0,52.64,78.24Zm-3.9-.53a.24.24,0,0,0,0-.37.26.26,0,0,0-.32.42A.25.25,0,0,0,48.74,77.71ZM61.3,73.14a.24.24,0,0,0,0-.37.23.23,0,0,0-.35,0,.24.24,0,0,0,0,.37A.24.24,0,0,0,61.3,73.14Zm-10,4.33a.25.25,0,0,0,0-.38.26.26,0,1,0,0,.38ZM39.73,79.21a.23.23,0,0,0,0,.37.22.22,0,0,0,.35,0,.25.25,0,1,0-.39-.32Zm17.66-4.88a.23.23,0,0,0,0-.38A.23.23,0,0,0,57,74a.25.25,0,0,0,0,.36A.24.24,0,0,0,57.39,74.33Zm-13.65,4a.24.24,0,0,0,0-.37.22.22,0,0,0-.35,0,.24.24,0,0,0,0,.38A.24.24,0,0,0,43.74,78.29Zm6.18-2a.27.27,0,0,0-.35.41.24.24,0,0,0,.37,0A.25.25,0,0,0,49.92,76.32ZM37.57,79.75a.22.22,0,0,0,0-.36.23.23,0,0,0-.37,0,.24.24,0,0,0,0,.36A.23.23,0,0,0,37.57,79.75ZM39.18,74a.25.25,0,0,0,.07.37.24.24,0,0,0,.35-.06.25.25,0,0,0-.05-.38A.26.26,0,0,0,39.18,74Zm-.23,6a.26.26,0,0,0-.38.06.23.23,0,0,0,0,.35.24.24,0,0,0,.36,0A.26.26,0,0,0,39,80.06Zm-.72-3.35a.24.24,0,0,0,0,.35.27.27,0,1,0,0-.35ZM57.58,76a.26.26,0,1,0-.39-.33.25.25,0,0,0,.05.38A.22.22,0,0,0,57.58,76ZM35,80.11a.25.25,0,1,0-.38-.33.24.24,0,0,0,0,.38A.23.23,0,0,0,35,80.11Zm7.08-6a.26.26,0,1,0-.35.06A.24.24,0,0,0,42.12,74.15Zm-3.66,1.14a.25.25,0,0,0,0-.38.27.27,0,0,0-.35.41A.24.24,0,0,0,38.46,75.29Zm-6.09,3.32a.23.23,0,0,0,0-.35.24.24,0,0,0-.38,0,.24.24,0,0,0,.05.37A.23.23,0,0,0,32.37,78.61ZM51,74a.25.25,0,1,0-.41-.29.23.23,0,0,0,0,.35C50.74,74.14,50.87,74.11,51,74Zm-3.48,3a.24.24,0,0,0,0-.38.24.24,0,0,0-.36.06.24.24,0,0,0,.06.37A.22.22,0,0,0,47.51,77Zm13.9,1a.25.25,0,1,0,.37,0A.24.24,0,0,0,61.41,78ZM47.17,73.6a.24.24,0,0,0-.06-.36.23.23,0,0,0-.35.07.22.22,0,0,0,0,.35C46.92,73.77,47.05,73.74,47.17,73.6Zm7.06-1.06a.22.22,0,0,0,.05.33.23.23,0,0,0,.37-.05.24.24,0,0,0,0-.37C54.47,72.36,54.35,72.39,54.23,72.54ZM43.47,74.8c.09-.13.11-.26,0-.36a.27.27,0,0,0-.36.39A.25.25,0,0,0,43.47,74.8Zm9.78-3.12c-.09,0-.21-.11-.27,0s-.22.25-.08.4a.23.23,0,0,0,.38,0C53.38,72,53.36,71.82,53.25,71.68ZM42.63,79a.25.25,0,0,0-.37,0c-.09.1-.13.25,0,.33a.37.37,0,0,0,.42-.06C42.78,79.19,42.71,79.05,42.63,79Z"/><path class="cls-13" d="M40.54,72.8a1.57,1.57,0,0,1,.88-.51A16,16,0,0,1,43.37,72c2.19-.27,4.37-.61,6.57-.79.54,0,1.08-.07,1.61-.1.06,0,.15,0,.16,0s-.06.12-.14.13h-.16c-2.1.1-4.19.39-6.28.66L42,72.38a4.51,4.51,0,0,0-.53.08,1.06,1.06,0,0,0-1,1.22,15.35,15.35,0,0,0,.29,2A15.79,15.79,0,0,1,41,79a1,1,0,0,1,0,.24.13.13,0,0,1-.13.08c-.08,0-.07-.07-.06-.12a22.17,22.17,0,0,0-.48-4.67,3.59,3.59,0,0,1,0-1.18A1.79,1.79,0,0,1,40.54,72.8Z"/><path class="cls-13" d="M41.5,80.12a11.33,11.33,0,0,1,2.83-.42c2.43-.08,4.83-.37,7.24-.61.68-.06,1.37-.09,2.06-.13s.86-.2.92-.91a5.31,5.31,0,0,0-.2-1.43,5.78,5.78,0,0,1-.21-1.3.75.75,0,0,1,0-.21c0-.06.07-.12.14-.1s0,.09,0,.14a3.89,3.89,0,0,0,.08.83s0,.13.08.14h0s0,.06,0,.08h0c-.06.14,0,.27,0,.41.07.36.13.72.2,1.08-.06.11,0,.22,0,.33s0,.23-.06.34a.86.86,0,0,1-.57.69,1.85,1.85,0,0,1-.66.13,39.82,39.82,0,0,0-4.87.41c-1.43.16-2.86.21-4.29.29a13.69,13.69,0,0,0-2.86.4C41.41,80.21,41.49,80.18,41.5,80.12Z"/><path class="cls-12" d="M46,74.56a.24.24,0,0,1-.37,0,.25.25,0,0,1,0-.38.24.24,0,0,1,.35,0A.25.25,0,0,1,46,74.56Z"/><path class="cls-12" d="M50.09,78.11a.26.26,0,0,1,0,.39.24.24,0,0,1-.35,0,.25.25,0,0,1,0-.38A.26.26,0,0,1,50.09,78.11Z"/><path class="cls-12" d="M58.81,74.69a.27.27,0,1,1-.37,0A.26.26,0,0,1,58.81,74.69Z"/><path class="cls-12" d="M58.8,78.53a.25.25,0,0,1,0-.38.23.23,0,0,1,.35,0,.24.24,0,0,1,0,.37A.26.26,0,0,1,58.8,78.53Z"/><path class="cls-12" d="M64.92,71.67a.26.26,0,0,1,0,.4.26.26,0,1,1-.37-.36A.23.23,0,0,1,64.92,71.67Z"/><path class="cls-12" d="M64.13,76.45c-.12.12-.25.16-.38,0a.24.24,0,0,1,0-.35.24.24,0,0,1,.37-.07A.25.25,0,0,1,64.13,76.45Z"/><path class="cls-12" d="M46.2,76.29a.26.26,0,0,1-.37,0,.24.24,0,0,1,0-.36.25.25,0,0,1,.37-.06A.25.25,0,0,1,46.2,76.29Z"/><path class="cls-12" d="M53.66,75.13a.25.25,0,0,1,0,.38.24.24,0,0,1-.35,0,.27.27,0,0,1,.33-.42Z"/><path class="cls-12" d="M47.67,78.44a.25.25,0,0,1,0,.36.23.23,0,0,1-.37,0,.24.24,0,0,1,0-.36A.25.25,0,0,1,47.67,78.44Z"/><path class="cls-12" d="M48.22,75.64a.26.26,0,0,1,.42.32.24.24,0,0,1-.37.05A.25.25,0,0,1,48.22,75.64Z"/><path class="cls-12" d="M58.64,73a.27.27,0,0,1-.33.42.24.24,0,0,1,0-.37A.24.24,0,0,1,58.64,73Z"/><path class="cls-12" d="M35.68,73.81a.25.25,0,0,1-.38,0,.24.24,0,0,1,0-.35.25.25,0,0,1,.37-.06A.25.25,0,0,1,35.68,73.81Z"/><path class="cls-12" d="M34.69,76.6a.25.25,0,0,1-.37.06.25.25,0,0,1,0-.38.26.26,0,1,1,.4.32Z"/><path class="cls-12" d="M63.18,71a.25.25,0,0,1,.36,0,.23.23,0,0,1,.05.37.24.24,0,0,1-.38,0A.25.25,0,0,1,63.18,71Z"/><path class="cls-12" d="M39.38,76.08a.25.25,0,0,1,0-.36.24.24,0,0,1,.38,0,.25.25,0,0,1,0,.36A.27.27,0,0,1,39.38,76.08Z"/><path class="cls-12" d="M65.08,73.35a.26.26,0,0,1,0,.38.25.25,0,0,1-.38,0,.24.24,0,0,1,0-.35A.25.25,0,0,1,65.08,73.35Z"/><path class="cls-12" d="M39.91,77.36a.25.25,0,0,1,.05.37.24.24,0,0,1-.37,0,.23.23,0,0,1-.05-.35A.25.25,0,0,1,39.91,77.36Z"/><path class="cls-12" d="M60.33,77.6c-.13.1-.26.13-.38,0a.27.27,0,0,1,.36-.4A.27.27,0,0,1,60.33,77.6Z"/><path class="cls-12" d="M54.5,76.12a1.47,1.47,0,0,1,.06-.14c.08-.15.18-.24.36-.16a.23.23,0,0,1,.12.34.26.26,0,0,1-.4.12s-.06-.09-.13-.08h0c.05,0,0-.06,0-.08Z"/><path class="cls-12" d="M58.93,76.44a.25.25,0,0,1,0,.37.24.24,0,0,1-.37,0,.25.25,0,0,1,0-.36A.25.25,0,0,1,58.93,76.44Z"/><path class="cls-12" d="M57.75,77.47a.25.25,0,0,1,0,.37.24.24,0,0,1-.36,0,.24.24,0,0,1,0-.37A.24.24,0,0,1,57.75,77.47Z"/><path class="cls-12" d="M53.42,77.27a.25.25,0,0,1,0-.36.25.25,0,0,1,.4,0,.25.25,0,0,1,0,.36A.25.25,0,0,1,53.42,77.27Z"/><path class="cls-12" d="M29.7,76.81a.25.25,0,0,1,0,.39.24.24,0,0,1-.36,0,.25.25,0,0,1,0-.38A.25.25,0,0,1,29.7,76.81Z"/><path class="cls-12" d="M31.13,79.26a.25.25,0,0,1,0,.37.24.24,0,0,1-.37.05.27.27,0,0,1,.33-.42Z"/><path class="cls-12" d="M38.2,73.22a.25.25,0,0,1,0,.38.24.24,0,0,1-.36,0,.25.25,0,0,1,0-.38A.26.26,0,0,1,38.2,73.22Z"/><path class="cls-12" d="M37,74.22a.25.25,0,0,1,0,.38.26.26,0,0,1-.39-.35A.25.25,0,0,1,37,74.22Z"/><path class="cls-12" d="M56.25,74.94a.26.26,0,0,1,0,.38.26.26,0,0,1-.36.05.27.27,0,0,1,.33-.43Z"/><path class="cls-12" d="M53.48,73.38a.26.26,0,0,1,0,.39.25.25,0,0,1-.36,0,.26.26,0,0,1,0-.39A.24.24,0,0,1,53.48,73.38Z"/><path class="cls-12" d="M61.59,76.61a.26.26,0,1,1-.41-.31.25.25,0,0,1,.38,0A.25.25,0,0,1,61.59,76.61Z"/><path class="cls-12" d="M35.52,75.18a.25.25,0,0,1,.36-.06.27.27,0,0,1-.31.44A.26.26,0,0,1,35.52,75.18Z"/><path class="cls-12" d="M52.27,74.75a.26.26,0,0,1-.39,0,.23.23,0,0,1,0-.36.24.24,0,0,1,.36,0C52.38,74.48,52.35,74.62,52.27,74.75Z"/><path class="cls-12" d="M64.29,77.76a.24.24,0,0,1,0,.38.25.25,0,0,1-.36,0,.23.23,0,0,1,0-.35A.24.24,0,0,1,64.29,77.76Z"/><path class="cls-12" d="M63.8,72.6a.26.26,0,0,1,0,.38.25.25,0,0,1-.38,0,.25.25,0,0,1,0-.36A.26.26,0,0,1,63.8,72.6Z"/><path class="cls-12" d="M34.52,74.94a.26.26,0,0,1-.38,0,.23.23,0,0,1,0-.36.24.24,0,0,1,.38,0C34.63,74.69,34.61,74.81,34.52,74.94Z"/><path class="cls-12" d="M62.6,73.9a.26.26,0,0,1-.37,0,.25.25,0,0,1,0-.38.24.24,0,0,1,.36,0A.26.26,0,0,1,62.6,73.9Z"/><path class="cls-12" d="M52.47,76.45a.27.27,0,0,1-.37,0,.27.27,0,1,1,.34-.41C52.57,76.2,52.54,76.32,52.47,76.45Z"/><path class="cls-12" d="M36.16,78.6a.25.25,0,0,1,.06.37.26.26,0,0,1-.38.06.25.25,0,0,1,0-.36A.24.24,0,0,1,36.16,78.6Z"/><path class="cls-12" d="M44.75,75.57a.26.26,0,0,1-.36,0,.27.27,0,0,1,.34-.42C44.87,75.29,44.85,75.43,44.75,75.57Z"/><path class="cls-12" d="M59.39,72.09c.11-.11.24-.17.38-.06a.27.27,0,0,1-.34.41A.24.24,0,0,1,59.39,72.09Z"/><path class="cls-12" d="M31.36,80.94a.26.26,0,0,1,0,.36.24.24,0,0,1-.38,0A.23.23,0,0,1,31,81,.24.24,0,0,1,31.36,80.94Z"/><path class="cls-12" d="M36.81,75.93a.26.26,0,0,1,.38,0,.27.27,0,0,1-.35.41A.27.27,0,0,1,36.81,75.93Z"/><path class="cls-12" d="M37.38,77.59a.25.25,0,0,1,0,.36.26.26,0,1,1-.42-.3A.26.26,0,0,1,37.38,77.59Z"/><path class="cls-12" d="M56.21,78.4a.25.25,0,0,1,.38,0,.24.24,0,0,1,0,.36.25.25,0,0,1-.36,0C56.11,78.68,56.12,78.54,56.21,78.4Z"/><path class="cls-12" d="M29.91,78.53a.23.23,0,0,1,0,.36.25.25,0,0,1-.38,0,.27.27,0,0,1,.35-.41Z"/><path class="cls-12" d="M49.59,73.3a.25.25,0,0,1-.36.06.24.24,0,0,1,0-.38.24.24,0,0,1,.37,0A.25.25,0,0,1,49.59,73.3Z"/><path class="cls-12" d="M33.1,73.77a.25.25,0,0,1,0,.39.25.25,0,0,1-.38,0,.27.27,0,0,1,.33-.42Z"/><path class="cls-12" d="M56.39,77.06a.24.24,0,0,1-.37,0,.24.24,0,0,1,0-.37.24.24,0,0,1,.36,0A.25.25,0,0,1,56.39,77.06Z"/><path class="cls-12" d="M62.92,77c.11.12.15.24,0,.37a.24.24,0,0,1-.37.06.23.23,0,0,1-.05-.35A.26.26,0,0,1,62.92,77Z"/><path class="cls-12" d="M65.31,75.45a.26.26,0,0,1-.36,0,.25.25,0,0,1,0-.38.24.24,0,0,1,.38,0A.26.26,0,0,1,65.31,75.45Z"/><path class="cls-12" d="M65.07,76.93c.12-.15.25-.17.37-.08a.26.26,0,0,1-.3.43A.23.23,0,0,1,65.07,76.93Z"/><path class="cls-12" d="M31.06,77.9a.26.26,0,0,1-.41-.33.25.25,0,0,1,.38,0A.26.26,0,0,1,31.06,77.9Z"/><path class="cls-12" d="M33.36,75.48a.27.27,0,0,1,0,.39.24.24,0,0,1-.36,0,.27.27,0,0,1,.33-.42Z"/><path class="cls-12" d="M30.16,80.62c-.15.18-.27.22-.4.12a.24.24,0,0,1-.05-.37.25.25,0,0,1,.38-.05C30.2,80.42,30.22,80.55,30.16,80.62Z"/><path class="cls-12" d="M32.52,80.05a.27.27,0,1,1-.38,0A.25.25,0,0,1,32.52,80.05Z"/><path class="cls-12" d="M33.7,79.32c-.14.12-.27.17-.4.05a.27.27,0,0,1,.35-.4A.26.26,0,0,1,33.7,79.32Z"/><path class="cls-12" d="M34.86,77.94a.27.27,0,0,1,0,.37.24.24,0,0,1-.37,0,.25.25,0,0,1,0-.36A.28.28,0,0,1,34.86,77.94Z"/><path class="cls-12" d="M35.72,76.89a.26.26,0,1,1,.35.38.23.23,0,0,1-.35,0A.25.25,0,0,1,35.72,76.89Z"/><path class="cls-12" d="M44.19,73.56a.24.24,0,0,1,.36-.07.24.24,0,0,1,0,.38.24.24,0,0,1-.35.06A.24.24,0,0,1,44.19,73.56Z"/><path class="cls-12" d="M42.47,77.55a.26.26,0,1,1,0-.38A.26.26,0,0,1,42.47,77.55Z"/><path class="cls-12" d="M48.44,73.86a.26.26,0,0,1,0,.39.24.24,0,0,1-.36,0,.23.23,0,0,1,0-.35A.26.26,0,0,1,48.44,73.86Z"/><path class="cls-12" d="M45.13,79a.31.31,0,0,1-.38,0,.24.24,0,0,1,0-.36.23.23,0,0,1,.37,0A.24.24,0,0,1,45.13,79Z"/><path class="cls-12" d="M52.1,73.07a.26.26,0,0,1-.36,0,.24.24,0,0,1,0-.38.24.24,0,0,1,.37,0A.25.25,0,0,1,52.1,73.07Z"/><path class="cls-12" d="M62.75,75.23a.24.24,0,0,1,0,.36.25.25,0,0,1-.38,0,.24.24,0,0,1,0-.36A.24.24,0,0,1,62.75,75.23Z"/><path class="cls-12" d="M55.7,73.26a.26.26,0,0,1,.38-.06.25.25,0,0,1,0,.38.25.25,0,0,1-.36,0A.25.25,0,0,1,55.7,73.26Z"/><path class="cls-12" d="M54.75,78c0-.11-.06-.22,0-.33s.33-.19.46,0a.24.24,0,0,1-.12.36A.28.28,0,0,1,54.75,78Z"/><path class="cls-12" d="M60,74.08a.25.25,0,0,1-.38,0,.23.23,0,0,1,0-.35.25.25,0,0,1,.36-.06A.25.25,0,0,1,60,74.08Z"/><path class="cls-12" d="M62.4,71.83a.26.26,0,0,1,0,.38.23.23,0,0,1-.35.05.24.24,0,0,1,0-.38A.25.25,0,0,1,62.4,71.83Z"/><path class="cls-12" d="M59.75,75.46c.13-.12.26-.15.39,0a.27.27,0,0,1-.36.39A.25.25,0,0,1,59.75,75.46Z"/><path class="cls-12" d="M29.6,75.51c-.12.11-.25.16-.39,0a.25.25,0,0,1,0-.36.23.23,0,0,1,.37,0A.25.25,0,0,1,29.6,75.51Z"/><path class="cls-12" d="M30.58,74.07a.25.25,0,0,1,.07.38.24.24,0,0,1-.37.06.23.23,0,0,1-.05-.35A.24.24,0,0,1,30.58,74.07Z"/><path class="cls-12" d="M30.89,76.17a.25.25,0,0,1-.38,0,.24.24,0,0,1,0-.36.25.25,0,0,1,.38,0A.25.25,0,0,1,30.89,76.17Z"/><path class="cls-12" d="M33.5,80.68a.26.26,0,1,1,.39.34.23.23,0,0,1-.36,0A.25.25,0,0,1,33.5,80.68Z"/><path class="cls-12" d="M47.29,74.93a.25.25,0,0,1,0,.39.23.23,0,0,1-.35,0,.25.25,0,0,1,0-.38A.25.25,0,0,1,47.29,74.93Z"/><path class="cls-12" d="M42.25,75.45a.26.26,0,0,1,0,.37.23.23,0,0,1-.37.05.22.22,0,0,1,0-.35A.25.25,0,0,1,42.25,75.45Z"/><path class="cls-12" d="M43.65,76.52a.25.25,0,0,1-.38,0,.23.23,0,0,1,0-.35.26.26,0,1,1,.42.3Z"/><path class="cls-12" d="M61.48,74.87a.25.25,0,0,1-.38,0,.24.24,0,0,1,0-.36.25.25,0,0,1,.38,0A.25.25,0,0,1,61.48,74.87Z"/><path class="cls-12" d="M64,74.71a.26.26,0,0,1-.38.05.27.27,0,0,1,.34-.41A.25.25,0,0,1,64,74.71Z"/><path class="cls-12" d="M54.42,74.18a.24.24,0,0,1,.36,0,.23.23,0,0,1,0,.37.22.22,0,0,1-.35,0A.24.24,0,0,1,54.42,74.18Z"/><path class="cls-12" d="M61,71.07a.23.23,0,0,1,0,.36.25.25,0,0,1-.38,0,.24.24,0,0,1,0-.36A.24.24,0,0,1,61,71.07Z"/><path class="cls-12" d="M33.53,77.21a.27.27,0,0,1,0,.37.24.24,0,0,1-.37.06.25.25,0,0,1,0-.38A.27.27,0,0,1,33.53,77.21Z"/><path class="cls-12" d="M58,71.29a.25.25,0,0,1,.36,0,.24.24,0,0,1,0,.37.24.24,0,0,1-.38,0C57.92,71.54,58,71.42,58,71.29Z"/><path class="cls-12" d="M31.6,74.92c.14-.14.28-.16.4,0a.27.27,0,0,1-.37.38A.25.25,0,0,1,31.6,74.92Z"/><path class="cls-12" d="M55.82,71.49a.25.25,0,0,1,0,.37.24.24,0,0,1-.37.06.23.23,0,0,1,0-.35A.25.25,0,0,1,55.82,71.49Z"/><path class="cls-12" d="M51.11,75.34a.25.25,0,0,1,0,.36.25.25,0,1,1-.42-.28A.25.25,0,0,1,51.11,75.34Z"/><path class="cls-12" d="M31.79,76.58a.23.23,0,0,1,.35,0,.23.23,0,0,1,0,.37.24.24,0,0,1-.36,0A.25.25,0,0,1,31.79,76.58Z"/><path class="cls-12" d="M38.36,78.43a.24.24,0,0,1,.36,0,.27.27,0,1,1-.36,0Z"/><path class="cls-12" d="M49.35,74.65a.25.25,0,0,1,.36,0,.25.25,0,0,1,0,.38.24.24,0,0,1-.36,0A.25.25,0,0,1,49.35,74.65Z"/><path class="cls-12" d="M36.06,80.7a.25.25,0,0,1,0-.38.24.24,0,0,1,.36,0,.25.25,0,0,1,0,.38A.24.24,0,0,1,36.06,80.7Z"/><path class="cls-12" d="M46.31,78a.26.26,0,0,1-.39,0,.27.27,0,0,1,.36-.39A.25.25,0,0,1,46.31,78Z"/><path class="cls-12" d="M57.22,72.67a.26.26,0,1,1-.36-.37.24.24,0,0,1,.36,0A.25.25,0,0,1,57.22,72.67Z"/><path class="cls-12" d="M44.92,76.88a.25.25,0,0,1,0,.38.23.23,0,0,1-.35,0,.24.24,0,0,1,0-.38A.25.25,0,0,1,44.92,76.88Z"/><path class="cls-12" d="M52.64,78.24a.27.27,0,0,1-.39,0,.27.27,0,1,1,.39,0Z"/><path class="cls-12" d="M48.74,77.71a.25.25,0,0,1-.36.05.26.26,0,0,1,.32-.42A.24.24,0,0,1,48.74,77.71Z"/><path class="cls-12" d="M61.3,73.14a.24.24,0,0,1-.36,0,.24.24,0,0,1,0-.37.23.23,0,0,1,.35,0A.24.24,0,0,1,61.3,73.14Z"/><path class="cls-12" d="M51.25,77.47a.25.25,0,1,1,0-.38A.25.25,0,0,1,51.25,77.47Z"/><path class="cls-12" d="M39.73,79.21a.25.25,0,1,1,.39.32.22.22,0,0,1-.35,0A.23.23,0,0,1,39.73,79.21Z"/><path class="cls-12" d="M57.39,74.33a.24.24,0,0,1-.36,0A.25.25,0,0,1,57,74a.23.23,0,0,1,.35-.06A.23.23,0,0,1,57.39,74.33Z"/><path class="cls-12" d="M43.74,78.29a.24.24,0,0,1-.37,0,.24.24,0,0,1,0-.38.22.22,0,0,1,.35,0A.24.24,0,0,1,43.74,78.29Z"/><path class="cls-12" d="M49.92,76.32a.25.25,0,0,1,0,.36.24.24,0,0,1-.37,0,.27.27,0,0,1,.35-.41Z"/><path class="cls-12" d="M37.57,79.75a.23.23,0,0,1-.36,0,.24.24,0,0,1,0-.36.23.23,0,0,1,.37,0A.22.22,0,0,1,37.57,79.75Z"/><path class="cls-12" d="M39.18,74a.26.26,0,0,1,.37-.07.25.25,0,0,1,.05.38.24.24,0,0,1-.35.06A.25.25,0,0,1,39.18,74Z"/><path class="cls-12" d="M39,80.06a.26.26,0,0,1,0,.38.24.24,0,0,1-.36,0,.23.23,0,0,1,0-.35A.26.26,0,0,1,39,80.06Z"/><path class="cls-12" d="M38.23,76.71a.25.25,0,0,1,.38-.06.27.27,0,0,1-.34.41A.24.24,0,0,1,38.23,76.71Z"/><path class="cls-12" d="M57.58,76a.22.22,0,0,1-.34,0,.25.25,0,0,1-.05-.38.26.26,0,1,1,.39.33Z"/><path class="cls-12" d="M35,80.11a.23.23,0,0,1-.35,0,.24.24,0,0,1,0-.38.25.25,0,1,1,.38.33Z"/><path class="cls-12" d="M42.12,74.15a.24.24,0,0,1-.35.06.24.24,0,0,1-.05-.38.26.26,0,1,1,.4.32Z"/><path class="cls-12" d="M38.46,75.29a.24.24,0,0,1-.36,0,.27.27,0,0,1,.35-.41A.25.25,0,0,1,38.46,75.29Z"/><path class="cls-12" d="M32.37,78.61a.23.23,0,0,1-.35.06A.24.24,0,0,1,32,78.3a.24.24,0,0,1,.38,0A.23.23,0,0,1,32.37,78.61Z"/><path class="cls-12" d="M51,74c-.12.14-.25.17-.38.06a.23.23,0,0,1,0-.35A.25.25,0,1,1,51,74Z"/><path class="cls-12" d="M47.51,77a.22.22,0,0,1-.34,0,.24.24,0,0,1-.06-.37.24.24,0,0,1,.36-.06A.24.24,0,0,1,47.51,77Z"/><path class="cls-12" d="M61.41,78a.24.24,0,0,1,.37,0,.27.27,0,1,1-.37,0Z"/><path class="cls-12" d="M47.17,73.6c-.12.14-.25.17-.38.06a.22.22,0,0,1,0-.35.23.23,0,0,1,.35-.07A.24.24,0,0,1,47.17,73.6Z"/><path class="cls-12" d="M54.23,72.54c.12-.15.24-.18.37-.09a.24.24,0,0,1,0,.37.23.23,0,0,1-.37.05A.22.22,0,0,1,54.23,72.54Z"/><path class="cls-12" d="M43.47,74.8a.25.25,0,0,1-.38,0,.27.27,0,0,1,.36-.39C43.58,74.54,43.56,74.67,43.47,74.8Z"/><path class="cls-12" d="M41.5,80.12c0,.06-.09.09-.06.16A.26.26,0,0,1,41,80a.25.25,0,0,1,.3-.2C41.53,79.84,41.53,80,41.5,80.12Z"/><path class="cls-12" d="M53.25,71.68c.11.14.13.27,0,.38a.23.23,0,0,1-.38,0c-.14-.15,0-.28.08-.4S53.16,71.66,53.25,71.68Z"/><path class="cls-12" d="M42.63,79c.08.08.15.22,0,.29a.37.37,0,0,1-.42.06c-.12-.08-.08-.23,0-.33A.25.25,0,0,1,42.63,79Z"/><path class="cls-14" d="M54.5,76.12s.06,0,0,.08S54.45,76.16,54.5,76.12Z"/><line class="cls-15" x1="61.27" y1="54.12" x2="66.2" y2="59.87"/><line class="cls-15" x1="66.2" y1="54.12" x2="61.27" y2="59.87"/><line class="cls-15" x1="28.84" y1="54.12" x2="33.78" y2="59.87"/><line class="cls-15" x1="33.78" y1="54.12" x2="28.84" y2="59.87"/></svg>