<svg id="Layer_1" data-name="Layer 1" xmlns="http://www.w3.org/2000/svg" viewBox="0 0 95 101"><defs><style>.cls-1{fill:#f6ae8b;}.cls-1,.cls-10,.cls-3,.cls-4,.cls-9{stroke:#1d1d1b;stroke-linecap:round;stroke-linejoin:round;}.cls-1,.cls-2{opacity:0.39;}.cls-3{fill:#eace5d;}.cls-4,.cls-7{fill:#e06ba3;}.cls-5{fill:#f0a642;}.cls-6{fill:#1d1d1b;}.cls-8,.cls-9{fill:#fff;}.cls-10,.cls-11{fill:none;}</style></defs><title>V1Artboard 5 copy 3</title><circle class="cls-1" cx="47.54" cy="47.05" r="46.31"/><g class="cls-2"><path class="cls-3" d="M13.54,52C7,31.09,12.34,20.67,12.34,20.67s16.16.24,22,8.2"/><path class="cls-3" d="M80.49,52C87,31.09,81.68,20.67,81.68,20.67s-16.15.24-22,8.2"/><path class="cls-4" d="M18,44.12c-3.24-10.38-.59-15.56-.59-15.56s8,.12,10.9,4.07"/><path class="cls-4" d="M76.08,44.12c3.23-10.38.59-15.56.59-15.56s-8,.12-10.9,4.07"/><path class="cls-3" d="M47.27,84.83a46.82,46.82,0,0,0,21.57-4.51c4.63-2.26,10-5.25,11.61-10.8a15,15,0,0,0-.32-8.43c.17-1.48,4.13-15.83-10.58-28a32.55,32.55,0,0,0-22.2-7.56h-.08a32.57,32.57,0,0,0-22.2,7.56c-14.7,12.18-10.74,26.53-10.58,28a15.05,15.05,0,0,0-.32,8.43c1.61,5.55,7,8.54,11.62,10.8a46.78,46.78,0,0,0,21.56,4.51Z"/><path class="cls-5" d="M47.72,25.52h-.17a32.55,32.55,0,0,0-22.2,7.56c-14.7,12.18-10.75,26.53-10.58,28a15,15,0,0,0-.32,8.43,11.64,11.64,0,0,0,.69,1.79C58.39,69.48,49.19,30.83,47.72,25.52Z"/><ellipse class="cls-6" cx="31.1" cy="58.8" rx="5.03" ry="5.19"/><ellipse class="cls-7" cx="27.04" cy="66.13" rx="3.16" ry="1.78"/><ellipse class="cls-6" cx="63.41" cy="58.8" rx="5.03" ry="5.19"/><ellipse class="cls-7" cx="67.47" cy="66.13" rx="3.16" ry="1.78"/><path class="cls-6" d="M50.78,66.81c0,1.16-3.59,2.78-3.59,2.78S43.61,68,43.61,66.81s1.6-2.09,3.58-2.09S50.78,65.66,50.78,66.81Z"/><ellipse class="cls-8" cx="29.15" cy="56.72" rx="0.89" ry="0.92"/><line class="cls-9" x1="74.34" y1="64.56" x2="87.86" y2="63.43"/><line class="cls-9" x1="74.34" y1="68.3" x2="87.86" y2="69.43"/><line class="cls-10" x1="74.3" y1="66.43" x2="83.04" y2="66.43"/><ellipse class="cls-8" cx="61.31" cy="56.72" rx="0.89" ry="0.92"/><line class="cls-9" x1="20.74" y1="64.56" x2="7.22" y2="63.43"/><line class="cls-9" x1="20.74" y1="68.3" x2="7.22" y2="69.43"/><line class="cls-10" x1="20.79" y1="66.43" x2="12.04" y2="66.43"/><path class="cls-10" d="M47.19,84.83a46.82,46.82,0,0,0,21.57-4.51c4.63-2.26,10-5.25,11.61-10.8a15.07,15.07,0,0,0-.31-8.43c.16-1.48,4.12-15.83-10.59-28a32.55,32.55,0,0,0-22.2-7.56h-.08A32.57,32.57,0,0,0,25,33.08c-14.7,12.18-10.74,26.53-10.58,28a15.14,15.14,0,0,0-.32,8.43c1.61,5.55,7,8.54,11.62,10.8a46.78,46.78,0,0,0,21.56,4.51Z"/><path class="cls-10" d="M47.19,69.59a7.54,7.54,0,0,1-5.35,2"/><path class="cls-10" d="M47.23,69.59a7.55,7.55,0,0,0,5.36,2"/><path class="cls-10" d="M58.09,50.8a7.88,7.88,0,0,1,9.7.25"/><path class="cls-10" d="M25.15,50.71A9.08,9.08,0,0,1,36,50.54"/></g><rect class="cls-11" x="0.04" y="0.02" width="95" height="101"/></svg>