<svg id="Layer_1" data-name="Layer 1" xmlns="http://www.w3.org/2000/svg" xmlns:xlink="http://www.w3.org/1999/xlink" viewBox="0 0 95 101"><defs><style>.cls-1,.cls-25,.cls-26{fill:none;}.cls-1,.cls-18,.cls-19,.cls-24,.cls-25{stroke:#1d1d1b;}.cls-1{stroke-miterlimit:10;}.cls-2{clip-path:url(#clip-path);}.cls-3{fill:#e31014;}.cls-4{fill:#3258a4;}.cls-5{fill:#fcea1b;}.cls-6{fill:#702381;}.cls-7{fill:#f28a1a;}.cls-8{fill:#0a8137;}.cls-9{fill:#ef7c26;}.cls-10{fill:#dadc30;}.cls-11{fill:#217b34;}.cls-12{fill:#3b4194;}.cls-13{fill:#5a2985;}.cls-14{fill:#e63913;}.cls-15{fill:#f19507;}.cls-16{fill:#016794;}.cls-17{fill:#00774b;}.cls-18{fill:#eace5d;}.cls-18,.cls-19,.cls-24,.cls-25{stroke-linecap:round;stroke-linejoin:round;}.cls-19,.cls-22{fill:#e06ba3;}.cls-20{fill:#f0a642;}.cls-21{fill:#1d1d1b;}.cls-23,.cls-24{fill:#fff;}</style><clipPath id="clip-path"><circle class="cls-1" cx="47.67" cy="47.05" r="46.31"/></clipPath></defs><title>V1Artboard 2 copy 3</title><g class="cls-2"><path class="cls-3" d="M93.75,78.46c0,4.81,0,9.61,0,14.41,0,.74-.17.9-.9.9q-45.59,0-91.15,0c-.74,0-.91-.16-.91-.9,0-4.8,0-9.6,0-14.41l.3-.23c.74,0,1.47,0,2.21,0H91.25c.73,0,1.47,0,2.2,0Z"/><path class="cls-4" d="M.83,31.71V16.42H93.75V32H85.23a1.44,1.44,0,0,0-1.79-.06c-.64,0-1.27,0-1.91,0H3.05c-.63,0-1.27,0-1.91,0Z"/><path class="cls-5" d="M.83,62.88V47.59H93.75V62.88l-.3,0-1.17,0H3.19L2,62.86h-.3Z"/><path class="cls-6" d="M.83,15.83c0-4.7,0-9.4,0-14.09,0-.7.1-.93.88-.93q45.59,0,91.19,0c.78,0,.88.23.88.93,0,4.69,0,9.39,0,14.09Z"/><path class="cls-7" d="M.83,62.88l.88,0c.1.14.2.15.3,0l1.18,0H92.28l1.17,0,.3.31v14.7H.83Z"/><path class="cls-8" d="M1.14,31.93c.64,0,1.28,0,1.91,0H81.53c.64,0,1.27,0,1.91,0a1.3,1.3,0,0,0,1.79.06h8.52V47H.83V32Z"/><path class="cls-9" d="M.83,77.87H93.75v.3l-.3.06c-.73,0-1.47,0-2.2,0H3.34c-.74,0-1.47,0-2.21,0l-.3-.06Z"/><ellipse class="cls-10" cx="47.29" cy="47.44" rx="65.7" ry="0.21"/><ellipse class="cls-11" cx="47.29" cy="47.15" rx="65.7" ry="0.21"/><ellipse class="cls-12" cx="47.29" cy="16.27" rx="65.7" ry="0.21"/><ellipse class="cls-13" cx="47.29" cy="15.98" rx="65.7" ry="0.21"/><path class="cls-14" d="M93.45,78.23l.3-.06v.29Z"/><path class="cls-14" d="M.83,78.17l.3.06-.3.23Z"/><path class="cls-15" d="M93.75,63.17l-.3-.31.3,0Z"/><path class="cls-16" d="M1.14,31.93.83,32v-.29Z"/><path class="cls-17" d="M85.23,32a1.3,1.3,0,0,1-1.79-.06A1.44,1.44,0,0,1,85.23,32Z"/><path class="cls-15" d="M2,62.86c-.1.14-.2.13-.3,0Z"/></g><circle class="cls-1" cx="47.67" cy="47.05" r="46.31"/><path class="cls-18" d="M13.67,52c-6.53-20.93-1.2-31.35-1.2-31.35s16.16.24,22,8.2"/><path class="cls-18" d="M80.62,52c6.52-20.93,1.19-31.35,1.19-31.35s-16.15.24-22,8.2"/><path class="cls-19" d="M18.08,44.12c-3.24-10.38-.59-15.56-.59-15.56s8,.12,10.9,4.07"/><path class="cls-19" d="M76.21,44.12c3.24-10.38.59-15.56.59-15.56s-8,.12-10.9,4.07"/><path class="cls-18" d="M47.4,84.83A46.82,46.82,0,0,0,69,80.32c4.63-2.26,10-5.25,11.61-10.8a15.07,15.07,0,0,0-.31-8.43c.16-1.48,4.12-15.83-10.59-28a32.55,32.55,0,0,0-22.2-7.56H47.4a32.54,32.54,0,0,0-22.19,7.56c-14.71,12.18-10.75,26.53-10.59,28a15.14,15.14,0,0,0-.32,8.43c1.61,5.55,7,8.54,11.62,10.8a46.78,46.78,0,0,0,21.56,4.51Z"/><path class="cls-20" d="M47.86,25.52h-.18a32.55,32.55,0,0,0-22.2,7.56c-14.7,12.18-10.75,26.53-10.58,28a15.05,15.05,0,0,0-.32,8.43,11.64,11.64,0,0,0,.69,1.79C58.52,69.48,49.33,30.83,47.86,25.52Z"/><ellipse class="cls-21" cx="31.23" cy="58.8" rx="5.03" ry="5.19"/><ellipse class="cls-22" cx="27.17" cy="66.13" rx="3.16" ry="1.78"/><ellipse class="cls-21" cx="63.54" cy="58.8" rx="5.03" ry="5.19"/><ellipse class="cls-22" cx="67.6" cy="66.13" rx="3.16" ry="1.78"/><path class="cls-21" d="M50.91,66.81c0,1.16-3.58,2.78-3.58,2.78S43.74,68,43.74,66.81s1.61-2.09,3.59-2.09S50.91,65.66,50.91,66.81Z"/><ellipse class="cls-23" cx="29.28" cy="56.72" rx="0.89" ry="0.92"/><line class="cls-24" x1="74.47" y1="64.56" x2="87.99" y2="63.43"/><line class="cls-24" x1="74.47" y1="68.3" x2="87.99" y2="69.43"/><line class="cls-25" x1="74.43" y1="66.43" x2="83.18" y2="66.43"/><ellipse class="cls-23" cx="61.44" cy="56.72" rx="0.89" ry="0.92"/><line class="cls-24" x1="20.88" y1="64.56" x2="7.35" y2="63.43"/><line class="cls-24" x1="20.88" y1="68.3" x2="7.35" y2="69.43"/><line class="cls-25" x1="20.92" y1="66.43" x2="12.17" y2="66.43"/><path class="cls-25" d="M47.33,84.83a46.78,46.78,0,0,0,21.56-4.51c4.63-2.26,10-5.25,11.62-10.8a15.14,15.14,0,0,0-.32-8.43c.16-1.48,4.12-15.83-10.59-28a32.54,32.54,0,0,0-22.19-7.56h-.08a32.55,32.55,0,0,0-22.2,7.56c-14.71,12.18-10.75,26.53-10.59,28a15.07,15.07,0,0,0-.31,8.43c1.6,5.55,7,8.54,11.61,10.8a46.82,46.82,0,0,0,21.57,4.51Z"/><path class="cls-25" d="M47.33,69.59a7.55,7.55,0,0,1-5.36,2"/><path class="cls-25" d="M47.37,69.59a7.51,7.51,0,0,0,5.35,2"/><path class="cls-25" d="M58.22,50.8a7.88,7.88,0,0,1,9.7.25"/><path class="cls-25" d="M25.28,50.71a9.08,9.08,0,0,1,10.81-.17"/><rect class="cls-26" x="-0.02" y="0.02" width="95" height="101"/></svg>