<svg id="Layer_1" data-name="Layer 1" xmlns="http://www.w3.org/2000/svg" xmlns:xlink="http://www.w3.org/1999/xlink" viewBox="0 0 95 101"><defs><style>.cls-1,.cls-19,.cls-2{fill:none;}.cls-1,.cls-2,.cls-20,.cls-21,.cls-25{stroke:#1d1d1b;}.cls-1{stroke-miterlimit:10;}.cls-2,.cls-20,.cls-21,.cls-25,.cls-27{stroke-linecap:round;stroke-linejoin:round;}.cls-3{clip-path:url(#clip-path);}.cls-4{fill:#e31014;}.cls-5{fill:#3258a4;}.cls-6{fill:#fcea1b;}.cls-7{fill:#702381;}.cls-8{fill:#f28a1a;}.cls-9{fill:#0a8137;}.cls-10{fill:#ef7c26;}.cls-11{fill:#dadc30;}.cls-12{fill:#217b34;}.cls-13{fill:#3b4194;}.cls-14{fill:#5a2985;}.cls-15{fill:#e63913;}.cls-16{fill:#f19507;}.cls-17{fill:#016794;}.cls-18{fill:#00774b;}.cls-20{fill:#cbbba0;}.cls-21{fill:#7b6a58;}.cls-22{fill:#1d1d1b;}.cls-23{fill:#a48a7b;}.cls-24,.cls-25{fill:#fff;}.cls-26{clip-path:url(#clip-path-2);}.cls-27{fill:#ca9e67;stroke:#7b6a58;stroke-width:7px;}</style><clipPath id="clip-path"><circle class="cls-1" cx="47.67" cy="47.05" r="46.31"/></clipPath><clipPath id="clip-path-2"><path class="cls-2" d="M47.41,84.83A46.78,46.78,0,0,0,69,80.32c4.64-2.26,10-5.25,11.62-10.8a15.05,15.05,0,0,0-.32-8.43c.17-1.48,4.12-15.83-10.58-28a32.55,32.55,0,0,0-22.2-7.56h-.08a32.55,32.55,0,0,0-22.2,7.56c-14.7,12.18-10.75,26.53-10.58,28a15.05,15.05,0,0,0-.32,8.43c1.61,5.55,7,8.54,11.62,10.8a46.78,46.78,0,0,0,21.56,4.51Z"/></clipPath></defs><title>V2Artboard 2 copy 5</title><g class="cls-3"><path class="cls-4" d="M93.75,78.46c0,4.81,0,9.61,0,14.41,0,.74-.17.9-.9.9q-45.59,0-91.15,0c-.74,0-.91-.16-.91-.9,0-4.8,0-9.6,0-14.41l.3-.23c.74,0,1.47,0,2.21,0H91.25c.73,0,1.47,0,2.2,0Z"/><path class="cls-5" d="M.83,31.71V16.42H93.75V32H85.23a1.44,1.44,0,0,0-1.79-.06c-.64,0-1.27,0-1.91,0H3.05c-.63,0-1.27,0-1.91,0Z"/><path class="cls-6" d="M.83,62.88V47.59H93.75V62.88l-.3,0-1.17,0H3.19L2,62.86h-.3Z"/><path class="cls-7" d="M.83,15.83c0-4.7,0-9.4,0-14.09,0-.7.1-.93.88-.93q45.59,0,91.19,0c.78,0,.88.23.88.93,0,4.69,0,9.39,0,14.09Z"/><path class="cls-8" d="M.83,62.88l.88,0c.1.14.2.15.3,0l1.18,0H92.28l1.17,0,.3.31v14.7H.83Z"/><path class="cls-9" d="M1.14,31.93c.64,0,1.28,0,1.91,0H81.53c.64,0,1.27,0,1.91,0a1.3,1.3,0,0,0,1.79.06h8.52V47H.83V32Z"/><path class="cls-10" d="M.83,77.87H93.75v.3l-.3.06c-.73,0-1.47,0-2.2,0H3.34c-.74,0-1.47,0-2.21,0l-.3-.06Z"/><ellipse class="cls-11" cx="47.29" cy="47.44" rx="65.7" ry="0.21"/><ellipse class="cls-12" cx="47.29" cy="47.15" rx="65.7" ry="0.21"/><ellipse class="cls-13" cx="47.29" cy="16.27" rx="65.7" ry="0.21"/><ellipse class="cls-14" cx="47.29" cy="15.98" rx="65.7" ry="0.21"/><path class="cls-15" d="M93.45,78.23l.3-.06v.29Z"/><path class="cls-15" d="M.83,78.17l.3.06-.3.23Z"/><path class="cls-16" d="M93.75,63.17l-.3-.31.3,0Z"/><path class="cls-17" d="M1.14,31.93.83,32v-.29Z"/><path class="cls-18" d="M85.23,32a1.3,1.3,0,0,1-1.79-.06A1.44,1.44,0,0,1,85.23,32Z"/><path class="cls-16" d="M2,62.86c-.1.14-.2.13-.3,0Z"/></g><circle class="cls-1" cx="47.67" cy="47.05" r="46.31"/><rect class="cls-19" x="-0.02" y="0.02" width="95" height="101"/><path class="cls-20" d="M13.75,52c-6.52-20.93-1.19-31.35-1.19-31.35s16.15.24,22,8.2"/><path class="cls-20" d="M80.7,52c6.53-20.93,1.2-31.35,1.2-31.35s-16.15.24-22,8.2"/><path class="cls-21" d="M18.17,44.12c-3.24-10.38-.6-15.56-.6-15.56s8,.12,10.9,4.07"/><path class="cls-21" d="M76.29,44.12c3.24-10.38.59-15.56.59-15.56s-8,.12-10.9,4.07"/><path class="cls-20" d="M47.41,84.83A46.78,46.78,0,0,0,69,80.32c4.64-2.26,10-5.25,11.62-10.8a15.05,15.05,0,0,0-.32-8.43c.17-1.48,4.12-15.83-10.58-28a32.55,32.55,0,0,0-22.2-7.56h-.08a32.55,32.55,0,0,0-22.2,7.56c-14.7,12.18-10.75,26.53-10.58,28a15.05,15.05,0,0,0-.32,8.43c1.61,5.55,7,8.54,11.62,10.8a46.78,46.78,0,0,0,21.56,4.51Z"/><ellipse class="cls-22" cx="31.32" cy="58.8" rx="5.03" ry="5.19"/><ellipse class="cls-23" cx="27.25" cy="66.13" rx="3.16" ry="1.78"/><ellipse class="cls-22" cx="63.62" cy="58.8" rx="5.03" ry="5.19"/><ellipse class="cls-23" cx="67.69" cy="66.13" rx="3.16" ry="1.78"/><path class="cls-22" d="M51,68.62c0,1.16-3.58,2.78-3.58,2.78s-3.58-1.62-3.58-2.78,1.6-2.09,3.58-2.09S51,67.47,51,68.62Z"/><ellipse class="cls-24" cx="29.36" cy="56.72" rx="0.89" ry="0.92"/><line class="cls-25" x1="74.56" y1="64.56" x2="88.08" y2="63.43"/><line class="cls-25" x1="74.56" y1="68.3" x2="88.08" y2="69.43"/><line class="cls-2" x1="74.52" y1="66.43" x2="83.26" y2="66.43"/><ellipse class="cls-24" cx="61.53" cy="56.72" rx="0.89" ry="0.92"/><line class="cls-25" x1="20.96" y1="64.56" x2="7.44" y2="63.43"/><line class="cls-25" x1="20.96" y1="68.3" x2="7.44" y2="69.43"/><line class="cls-2" x1="21" y1="66.43" x2="12.26" y2="66.43"/><path class="cls-2" d="M47.41,71s-1,4.12-4.85,4.63"/><path class="cls-2" d="M47.41,71s1,4.12,4.85,4.63"/><g class="cls-26"><line class="cls-27" x1="47.49" y1="26.52" x2="47.49" y2="42.86"/><line class="cls-27" x1="38.43" y1="22.44" x2="38.43" y2="38.78"/><line class="cls-27" x1="56.47" y1="22.44" x2="56.47" y2="38.78"/></g><path class="cls-2" d="M47.41,84.83A46.78,46.78,0,0,0,69,80.32c4.64-2.26,10-5.25,11.62-10.8a15.05,15.05,0,0,0-.32-8.43c.17-1.48,4.12-15.83-10.58-28a32.55,32.55,0,0,0-22.2-7.56h-.08a32.55,32.55,0,0,0-22.2,7.56c-14.7,12.18-10.75,26.53-10.58,28a15.05,15.05,0,0,0-.32,8.43c1.61,5.55,7,8.54,11.62,10.8a46.78,46.78,0,0,0,21.56,4.51Z"/></svg>