<svg width="66" height="23" viewBox="0 0 66 23" fill="none" xmlns="http://www.w3.org/2000/svg">
<rect x="0.25" y="0.25" width="64.8529" height="21.8529" rx="3.75" fill="#79C400" fill-opacity="0.1"/>
<path d="M12.2732 15.6765V10.7365C12.2732 10.2512 12.1692 9.91318 11.9612 9.72251C11.7532 9.53185 11.4672 9.43651 11.1032 9.43651H8.69816V8.37051H11.4542C11.8875 8.37051 12.2688 8.45285 12.5982 8.61751C12.9275 8.77351 13.1875 9.02918 13.3782 9.38451C13.5688 9.73985 13.6642 10.2122 13.6642 10.8015V15.6765H12.2732ZM15.3739 15.6765V9.89151L15.2179 8.37051H16.5959L16.7649 9.89151V15.6765H15.3739ZM19.1082 15.8065L18.1592 8.37051H19.4852L20.2392 14.6365C20.8979 14.5932 21.4656 14.4718 21.9422 14.2725C22.4276 14.0732 22.8262 13.8002 23.1382 13.4535C23.4502 13.1068 23.6799 12.6822 23.8272 12.1795C23.9746 11.6682 24.0482 11.0875 24.0482 10.4375L24.0222 8.37051H25.4132L25.4262 10.3725C25.4349 11.5858 25.2096 12.5955 24.7502 13.4015C24.2996 14.2075 23.6062 14.8142 22.6702 15.2215C21.7342 15.6202 20.5469 15.8152 19.1082 15.8065ZM19.7972 12.9335L19.4722 12.0235C19.9056 11.8588 20.2436 11.6682 20.4862 11.4515C20.7289 11.2262 20.8979 10.9358 20.9932 10.5805C21.0972 10.2165 21.1536 9.75718 21.1622 9.20251V8.39651H22.4752V9.17651C22.4666 9.80918 22.3756 10.3638 22.2022 10.8405C22.0376 11.3172 21.7602 11.7245 21.3702 12.0625C20.9889 12.4005 20.4646 12.6908 19.7972 12.9335ZM26.952 12.9465V11.8675V9.89151L26.796 8.37051H28.174L28.343 9.89151V11.8675L28.33 12.6865L26.952 12.9465ZM36.3413 15.6765H34.8593L32.1163 11.5295L30.8293 15.6765H29.5163L30.9463 11.2045L31.3103 10.2945L30.1143 8.37051H31.5183L32.6233 10.1385L33.7153 11.7765L34.0403 10.6455L34.7033 8.37051H36.0293L34.5213 12.9725L36.3413 15.6765Z" fill="#79C400"/>
<path d="M42.8232 11.1764L46.6468 15L54.2938 7.35291" stroke="#79C400" stroke-width="1.14706" stroke-linecap="round" stroke-linejoin="round"/>
<rect x="0.25" y="0.25" width="64.8529" height="21.8529" rx="3.75" stroke="#79C400" stroke-width="0.5"/>
</svg>
