<svg width="135" height="159" viewBox="0 0 135 159" fill="none" xmlns="http://www.w3.org/2000/svg">
<path d="M6.95337 98.5837C-4.97339 60.7293 4.7063 41.8884 4.7063 41.8884C4.7063 41.8884 33.9182 42.407 44.4622 56.7537" fill="white"/>
<path d="M6.95337 98.5837C-4.97339 60.7293 4.7063 41.8884 4.7063 41.8884C4.7063 41.8884 33.9182 42.407 44.4622 56.7537" stroke="black" stroke-width="1.72852" stroke-miterlimit="10" stroke-linecap="round" stroke-linejoin="round"/>
<path d="M128.123 98.5837C139.876 60.7293 130.37 41.8884 130.37 41.8884C130.37 41.8884 101.158 42.407 90.6138 56.7537" fill="white"/>
<path d="M128.123 98.5837C139.876 60.7293 130.37 41.8884 130.37 41.8884C130.37 41.8884 101.158 42.407 90.6138 56.7537" stroke="black" stroke-width="1.72852" stroke-miterlimit="10" stroke-linecap="round" stroke-linejoin="round"/>
<path d="M14.905 84.2369C9.02809 65.3961 13.8679 56.0621 13.8679 56.0621C13.8679 56.0621 28.3875 56.235 33.573 63.4947" fill="#A48A7B"/>
<path d="M14.905 84.2369C9.02809 65.3961 13.8679 56.0621 13.8679 56.0621C13.8679 56.0621 28.3875 56.235 33.573 63.4947" stroke="black" stroke-width="1.72852" stroke-miterlimit="10" stroke-linecap="round" stroke-linejoin="round"/>
<path d="M120.171 84.2369C126.048 65.569 121.208 56.0621 121.208 56.0621C121.208 56.0621 106.688 56.235 101.503 63.4947" fill="#A48A7B"/>
<path d="M120.171 84.2369C126.048 65.569 121.208 56.0621 121.208 56.0621C121.208 56.0621 106.688 56.235 101.503 63.4947" stroke="black" stroke-width="1.72852" stroke-miterlimit="10" stroke-linecap="round" stroke-linejoin="round"/>
<path d="M67.7975 158.045C76.6129 158.218 91.3053 157.526 106.862 149.921C115.332 145.772 125.011 140.414 127.95 130.388C129.678 124.684 128.468 118.462 127.431 115.177C127.777 112.585 134.864 86.4841 108.245 64.532C91.4782 50.7038 74.8844 50.8767 67.9704 50.8767H67.7975C60.8835 50.8767 44.2897 50.7038 27.5231 64.532C1.07682 86.3113 8.16373 112.412 8.50944 115.005C7.29948 118.289 6.26237 124.684 7.99088 130.216C10.9294 140.241 20.609 145.599 29.0788 149.748C44.4626 157.353 59.1549 158.218 67.7975 158.045Z" fill="white" stroke="black" stroke-width="1.72852" stroke-miterlimit="10" stroke-linecap="round" stroke-linejoin="round"/>
<path d="M38.7583 120.19C43.8179 120.19 47.9194 116.011 47.9194 110.856C47.9194 105.701 43.8179 101.522 38.7583 101.522C33.6987 101.522 29.5972 105.701 29.5972 110.856C29.5972 116.011 33.6987 120.19 38.7583 120.19Z" fill="black"/>
<path d="M67.9692 127.45C68.3149 126.931 69.0063 126.413 69.8706 125.894C71.0806 125.375 71.9448 125.721 72.2905 125.03C72.8091 124.338 72.4634 122.783 71.5991 121.918C70.2163 120.709 69.6977 120.708 67.9692 120.708C66.2407 120.708 65.5493 120.881 64.3393 121.918C63.4751 122.783 63.1294 124.166 63.6479 124.857C63.9936 125.375 64.8579 125.03 66.0679 125.721C67.105 126.24 67.6235 126.931 67.9692 127.45Z" fill="black"/>
<path d="M31.3257 127.45C34.476 127.45 37.0298 125.979 37.0298 124.166C37.0298 122.352 34.476 120.881 31.3257 120.881C28.1754 120.881 25.6216 122.352 25.6216 124.166C25.6216 125.979 28.1754 127.45 31.3257 127.45Z" fill="#7B6A58"/>
<path d="M62.957 130.734C62.957 130.907 63.8213 132.117 65.377 132.29C66.4141 132.29 67.4512 131.771 67.9697 130.907" fill="white"/>
<path d="M62.957 130.734C62.957 130.907 63.8213 132.117 65.377 132.29C66.4141 132.29 67.4512 131.771 67.9697 130.907" stroke="black" stroke-width="1.29639" stroke-miterlimit="10" stroke-linecap="round" stroke-linejoin="round"/>
<path d="M72.9829 130.734C72.9829 130.907 72.1187 132.117 70.563 132.29C69.5259 132.29 68.4888 131.771 67.9702 130.907" fill="white"/>
<path d="M72.9829 130.734C72.9829 130.907 72.1187 132.117 70.563 132.29C69.5259 132.29 68.4888 131.771 67.9702 130.907" stroke="black" stroke-width="1.29639" stroke-miterlimit="10" stroke-linecap="round" stroke-linejoin="round"/>
<path d="M97.1821 120.19C102.242 120.19 106.343 116.011 106.343 110.856C106.343 105.701 102.242 101.522 97.1821 101.522C92.1226 101.522 88.021 105.701 88.021 110.856C88.021 116.011 92.1226 120.19 97.1821 120.19Z" fill="black"/>
<path d="M104.614 127.45C107.765 127.45 110.318 125.979 110.318 124.166C110.318 122.352 107.765 120.881 104.614 120.881C101.464 120.881 98.9102 122.352 98.9102 124.166C98.9102 125.979 101.464 127.45 104.614 127.45Z" fill="#7B6A58"/>
<path d="M49.4032 59.0438C50.0136 41.8491 40.7277 18.8753 34.6386 10.8905C34.4249 10.6103 34.717 10.2077 35.0494 10.325C49.0866 15.2792 54.5089 22.1839 57.6511 28.9273C57.7872 29.2195 58.2171 29.1901 58.308 28.8809L66.3519 1.53156C66.4492 1.20068 66.9179 1.20068 67.0152 1.53156L75.0782 28.9458C75.1668 29.247 75.584 29.2865 75.7371 29.0123C80.1467 21.1185 90.8697 14.4956 98.3984 10.5018C98.7099 10.3365 99.0415 10.6939 98.8624 10.9977C90.9849 24.3582 86.2595 48.3946 84.8441 59.0894C84.8365 59.1466 84.8154 59.1978 84.7811 59.2442C77.8405 68.6467 57.304 68.6567 49.4816 59.2742C49.4276 59.2094 49.4002 59.1281 49.4032 59.0438Z" fill="#E4C580" stroke="black" stroke-width="1.72852"/>
<path fill-rule="evenodd" clip-rule="evenodd" d="M74.4006 40.8222C74.945 41.287 75.1466 42.0393 74.9075 42.714L72.2402 50.2423C71.981 50.9738 71.266 51.4429 70.4918 51.3894L62.8915 50.8646C62.1549 50.8137 61.532 50.3007 61.3409 49.5876L59.2148 41.6528C59.0237 40.9397 59.3067 40.1839 59.9191 39.7716L66.2388 35.5169C66.8826 35.0835 67.7363 35.1323 68.3265 35.6362L74.4006 40.8222Z" fill="#D90000" stroke="black" stroke-width="1.72852"/>
</svg>
