<svg width="65" height="23" viewBox="0 0 65 23" fill="none" xmlns="http://www.w3.org/2000/svg">
<rect x="0.25" y="0.25" width="63.8529" height="21.8529" rx="3.75" fill="#FC68B4" fill-opacity="0.1"/>
<path d="M13.1381 15.6765V10.7365C13.1381 10.2512 13.0298 9.91318 12.8131 9.72251C12.6051 9.53185 12.3191 9.43651 11.9551 9.43651H8.77011V8.37051H12.3061C12.7394 8.37051 13.1208 8.45285 13.4501 8.61751C13.7881 8.77351 14.0481 9.02918 14.2301 9.38451C14.4208 9.73985 14.5161 10.2122 14.5161 10.8015V15.6765H13.1381ZM8.73111 15.6765V12.1535L8.92611 11.2825H10.1091V12.1535V15.6765H8.73111ZM16.1751 12.9465V11.8675V9.89151L16.0191 8.37051H17.3971L17.5661 9.89151V11.8675L17.5531 12.6865L16.1751 12.9465ZM19.2855 12.9465V11.8675V9.89151L19.1295 8.37051H20.5075L20.6765 9.89151V11.8675L20.6635 12.6865L19.2855 12.9465ZM26.8158 15.6765V10.8665C26.8158 9.91318 26.4215 9.43651 25.6328 9.43651H22.2528V8.37051H25.9838C26.4345 8.37051 26.8245 8.46151 27.1538 8.64351C27.4918 8.82551 27.7475 9.10718 27.9208 9.48851C28.1028 9.86118 28.1938 10.3422 28.1938 10.9315V15.6765H26.8158ZM22.2528 15.6765V8.92951H23.6438V15.6765H22.2528ZM32.7198 15.6765V10.9575C32.7198 10.6195 32.7501 10.3248 32.8108 10.0735C32.8801 9.81351 32.9711 9.60118 33.0838 9.43651H29.5738V8.37051H35.3718V9.43651H34.3838C34.2711 9.65318 34.1931 9.90451 34.1498 10.1905C34.1151 10.4678 34.0978 10.7235 34.0978 10.9575V15.6765H32.7198Z" fill="#FC68B4"/>
<path d="M51.7648 6.58826L42.5884 15.7647M42.5884 6.58826L51.7648 15.7647" stroke="#FC68B4" stroke-width="1.14706" stroke-linecap="round" stroke-linejoin="round"/>
<rect x="0.25" y="0.25" width="63.8529" height="21.8529" rx="3.75" stroke="#FC68B4" stroke-width="0.5"/>
</svg>
