<svg width="224" height="145" viewBox="0 0 224 145" fill="none" xmlns="http://www.w3.org/2000/svg">
<g clip-path="url(#clip0_236_1328)">
<path d="M32.1589 63.1731C49.497 63.1731 63.5522 49.1178 63.5522 31.7798C63.5522 14.4417 49.497 0.386475 32.1589 0.386475C14.8209 0.386475 0.765625 14.4417 0.765625 31.7798C0.765625 49.1178 14.8209 63.1731 32.1589 63.1731Z" fill="#B2B2B2" stroke="#1D1D1B" stroke-width="0.677895" stroke-linecap="round" stroke-linejoin="round"/>
<path d="M9.10404 35.1487C4.68417 20.9604 8.29735 13.8967 8.29735 13.8967C8.29735 13.8967 19.2453 14.0594 23.211 19.4555" fill="#CA9E67"/>
<path d="M9.10404 35.1487C4.68417 20.9604 8.29735 13.8967 8.29735 13.8967C8.29735 13.8967 19.2453 14.0594 23.211 19.4555" stroke="#1D1D1B" stroke-width="0.677895" stroke-linecap="round" stroke-linejoin="round"/>
<path d="M54.4889 35.1487C58.9155 20.9604 55.3024 13.8967 55.3024 13.8967C55.3024 13.8967 44.3476 14.0594 40.3887 19.4555" fill="#CA9E67"/>
<path d="M54.4889 35.1487C58.9155 20.9604 55.3024 13.8967 55.3024 13.8967C55.3024 13.8967 44.3476 14.0594 40.3887 19.4555" stroke="#1D1D1B" stroke-width="0.677895" stroke-linecap="round" stroke-linejoin="round"/>
<path d="M12.0938 29.8273C9.90417 22.784 11.6938 19.2793 11.6938 19.2793C11.6938 19.2793 17.117 19.3539 19.0829 22.0315" fill="#7B6A58"/>
<path d="M12.0938 29.8273C9.90417 22.784 11.6938 19.2793 11.6938 19.2793C11.6938 19.2793 17.117 19.3539 19.0829 22.0315" stroke="#1D1D1B" stroke-width="0.677895" stroke-linecap="round" stroke-linejoin="round"/>
<path d="M51.5203 29.8273C53.7167 22.784 51.9203 19.2793 51.9203 19.2793C51.9203 19.2793 46.4971 19.3539 44.5312 22.0315" fill="#7B6A58"/>
<path d="M51.5203 29.8273C53.7167 22.784 51.9203 19.2793 51.9203 19.2793C51.9203 19.2793 46.4971 19.3539 44.5312 22.0315" stroke="#1D1D1B" stroke-width="0.677895" stroke-linecap="round" stroke-linejoin="round"/>
<path d="M31.9222 57.3904C36.9679 57.5492 41.9786 56.501 46.5376 54.3331C49.6763 52.8011 53.3166 50.7742 54.4148 47.0186C54.8999 45.133 54.8364 43.148 54.2317 41.2972C54.347 40.3007 57.0247 30.5661 47.0596 22.3162C42.8536 18.7984 37.4891 16.9716 32.0104 17.1913H31.9561C26.4772 16.9703 21.1122 18.7973 16.9069 22.3162C6.94181 30.5729 9.61949 40.3075 9.73473 41.2972C9.10694 43.1416 9.02224 45.1275 9.49069 47.0186C10.5821 50.7742 14.236 52.8011 17.3678 54.3331C21.9268 56.501 26.9375 57.5492 31.9832 57.3904H31.9222Z" fill="#CA9E67" stroke="#1D1D1B" stroke-width="0.677895" stroke-linecap="round" stroke-linejoin="round"/>
<mask id="mask0_236_1328" style="mask-type:luminance" maskUnits="userSpaceOnUse" x="9" y="17" width="46" height="41">
<path d="M31.9213 57.3907C36.967 57.5494 41.9777 56.5013 46.5367 54.3334C49.6753 52.8013 53.3156 50.7744 54.4138 47.0189C54.8989 45.1332 54.8354 43.1483 54.2308 41.2975C54.346 40.301 57.0237 30.5664 47.0586 22.3164C42.8526 18.7987 37.4881 16.9719 32.0094 17.1915H31.9551C26.4762 16.9706 21.1113 18.7975 16.9059 22.3164C6.94083 30.5732 9.61851 40.3077 9.73376 41.2975C9.10597 43.1418 9.02126 45.1277 9.48971 47.0189C10.5811 50.7744 14.235 52.8013 17.3669 54.3334C21.9259 56.5013 26.9366 57.5494 31.9823 57.3907H31.9213Z" fill="white"/>
</mask>
<g mask="url(#mask0_236_1328)">
<path d="M46.3136 49.2898C52.7831 49.2898 58.0276 43.8814 58.0276 37.2097C58.0276 30.5381 52.7831 25.1296 46.3136 25.1296C39.8442 25.1296 34.5996 30.5381 34.5996 37.2097C34.5996 43.8814 39.8442 49.2898 46.3136 49.2898Z" fill="#B17F4A"/>
</g>
<path d="M31.9222 57.3904C36.9679 57.5492 41.9786 56.501 46.5376 54.3331C49.6763 52.8011 53.3166 50.7742 54.4148 47.0186C54.8999 45.133 54.8364 43.148 54.2317 41.2972C54.347 40.3007 57.0247 30.5661 47.0596 22.3162C42.8536 18.7984 37.4891 16.9716 32.0104 17.1913H31.9561C26.4772 16.9703 21.1122 18.7973 16.9069 22.3162C6.94181 30.5729 9.61949 40.3075 9.73473 41.2972C9.10694 43.1416 9.02224 45.1275 9.49069 47.0186C10.5821 50.7742 14.236 52.8011 17.3678 54.3331C21.9268 56.501 26.9375 57.5492 31.9832 57.3904H31.9222Z" stroke="#1D1D1B" stroke-width="0.677895" stroke-miterlimit="10"/>
<path d="M21.0143 43.2631C22.8975 43.2631 24.4241 41.6879 24.4241 39.7448C24.4241 37.8017 22.8975 36.2266 21.0143 36.2266C19.1311 36.2266 17.6045 37.8017 17.6045 39.7448C17.6045 41.6879 19.1311 43.2631 21.0143 43.2631Z" fill="#1D1D1B"/>
<path d="M18.2554 45.9204C19.4385 45.9204 20.3976 45.3801 20.3976 44.7137C20.3976 44.0473 19.4385 43.5071 18.2554 43.5071C17.0724 43.5071 16.1133 44.0473 16.1133 44.7137C16.1133 45.3801 17.0724 45.9204 18.2554 45.9204Z" fill="#7B6A58"/>
<path d="M42.9108 43.2631C44.794 43.2631 46.3206 41.6879 46.3206 39.7448C46.3206 37.8017 44.794 36.2266 42.9108 36.2266C41.0276 36.2266 39.501 37.8017 39.501 39.7448C39.501 41.6879 41.0276 43.2631 42.9108 43.2631Z" fill="#1D1D1B"/>
<path d="M45.6695 45.9204C46.8526 45.9204 47.8116 45.3801 47.8116 44.7137C47.8116 44.0473 46.8526 43.5071 45.6695 43.5071C44.4864 43.5071 43.5273 44.0473 43.5273 44.7137C43.5273 45.3801 44.4864 45.9204 45.6695 45.9204Z" fill="#7B6A58"/>
<path d="M34.3488 48.4219C34.3488 49.2083 31.922 50.3065 31.922 50.3065C31.922 50.3065 29.4951 49.2083 29.4951 48.4219C29.4951 47.6356 30.5798 47.0051 31.922 47.0051C33.2642 47.0051 34.3488 47.6424 34.3488 48.4219Z" fill="#1D1D1B"/>
<path d="M19.6863 38.9585C20.0195 38.9585 20.2897 38.6793 20.2897 38.3348C20.2897 37.9904 20.0195 37.7112 19.6863 37.7112C19.3531 37.7112 19.083 37.9904 19.083 38.3348C19.083 38.6793 19.3531 38.9585 19.6863 38.9585Z" fill="white"/>
<path d="M50.3271 43.6496L59.4923 42.8835" stroke="#1D1D1B" stroke-width="0.677895" stroke-linecap="round" stroke-linejoin="round"/>
<path d="M50.3271 46.1848L59.4923 46.9508" stroke="#1D1D1B" stroke-width="0.677895" stroke-linecap="round" stroke-linejoin="round"/>
<path d="M50.293 44.9172H56.2245" stroke="#1D1D1B" stroke-width="0.677895" stroke-linecap="round" stroke-linejoin="round"/>
<path d="M41.494 38.9585C41.8272 38.9585 42.0973 38.6793 42.0973 38.3348C42.0973 37.9904 41.8272 37.7112 41.494 37.7112C41.1607 37.7112 40.8906 37.9904 40.8906 38.3348C40.8906 38.6793 41.1607 38.9585 41.494 38.9585Z" fill="white"/>
<path d="M13.9923 43.6496L4.82715 42.8835" stroke="#1D1D1B" stroke-width="0.677895" stroke-linecap="round" stroke-linejoin="round"/>
<path d="M13.9923 46.1848L4.82715 46.9508" stroke="#1D1D1B" stroke-width="0.677895" stroke-linecap="round" stroke-linejoin="round"/>
<path d="M14.0195 44.9172H8.09473" stroke="#1D1D1B" stroke-width="0.677895" stroke-linecap="round" stroke-linejoin="round"/>
<path d="M9.74096 46.9372C10.5625 49.0263 12.0648 50.777 14.0049 51.9062C15.9461 53.1002 17.9875 54.1232 20.106 54.9635C22.1676 55.8755 24.3672 56.4369 26.6138 56.6244C27.6931 56.7116 28.7759 56.503 29.7456 56.021C30.7086 55.5014 31.4362 54.6331 31.7793 53.5942C31.7892 53.5641 31.805 53.5364 31.8258 53.5125C31.8466 53.4887 31.872 53.4692 31.9004 53.4553C31.9288 53.4414 31.9598 53.4334 31.9914 53.4316C32.0229 53.4298 32.0546 53.4344 32.0844 53.445C32.1177 53.4572 32.1481 53.4761 32.1738 53.5006C32.1995 53.5251 32.2198 53.5547 32.2335 53.5874L32.2945 53.7569C32.5791 54.5099 32.6403 55.329 32.4708 56.1159C32.2635 57.0066 31.8184 57.8243 31.1828 58.4818C30.5519 59.1619 29.7943 59.7122 28.9525 60.102C28.1804 60.4696 27.365 60.7383 26.5256 60.9019C25.0401 61.1767 23.5196 61.2064 22.0244 60.99C21.3373 60.9055 20.6575 60.7695 19.9907 60.5833C19.3403 60.4239 18.7016 60.2201 18.0791 59.9732C17.4604 59.7479 16.8559 59.4853 16.2691 59.1868C15.6983 58.9081 15.1459 58.5933 14.615 58.2445C14.0594 57.8891 13.5231 57.5044 13.0084 57.0921C12.4643 56.6402 11.9503 56.1534 11.4696 55.6346C10.416 54.5159 9.60986 53.1878 9.10374 51.7367C8.54952 50.2317 8.58586 48.5725 9.20542 47.0932L9.29355 46.9169C9.30596 46.8884 9.32399 46.8628 9.34657 46.8415C9.36914 46.8202 9.39579 46.8036 9.42491 46.7929C9.45404 46.7821 9.48503 46.7773 9.51604 46.7788C9.54706 46.7804 9.57744 46.7881 9.60538 46.8017C9.63617 46.8136 9.66413 46.8318 9.68747 46.8551C9.71082 46.8785 9.72903 46.9065 9.74096 46.9372Z" fill="#1D1D1B"/>
<path d="M54.7407 47.0933C55.3672 48.576 55.4036 50.2419 54.8424 51.7505C54.3339 53.2019 53.5255 54.53 52.4698 55.6484C51.989 56.165 51.475 56.6496 50.9309 57.0991C50.3818 57.5126 49.8666 57.9261 49.3176 58.2583C48.7762 58.6111 48.2124 58.9282 47.6296 59.2073C44.4737 60.7755 40.915 61.3454 37.4273 60.841C36.611 60.6854 35.815 60.4375 35.0546 60.1021C34.2061 59.7386 33.4335 59.2189 32.7769 58.5701C32.0928 57.9092 31.6209 57.0597 31.4211 56.1297C31.2489 55.3176 31.3589 54.471 31.733 53.7299L31.8075 53.5672C31.8379 53.5112 31.8884 53.4688 31.9488 53.4487C32.0092 53.4285 32.075 53.4322 32.1329 53.4588C32.1653 53.4744 32.1937 53.4971 32.216 53.5253C32.2384 53.5535 32.254 53.5864 32.2617 53.6215C32.3661 54.1443 32.5891 54.6362 32.9134 55.0592C33.2378 55.4823 33.6549 55.8253 34.1327 56.0619C35.1283 56.4953 36.2172 56.6701 37.2985 56.5703C39.5522 56.3783 41.7619 55.8339 43.8469 54.9569C45.9702 54.1327 48.0126 53.1138 49.948 51.9132C51.8989 50.7883 53.4096 49.0338 54.2323 46.9374C54.2429 46.908 54.2592 46.8809 54.2803 46.8578C54.3014 46.8347 54.3268 46.816 54.3552 46.8028C54.3835 46.7895 54.4142 46.7821 54.4455 46.7807C54.4768 46.7794 54.508 46.7843 54.5373 46.7951C54.5674 46.8043 54.5952 46.8201 54.6186 46.8411C54.642 46.8622 54.6605 46.8881 54.6729 46.9171L54.7407 47.0933Z" fill="#1D1D1B"/>
<path d="M48.5981 19.7809C46.4147 17.6715 43.826 16.0271 40.9888 14.9469C38.1516 13.8668 35.1247 13.3735 32.0913 13.4968H32.0371C29.0038 13.3743 25.9772 13.868 23.14 14.948C20.3029 16.0281 17.7142 17.6722 15.5304 19.7809C10.7376 24.2211 9.42931 31.3458 9.03613 35.4877C11.8087 36.0978 22.2822 36.7283 32.0846 36.7283C41.8869 36.7283 51.9672 35.7724 54.8347 35.1488C53.9806 31.0678 53.3976 24.2211 48.5981 19.7809Z" fill="white" stroke="#1D1D1B" stroke-width="0.338947" stroke-miterlimit="10"/>
<path d="M9.76172 31.4678C17.1543 32.8169 24.6515 33.5111 32.1661 33.5422C41.372 33.5422 50.5235 31.339 54.1231 30.573" stroke="#1D1D1B" stroke-width="0.677895" stroke-linecap="round" stroke-linejoin="round"/>
<path d="M32.4785 50.0353C33.4886 49.8251 34.458 49.737 35.2714 49.5404C35.4468 49.5035 35.6174 49.4466 35.7799 49.3709C35.8273 49.3709 35.9019 49.3031 35.9019 49.2828H35.9358L36.1256 49.1811C36.2858 49.1111 36.4597 49.0778 36.6345 49.0837C36.8092 49.0895 36.9805 49.1344 37.1357 49.215C37.2037 49.2476 37.2675 49.2886 37.3255 49.337C37.3646 49.3675 37.401 49.4016 37.4339 49.4387C37.4948 49.5003 37.5514 49.566 37.6034 49.6353C37.6677 49.7313 37.7266 49.8309 37.7797 49.9336C37.8495 50.0836 37.9106 50.2375 37.9627 50.3945C38.0442 50.657 38.1099 50.9241 38.1593 51.1944C38.3231 52.1777 38.3595 53.1779 38.2677 54.1704C38.193 55.1733 37.9644 56.1588 37.5898 57.0921C37.1844 56.1748 36.882 55.2154 36.6882 54.2314C36.4713 53.3095 36.3222 52.374 36.173 51.5198C36.173 51.3097 36.0985 51.0995 36.051 50.9233L35.9968 50.7131C36.0102 50.7372 36.0287 50.758 36.051 50.7742H36.0985C36.134 50.8052 36.1726 50.8325 36.2137 50.8555L36.3493 50.903C36.415 50.9246 36.4835 50.936 36.5527 50.9369C36.6197 50.9513 36.689 50.9513 36.756 50.9369H36.8848L36.9933 50.8691C37.0272 50.8691 36.9933 50.8691 36.9526 50.8691L36.8103 50.9504C36.6369 51.0315 36.455 51.0929 36.2679 51.1334C35.9682 51.1864 35.6628 51.2001 35.3596 51.1741C34.3146 51.0593 33.3196 50.666 32.4785 50.0353Z" fill="#1D1D1B"/>
<path d="M31.4071 50.0353C30.5592 50.6515 29.5623 51.0306 28.5192 51.1335C28.216 51.1596 27.9106 51.1459 27.6109 51.0928C27.4238 51.0523 27.2419 50.9909 27.0685 50.9098L26.9262 50.842C26.9262 50.842 26.8516 50.8013 26.8855 50.842C26.918 50.87 26.9546 50.8929 26.994 50.9098H27.116C27.1831 50.9239 27.2523 50.9239 27.3194 50.9098C27.3907 50.909 27.4615 50.8976 27.5295 50.8759L27.6583 50.842C27.7024 50.8205 27.7435 50.7931 27.7803 50.7607H27.8278C27.8482 50.7425 27.8664 50.7221 27.882 50.6997L27.8278 50.9098C27.7871 51.0861 27.7464 51.2962 27.7125 51.5064C27.5634 52.3741 27.4075 53.3096 27.1973 54.2179C26.9885 55.186 26.6772 56.1291 26.2686 57.0312C25.8941 56.0978 25.6655 55.1124 25.5907 54.1095C25.4955 53.117 25.532 52.1164 25.6992 51.1335C25.7534 50.8759 25.8009 50.6183 25.889 50.3336C25.9437 50.1765 26.007 50.0226 26.0788 49.8726C26.1293 49.7699 26.1859 49.6703 26.2483 49.5744C26.3003 49.5051 26.3569 49.4394 26.4178 49.3778L26.5262 49.2761C26.5876 49.2291 26.6535 49.1882 26.7228 49.1541C26.8768 49.0736 27.0469 49.0287 27.2206 49.0229C27.3943 49.017 27.567 49.0503 27.7261 49.1202C27.7937 49.15 27.8593 49.1839 27.9227 49.2219C27.9227 49.2219 27.9973 49.2761 28.0379 49.31C28.2028 49.3856 28.3756 49.4425 28.5531 49.4795C29.4208 49.7371 30.397 49.8252 31.4071 50.0353Z" fill="#1D1D1B"/>
</g>
<g clip-path="url(#clip1_236_1328)">
<mask id="mask1_236_1328" style="mask-type:luminance" maskUnits="userSpaceOnUse" x="80" y="0" width="64" height="64">
<path d="M111.716 63.2883C129.054 63.2883 143.109 49.2331 143.109 31.895C143.109 14.557 129.054 0.501709 111.716 0.501709C94.3775 0.501709 80.3223 14.557 80.3223 31.895C80.3223 49.2331 94.3775 63.2883 111.716 63.2883Z" fill="white"/>
</mask>
<g mask="url(#mask1_236_1328)">
<path d="M142.953 53.1877C142.953 56.4483 142.953 59.7022 142.953 62.9561C142.953 63.4578 142.837 63.5662 142.343 63.5662C121.739 63.5662 101.142 63.5662 80.5524 63.5662C80.0508 63.5662 79.9355 63.4578 79.9355 62.9561C79.9355 59.7022 79.9355 56.4483 79.9355 53.1877L80.1389 53.0317C80.6406 53.0317 81.1354 53.0317 81.6371 53.0317H141.258C141.753 53.0317 142.254 53.0317 142.749 53.0317L142.953 53.1877Z" fill="#E31014"/>
<path d="M79.9629 21.4961V11.1311H142.953V21.6927H137.177C137.009 21.5499 136.798 21.4682 136.578 21.4608C136.357 21.4534 136.141 21.5208 135.964 21.652C135.53 21.652 135.103 21.652 134.669 21.652H81.4678C81.0407 21.652 80.6069 21.652 80.173 21.652L79.9629 21.4961Z" fill="#3258A4"/>
<path d="M79.9629 42.626V32.261H142.953V42.626H142.75H141.956H81.5627L80.756 42.6124H80.5527L79.9629 42.626Z" fill="#FCEA1B"/>
<path d="M79.9629 10.7311C79.9629 7.54495 79.9629 4.35884 79.9629 1.17951C79.9629 0.704988 80.0307 0.549072 80.5594 0.549072C101.163 0.549072 121.769 0.549072 142.377 0.549072C142.905 0.549072 142.973 0.704988 142.973 1.17951C142.973 4.35884 142.973 7.54495 142.973 10.7311H79.9629Z" fill="#702381"/>
<path d="M79.9629 42.626H80.5594C80.6272 42.7209 80.695 42.7277 80.7628 42.626H81.5627H141.956H142.75L142.953 42.8361V52.8012H79.9629V42.626Z" fill="#F28A1A"/>
<path d="M80.173 21.6453C80.6069 21.6453 81.0407 21.6453 81.4678 21.6453H134.669C135.103 21.6453 135.53 21.6453 135.964 21.6453C136.122 21.8063 136.337 21.9003 136.562 21.9079C136.788 21.9155 137.008 21.836 137.177 21.6859H142.953V31.8611H79.9629V21.6927L80.173 21.6453Z" fill="#0A8137"/>
<path d="M79.9629 52.7876H142.953V52.991L142.75 53.0316C142.255 53.0316 141.753 53.0316 141.258 53.0316H81.6644C81.1628 53.0316 80.6679 53.0316 80.1663 53.0316L79.9629 52.991V52.7876Z" fill="#EF7C26"/>
<path d="M111.458 32.3016C136.055 32.3016 155.995 32.2378 155.995 32.1592C155.995 32.0806 136.055 32.0168 111.458 32.0168C86.8601 32.0168 66.9199 32.0806 66.9199 32.1592C66.9199 32.2378 86.8601 32.3016 111.458 32.3016Z" fill="#DADC30"/>
<path d="M111.458 32.105C136.055 32.105 155.995 32.0413 155.995 31.9627C155.995 31.8841 136.055 31.8203 111.458 31.8203C86.8601 31.8203 66.9199 31.8841 66.9199 31.9627C66.9199 32.0413 86.8601 32.105 111.458 32.105Z" fill="#217B34"/>
<path d="M111.458 11.1717C136.055 11.1717 155.995 11.1079 155.995 11.0293C155.995 10.9507 136.055 10.887 111.458 10.887C86.8601 10.887 66.9199 10.9507 66.9199 11.0293C66.9199 11.1079 86.8601 11.1717 111.458 11.1717Z" fill="#3B4194"/>
<path d="M111.458 10.9751C136.055 10.9751 155.995 10.9114 155.995 10.8328C155.995 10.7542 136.055 10.6904 111.458 10.6904C86.8601 10.6904 66.9199 10.7542 66.9199 10.8328C66.9199 10.9114 86.8601 10.9751 111.458 10.9751Z" fill="#5A2985"/>
<path d="M142.749 53.0315L142.952 52.991V53.1869L142.749 53.0315Z" fill="#E63913"/>
<path d="M142.952 42.822L142.749 42.6125H142.952V42.822Z" fill="#F19507"/>
<path d="M137.176 21.6927C137.007 21.8428 136.787 21.9222 136.561 21.9146C136.336 21.9071 136.121 21.8131 135.963 21.652C136.14 21.5208 136.356 21.4534 136.577 21.4608C136.797 21.4681 137.008 21.5499 137.176 21.6927Z" fill="#00774B"/>
<path d="M80.7555 42.6125C80.6879 42.7072 80.6203 42.7004 80.5527 42.6125H80.7555Z" fill="#F19507"/>
</g>
<path d="M111.716 63.2883C129.054 63.2883 143.109 49.2331 143.109 31.895C143.109 14.557 129.054 0.501709 111.716 0.501709C94.3775 0.501709 80.3223 14.557 80.3223 31.895C80.3223 49.2331 94.3775 63.2883 111.716 63.2883Z" stroke="#1D1D1B" stroke-width="0.677895" stroke-miterlimit="10"/>
<path d="M88.6668 35.2505C84.2402 21.0622 87.8533 13.9985 87.8533 13.9985C87.8533 13.9985 98.8081 14.1612 102.767 19.5573" fill="#EACE5D"/>
<path d="M88.6668 35.2505C84.2402 21.0622 87.8533 13.9985 87.8533 13.9985C87.8533 13.9985 98.8081 14.1612 102.767 19.5573" stroke="#1D1D1B" stroke-width="0.677895" stroke-linecap="round" stroke-linejoin="round"/>
<path d="M134.051 35.2505C138.471 21.0622 134.858 13.9985 134.858 13.9985C134.858 13.9985 123.91 14.1612 119.944 19.5573" fill="#EACE5D"/>
<path d="M134.051 35.2505C138.471 21.0622 134.858 13.9985 134.858 13.9985C134.858 13.9985 123.91 14.1612 119.944 19.5573" stroke="#1D1D1B" stroke-width="0.677895" stroke-linecap="round" stroke-linejoin="round"/>
<path d="M91.6563 29.9086C89.4599 22.8721 91.2564 19.3606 91.2564 19.3606C91.2564 19.3606 96.6795 19.4419 98.6454 22.1196" fill="#E06BA3"/>
<path d="M91.6563 29.9086C89.4599 22.8721 91.2564 19.3606 91.2564 19.3606C91.2564 19.3606 96.6795 19.4419 98.6454 22.1196" stroke="#1D1D1B" stroke-width="0.677895" stroke-linecap="round" stroke-linejoin="round"/>
<path d="M131.062 29.9086C133.259 22.8721 131.462 19.3606 131.462 19.3606C131.462 19.3606 126.039 19.4419 124.073 22.1196" fill="#E06BA3"/>
<path d="M131.062 29.9086C133.259 22.8721 131.462 19.3606 131.462 19.3606C131.462 19.3606 126.039 19.4419 124.073 22.1196" stroke="#1D1D1B" stroke-width="0.677895" stroke-linecap="round" stroke-linejoin="round"/>
<path d="M111.532 57.5059C116.587 57.6679 121.607 56.6197 126.175 54.4486C129.314 52.9166 132.954 50.8897 134.045 47.1273C134.521 45.2413 134.448 43.2587 133.835 41.4127C133.944 40.4094 136.628 30.6816 126.656 22.4316C122.451 18.9128 117.086 17.0858 111.607 17.3068H111.532C106.056 17.0868 100.693 18.9138 96.4899 22.4316C86.5181 30.6884 89.2025 40.4162 89.311 41.4127C88.6987 43.2586 88.6235 45.2404 89.0941 47.1273C90.1855 50.8897 93.8393 52.9166 96.9712 54.4486C101.53 56.6165 106.541 57.6647 111.587 57.5059H111.532Z" fill="#EACE5D" stroke="#1D1D1B" stroke-width="0.677895" stroke-linecap="round" stroke-linejoin="round"/>
<path d="M111.843 17.2999H111.721C106.242 17.079 100.877 18.9059 96.6721 22.4248C86.7071 30.6816 89.3847 40.4094 89.5 41.4059C88.8844 43.2511 88.8091 45.2339 89.2831 47.1205C89.4053 47.5372 89.5618 47.943 89.7508 48.3339C119.07 47.1002 112.84 20.8995 111.843 17.2999Z" fill="#F0A642"/>
<path d="M100.571 43.3786C102.454 43.3786 103.981 41.8034 103.981 39.8603C103.981 37.9172 102.454 36.342 100.571 36.342C98.6878 36.342 97.1611 37.9172 97.1611 39.8603C97.1611 41.8034 98.6878 43.3786 100.571 43.3786Z" fill="#1D1D1B"/>
<path d="M97.8179 46.0359C99.001 46.0359 99.9601 45.4956 99.9601 44.8292C99.9601 44.1628 99.001 43.6226 97.8179 43.6226C96.6349 43.6226 95.6758 44.1628 95.6758 44.8292C95.6758 45.4956 96.6349 46.0359 97.8179 46.0359Z" fill="#E06BA3"/>
<path d="M122.473 43.3786C124.356 43.3786 125.883 41.8034 125.883 39.8603C125.883 37.9172 124.356 36.342 122.473 36.342C120.59 36.342 119.063 37.9172 119.063 39.8603C119.063 41.8034 120.59 43.3786 122.473 43.3786Z" fill="#1D1D1B"/>
<path d="M125.226 46.0359C126.409 46.0359 127.368 45.4956 127.368 44.8292C127.368 44.1628 126.409 43.6226 125.226 43.6226C124.043 43.6226 123.084 44.1628 123.084 44.8292C123.084 45.4956 124.043 46.0359 125.226 46.0359Z" fill="#E06BA3"/>
<path d="M113.912 45.2901C113.912 46.0764 111.485 47.1746 111.485 47.1746C111.485 47.1746 109.052 46.0968 109.052 45.2901C109.052 44.4834 110.143 43.8733 111.485 43.8733C112.828 43.8733 113.912 44.5105 113.912 45.2901Z" fill="#1D1D1B"/>
<path d="M99.2488 39.0737C99.582 39.0737 99.8522 38.7945 99.8522 38.4501C99.8522 38.1056 99.582 37.8264 99.2488 37.8264C98.9156 37.8264 98.6455 38.1056 98.6455 38.4501C98.6455 38.7945 98.9156 39.0737 99.2488 39.0737Z" fill="white"/>
<path d="M129.883 43.7648L139.048 42.9988" stroke="#1D1D1B" stroke-width="0.677895" stroke-linecap="round" stroke-linejoin="round"/>
<path d="M129.883 46.3003L139.048 47.0663" stroke="#1D1D1B" stroke-width="0.677895" stroke-linecap="round" stroke-linejoin="round"/>
<path d="M129.855 45.0325H135.787" stroke="#1D1D1B" stroke-width="0.677895" stroke-linecap="round" stroke-linejoin="round"/>
<path d="M121.05 39.0737C121.383 39.0737 121.653 38.7945 121.653 38.4501C121.653 38.1056 121.383 37.8264 121.05 37.8264C120.716 37.8264 120.446 38.1056 120.446 38.4501C120.446 38.7945 120.716 39.0737 121.05 39.0737Z" fill="white"/>
<path d="M93.5538 43.7648L84.3818 42.9988" stroke="#1D1D1B" stroke-width="0.677895" stroke-linecap="round" stroke-linejoin="round"/>
<path d="M93.5538 46.3003L84.3818 47.0663" stroke="#1D1D1B" stroke-width="0.677895" stroke-linecap="round" stroke-linejoin="round"/>
<path d="M93.582 45.0325H87.6504" stroke="#1D1D1B" stroke-width="0.677895" stroke-linecap="round" stroke-linejoin="round"/>
<path d="M111.484 57.5059C116.53 57.6646 121.541 56.6165 126.1 54.4486C129.239 52.9166 132.879 50.8897 133.977 47.1273C134.448 45.2404 134.372 43.2586 133.76 41.4127C133.869 40.4094 136.553 30.6816 126.581 22.4316C122.378 18.9138 117.015 17.0868 111.539 17.3068H111.484C106.006 17.0858 100.641 18.9128 96.4352 22.4316C86.4634 30.6884 89.1479 40.4162 89.2563 41.4127C88.6437 43.2587 88.5708 45.2413 89.0462 47.1273C90.1308 50.8897 93.7914 52.9166 96.9165 54.4486C101.478 56.6166 106.491 57.6647 111.539 57.5059H111.484Z" stroke="#1D1D1B" stroke-width="0.677895" stroke-linecap="round" stroke-linejoin="round"/>
<path d="M111.484 47.1748C110.498 48.0859 109.193 48.5728 107.851 48.5306" stroke="#1D1D1B" stroke-width="0.677895" stroke-linecap="round" stroke-linejoin="round"/>
<path d="M111.512 47.1748C112.495 48.0867 113.798 48.574 115.138 48.5306" stroke="#1D1D1B" stroke-width="0.677895" stroke-linecap="round" stroke-linejoin="round"/>
<path d="M118.867 34.4369C119.825 33.7274 120.993 33.3588 122.184 33.3895C123.376 33.4202 124.523 33.8485 125.443 34.6063" stroke="#1D1D1B" stroke-width="0.677895" stroke-linecap="round" stroke-linejoin="round"/>
<path d="M96.5371 34.3761C97.5849 33.5739 98.8627 33.1297 100.182 33.1089C101.502 33.0882 102.793 33.492 103.865 34.2608" stroke="#1D1D1B" stroke-width="0.677895" stroke-linecap="round" stroke-linejoin="round"/>
</g>
<g clip-path="url(#clip2_236_1328)">
<path d="M190.94 63.1731C208.278 63.1731 222.333 49.1178 222.333 31.7798C222.333 14.4417 208.278 0.386475 190.94 0.386475C173.602 0.386475 159.547 14.4417 159.547 31.7798C159.547 49.1178 173.602 63.1731 190.94 63.1731Z" fill="#C6C6C6" stroke="#1D1D1B" stroke-width="0.677895" stroke-linecap="round" stroke-linejoin="round"/>
<path d="M168.549 35.1487C164.122 20.9604 167.735 13.8967 167.735 13.8967C167.735 13.8967 178.683 14.0594 182.649 19.4555" fill="#FCF6C1"/>
<path d="M168.549 35.1487C164.122 20.9604 167.735 13.8967 167.735 13.8967C167.735 13.8967 178.683 14.0594 182.649 19.4555" stroke="#1D1D1B" stroke-width="0.677895" stroke-linecap="round" stroke-linejoin="round"/>
<path d="M213.934 35.1487C218.354 20.9604 214.741 13.8967 214.741 13.8967C214.741 13.8967 203.793 14.0594 199.827 19.4555" fill="#FCF6C1"/>
<path d="M213.934 35.1487C218.354 20.9604 214.741 13.8967 214.741 13.8967C214.741 13.8967 203.793 14.0594 199.827 19.4555" stroke="#1D1D1B" stroke-width="0.677895" stroke-linecap="round" stroke-linejoin="round"/>
<path d="M171.539 29.8274C169.343 22.7569 171.139 19.2522 171.139 19.2522C171.139 19.2522 176.562 19.3268 178.528 22.0044" fill="#7B6A58"/>
<path d="M171.539 29.8274C169.343 22.7569 171.139 19.2522 171.139 19.2522C171.139 19.2522 176.562 19.3268 178.528 22.0044" stroke="#1D1D1B" stroke-width="0.677895" stroke-linecap="round" stroke-linejoin="round"/>
<path d="M210.938 29.8273C213.135 22.784 211.345 19.2793 211.345 19.2793C211.345 19.2793 205.922 19.3539 203.956 22.0315" fill="#7B6A58"/>
<path d="M210.938 29.8273C213.135 22.784 211.345 19.2793 211.345 19.2793C211.345 19.2793 205.922 19.3539 203.956 22.0315" stroke="#1D1D1B" stroke-width="0.677895" stroke-linecap="round" stroke-linejoin="round"/>
<path d="M191.34 57.3904C196.394 57.5525 201.415 56.5043 205.982 54.3331C209.121 52.8011 212.761 50.7742 213.853 47.0186C214.329 45.1304 214.256 43.1455 213.642 41.2972C213.751 40.3007 216.435 30.5661 206.464 22.3162C202.258 18.7973 196.893 16.9703 191.414 17.1913H191.34C185.861 16.9716 180.496 18.7984 176.29 22.3162C166.325 30.5729 169.01 40.3075 169.118 41.2972C168.502 43.1448 168.427 45.1298 168.901 47.0186C169.993 50.7742 173.647 52.8011 176.779 54.3331C181.338 56.501 186.348 57.5492 191.394 57.3904H191.34Z" fill="#FCF6C1" stroke="#1D1D1B" stroke-width="0.677895" stroke-linecap="round" stroke-linejoin="round"/>
<path d="M191.374 57.2822C196.412 57.4403 201.415 56.3945 205.969 54.2316C209.107 52.6996 212.748 50.6727 213.839 46.9172C214.069 46.0853 214.174 45.2241 214.151 44.3615C210.983 46.3815 207.414 47.6884 203.691 48.1916C199.702 48.6934 195.651 48.1225 191.957 46.5375H191.34C187.643 48.123 183.59 48.694 179.599 48.1916C175.704 47.6557 171.96 46.3292 168.596 44.2937C168.565 45.1786 168.668 46.0631 168.901 46.9172C169.993 50.6727 173.647 52.6996 176.779 54.2316C181.331 56.396 186.335 57.4419 191.374 57.2822Z" fill="#E7E2B1"/>
<path d="M180.453 43.2631C182.336 43.2631 183.863 41.6879 183.863 39.7448C183.863 37.8017 182.336 36.2266 180.453 36.2266C178.57 36.2266 177.043 37.8017 177.043 39.7448C177.043 41.6879 178.57 43.2631 180.453 43.2631Z" fill="#1D1D1B"/>
<path d="M177.701 45.9204C178.884 45.9204 179.843 45.3801 179.843 44.7137C179.843 44.0473 178.884 43.5071 177.701 43.5071C176.518 43.5071 175.559 44.0473 175.559 44.7137C175.559 45.3801 176.518 45.9204 177.701 45.9204Z" fill="#7B6A58"/>
<path d="M202.355 43.2631C204.238 43.2631 205.765 41.6879 205.765 39.7448C205.765 37.8017 204.238 36.2266 202.355 36.2266C200.472 36.2266 198.945 37.8017 198.945 39.7448C198.945 41.6879 200.472 43.2631 202.355 43.2631Z" fill="#1D1D1B"/>
<path d="M205.108 45.9204C206.291 45.9204 207.25 45.3801 207.25 44.7137C207.25 44.0473 206.291 43.5071 205.108 43.5071C203.925 43.5071 202.966 44.0473 202.966 44.7137C202.966 45.3801 203.925 45.9204 205.108 45.9204Z" fill="#7B6A58"/>
<path d="M193.794 46.4019C193.794 47.1883 191.36 48.2865 191.36 48.2865C191.36 48.2865 188.934 47.1883 188.934 46.4019C188.934 45.6155 190.018 44.9851 191.36 44.9851C192.703 44.9851 193.794 45.6223 193.794 46.4019Z" fill="#1D1D1B"/>
<path d="M179.131 38.9585C179.464 38.9585 179.734 38.6793 179.734 38.3348C179.734 37.9904 179.464 37.7112 179.131 37.7112C178.797 37.7112 178.527 37.9904 178.527 38.3348C178.527 38.6793 178.797 38.9585 179.131 38.9585Z" fill="white"/>
<path d="M209.765 43.6496L218.93 42.8835" stroke="#1D1D1B" stroke-width="0.677895" stroke-linecap="round" stroke-linejoin="round"/>
<path d="M209.765 46.1848L218.93 46.9508" stroke="#1D1D1B" stroke-width="0.677895" stroke-linecap="round" stroke-linejoin="round"/>
<path d="M210.213 44.9172H216.144" stroke="#1D1D1B" stroke-width="0.677895" stroke-linecap="round" stroke-linejoin="round"/>
<path d="M200.932 38.9585C201.266 38.9585 201.536 38.6793 201.536 38.3348C201.536 37.9904 201.266 37.7112 200.932 37.7112C200.599 37.7112 200.329 37.9904 200.329 38.3348C200.329 38.6793 200.599 38.9585 200.932 38.9585Z" fill="white"/>
<path d="M173.43 43.6496L164.265 42.8835" stroke="#1D1D1B" stroke-width="0.677895" stroke-linecap="round" stroke-linejoin="round"/>
<path d="M173.43 46.1848L164.265 46.9508" stroke="#1D1D1B" stroke-width="0.677895" stroke-linecap="round" stroke-linejoin="round"/>
<path d="M172.942 44.9172H167.011" stroke="#1D1D1B" stroke-width="0.677895" stroke-linecap="round" stroke-linejoin="round"/>
<path d="M191.34 48.0288C191.34 48.0288 190.662 50.8421 188.079 51.1675" stroke="#1D1D1B" stroke-width="0.677895" stroke-linecap="round" stroke-linejoin="round"/>
<path d="M191.34 48.0288C191.34 48.0288 192.018 50.8217 194.628 51.1675" stroke="#1D1D1B" stroke-width="0.677895" stroke-linecap="round" stroke-linejoin="round"/>
<path d="M191.34 57.3904C196.394 57.5525 201.415 56.5043 205.982 54.3331C209.121 52.8011 212.761 50.7742 213.853 47.0186C214.329 45.1304 214.256 43.1455 213.642 41.2972C213.751 40.3007 216.435 30.5661 206.464 22.3162C202.258 18.7973 196.893 16.9703 191.414 17.1913H191.34C185.861 16.9716 180.496 18.7984 176.29 22.3162C166.325 30.5729 169.01 40.3075 169.118 41.2972C168.502 43.1448 168.427 45.1298 168.901 47.0186C169.993 50.7742 173.647 52.8011 176.779 54.3331C181.338 56.501 186.348 57.5492 191.394 57.3904H191.34Z" stroke="#1D1D1B" stroke-width="0.677895" stroke-linecap="round" stroke-linejoin="round"/>
<path d="M167.43 33.0542C166.427 34.3083 166.075 36.7216 165.695 37.5622C165.39 38.2401 163.397 41.0398 164.021 41.1957L164.821 41.3991L164.726 41.5753C164.726 41.6363 164.658 41.6838 164.624 41.7448C164.334 42.2059 164.185 42.7422 164.197 43.287C164.209 43.8318 164.381 44.361 164.692 44.8089C165.077 45.366 165.551 45.856 166.095 46.2596C166.502 46.5917 166.488 46.585 166.237 47.0256C165.939 47.519 165.672 48.0306 165.437 48.5576C165.336 48.7954 165.29 49.0529 165.301 49.311C165.313 49.5692 165.383 49.8214 165.505 50.049C165.785 50.4743 166.133 50.85 166.536 51.1607C166.854 51.4658 167.166 51.7844 167.458 52.1098C167.483 52.1543 167.496 52.2045 167.496 52.2555C167.496 52.3066 167.483 52.3568 167.458 52.4013C167.227 52.8013 166.963 53.1809 166.732 53.574C166.485 53.939 166.347 54.3667 166.334 54.8072C166.321 55.2476 166.433 55.6828 166.658 56.0619C166.793 56.2924 168.013 57.5533 168.108 57.7363L167.919 57.9397L167.661 58.1837C167.269 58.5183 166.898 58.8759 166.549 59.2548C166.183 59.6887 166 59.9327 165.98 60.2242C165.997 60.6224 166.15 61.0027 166.414 61.302C166.658 61.6681 166.766 61.6681 167.058 62.102C167.349 62.5358 167.444 62.6917 167.41 62.9426C167.376 63.1934 167.214 63.3357 166.881 63.6204C166.4 64.0679 166.258 64.0272 165.912 64.3661C165.578 64.632 165.351 65.0102 165.275 65.4304C165.265 65.7891 165.372 66.1412 165.58 66.4337C165.795 66.9045 166.129 67.3111 166.549 67.6132C166.59 67.6132 166.434 67.3082 166.251 66.9354C166.043 66.6041 165.87 66.2519 165.736 65.8846C165.693 65.7501 165.693 65.6056 165.736 65.4711C165.788 65.3526 165.872 65.2515 165.98 65.1796C166.36 64.9001 166.753 64.6399 167.159 64.4C167.575 64.2087 167.929 63.906 168.183 63.5255C168.286 63.2904 168.339 63.0365 168.339 62.7799C168.339 62.5232 168.286 62.2693 168.183 62.0342C168.095 61.8172 167.742 61.1326 167.505 60.7258C167.443 60.6221 167.419 60.4997 167.437 60.3801C167.469 60.2748 167.53 60.1807 167.614 60.109C168.225 59.6372 168.786 59.1033 169.288 58.5159C169.467 58.1537 169.552 57.7526 169.537 57.3489C169.522 56.9452 169.406 56.5518 169.2 56.2043C169.024 55.9602 168.956 55.662 168.786 55.4179C168.738 55.3564 168.716 55.2785 168.725 55.201C168.74 55.1299 168.781 55.0671 168.841 55.0247C169.118 54.7943 169.315 54.496 169.6 54.2723C170.059 53.8362 170.337 53.2433 170.379 52.6114C170.395 52.1341 170.27 51.6627 170.02 51.2556C169.6 50.5032 169.003 50.2456 168.969 49.4863C168.96 49.3917 168.96 49.2963 168.969 49.2016C169.057 48.1238 170.21 47.3035 170.379 47.1679C171.057 46.6188 174.521 36.8436 174.142 31.6713V31.1222C175.07 30.5053 175.613 30.3562 176.799 29.6376C177.985 28.919 181.775 27.692 183.225 27.2717C184.548 26.8789 185.902 26.6 187.272 26.4379C188.314 26.3137 189.362 26.2436 190.411 26.2278H191.536C192.586 26.2436 193.633 26.3137 194.675 26.4379C196.033 26.5952 197.376 26.8674 198.688 27.2514C200.139 27.6717 203.847 28.8444 205.115 29.6172C206.019 30.0952 206.899 30.6178 207.752 31.1832C207.372 36.3623 210.836 46.5985 211.548 47.1476C211.711 47.2764 212.904 48.0967 212.951 49.1813C212.959 49.276 212.959 49.3713 212.951 49.466C212.877 50.2388 212.273 50.4964 211.873 51.215C211.582 51.6884 211.465 52.2483 211.542 52.7988C211.618 53.3492 211.884 53.8558 212.294 54.2316C212.578 54.4553 212.775 54.7536 213.053 54.9841C213.112 55.0264 213.153 55.0893 213.168 55.1603C213.177 55.2378 213.155 55.3157 213.107 55.3772C212.944 55.6213 212.87 55.9196 212.694 56.1636C212.487 56.5111 212.371 56.905 212.357 57.309C212.343 57.713 212.43 58.1141 212.612 58.4752C213.111 59.0633 213.67 59.5973 214.28 60.0683C214.365 60.138 214.427 60.2329 214.456 60.3394C214.475 60.4591 214.451 60.5815 214.388 60.6852C214.165 61.0919 213.819 61.7766 213.71 61.9935C213.606 62.2283 213.552 62.4823 213.552 62.7392C213.552 62.9961 213.606 63.2501 213.71 63.4849C213.952 63.8809 214.303 64.1987 214.72 64.4C215.131 64.6439 215.53 64.9086 215.914 65.1932C216.021 65.2651 216.106 65.3662 216.158 65.4847C216.201 65.6191 216.201 65.7637 216.158 65.8982C216.023 66.2655 215.85 66.6176 215.642 66.9489C215.459 67.2879 215.303 67.5658 215.351 67.6268C215.767 67.316 216.098 66.9058 216.313 66.4337C216.51 66.1563 216.617 65.8249 216.619 65.4847C216.529 65.0596 216.288 64.6815 215.941 64.4204C215.595 64.0814 215.459 64.1221 214.971 63.6747C214.639 63.3696 214.476 63.2137 214.442 62.9968C214.409 62.7799 214.537 62.5494 214.802 62.1562C215.066 61.763 215.195 61.7223 215.439 61.3563C215.702 61.0569 215.855 60.6767 215.873 60.2784C215.873 59.9598 215.669 59.7429 215.303 59.309C214.955 58.9302 214.583 58.5725 214.192 58.238L213.934 57.9939L213.744 57.7906C213.9 57.5533 215.066 56.2653 215.229 56.0619C215.459 55.681 215.575 55.2418 215.562 54.7968C215.548 54.3519 215.407 53.9202 215.154 53.5537C214.924 53.1605 214.659 52.7809 214.436 52.381C214.413 52.3359 214.4 52.2859 214.4 52.2352C214.4 52.1845 214.413 52.1345 214.436 52.0895C214.734 51.7641 215.039 51.4116 215.358 51.1404C215.761 50.8297 216.109 50.454 216.388 50.0287C216.512 49.8016 216.582 49.5492 216.594 49.2908C216.606 49.0324 216.559 48.7747 216.456 48.5373C216.224 48.0104 215.959 47.4987 215.663 47.0052C215.405 46.5646 215.392 46.5714 215.798 46.2392C216.343 45.834 216.819 45.3442 217.208 44.7885C217.516 44.3393 217.686 43.81 217.697 43.2656C217.707 42.7212 217.559 42.1855 217.269 41.7244L217.168 41.555C217.168 41.5075 217.12 41.4601 217.073 41.3787L217.873 41.1754C218.496 41.0194 214.727 33.7185 214.429 33.0406C215.934 32.4576 220.415 31.0476 221.513 29.9087C221.836 29.6241 222.078 29.259 222.213 28.8505C222.349 28.442 222.374 28.0049 222.286 27.5836C222.102 26.9544 221.731 26.3963 221.221 25.9837C220.382 25.2442 219.421 24.6548 218.381 24.2415C217.299 23.7818 216.193 23.3834 215.066 23.0484C213.758 22.6553 212.416 22.3706 211.073 22.0452C209.846 21.7808 208.599 21.5842 207.358 21.3673C207.128 21.3266 207.169 21.2046 207.169 21.0758C207.169 19.0421 207.114 17.0084 207.169 14.9747C207.19 14.3046 207.037 13.6404 206.726 13.0466C206.415 12.4527 205.956 11.9493 205.393 11.5852C204.319 10.7892 203.118 10.1817 201.84 9.78883C200.837 9.47022 199.807 9.14483 198.797 8.9279C197.644 8.68386 196.458 8.52117 195.285 8.38559C193.998 8.2321 192.704 8.14837 191.408 8.13477H190.472C189.167 8.13814 187.864 8.21282 186.567 8.35847C185.388 8.49405 184.208 8.65674 183.049 8.90079C182.019 9.11771 181.016 9.4431 180.005 9.76171C178.717 10.1601 177.506 10.7769 176.426 11.5852C175.863 11.9487 175.404 12.4521 175.094 13.0463C174.784 13.6404 174.633 14.3049 174.657 14.9747C174.731 17.0084 174.657 19.0421 174.657 21.1097C174.657 21.2385 174.704 21.3605 174.467 21.4012C173.226 21.6113 171.979 21.8079 170.752 22.0791C169.396 22.3773 168.041 22.6892 166.759 23.0823C165.667 23.413 164.594 23.8045 163.546 24.2551C162.503 24.6667 161.54 25.2562 160.699 25.9973C160.179 26.4041 159.8 26.9636 159.614 27.5971C159.524 28.0184 159.548 28.4562 159.684 28.8651C159.82 29.274 160.063 29.639 160.387 29.9223C161.512 31.0612 165.926 32.4712 167.43 33.0542Z" fill="black"/>
<path d="M199.786 33.2915C201.827 33.3289 203.864 33.4828 205.887 33.7525" stroke="#1D1D1B" stroke-width="1.35579" stroke-miterlimit="10"/>
<path d="M182.826 33.2915C180.785 33.3289 178.748 33.4828 176.725 33.7525" stroke="#1D1D1B" stroke-width="1.35579" stroke-miterlimit="10"/>
</g>
<g clip-path="url(#clip3_236_1328)">
<path d="M70.1863 139.022C87.5243 139.022 101.58 124.967 101.58 107.629C101.58 90.2906 87.5243 76.2354 70.1863 76.2354C52.8482 76.2354 38.793 90.2906 38.793 107.629C38.793 124.967 52.8482 139.022 70.1863 139.022Z" fill="#B2B2B2" stroke="#1D1D1B" stroke-width="0.677895" stroke-linecap="round" stroke-linejoin="round"/>
<path d="M47.1312 110.984C42.7452 96.8093 46.3245 89.7456 46.3245 89.7456C46.3245 89.7456 57.2725 89.9083 61.2382 95.3043" fill="#938254"/>
<path d="M47.1312 110.984C42.7452 96.8093 46.3245 89.7456 46.3245 89.7456C46.3245 89.7456 57.2725 89.9083 61.2382 95.3043" stroke="#1D1D1B" stroke-width="0.677895" stroke-linecap="round" stroke-linejoin="round"/>
<path d="M92.523 110.984C96.9768 96.8093 93.3297 89.7456 93.3297 89.7456C93.3297 89.7456 82.3817 89.9083 78.416 95.3043" fill="#B5A271"/>
<path d="M92.523 110.984C96.9768 96.8093 93.3297 89.7456 93.3297 89.7456C93.3297 89.7456 82.3817 89.9083 78.416 95.3043" stroke="#1D1D1B" stroke-width="0.677895" stroke-miterlimit="10"/>
<path d="M50.1273 105.642C47.9309 98.6057 49.7205 95.0942 49.7205 95.0942C49.7205 95.0942 55.1437 95.1756 57.1096 97.8533" fill="#AD8A58"/>
<path d="M50.1273 105.642C47.9309 98.6057 49.7205 95.0942 49.7205 95.0942C49.7205 95.0942 55.1437 95.1756 57.1096 97.8533" stroke="#1D1D1B" stroke-width="0.677895" stroke-linecap="round" stroke-linejoin="round"/>
<path d="M89.5204 105.642C91.7168 98.6057 89.9271 95.0942 89.9271 95.0942C89.9271 95.0942 84.504 95.1756 82.5381 97.8533" fill="#AD8A58"/>
<path d="M89.5204 105.642C91.7168 98.6057 89.9271 95.0942 89.9271 95.0942C89.9271 95.0942 84.504 95.1756 82.5381 97.8533" stroke="#1D1D1B" stroke-width="0.677895" stroke-linecap="round" stroke-linejoin="round"/>
<path d="M69.9489 133.24C74.9947 133.399 80.0055 132.351 84.5643 130.182C87.7098 128.65 91.3433 126.623 92.4415 122.861C92.9195 120.975 92.8466 118.992 92.2313 117.146C92.3466 116.143 95.0243 106.415 85.0592 98.1653C80.8538 94.6464 75.4889 92.8194 70.0099 93.0404H69.9557C64.477 92.8207 59.1125 94.6476 54.9065 98.1653C44.9414 106.422 47.6191 116.15 47.7343 117.146C47.1097 118.989 47.0251 120.972 47.4903 122.861C48.5817 126.623 52.2355 128.65 55.3674 130.182C59.9264 132.35 64.9371 133.398 69.9828 133.24H69.9489Z" fill="white" stroke="#1D1D1B" stroke-width="0.677895" stroke-linecap="round" stroke-linejoin="round"/>
<path d="M70.0709 93.0336H69.9489C64.4701 92.814 59.1056 94.6408 54.8996 98.1585C44.9345 106.415 47.6122 116.143 47.7275 117.14C47.1038 118.985 47.0215 120.97 47.4902 122.861C47.6125 123.278 47.7689 123.683 47.958 124.074C77.3176 122.834 71.0674 96.6332 70.0709 93.0336Z" fill="#938254"/>
<path d="M59.0416 119.112C60.9248 119.112 62.4515 117.537 62.4515 115.594C62.4515 113.651 60.9248 112.076 59.0416 112.076C57.1585 112.076 55.6318 113.651 55.6318 115.594C55.6318 117.537 57.1585 119.112 59.0416 119.112Z" fill="#1D1D1B"/>
<path d="M56.2828 121.77C57.4658 121.77 58.4249 121.229 58.4249 120.563C58.4249 119.896 57.4658 119.356 56.2828 119.356C55.0997 119.356 54.1406 119.896 54.1406 120.563C54.1406 121.229 55.0997 121.77 56.2828 121.77Z" fill="#AD8A58"/>
<path d="M72.383 121.024C72.383 121.81 69.9493 122.908 69.9493 122.908C69.9493 122.908 67.5225 121.83 67.5225 121.024C67.5225 120.217 68.6071 119.607 69.9493 119.607C71.2916 119.607 72.383 120.244 72.383 121.024Z" fill="#1D1D1B"/>
<path d="M57.7137 114.807C58.0469 114.807 58.317 114.528 58.317 114.184C58.317 113.839 58.0469 113.56 57.7137 113.56C57.3805 113.56 57.1104 113.839 57.1104 114.184C57.1104 114.528 57.3805 114.807 57.7137 114.807Z" fill="white"/>
<path d="M52.0187 119.498L42.8535 118.732" stroke="#1D1D1B" stroke-width="0.677895" stroke-linecap="round" stroke-linejoin="round"/>
<path d="M52.0187 122.034L42.8535 122.8" stroke="#1D1D1B" stroke-width="0.677895" stroke-linecap="round" stroke-linejoin="round"/>
<path d="M52.0459 120.766H46.1211" stroke="#1D1D1B" stroke-width="0.677895" stroke-linecap="round" stroke-linejoin="round"/>
<path d="M70.01 122.508C70.1502 122.988 70.0967 123.504 69.8609 123.945C69.6182 124.336 69.2706 124.651 68.8576 124.854C68.4802 125.111 68.0602 125.299 67.617 125.41C67.1838 125.505 66.7352 125.505 66.3019 125.41C66.2929 125.408 66.2844 125.405 66.2767 125.4C66.2691 125.395 66.2625 125.388 66.2575 125.381C66.2524 125.373 66.2489 125.364 66.2473 125.355C66.2456 125.346 66.2457 125.337 66.2477 125.328C66.2504 125.316 66.2561 125.305 66.2644 125.295C66.2727 125.286 66.2833 125.278 66.2951 125.274C66.6712 125.174 67.0269 125.009 67.3459 124.786C67.6357 124.566 67.9015 124.316 68.139 124.04C68.3695 123.756 68.4644 123.362 68.7559 123.145C69.0853 122.872 69.459 122.656 69.8609 122.508C69.8834 122.501 69.9076 122.503 69.9289 122.513C69.9502 122.523 69.967 122.541 69.9761 122.563L70.01 122.508Z" fill="#1D1D1B"/>
<path d="M70.0374 122.508C70.4429 122.667 70.817 122.897 71.1423 123.186C71.4338 123.417 71.5287 123.796 71.766 124.081C72.0067 124.346 72.2774 124.583 72.5727 124.786C72.8885 125.01 73.2421 125.176 73.6166 125.274C73.6258 125.276 73.6343 125.281 73.6418 125.286C73.6492 125.292 73.6553 125.299 73.6598 125.308C73.6643 125.316 73.6669 125.325 73.6677 125.335C73.6684 125.344 73.6672 125.353 73.6641 125.362C73.6604 125.374 73.6534 125.385 73.6438 125.394C73.6342 125.402 73.6224 125.408 73.6099 125.41C73.1789 125.505 72.7325 125.505 72.3015 125.41C71.8562 125.299 71.434 125.111 71.0542 124.854C70.6418 124.653 70.2959 124.338 70.0577 123.945C69.8336 123.51 69.7851 123.005 69.9221 122.535C69.9284 122.513 69.9434 122.494 69.9637 122.483C69.9841 122.471 70.0081 122.468 70.0306 122.474L70.0374 122.508Z" fill="#1D1D1B"/>
<path d="M69.8609 93.0336H69.9762C75.4551 92.8126 80.82 94.6396 85.0254 98.1584C94.9905 106.415 92.3128 116.143 92.1975 117.14C92.8151 118.984 92.8903 120.968 92.4145 122.854C92.2922 123.271 92.1358 123.677 91.9467 124.068C62.6549 122.834 68.8915 96.6332 69.8609 93.0336Z" fill="#B5A271"/>
<path d="M69.9489 133.24C74.9947 133.399 80.0055 132.351 84.5643 130.182C87.7098 128.65 91.3433 126.623 92.4415 122.861C92.9195 120.975 92.8466 118.992 92.2313 117.146C92.3466 116.143 95.0243 106.415 85.0592 98.1653C80.8538 94.6464 75.4889 92.8194 70.0099 93.0404H69.9557C64.477 92.8207 59.1125 94.6476 54.9065 98.1653C44.9414 106.422 47.6191 116.15 47.7343 117.146C47.1097 118.989 47.0251 120.972 47.4903 122.861C48.5817 126.623 52.2355 128.65 55.3674 130.182C59.9264 132.35 64.9371 133.398 69.9828 133.24H69.9489Z" stroke="#1D1D1B" stroke-width="0.677895" stroke-linecap="round" stroke-linejoin="round"/>
<path d="M80.9372 119.112C82.8203 119.112 84.347 117.537 84.347 115.594C84.347 113.651 82.8203 112.076 80.9372 112.076C79.054 112.076 77.5273 113.651 77.5273 115.594C77.5273 117.537 79.054 119.112 80.9372 119.112Z" fill="#1D1D1B"/>
<path d="M83.6968 121.77C84.8799 121.77 85.839 121.229 85.839 120.563C85.839 119.896 84.8799 119.356 83.6968 119.356C82.5138 119.356 81.5547 119.896 81.5547 120.563C81.5547 121.229 82.5138 121.77 83.6968 121.77Z" fill="#AD8A58"/>
<path d="M88.3545 119.498L97.5196 118.732" stroke="#1D1D1B" stroke-width="0.677895" stroke-linecap="round" stroke-linejoin="round"/>
<path d="M88.3545 122.034L97.5196 122.8" stroke="#1D1D1B" stroke-width="0.677895" stroke-linecap="round" stroke-linejoin="round"/>
<path d="M88.3271 120.766H94.252" stroke="#1D1D1B" stroke-width="0.677895" stroke-linecap="round" stroke-linejoin="round"/>
<path d="M79.5213 114.807C79.8545 114.807 80.1246 114.528 80.1246 114.184C80.1246 113.839 79.8545 113.56 79.5213 113.56C79.1881 113.56 78.918 113.839 78.918 114.184C78.918 114.528 79.1881 114.807 79.5213 114.807Z" fill="white"/>
<path d="M77.8398 108.856C84.2595 110.422 86.9101 111.283 86.9101 111.283Z" fill="black"/>
<path d="M77.8398 108.856C78.6486 108.657 79.4835 108.586 80.3142 108.645C81.1046 108.692 81.8882 108.82 82.6529 109.025C83.4189 109.222 84.1619 109.499 84.8696 109.852C85.6221 110.213 86.3093 110.696 86.9033 111.282C86.0897 111.432 85.2594 111.468 84.4358 111.391C83.6573 111.321 82.8862 111.185 82.1309 110.984C81.3724 110.782 80.633 110.515 79.921 110.184C79.1687 109.841 78.4681 109.393 77.8398 108.856Z" fill="#1D1D1B"/>
<path d="M62.3297 108.564C61.7189 109.059 61.0322 109.453 60.296 109.73C58.9254 110.275 57.4591 110.537 55.9846 110.503C55.2023 110.491 54.4268 110.356 53.6865 110.103C54.2945 109.601 54.9818 109.205 55.7202 108.93C56.4018 108.656 57.1109 108.456 57.8352 108.333C58.5596 108.202 59.2956 108.145 60.0316 108.164C60.8139 108.176 61.5894 108.311 62.3297 108.564Z" fill="#1D1D1B"/>
</g>
<g clip-path="url(#clip4_236_1328)">
<path d="M149.363 139.252C166.701 139.252 180.756 125.197 180.756 107.859C180.756 90.5211 166.701 76.4658 149.363 76.4658C132.025 76.4658 117.97 90.5211 117.97 107.859C117.97 125.197 132.025 139.252 149.363 139.252Z" fill="#F6AE8B" stroke="#1D1D1B" stroke-width="0.677895" stroke-linecap="round" stroke-linejoin="round"/>
<path d="M126.268 111.228C121.848 97.0399 125.461 89.9695 125.461 89.9695C125.461 89.9695 136.409 90.1322 140.375 95.5282" fill="#DDB272"/>
<path d="M126.268 111.228C121.848 97.0399 125.461 89.9695 125.461 89.9695C125.461 89.9695 136.409 90.1322 140.375 95.5282" stroke="#1D1D1B" stroke-width="0.677895" stroke-linecap="round" stroke-linejoin="round"/>
<path d="M171.633 111.228C176.08 97.0399 172.466 89.9695 172.466 89.9695C172.466 89.9695 161.512 90.1322 157.553 95.5282" fill="#DDB272"/>
<path d="M171.633 111.228C176.08 97.0399 172.466 89.9695 172.466 89.9695C172.466 89.9695 161.512 90.1322 157.553 95.5282" stroke="#1D1D1B" stroke-width="0.677895" stroke-linecap="round" stroke-linejoin="round"/>
<path d="M129.257 105.88C127.067 98.8363 128.857 95.3315 128.857 95.3315C128.857 95.3315 134.28 95.4061 136.246 98.0838" fill="#E06BA3"/>
<path d="M129.257 105.88C127.067 98.8363 128.857 95.3315 128.857 95.3315C128.857 95.3315 134.28 95.4061 136.246 98.0838" stroke="#1D1D1B" stroke-width="0.677895" stroke-linecap="round" stroke-linejoin="round"/>
<path d="M168.663 105.88C170.859 98.8363 169.063 95.3315 169.063 95.3315C169.063 95.3315 163.633 95.3926 161.674 98.1041" fill="#E06BA3"/>
<path d="M168.663 105.88C170.859 98.8363 169.063 95.3315 169.063 95.3315C169.063 95.3315 163.633 95.3926 161.674 98.1041" stroke="#1D1D1B" stroke-width="0.677895" stroke-linecap="round" stroke-linejoin="round"/>
<path d="M149.085 133.47C154.131 133.629 159.142 132.581 163.701 130.413C166.839 128.881 170.48 126.854 171.578 123.098C172.052 121.209 171.976 119.224 171.361 117.377C171.476 116.407 174.154 106.646 164.175 98.3889C159.969 94.8712 154.605 93.0444 149.126 93.264H149.072C143.593 93.0431 138.228 94.87 134.022 98.3889C124.071 106.646 126.749 116.407 126.891 117.377C126.272 119.224 126.197 121.21 126.674 123.098C127.766 126.854 131.419 128.881 134.551 130.413C139.11 132.581 144.121 133.629 149.167 133.47H149.085Z" fill="#DDB272" stroke="#1D1D1B" stroke-width="0.677895" stroke-linecap="round" stroke-linejoin="round"/>
<path d="M138.178 119.342C140.062 119.342 141.588 117.767 141.588 115.824C141.588 113.881 140.062 112.306 138.178 112.306C136.295 112.306 134.769 113.881 134.769 115.824C134.769 117.767 136.295 119.342 138.178 119.342Z" fill="#1D1D1B"/>
<path d="M135.419 122C136.603 122 137.562 121.46 137.562 120.793C137.562 120.127 136.603 119.587 135.419 119.587C134.236 119.587 133.277 120.127 133.277 120.793C133.277 121.46 134.236 122 135.419 122Z" fill="#E06BA3"/>
<path d="M151.513 121.261C151.513 122.041 149.086 123.139 149.086 123.139C149.086 123.139 146.652 122.041 146.652 121.261C146.652 120.481 147.744 119.837 149.086 119.837C150.428 119.837 151.513 120.475 151.513 121.261Z" fill="#1D1D1B"/>
<path d="M136.849 115.038C137.183 115.038 137.453 114.759 137.453 114.414C137.453 114.07 137.183 113.791 136.849 113.791C136.516 113.791 136.246 114.07 136.246 114.414C136.246 114.759 136.516 115.038 136.849 115.038Z" fill="white"/>
<path d="M149.086 123.139C148.096 124.036 146.794 124.511 145.459 124.461" stroke="#1D1D1B" stroke-width="0.677895" stroke-linecap="round" stroke-linejoin="round"/>
<path d="M149.113 123.139C150.103 124.036 151.405 124.511 152.74 124.461" stroke="#1D1D1B" stroke-width="0.677895" stroke-linecap="round" stroke-linejoin="round"/>
<path d="M160.074 119.342C161.957 119.342 163.484 117.767 163.484 115.824C163.484 113.881 161.957 112.306 160.074 112.306C158.191 112.306 156.664 113.881 156.664 115.824C156.664 117.767 158.191 119.342 160.074 119.342Z" fill="#1D1D1B"/>
<path d="M162.834 122C164.017 122 164.976 121.46 164.976 120.793C164.976 120.127 164.017 119.587 162.834 119.587C161.65 119.587 160.691 120.127 160.691 120.793C160.691 121.46 161.65 122 162.834 122Z" fill="#E06BA3"/>
<path d="M158.65 115.038C158.983 115.038 159.254 114.759 159.254 114.414C159.254 114.07 158.983 113.791 158.65 113.791C158.317 113.791 158.047 114.07 158.047 114.414C158.047 114.759 158.317 115.038 158.65 115.038Z" fill="white"/>
<path d="M135.413 111.492C135.413 111.492 138.714 109.94 141.141 111.492" stroke="#1D1D1B" stroke-width="0.677895" stroke-linecap="round" stroke-linejoin="round"/>
<path d="M154.373 111.438C154.373 111.438 157.681 109.879 160.101 111.438" stroke="#1D1D1B" stroke-width="0.677895" stroke-linecap="round" stroke-linejoin="round"/>
<path d="M151.6 91.427L147.947 105.907C147.947 105.907 141.025 111.56 134.992 112.008C130.037 112.381 128.484 115.56 129.237 127.213L127.569 125.688C127.569 125.688 118.194 89.8 151.6 91.427Z" fill="#1D1D1B"/>
<path d="M152.271 91.4268L148.665 105.873C148.665 105.873 154.766 113.499 161.369 111.675C176.832 107.405 167.273 116.956 168.005 128.087L171.632 125.057C171.632 125.057 176.811 91.9148 152.271 91.4268Z" fill="#1D1D1B"/>
<path d="M171.632 125.057C171.632 125.057 162.636 103.914 149.261 103.222C135.886 102.531 127.569 125.688 127.569 125.688C122.315 119.587 126.64 111.452 126.64 111.452C125.772 103.06 132.002 91.1152 149.485 91.027C170.859 90.9592 171.632 110.171 171.632 110.171C171.632 110.171 173.95 109.452 171.632 125.057Z" fill="#A0709C" stroke="#1D1D1B" stroke-width="0.338947" stroke-miterlimit="10"/>
<path d="M134.281 113.73C133.99 113.709 133.705 113.635 133.44 113.513C133.23 113.417 133.035 113.289 132.864 113.133C132.525 112.855 132.552 112.36 132.416 111.967C132.281 111.574 132.159 111.16 132.05 110.747C131.942 110.333 131.84 109.913 131.772 109.473L131.949 109.371C132.294 109.642 132.627 109.947 132.925 110.232C133.223 110.516 133.535 110.828 133.813 111.14C134.091 111.452 134.538 111.669 134.62 112.103C134.676 112.324 134.694 112.553 134.674 112.781C134.653 113.072 134.58 113.357 134.457 113.621L134.281 113.73Z" fill="#E94190"/>
<path d="M162.82 112.706C162.698 112.439 162.626 112.152 162.609 111.859C162.586 111.631 162.604 111.401 162.664 111.181C162.738 110.754 163.179 110.503 163.464 110.225C163.748 109.947 164.04 109.608 164.352 109.316C164.663 109.025 164.982 108.727 165.335 108.456L165.504 108.557C165.436 108.998 165.321 109.405 165.233 109.832C165.145 110.259 165.002 110.652 164.867 111.052C164.731 111.452 164.752 111.94 164.413 112.218C164.244 112.376 164.049 112.505 163.836 112.598C163.572 112.721 163.287 112.795 162.996 112.814L162.82 112.706Z" fill="#E94190"/>
<path d="M163.246 128.779C163.246 128.779 164.372 130.338 161.775 132.677C159.179 135.016 166.276 136.48 166.276 136.48C166.276 136.48 172.072 136.134 174.411 134.663C175.084 134.249 175.646 133.679 176.052 133.002C176.458 132.325 176.695 131.56 176.743 130.772C176.743 130.772 171.035 126.027 169.964 125.349C168.893 124.671 163.246 128.779 163.246 128.779Z" fill="#A0709C" stroke="#1D1D1B" stroke-width="0.338947" stroke-miterlimit="10"/>
<path d="M165.585 130.813C164.902 130.805 164.221 130.73 163.552 130.589C161.647 130.216 160.562 129.531 160.345 128.555C159.932 126.745 162.677 124.664 162.792 124.576C162.908 124.488 167.239 122.542 169.442 120.509C169.669 120.276 169.979 120.142 170.303 120.136C172.032 120.136 173.523 124.203 173.523 125.498C173.523 126.047 173.273 126.128 173.13 126.128C172.984 126.116 172.846 126.056 172.737 125.959C172.437 125.718 172.064 125.589 171.68 125.593C170.719 125.716 169.826 126.152 169.137 126.833C169.24 127.313 169.244 127.808 169.15 128.289C169.055 128.771 168.864 129.228 168.588 129.633C167.985 130.406 166.968 130.799 165.578 130.799L165.585 130.813Z" fill="#A0709C"/>
<path d="M170.311 120.319C172.175 120.319 173.999 125.972 173.138 125.972C173.03 125.96 172.93 125.913 172.853 125.837C172.523 125.572 172.11 125.43 171.687 125.437C170.331 125.437 168.975 126.793 168.975 126.793C168.975 126.793 169.924 130.643 165.586 130.643C164.916 130.634 164.249 130.562 163.593 130.426C157.017 129.125 162.915 124.711 162.915 124.711C162.915 124.711 167.328 122.746 169.579 120.644C169.774 120.441 170.043 120.324 170.324 120.319M170.324 119.98C170.142 119.98 169.961 120.018 169.793 120.09C169.626 120.162 169.474 120.268 169.348 120.4C167.165 122.434 162.82 124.386 162.773 124.4L162.712 124.44C162.59 124.528 159.763 126.677 160.197 128.596C160.441 129.64 161.552 130.365 163.539 130.758C164.208 130.898 164.889 130.972 165.572 130.982C167.016 130.982 168.074 130.568 168.718 129.755C168.999 129.343 169.197 128.879 169.3 128.391C169.402 127.902 169.407 127.398 169.314 126.908C169.958 126.285 170.785 125.888 171.673 125.776C172.02 125.773 172.357 125.887 172.629 126.101C172.765 126.226 172.94 126.3 173.124 126.311C173.227 126.31 173.326 126.279 173.411 126.221C173.496 126.163 173.561 126.081 173.599 125.986C173.664 125.837 173.694 125.674 173.687 125.511C173.687 124.156 172.161 119.98 170.297 119.98H170.324Z" fill="#1D1D1B"/>
<path d="M170.358 121.756C170.944 122.437 171.388 123.227 171.666 124.081C169.788 124.081 168.175 125.654 167.999 125.83C167.835 125.994 167.716 126.197 167.653 126.421C167.59 126.644 167.585 126.879 167.64 127.105C167.768 127.652 167.678 128.229 167.389 128.711C167.143 128.925 166.857 129.087 166.547 129.186C166.237 129.285 165.909 129.319 165.585 129.287C165.004 129.278 164.425 129.212 163.857 129.091C162.304 128.786 161.871 128.352 161.823 128.216C161.728 127.803 162.589 126.671 163.592 125.884C164.399 125.512 168.128 123.742 170.371 121.756M170.324 120.319C170.042 120.324 169.774 120.441 169.578 120.644C167.328 122.746 162.915 124.712 162.915 124.712C162.915 124.712 157.03 129.125 163.592 130.426C164.248 130.562 164.916 130.635 165.585 130.643C169.904 130.643 168.975 126.793 168.975 126.793C168.975 126.793 170.331 125.437 171.687 125.437C172.11 125.43 172.522 125.572 172.853 125.837C172.929 125.913 173.03 125.961 173.137 125.972C173.998 125.972 172.175 120.319 170.31 120.319H170.324Z" fill="#8B719B"/>
<path d="M131.155 119.729L121.99 118.963" stroke="#1D1D1B" stroke-width="0.677895" stroke-linecap="round" stroke-linejoin="round"/>
<path d="M131.155 122.264L121.99 123.03" stroke="#1D1D1B" stroke-width="0.677895" stroke-linecap="round" stroke-linejoin="round"/>
<path d="M131.183 120.997H125.258" stroke="#1D1D1B" stroke-width="0.677895" stroke-linecap="round" stroke-linejoin="round"/>
<path d="M167.483 119.729L176.655 118.963" stroke="#1D1D1B" stroke-width="0.677895" stroke-linecap="round" stroke-linejoin="round"/>
<path d="M167.483 122.264L176.655 123.03" stroke="#1D1D1B" stroke-width="0.677895" stroke-linecap="round" stroke-linejoin="round"/>
<path d="M167.456 120.997H173.388" stroke="#1D1D1B" stroke-width="0.677895" stroke-linecap="round" stroke-linejoin="round"/>
<path d="M169.171 126.833C169.171 126.833 168.914 125.478 167.815 125.362" stroke="#1D1D1B" stroke-width="0.338947" stroke-linecap="round" stroke-linejoin="round"/>
<path d="M134.09 109.344C133.734 108.72 133.437 108.064 133.202 107.385C132.96 106.72 132.76 106.041 132.606 105.351C132.449 104.639 132.351 103.916 132.314 103.188C132.268 102.466 132.339 101.74 132.524 101.04C132.7 102.432 132.947 103.814 133.263 105.181C133.555 106.558 133.88 107.92 134.09 109.344Z" fill="#662483"/>
<path d="M162.962 109.344C163.165 107.92 163.491 106.558 163.775 105.181C164.095 103.815 164.342 102.432 164.514 101.04C164.699 101.74 164.77 102.466 164.724 103.188C164.691 103.907 164.596 104.622 164.44 105.324C164.288 106.014 164.09 106.693 163.85 107.358C163.617 108.046 163.32 108.711 162.962 109.344Z" fill="#662483"/>
<path d="M168.243 135.192C168.447 133.768 168.772 132.399 169.057 131.029C169.376 129.661 169.623 128.276 169.796 126.881C169.981 127.583 170.052 128.311 170.006 129.036C169.972 129.755 169.877 130.469 169.721 131.172C169.568 131.861 169.371 132.541 169.131 133.205C168.897 133.893 168.6 134.558 168.243 135.192Z" fill="#662483"/>
</g>
<defs>
<clipPath id="clip0_236_1328">
<rect width="64.4" height="68.4674" fill="white"/>
</clipPath>
<clipPath id="clip1_236_1328">
<rect width="64.4" height="68.4674" fill="white" transform="translate(79.4004)"/>
</clipPath>
<clipPath id="clip2_236_1328">
<rect width="64.4" height="68.4674" fill="white" transform="translate(158.801)"/>
</clipPath>
<clipPath id="clip3_236_1328">
<rect width="64.4" height="68.4674" fill="white" transform="translate(38 75.7336)"/>
</clipPath>
<clipPath id="clip4_236_1328">
<rect width="64.4" height="68.4674" fill="white" transform="translate(117.4 75.7336)"/>
</clipPath>
</defs>
</svg>
