<svg id="Layer_1" data-name="Layer 1" xmlns="http://www.w3.org/2000/svg" viewBox="0 0 95 101"><defs><style>.cls-1{fill:#f6ae8b;}.cls-1,.cls-2,.cls-3,.cls-8,.cls-9{stroke:#1d1d1b;stroke-linecap:round;stroke-linejoin:round;}.cls-2{fill:#eace5d;}.cls-3,.cls-6{fill:#e06ba3;}.cls-4{fill:#f0a642;}.cls-5{fill:#1d1d1b;}.cls-7,.cls-8{fill:#fff;}.cls-10,.cls-9{fill:none;}</style></defs><title>V2Artboard 4 copy 3</title><circle class="cls-1" cx="47.31" cy="47.05" r="46.31"/><path class="cls-2" d="M13.3,52c-6.52-20.93-1.19-31.35-1.19-31.35s16.15.24,22,8.2"/><path class="cls-2" d="M80.25,52c6.53-20.93,1.2-31.35,1.2-31.35s-16.16.24-22,8.2"/><path class="cls-3" d="M17.71,44.12c-3.23-10.38-.59-15.56-.59-15.56s8,.12,10.9,4.07"/><path class="cls-3" d="M75.84,44.12c3.24-10.38.59-15.56.59-15.56s-8,.12-10.9,4.07"/><path class="cls-2" d="M47,84.83A46.78,46.78,0,0,0,68.6,80.32c4.63-2.26,10-5.25,11.62-10.8a15.05,15.05,0,0,0-.32-8.43c.17-1.48,4.12-15.83-10.58-28a32.57,32.57,0,0,0-22.2-7.56H47a32.55,32.55,0,0,0-22.2,7.56c-14.7,12.18-10.75,26.53-10.58,28a15,15,0,0,0-.32,8.43c1.61,5.55,7,8.54,11.62,10.8a46.76,46.76,0,0,0,21.56,4.51Z"/><path class="cls-4" d="M47.49,25.52h-.18a32.54,32.54,0,0,0-22.19,7.56c-14.71,12.18-10.75,26.53-10.59,28a15.14,15.14,0,0,0-.32,8.43,12.76,12.76,0,0,0,.69,1.79C58.16,69.48,49,30.83,47.49,25.52Z"/><ellipse class="cls-5" cx="30.87" cy="58.8" rx="5.03" ry="5.19"/><ellipse class="cls-6" cx="26.8" cy="66.13" rx="3.16" ry="1.78"/><ellipse class="cls-5" cx="63.17" cy="58.8" rx="5.03" ry="5.19"/><ellipse class="cls-6" cx="67.24" cy="66.13" rx="3.16" ry="1.78"/><path class="cls-5" d="M50.54,66.81C50.54,68,47,69.59,47,69.59S43.38,68,43.38,66.81,45,64.72,47,64.72,50.54,65.66,50.54,66.81Z"/><ellipse class="cls-7" cx="28.91" cy="56.72" rx="0.89" ry="0.92"/><line class="cls-8" x1="74.11" y1="64.56" x2="87.63" y2="63.43"/><line class="cls-8" x1="74.11" y1="68.3" x2="87.63" y2="69.43"/><line class="cls-9" x1="74.07" y1="66.43" x2="82.81" y2="66.43"/><ellipse class="cls-7" cx="61.08" cy="56.72" rx="0.89" ry="0.92"/><line class="cls-8" x1="20.51" y1="64.56" x2="6.99" y2="63.43"/><line class="cls-8" x1="20.51" y1="68.3" x2="6.99" y2="69.43"/><line class="cls-9" x1="20.55" y1="66.43" x2="11.81" y2="66.43"/><path class="cls-9" d="M47,84.83a46.78,46.78,0,0,0,21.56-4.51c4.63-2.26,10-5.25,11.62-10.8a15.05,15.05,0,0,0-.32-8.43c.17-1.48,4.12-15.83-10.58-28A32.55,32.55,0,0,0,47,25.52H47a32.55,32.55,0,0,0-22.2,7.56C10.06,45.26,14,59.61,14.18,61.09a15.05,15.05,0,0,0-.32,8.43c1.61,5.55,7,8.54,11.62,10.8A46.78,46.78,0,0,0,47,84.83Z"/><path class="cls-9" d="M47,69.59a7.54,7.54,0,0,1-5.35,2"/><path class="cls-9" d="M47,69.59a7.54,7.54,0,0,0,5.35,2"/><path class="cls-9" d="M57.85,50.8a7.9,7.9,0,0,1,9.71.25"/><path class="cls-9" d="M24.92,50.71a9.08,9.08,0,0,1,10.81-.17"/><rect class="cls-10" x="0.06" y="0.02" width="95" height="101"/></svg>