<svg width="30" height="30" viewBox="0 0 30 30" fill="none" xmlns="http://www.w3.org/2000/svg">
	<path d="M15.002 18.7542L19.252 26.1154L21.2496 22.0753L25.7472 22.3654L21.4972 15.0042M8.50195 15.0042L4.25195 22.3654L8.74955 22.0753L10.7471 26.1154L14.9971 18.7542M22.4996 11.25C22.4996 15.3921 19.1417 18.75 14.9996 18.75C10.8574 18.75 7.49957 15.3921 7.49957 11.25C7.49957 7.10786 10.8574 3.75 14.9996 3.75C19.1417 3.75 22.4996 7.10786 22.4996 11.25Z" stroke="#FC68B4" stroke-width="1.5" stroke-linecap="round" stroke-linejoin="round" />
	<path d="M13.057 14.699V14.849H13.207H16.707H16.857V14.699V14.0942V13.9442H16.707H15.5383V8.37329V8.22329H15.3883H14.8331H14.7922L14.757 8.244C14.4391 8.43103 14.0407 8.57484 13.4885 8.67172L13.3644 8.69349V8.81946V9.28547V9.43547H13.5144H14.5145V13.9442H13.207H13.057V14.0942V14.699Z" fill="#FC68B4" stroke="#FC68B4" stroke-width="0.3" />
</svg>
