<svg width="23" height="22" viewBox="0 0 23 22" fill="none" xmlns="http://www.w3.org/2000/svg">
<mask id="path-1-inside-1_8_579" fill="white">
<path fill-rule="evenodd" clip-rule="evenodd" d="M21.5304 0.0222975C21.8655 -0.0802447 22.1993 0.184698 22.1756 0.534278L21.7949 6.14111C22.5661 7.52304 23 9.08202 23 10.7317C23 16.4144 17.8513 21.0211 11.5 21.0211C5.14873 21.0211 0 16.4144 0 10.7317C0 9.27676 0.33749 7.89237 0.946246 6.63777L0.531823 0.534278C0.508087 0.184698 0.84196 -0.0802447 1.177 0.0222975L6.24953 1.57478C7.82353 0.850812 9.60843 0.442194 11.5 0.442194C13.3445 0.442194 15.0876 0.830728 16.6326 1.52131L21.5304 0.0222975Z"/>
</mask>
<path fill-rule="evenodd" clip-rule="evenodd" d="M21.5304 0.0222975C21.8655 -0.0802447 22.1993 0.184698 22.1756 0.534278L21.7949 6.14111C22.5661 7.52304 23 9.08202 23 10.7317C23 16.4144 17.8513 21.0211 11.5 21.0211C5.14873 21.0211 0 16.4144 0 10.7317C0 9.27676 0.33749 7.89237 0.946246 6.63777L0.531823 0.534278C0.508087 0.184698 0.84196 -0.0802447 1.177 0.0222975L6.24953 1.57478C7.82353 0.850812 9.60843 0.442194 11.5 0.442194C13.3445 0.442194 15.0876 0.830728 16.6326 1.52131L21.5304 0.0222975Z" fill="white"/>
<path d="M22.1756 0.534278L20.679 0.43266V0.432663L22.1756 0.534278ZM21.5304 0.0222975L21.9694 1.45662L21.9694 1.45662L21.5304 0.0222975ZM21.7949 6.14111L20.2983 6.03949L20.2682 6.48349L20.4851 6.8721L21.7949 6.14111ZM0.946246 6.63777L2.29577 7.29258L2.46981 6.9339L2.4428 6.53615L0.946246 6.63777ZM0.531823 0.534278L-0.964731 0.635893V0.635893L0.531823 0.534278ZM1.177 0.0222975L1.61599 -1.41203H1.61599L1.177 0.0222975ZM6.24953 1.57478L5.81055 3.0091L6.35708 3.17637L6.87634 2.93754L6.24953 1.57478ZM16.6326 1.52131L16.0205 2.89074L16.5338 3.12021L17.0715 2.95564L16.6326 1.52131ZM23.6721 0.635896C23.7671 -0.76243 22.4316 -1.8222 21.0914 -1.41203L21.9694 1.45662C21.2993 1.66171 20.6316 1.13183 20.679 0.43266L23.6721 0.635896ZM23.2914 6.24272L23.6721 0.635893L20.679 0.432663L20.2983 6.03949L23.2914 6.24272ZM24.5 10.7317C24.5 8.81396 23.9946 7.00464 23.1047 5.41012L20.4851 6.8721C21.1377 8.04145 21.5 9.35008 21.5 10.7317H24.5ZM11.5 22.5211C18.5185 22.5211 24.5 17.3954 24.5 10.7317H21.5C21.5 15.4334 17.1841 19.5211 11.5 19.5211V22.5211ZM-1.5 10.7317C-1.5 17.3954 4.48155 22.5211 11.5 22.5211V19.5211C5.8159 19.5211 1.5 15.4334 1.5 10.7317H-1.5ZM-0.40328 5.98295C-1.10717 7.43362 -1.5 9.04117 -1.5 10.7317H1.5C1.5 9.51234 1.78215 8.35112 2.29577 7.29258L-0.40328 5.98295ZM-0.964731 0.635893L-0.550308 6.73938L2.4428 6.53615L2.02838 0.432663L-0.964731 0.635893ZM1.61599 -1.41203C0.275816 -1.8222 -1.05968 -0.762428 -0.964731 0.635893L2.02838 0.432663C2.07585 1.13182 1.4081 1.66171 0.738019 1.45662L1.61599 -1.41203ZM6.68852 0.14045L1.61599 -1.41203L0.738019 1.45662L5.81055 3.0091L6.68852 0.14045ZM11.5 -1.05781C9.39182 -1.05781 7.39311 -0.602278 5.62273 0.212017L6.87634 2.93754C8.25394 2.3039 9.82504 1.94219 11.5 1.94219V-1.05781ZM17.2447 0.15189C15.5073 -0.62467 13.5557 -1.05781 11.5 -1.05781V1.94219C13.1333 1.94219 14.6678 2.28613 16.0205 2.89074L17.2447 0.15189ZM21.0914 -1.41203L16.1936 0.0869879L17.0715 2.95564L21.9694 1.45662L21.0914 -1.41203Z" fill="#FC68B4" mask="url(#path-1-inside-1_8_579)"/>
</svg>
