<svg width="24" height="24" viewBox="0 0 24 24" fill="none" xmlns="http://www.w3.org/2000/svg">
<path d="M2 22L3.51549 17.3748C2.20569 15.4041 1.73187 13.0704 2.18211 10.8075C2.63236 8.54458 3.97604 6.50652 5.96331 5.07225C7.95059 3.63798 10.4462 2.90509 12.9862 3.00986C15.5262 3.11463 17.9377 4.04992 19.7723 5.64184C21.607 7.23375 22.7399 9.37396 22.9604 11.6645C23.181 13.9551 22.4742 16.2402 20.9714 18.0949C19.4687 19.9495 17.2722 21.2477 14.7905 21.7478C12.3087 22.248 9.71057 21.9162 7.47907 20.8141L2 22Z" stroke="#303030" stroke-width="1.5" stroke-linecap="round" stroke-linejoin="round"/>
<path d="M12.5032 15.0965L9.72186 16.5588L10.2532 13.4616L8 11.2684L11.1094 10.8178L12.5 8L13.8906 10.8178L17 11.2684L14.7468 13.4616L15.2781 16.5588L12.5032 15.0965Z" stroke="#303030" stroke-width="1.5" stroke-linecap="round" stroke-linejoin="round"/>
</svg>
