<svg width="19" height="18" viewBox="0 0 19 18" fill="rgb(252,104,180)" xmlns="http://www.w3.org/2000/svg">
	<mask id="path-1-inside-1_8_325" fill="white">
		<path fill-rule="evenodd" clip-rule="evenodd" d="M17.6652 0.0222975C18.0003 -0.0802447 18.3342 0.184699 18.3104 0.534278L18.0045 5.03999C18.6416 6.18158 19 7.46943 19 8.83218C19 13.5266 14.7467 17.3322 9.5 17.3322C4.25329 17.3322 0 13.5266 0 8.83218C0 7.6303 0.278795 6.48668 0.781678 5.45027L0.447887 0.534308C0.424151 0.184729 0.758023 -0.0802147 1.09307 0.0223275L5.16259 1.26783C6.46286 0.669751 7.93737 0.332184 9.5 0.332184C11.0237 0.332184 12.4637 0.653153 13.74 1.22365L17.6652 0.0222975Z" />
	</mask>
	<path fill-rule="evenodd" clip-rule="evenodd" d="M17.6652 0.0222975C18.0003 -0.0802447 18.3342 0.184699 18.3104 0.534278L18.0045 5.03999C18.6416 6.18158 19 7.46943 19 8.83218C19 13.5266 14.7467 17.3322 9.5 17.3322C4.25329 17.3322 0 13.5266 0 8.83218C0 7.6303 0.278795 6.48668 0.781678 5.45027L0.447887 0.534308C0.424151 0.184729 0.758023 -0.0802147 1.09307 0.0223275L5.16259 1.26783C6.46286 0.669751 7.93737 0.332184 9.5 0.332184C11.0237 0.332184 12.4637 0.653153 13.74 1.22365L17.6652 0.0222975Z" fill="white" />
	<path d="M18.3104 0.534278L16.8139 0.43266V0.432663L18.3104 0.534278ZM17.6652 0.0222975L17.2262 -1.41203V-1.41203L17.6652 0.0222975ZM18.0045 5.03999L16.5079 4.93837L16.4778 5.38237L16.6946 5.77097L18.0045 5.03999ZM0.781678 5.45027L2.1312 6.10509L2.30524 5.74641L2.27823 5.34866L0.781678 5.45027ZM0.447887 0.534308L-1.04867 0.635923V0.635923L0.447887 0.534308ZM1.09307 0.0223275L0.654082 1.45665L1.09307 0.0223275ZM5.16259 1.26783L4.7236 2.70216L5.27014 2.86943L5.7894 2.63058L5.16259 1.26783ZM13.74 1.22365L13.1279 2.59307L13.6412 2.82254L14.179 2.65797L13.74 1.22365ZM19.807 0.635896C19.9019 -0.762427 18.5664 -1.8222 17.2262 -1.41203L18.1042 1.45662C17.4341 1.66171 16.7664 1.13182 16.8139 0.43266L19.807 0.635896ZM19.501 5.1416L19.807 0.635893L16.8139 0.432663L16.5079 4.93837L19.501 5.1416ZM20.5 8.83218C20.5 7.20137 20.07 5.66318 19.3143 4.309L16.6946 5.77097C17.2131 6.69999 17.5 7.73749 17.5 8.83218H20.5ZM9.5 18.8322C15.4139 18.8322 20.5 14.5076 20.5 8.83218H17.5C17.5 12.5456 14.0795 15.8322 9.5 15.8322V18.8322ZM-1.5 8.83218C-1.5 14.5076 3.58612 18.8322 9.5 18.8322V15.8322C4.92047 15.8322 1.5 12.5456 1.5 8.83218H-1.5ZM-0.567849 4.79546C-1.16587 6.02794 -1.5 7.39472 -1.5 8.83218H1.5C1.5 7.86589 1.72346 6.94543 2.1312 6.10509L-0.567849 4.79546ZM-1.04867 0.635923L-0.714877 5.55189L2.27823 5.34866L1.94444 0.432693L-1.04867 0.635923ZM1.53205 -1.412C0.191876 -1.82217 -1.14361 -0.762394 -1.04867 0.635923L1.94444 0.432693C1.99191 1.13185 1.32417 1.66174 0.654082 1.45665L1.53205 -1.412ZM5.60157 -0.166497L1.53205 -1.412L0.654082 1.45665L4.7236 2.70216L5.60157 -0.166497ZM9.5 -1.16782C7.72076 -1.16782 6.03243 -0.783337 4.53577 -0.0949251L5.7894 2.63058C6.89328 2.12284 8.15398 1.83218 9.5 1.83218V-1.16782ZM14.3521 -0.145775C12.8834 -0.802244 11.2349 -1.16782 9.5 -1.16782V1.83218C10.8125 1.83218 12.0439 2.10855 13.1279 2.59307L14.3521 -0.145775ZM17.2262 -1.41203L13.301 -0.21068L14.179 2.65797L18.1042 1.45662L17.2262 -1.41203Z" fill="#FC68B4" mask="url(#path-1-inside-1_8_325)" />
</svg>
