<svg width="311" height="52" viewBox="0 0 311 52" fill="none" xmlns="http://www.w3.org/2000/svg">
<path d="M294.025 27.6092C297.688 25.9118 305.869 25.2986 309.291 36.4256" stroke="#FC68B4" stroke-width="2"/>
<path d="M28.549 1.17765C30.2359 2.10622 33.0816 5.02846 30.9699 9.28888C28.8581 13.5493 31.9717 16.2108 33.7924 17.0089" stroke="#4558FF" stroke-width="2"/>
<path fill-rule="evenodd" clip-rule="evenodd" d="M13.5947 6.96501L13.5938 6.96537L13.5914 6.96649L13.5873 6.96838L13.5816 6.9711L13.5744 6.97468L13.5655 6.97914L13.5552 6.98452L13.5433 6.99085L13.5299 6.99816L13.5151 7.00649L13.4988 7.01586L13.4811 7.0263L13.4621 7.03783L13.4416 7.0505L13.4199 7.06431L13.3968 7.0793L13.3725 7.09549L13.3469 7.11291L13.3201 7.13157L13.2921 7.1515L13.2631 7.17271L13.2329 7.19523L13.2016 7.21908L13.1693 7.24426L13.136 7.2708L13.1018 7.29871L13.0666 7.328L13.0306 7.35868L12.9937 7.39078L12.956 7.42428L12.9175 7.45921L12.8783 7.49557L12.8384 7.53337L12.7979 7.5726L12.7568 7.61328L12.7151 7.65541L12.6728 7.69898L12.6301 7.744L12.587 7.79046L12.5434 7.83836L12.4995 7.88769L12.4552 7.93846L12.4107 7.99065L12.3659 8.04425L12.3209 8.09925L12.2758 8.15565L12.2306 8.21344L12.1852 8.27258L12.1399 8.33308L12.0945 8.39492L12.0491 8.45808L12.0039 8.52253L11.9587 8.58827L11.9137 8.65527L11.8689 8.7235L11.8243 8.79295L11.78 8.86359L11.7359 8.93539L11.6922 9.00833L11.6489 9.08237L11.6059 9.1575L11.5634 9.23368L11.5214 9.31087L11.4798 9.38906L11.4388 9.46819L11.3983 9.54825L11.3584 9.62919L11.3191 9.71098L11.2804 9.79358L11.2424 9.87696L11.2051 9.96108L11.1685 10.0459L11.1326 10.1314L11.0975 10.2174L11.0632 10.3041L11.0296 10.3913L10.9969 10.479L10.965 10.5671L10.9339 10.6556L10.9038 10.7445L10.8744 10.8337L10.846 10.9232L10.8185 11.0129L10.7919 11.1028L10.7663 11.1928L10.7415 11.2829L10.7178 11.373L10.6949 11.4632L10.673 11.5532L10.6521 11.6432L10.6321 11.733L10.6131 11.8226L10.5951 11.912L10.578 12.0011L10.5619 12.0898L10.5467 12.1782L10.5325 12.2661L10.5192 12.3535L10.5069 12.4404L10.4954 12.5268L10.485 12.6125L10.4754 12.6975L10.4667 12.7819L10.4589 12.8654L10.452 12.9482L10.446 13.0301L10.4408 13.1112L10.4364 13.1913L10.4329 13.2704L10.4301 13.3485L10.4281 13.4255L10.4269 13.5015L10.4263 13.5763L10.4265 13.6499L10.4274 13.7223L10.4289 13.7935L10.4311 13.8634L10.4339 13.9319L10.4372 13.9991L10.4411 14.0649L10.4455 14.1292L10.4505 14.1922L10.4558 14.2536L10.4617 14.3135L10.4679 14.3718L10.4745 14.4286L10.4814 14.4838L10.4886 14.5373L10.4961 14.5892L10.5039 14.6394L10.5118 14.6879L10.5199 14.7347L10.5282 14.7798L10.5365 14.8231L10.5449 14.8647L10.5534 14.9044L10.5618 14.9424L10.5701 14.9786L10.5784 15.0129L10.5866 15.0454L10.5946 15.076L10.6024 15.1048L10.6099 15.1318L10.6172 15.1569L10.6242 15.1801L10.6309 15.2014L10.6371 15.2209L10.643 15.2385L10.6483 15.2543L10.6532 15.2681L10.6576 15.2802L10.6614 15.2903L10.6646 15.2987L10.6671 15.3051L10.669 15.3098L10.6702 15.3127L10.6706 15.3137L10.6703 15.3129L10.6692 15.3104L10.6672 15.3061L10.6644 15.3001L10.6606 15.2923L10.6559 15.2829L10.6503 15.2718L10.6437 15.259L10.6361 15.2445L10.6274 15.2285L10.6176 15.2108L10.6068 15.1916L10.5948 15.1709L10.5817 15.1486L10.5674 15.1249L10.552 15.0997L10.5353 15.0732L10.5174 15.0452L10.4982 15.0159L10.4778 14.9852L10.4561 14.9533L10.433 14.9202L10.4087 14.8858L10.383 14.8502L10.356 14.8136L10.3277 14.7758L10.298 14.7369L10.2669 14.6971L10.2344 14.6562L10.2005 14.6145L10.1652 14.5718L10.1286 14.5283L10.0905 14.4839L10.0511 14.4388L10.0102 14.393L9.96791 14.3464L9.92423 14.2993L9.87916 14.2515L9.83269 14.2032L9.78482 14.1543L9.73558 14.105L9.68496 14.0552L9.63297 14.0051L9.57963 13.9546L9.52494 13.9038L9.46892 13.8528L9.41158 13.8016L9.35295 13.7502L9.29302 13.6986L9.23182 13.647L9.16938 13.5953L9.1057 13.5437L9.04082 13.4921L8.97474 13.4405L8.90751 13.3891L8.83913 13.3379L8.76964 13.2868L8.69905 13.236L8.62741 13.1855L8.55474 13.1353L8.48106 13.0854L8.40641 13.0359L8.33081 12.9869L8.25431 12.9383L8.17693 12.8902L8.09871 12.8427L8.01967 12.7957L7.93987 12.7493L7.85933 12.7035L7.77809 12.6583L7.69619 12.6139L7.61367 12.5701L7.53057 12.5271L7.44692 12.4849L7.36276 12.4434L7.27815 12.4028L7.19311 12.363L7.1077 12.324L7.02194 12.2859L6.9359 12.2487L6.8496 12.2124L6.7631 12.177L6.67643 12.1426L6.58965 12.1092L6.50279 12.0767L6.4159 12.0452L6.32903 12.0146L6.24221 11.9851L6.1555 11.9566L6.06894 11.9292L5.98258 11.9027L5.89646 11.8773L5.81062 11.8529L5.72511 11.8295L5.63998 11.8072L5.55527 11.7859L5.47102 11.7656L5.38728 11.7464L5.3041 11.7282L5.22151 11.711L5.13956 11.6948L5.05829 11.6796L4.97775 11.6654L4.89797 11.6522L4.81901 11.64L4.74089 11.6288L4.66367 11.6185L4.58737 11.6091L4.51205 11.6006L4.43773 11.5931L4.36446 11.5864L4.29227 11.5805L4.22121 11.5756L4.15129 11.5714L4.08257 11.568L4.01508 11.5654L3.94884 11.5636L3.88389 11.5624L3.82027 11.562L3.75799 11.5622L3.6971 11.5631L3.63762 11.5646L3.57957 11.5667L3.52299 11.5693L3.4679 11.5724L3.41432 11.576L3.36228 11.5801L3.3118 11.5846L3.2629 11.5895L3.2156 11.5947L3.16991 11.6003L3.12587 11.6061L3.08347 11.6122L3.04274 11.6184L3.0037 11.6249L2.96634 11.6315L2.93069 11.6381L2.89676 11.6449L2.86455 11.6516L2.83408 11.6584L2.80534 11.6651L2.77834 11.6716L2.75309 11.6781L2.72959 11.6843L2.70784 11.6904L2.68785 11.6962L2.6696 11.7017L2.6531 11.7069L2.63834 11.7117L2.62532 11.7161L2.61404 11.72L2.60448 11.7235L2.59663 11.7264L2.59049 11.7288L2.58605 11.7306L2.58329 11.7317L2.58219 11.7322L2.58275 11.7319L2.58495 11.7309L2.58878 11.7291L2.5942 11.7266L2.60121 11.7231L2.60978 11.7188L2.61989 11.7136L2.63153 11.7074L2.64466 11.7002L2.65926 11.6921L2.6753 11.6829L2.69277 11.6726L2.71163 11.6612L2.73185 11.6488L2.75341 11.6351L2.77628 11.6203L2.80041 11.6043L2.82579 11.5871L2.85238 11.5687L2.88015 11.5489L2.90906 11.5279L2.93908 11.5056L2.97017 11.482L3.0023 11.457L3.03543 11.4307L3.06953 11.403L3.10455 11.3739L3.14046 11.3435L3.17722 11.3116L3.2148 11.2783L3.25314 11.2436L3.29222 11.2075L3.332 11.1699L3.37243 11.1309L3.41347 11.0905L3.45508 11.0486L3.49723 11.0052L3.53987 10.9604L3.58296 10.9142L3.62646 10.8665L3.67034 10.8174L3.71454 10.7669L3.75903 10.7149L3.80376 10.6616L3.84871 10.6068L3.89382 10.5506L3.93905 10.493L3.98438 10.4341L4.02975 10.3738L4.07513 10.3122L4.12048 10.2492L4.16576 10.185L4.21093 10.1195L4.25596 10.0527L4.30081 9.98462L4.34544 9.91536L4.38982 9.84491L4.4339 9.77329L4.47767 9.70053L4.52107 9.62666L4.56408 9.5517L4.60667 9.47569L4.6488 9.39866L4.69044 9.32063L4.73157 9.24164L4.77215 9.16173L4.81215 9.08092L4.85155 8.99927L4.89031 8.91679L4.92842 8.83354L4.96585 8.74954L5.00257 8.66483L5.03856 8.57947L5.07379 8.49348L5.10826 8.40691L5.14193 8.3198L5.17479 8.23219L5.20682 8.14413L5.23801 8.05566L5.26833 7.96682L5.29777 7.87766L5.32633 7.78822L5.35398 7.69855L5.38071 7.60869L5.40653 7.5187L5.43141 7.42861L5.45535 7.33848L5.47834 7.24835L5.50038 7.15827L5.52146 7.06828L5.54158 6.97844L5.56075 6.88878L5.57895 6.79937L5.59619 6.71024L5.61247 6.62144L5.62779 6.53302L5.64216 6.44503L5.65559 6.35752L5.66807 6.27052L5.67962 6.1841L5.69025 6.09829L5.69997 6.01313L5.70878 5.92869L5.7167 5.84499L5.72374 5.76209L5.72992 5.68003L5.73526 5.59885L5.73976 5.5186L5.74345 5.43932L5.74634 5.36105L5.74846 5.28383L5.74983 5.20771L5.75046 5.13271L5.75038 5.05889L5.74962 4.98628L5.74819 4.91492L5.74613 4.84484L5.74345 4.77608L5.74019 4.70868L5.73638 4.64267L5.73203 4.57807L5.72719 4.51493L5.72187 4.45328L5.71612 4.39314L5.70996 4.33454L5.70343 4.27752L5.69655 4.22209L5.68936 4.16829L5.6819 4.11613L5.67419 4.06564L5.66627 4.01685L5.65819 3.96977L5.64996 3.92442L5.64163 3.88082L5.63323 3.83898L5.62481 3.79894L5.61639 3.76068L5.60801 3.72424L5.59971 3.68962L5.59154 3.65684L5.58351 3.62589L5.57568 3.5968L5.56807 3.56956L5.56073 3.54418L5.55369 3.52067L5.547 3.49902L5.54068 3.47925L5.53477 3.46134L5.52932 3.4453L5.52435 3.43112L5.51991 3.4188L5.51602 3.40833L5.51273 3.39971L5.51007 3.39293L5.50808 3.38798L5.50678 3.38485L5.50622 3.38352L5.50643 3.38399L5.50743 3.38623L5.50927 3.39024L5.51197 3.39599L5.51556 3.40347L5.52008 3.41266L5.52556 3.42353L5.53201 3.43607L5.53948 3.45025L5.548 3.46605L5.55757 3.48344L5.56824 3.50239L5.58003 3.52289L5.59295 3.5449L5.60705 3.56839L5.62232 3.59333L5.63881 3.61969L5.65652 3.64744L5.67549 3.67654L5.69571 3.70697L5.71722 3.73869L5.74003 3.77165L5.76415 3.80583L5.78961 3.8412L5.8164 3.8777L5.84454 3.9153L5.87405 3.95397L5.90493 3.99367L5.93718 4.03435L5.97083 4.07598L6.00587 4.11851L6.04231 4.1619L6.08015 4.20612L6.11939 4.25111L6.16004 4.29684L6.20209 4.34326L6.24554 4.39034L6.2904 4.43803L6.33665 4.48628L6.38429 4.53505L6.43331 4.5843L6.48372 4.63399L6.53549 4.68406L6.58861 4.73449L6.64309 4.78522L6.6989 4.83621L6.75602 4.88742L6.81446 4.93881L6.87418 4.99033L6.93517 5.04194L6.99742 5.0936L7.0609 5.14526L7.1256 5.19689L7.19148 5.24844L7.25854 5.29988L7.32673 5.35116L7.39605 5.40225L7.46646 5.4531L7.53794 5.50368L7.61045 5.55394L7.68397 5.60386L7.75847 5.65339L7.83391 5.7025L7.91028 5.75116L7.98752 5.79933L8.06561 5.84697L8.14451 5.89406L8.2242 5.94057L8.30462 5.98645L8.38575 6.03169L8.46755 6.07625L8.54997 6.12011L8.63299 6.16323L8.71655 6.2056L8.80063 6.24719L8.88517 6.28797L8.97015 6.32792L9.0555 6.36703L9.14121 6.40526L9.22721 6.4426L9.31347 6.47904L9.39994 6.51455L9.48658 6.54912L9.57335 6.58274L9.6602 6.61538L9.74709 6.64705L9.83397 6.67772L9.9208 6.7074L10.0075 6.73606L10.0941 6.76371L10.1805 6.79033L10.2667 6.81592L10.3526 6.84049L10.4381 6.86402L10.5233 6.88651L10.6081 6.90798L10.6924 6.9284L10.7762 6.9478L10.8595 6.96618L10.9422 6.98353L11.0243 6.99987L11.1056 7.0152L11.1863 7.02954L11.2662 7.04289L11.3453 7.05526L11.4236 7.06667L11.5009 7.07713L11.5774 7.08666L11.6529 7.09526L11.7273 7.10297L11.8008 7.1098L11.8731 7.11576L11.9444 7.12087L12.0145 7.12517L12.0834 7.12867L12.1511 7.13139L12.2175 7.13336L12.2827 7.1346L12.3465 7.13514L12.409 7.13501L12.4701 7.13424L12.5298 7.13285L12.5881 7.13088L12.6449 7.12835L12.7003 7.1253L12.7541 7.12175L12.8064 7.11775L12.8571 7.11332L12.9062 7.1085L12.9538 7.10332L12.9997 7.09782L13.0441 7.09203L13.0867 7.086L13.1277 7.07975L13.167 7.07332L13.2046 7.06675L13.2406 7.06009L13.2748 7.05336L13.3073 7.0466L13.338 7.03986L13.367 7.03317L13.3943 7.02657L13.4198 7.02011L13.4436 7.01381L13.4656 7.00772L13.4859 7.00188L13.5044 6.99632L13.5212 6.99109L13.5363 6.98623L13.5495 6.98177L13.5611 6.97775L13.5709 6.97421L13.5791 6.97119L13.5855 6.96872L13.5902 6.96685L13.5932 6.96562L13.5946 6.96504L13.5947 6.96501Z" stroke="#FC68B4" stroke-width="2"/>
<path fill-rule="evenodd" clip-rule="evenodd" d="M286 44.5L285.999 44.5L285.996 44.5L285.992 44.5002L285.986 44.5004L285.978 44.5008L285.968 44.5014L285.956 44.5022L285.943 44.5033L285.927 44.5047L285.911 44.5064L285.892 44.5086L285.871 44.5111L285.849 44.5141L285.826 44.5176L285.8 44.5217L285.773 44.5263L285.744 44.5315L285.714 44.5373L285.682 44.5438L285.648 44.5509L285.613 44.5589L285.577 44.5675L285.538 44.577L285.499 44.5873L285.458 44.5984L285.415 44.6104L285.371 44.6233L285.326 44.6372L285.279 44.652L285.231 44.6677L285.182 44.6845L285.132 44.7023L285.08 44.7211L285.027 44.7411L284.974 44.762L284.919 44.7841L284.862 44.8073L284.805 44.8317L284.747 44.8572L284.688 44.8838L284.628 44.9117L284.568 44.9407L284.506 44.9709L284.444 45.0023L284.381 45.0349L284.317 45.0687L284.252 45.1038L284.187 45.14L284.121 45.1775L284.055 45.2162L283.989 45.2562L283.921 45.2974L283.854 45.3398L283.786 45.3834L283.718 45.4282L283.649 45.4742L283.58 45.5214L283.511 45.5698L283.442 45.6194L283.373 45.6701L283.304 45.722L283.235 45.775L283.165 45.8291L283.096 45.8844L283.027 45.9407L282.958 45.9981L282.889 46.0565L282.821 46.116L282.753 46.1764L282.685 46.2378L282.617 46.3002L282.55 46.3635L282.483 46.4277L282.416 46.4927L282.35 46.5586L282.285 46.6253L282.22 46.6928L282.156 46.761L282.092 46.8299L282.029 46.8995L281.967 46.9697L281.905 47.0405L281.844 47.1119L281.784 47.1838L281.725 47.2562L281.666 47.3291L281.609 47.4024L281.552 47.476L281.496 47.55L281.441 47.6242L281.387 47.6987L281.334 47.7734L281.282 47.8482L281.231 47.9232L281.181 47.9982L281.132 48.0733L281.084 48.1483L281.037 48.2233L280.991 48.2981L280.946 48.3728L280.903 48.4473L280.86 48.5216L280.819 48.5955L280.778 48.6691L280.739 48.7423L280.701 48.8151L280.664 48.8874L280.628 48.9592L280.594 49.0304L280.56 49.101L280.528 49.1709L280.496 49.2401L280.466 49.3085L280.437 49.3762L280.409 49.443L280.382 49.5089L280.356 49.5739L280.332 49.6379L280.308 49.7009L280.285 49.7628L280.264 49.8236L280.243 49.8833L280.224 49.9418L280.206 49.9991L280.188 50.0551L280.172 50.1098L280.156 50.1632L280.141 50.2152L280.128 50.2658L280.115 50.315L280.103 50.3627L280.092 50.4088L280.081 50.4535L280.072 50.4965L280.063 50.538L280.055 50.5778L280.048 50.616L280.041 50.6525L280.035 50.6873L280.029 50.7204L280.025 50.7517L280.02 50.7812L280.017 50.8089L280.013 50.8349L280.01 50.8589L280.008 50.8812L280.006 50.9015L280.004 50.92L280.003 50.9366L280.002 50.9513L280.001 50.964L280.001 50.9749L280 50.9838L280 50.9908L280 50.9958L280 50.9989L280 51L280 50.9992L280 50.9964L280 50.9917L280 50.985L279.999 50.9764L279.999 50.9659L279.998 50.9534L279.997 50.9391L279.996 50.9228L279.994 50.9046L279.992 50.8845L279.99 50.8626L279.987 50.8388L279.984 50.8132L279.98 50.7858L279.976 50.7565L279.971 50.7255L279.966 50.6927L279.96 50.6582L279.953 50.622L279.946 50.584L279.938 50.5445L279.93 50.5033L279.92 50.4604L279.91 50.416L279.899 50.3701L279.887 50.3227L279.874 50.2737L279.861 50.2234L279.846 50.1716L279.831 50.1184L279.815 50.0639L279.797 50.0081L279.779 49.951L279.76 49.8927L279.739 49.8332L279.718 49.7725L279.696 49.7108L279.672 49.648L279.648 49.5841L279.622 49.5193L279.595 49.4535L279.568 49.3869L279.539 49.3194L279.509 49.251L279.478 49.182L279.445 49.1122L279.412 49.0417L279.377 48.9706L279.342 48.8989L279.305 48.8267L279.267 48.754L279.228 48.6808L279.188 48.6073L279.147 48.5334L279.104 48.4592L279.061 48.3847L279.016 48.3101L278.97 48.2352L278.924 48.1603L278.876 48.0852L278.827 48.0102L278.777 47.9352L278.726 47.8602L278.674 47.7853L278.621 47.7106L278.568 47.6361L278.513 47.5618L278.457 47.4878L278.4 47.4141L278.343 47.3407L278.285 47.2678L278.225 47.1953L278.165 47.1233L278.105 47.0519L278.043 46.9809L277.981 46.9106L277.918 46.8409L277.854 46.7719L277.79 46.7036L277.725 46.636L277.66 46.5692L277.594 46.5032L277.528 46.438L277.461 46.3736L277.394 46.3102L277.326 46.2477L277.258 46.1861L277.19 46.1255L277.122 46.0659L277.053 46.0073L276.984 45.9498L276.915 45.8933L276.846 45.8379L276.776 45.7836L276.707 45.7304L276.638 45.6783L276.569 45.6274L276.499 45.5776L276.431 45.529L276.362 45.4816L276.293 45.4354L276.225 45.3904L276.157 45.3466L276.089 45.304L276.022 45.2627L275.955 45.2225L275.889 45.1836L275.823 45.1459L275.758 45.1095L275.694 45.0742L275.63 45.0402L275.566 45.0074L275.504 44.9758L275.442 44.9454L275.381 44.9162L275.321 44.8882L275.262 44.8613L275.204 44.8357L275.147 44.8111L275.09 44.7878L275.035 44.7655L274.981 44.7443L274.928 44.7242L274.876 44.7052L274.826 44.6873L274.776 44.6703L274.728 44.6544L274.681 44.6395L274.636 44.6255L274.592 44.6124L274.549 44.6003L274.508 44.589L274.468 44.5786L274.429 44.569L274.393 44.5602L274.357 44.5522L274.323 44.5449L274.291 44.5383L274.26 44.5323L274.231 44.527L274.204 44.5224L274.178 44.5182L274.154 44.5147L274.132 44.5116L274.111 44.509L274.092 44.5068L274.075 44.5049L274.06 44.5035L274.046 44.5024L274.034 44.5015L274.024 44.5009L274.016 44.5004L274.009 44.5002L274.004 44.5L274.001 44.5L274 44.5L274.001 44.5L274.003 44.4999L274.007 44.4998L274.013 44.4996L274.021 44.4992L274.031 44.4987L274.042 44.4979L274.055 44.4969L274.07 44.4955L274.087 44.4938L274.105 44.4917L274.125 44.4893L274.147 44.4863L274.17 44.4829L274.196 44.479L274.223 44.4745L274.251 44.4694L274.281 44.4636L274.313 44.4573L274.346 44.4502L274.381 44.4424L274.418 44.4339L274.455 44.4245L274.495 44.4144L274.536 44.4034L274.578 44.3915L274.622 44.3787L274.667 44.3651L274.713 44.3504L274.761 44.3348L274.81 44.3182L274.86 44.3006L274.911 44.2819L274.964 44.2621L275.018 44.2413L275.073 44.2194L275.129 44.1964L275.185 44.1722L275.243 44.1469L275.302 44.1204L275.362 44.0928L275.423 44.064L275.484 44.034L275.546 44.0028L275.609 43.9703L275.673 43.9367L275.737 43.9019L275.802 43.8658L275.868 43.8285L275.934 43.79L276.001 43.7502L276.068 43.7092L276.135 43.667L276.203 43.6236L276.271 43.579L276.34 43.5332L276.409 43.4861L276.478 43.4379L276.547 43.3885L276.616 43.338L276.685 43.2863L276.754 43.2335L276.824 43.1795L276.893 43.1244L276.962 43.0683L277.031 43.0111L277.1 42.9528L277.168 42.8935L277.237 42.8332L277.305 42.772L277.372 42.7097L277.44 42.6466L277.507 42.5826L277.573 42.5176L277.639 42.4519L277.705 42.3853L277.77 42.318L277.834 42.2499L277.898 42.1811L277.961 42.1116L278.023 42.0415L278.085 41.9707L278.146 41.8994L278.206 41.8276L278.266 41.7553L278.324 41.6825L278.382 41.6093L278.439 41.5357L278.495 41.4618L278.55 41.3876L278.604 41.3131L278.658 41.2385L278.71 41.1636L278.761 41.0887L278.811 41.0137L278.86 40.9386L278.909 40.8636L278.956 40.7886L279.002 40.7137L279.047 40.639L279.09 40.5645L279.133 40.4902L279.175 40.4162L279.215 40.3425L279.255 40.2692L279.293 40.1964L279.33 40.124L279.366 40.0521L279.401 39.9809L279.435 39.9102L279.467 39.8402L279.499 39.7708L279.529 39.7023L279.558 39.6345L279.587 39.5676L279.614 39.5015L279.64 39.4364L279.664 39.3722L279.688 39.3091L279.711 39.247L279.733 39.186L279.753 39.1261L279.773 39.0674L279.792 39.0099L279.809 38.9537L279.826 38.8988L279.842 38.8452L279.856 38.7929L279.87 38.7421L279.883 38.6927L279.895 38.6448L279.907 38.5984L279.917 38.5535L279.927 38.5102L279.936 38.4684L279.944 38.4283L279.951 38.3899L279.958 38.3531L279.964 38.3181L279.97 38.2847L279.975 38.2531L279.979 38.2233L279.983 38.1953L279.986 38.1691L279.989 38.1447L279.992 38.1222L279.994 38.1015L279.995 38.0828L279.997 38.0659L279.998 38.0509L279.999 38.0378L279.999 38.0267L280 38.0174L280 38.0102L280 38.0048L280 38.0014L280 38L280 38.0005L280 38.003L280 38.0074L280 38.0137L280.001 38.022L280.001 38.0322L280.002 38.0444L280.003 38.0585L280.004 38.0744L280.006 38.0923L280.007 38.1121L280.01 38.1337L280.012 38.1572L280.015 38.1826L280.019 38.2097L280.023 38.2387L280.028 38.2694L280.033 38.3019L280.039 38.3362L280.045 38.3721L280.053 38.4098L280.06 38.4491L280.069 38.49L280.078 38.5326L280.088 38.5767L280.099 38.6224L280.111 38.6696L280.123 38.7183L280.137 38.7685L280.151 38.82L280.167 38.873L280.183 38.9273L280.2 38.9829L280.218 39.0398L280.237 39.0979L280.257 39.1572L280.278 39.2177L280.301 39.2792L280.324 39.3419L280.348 39.4056L280.374 39.4703L280.4 39.5359L280.428 39.6024L280.457 39.6698L280.486 39.738L280.517 39.8069L280.549 39.8766L280.583 39.947L280.617 40.018L280.653 40.0896L280.689 40.1617L280.727 40.2344L280.766 40.3075L280.806 40.3809L280.847 40.4548L280.889 40.5289L280.932 40.6034L280.977 40.678L281.022 40.7528L281.069 40.8277L281.116 40.9028L281.165 40.9778L281.215 41.0528L281.266 41.1278L281.317 41.2027L281.37 41.2775L281.424 41.352L281.478 41.4264L281.534 41.5004L281.591 41.5742L281.648 41.6476L281.706 41.7205L281.765 41.7931L281.825 41.8652L281.886 41.9367L281.947 42.0078L282.009 42.0782L282.072 42.148L282.135 42.2171L282.199 42.2855L282.264 42.3532L282.329 42.4202L282.395 42.4863L282.461 42.5517L282.528 42.6161L282.595 42.6797L282.663 42.7424L282.731 42.8041L282.799 42.8648L282.867 42.9246L282.936 42.9834L283.005 43.0411L283.074 43.0977L283.143 43.1533L283.213 43.2078L283.282 43.2612L283.351 43.3134L283.42 43.3645L283.489 43.4145L283.558 43.4633L283.627 43.5108L283.696 43.5572L283.764 43.6024L283.832 43.6464L283.9 43.6892L283.967 43.7308L284.034 43.7711L284.1 43.8102L284.166 43.8481L284.232 43.8848L284.296 43.9202L284.36 43.9544L284.424 43.9874L284.486 44.0192L284.548 44.0498L284.609 44.0792L284.669 44.1074L284.729 44.1344L284.787 44.1603L284.844 44.185L284.901 44.2085L284.956 44.231L285.01 44.2523L285.064 44.2726L285.116 44.2918L285.166 44.3099L285.216 44.327L285.264 44.3431L285.311 44.3582L285.357 44.3723L285.401 44.3855L285.444 44.3978L285.486 44.4092L285.526 44.4198L285.565 44.4295L285.602 44.4384L285.637 44.4466L285.671 44.454L285.704 44.4607L285.735 44.4667L285.764 44.4721L285.792 44.4769L285.818 44.4811L285.842 44.4848L285.865 44.4879L285.886 44.4906L285.905 44.4929L285.922 44.4947L285.938 44.4962L285.952 44.4974L285.964 44.4983L285.975 44.499L285.983 44.4995L285.99 44.4997L285.995 44.4999L285.998 44.5L286 44.5L286 44.5Z" stroke="#6CAC2C" stroke-width="2"/>
<path d="M265.191 22.2139L265.34 22.3066L265.488 22.3991L265.637 22.4912L265.785 22.583L265.932 22.6741L266.078 22.7647L266.224 22.8545L266.369 22.9434L266.513 23.0314L266.656 23.1183L266.798 23.204L266.938 23.2885L267.077 23.3716L267.215 23.4532L267.351 23.5333L267.485 23.6117L267.618 23.6883L267.748 23.7631L267.877 23.8359L268.004 23.9067L268.128 23.9754L268.25 24.0419L268.37 24.1061L268.487 24.1679L268.602 24.2272L268.715 24.284L268.824 24.3382L268.931 24.3898L269.035 24.4385L269.137 24.4845L269.235 24.5275L269.33 24.5676L269.423 24.6047L269.512 24.6388L269.598 24.6696L269.681 24.6974L269.76 24.7219L269.836 24.7431L269.909 24.761L269.979 24.7755L270.045 24.7867L270.107 24.7944L270.166 24.7986L270.221 24.7994L270.273 24.7966L270.321 24.7903L270.366 24.7805L270.407 24.7671L270.444 24.7501L270.478 24.7295L270.508 24.7053L270.534 24.6774L270.557 24.646L270.576 24.611L270.591 24.5724L270.603 24.5303L270.611 24.4845L270.616 24.4352L270.617 24.3824L270.614 24.326L270.608 24.2662L270.598 24.2029L270.585 24.1362L270.568 24.0661L270.548 23.9927L270.525 23.916L270.498 23.836L270.468 23.7528L270.435 23.6664L270.399 23.5769L270.359 23.4843L270.317 23.3888L270.271 23.2903L270.223 23.189L270.172 23.0848L270.118 22.978L270.061 22.8684L270.002 22.7563L269.94 22.6416L269.875 22.5246L269.809 22.4051L269.74 22.2834L269.668 22.1595L269.595 22.0336L269.519 21.9056L269.442 21.7757L269.363 21.6439L269.282 21.5104L269.199 21.3753L269.115 21.2387L269.029 21.1006L268.942 20.9612L268.853 20.8205L268.764 20.6787L268.673 20.5358L268.582 20.392L268.49 20.2474L268.396 20.1021L268.303 19.9562L268.209 19.8097L268.114 19.6628L268.019 19.5157L267.924 19.3684L267.829 19.2209L267.733 19.0736L267.638 18.9263L267.544 18.7793L267.449 18.6327L267.355 18.4865L267.262 18.3409L267.169 18.196L267.077 18.0518L266.986 17.9085L266.896 17.7662L266.807 17.6251L266.72 17.4851L266.633 17.3464L266.549 17.2091L266.465 17.0733L266.383 16.9391L266.303 16.8066L266.225 16.6758L266.149 16.547L266.074 16.4201L266.002 16.2953L265.932 16.1726L265.864 16.0522L265.799 15.934L265.736 15.8183L265.675 15.7051L265.618 15.5944L265.562 15.4863L265.51 15.381L265.46 15.2784L265.413 15.1786L265.37 15.0818L265.329 14.9879L265.291 14.8971L265.257 14.8093L265.225 14.7247L265.197 14.6433L265.172 14.5651L265.151 14.4902L265.133 14.4187L265.118 14.3505L265.107 14.2857L265.099 14.2244L265.095 14.1665L265.094 14.1121L265.097 14.0613L265.104 14.0139L265.114 13.9702L265.127 13.93L265.145 13.8934L265.166 13.8604L265.191 13.8311L265.219 13.8053L265.251 13.7831L265.287 13.7645L265.326 13.7495L265.369 13.7381L265.416 13.7302L265.466 13.7259L265.52 13.7251L265.577 13.7279L265.638 13.7341L265.703 13.7437L265.77 13.7567L265.842 13.7732L265.916 13.7929L265.995 13.816L266.076 13.8423L266.16 13.8718L266.248 13.9045L266.339 13.9402L266.433 13.979L266.53 14.0208L266.63 14.0654L266.733 14.113L266.839 14.1633L266.947 14.2163L267.059 14.272L267.172 14.3303L267.289 14.391L267.408 14.4541L267.529 14.5196L267.652 14.5873L267.778 14.6572L267.905 14.7292L268.035 14.8031L268.167 14.879L268.3 14.9566L268.436 15.0359L268.573 15.1169L268.711 15.1994L268.851 15.2832L268.992 15.3684L269.134 15.4548L269.278 15.5423L269.422 15.6309L269.568 15.7203L269.714 15.8105L269.861 15.9014L270.009 15.9929L270.157 16.0849L270.305 16.1772L270.454 16.2699L270.603 16.3626L270.752 16.4554L270.901 16.5482L271.049 16.6408L271.198 16.7331L271.346 16.825L271.493 16.9164L271.64 17.0073L271.787 17.0974L271.932 17.1867L272.076 17.2751L272.22 17.3625L272.362 17.4488L272.503 17.5338L272.643 17.6175L272.781 17.6998L272.918 17.7806L273.053 17.8597L273.186 17.9371L273.317 18.0128L273.447 18.0865L273.574 18.1582L273.7 18.2278L273.823 18.2953L273.944 18.3605L274.062 18.4233L274.178 18.4837L274.292 18.5417L274.403 18.597L274.511 18.6498L274.616 18.6997L274.719 18.7469L274.819 18.7913L274.915 18.8327L275.009 18.8711L275.099 18.9065L275.187 18.9388L275.271 18.9679L275.352 18.9938L275.43 19.0165L275.504 19.0358L275.575 19.0518L275.642 19.0645L275.706 19.0737L275.767 19.0795L275.824 19.0818L275.877 19.0806L275.927 19.0758L275.973 19.0676L276.016 19.0557L276.055 19.0403L276.09 19.0213L276.121 18.9986L276.149 18.9724L276.174 18.9426L276.194 18.9092L276.211 18.8721L276.225 18.8315L276.234 18.7874L276.24 18.7396L276.243 18.6883L276.242 18.6335L276.237 18.5752L276.229 18.5135L276.217 18.4483L276.202 18.3797L276.184 18.3077L276.162 18.2324L276.137 18.1538L276.108 18.072L276.076 17.987L276.041 17.8989L276.003 17.8077L275.962 17.7135L275.918 17.6163L275.871 17.5162L275.821 17.4133L275.768 17.3076L275.713 17.1992L275.654 17.0882L275.594 16.9746L275.53 16.8586L275.464 16.7402L275.396 16.6195L275.326 16.4966L275.254 16.3715L275.179 16.2444L275.102 16.1153L275.024 15.9843L274.944 15.8516L274.862 15.7172L274.778 15.5812L274.693 15.4438L274.607 15.3049L274.519 15.1648L274.43 15.0234L274.34 14.881L274.248 14.7376L274.156 14.5934L274.064 14.4484L273.97 14.3027L273.876 14.1564L273.782 14.0097L273.687 13.8627L273.592 13.7154L273.497 13.568L273.402 13.4206L273.306 13.2733L273.212 13.1262L273.117 12.9794L273.023 12.833L272.929 12.6871L272.836 12.5419L272.744 12.3974L272.652 12.2537L272.562 12.1109L272.473 11.9693L272.384 11.8287L272.298 11.6895L272.212 11.5515L272.128 11.4151L272.045 11.2802L271.965 11.1469L271.885 11.0154L271.808 10.8857L271.733 10.7579L271.66 10.6322L271.589 10.5086L271.52 10.3871L271.454 10.268L271.39 10.1512L271.328 10.0368L271.269 9.92501L271.213 9.81579L271.159 9.70923L271.108 9.60542L271.06 9.50442L271.015 9.4063L270.973 9.31112L270.934 9.21895L270.898 9.12983L270.865 9.04384L270.835 8.96101L270.809 8.8814L270.786 8.80506L270.766 8.73203L270.75 8.66235L270.737 8.59606L270.728 8.5332L270.722 8.4738L270.72 8.41788L270.722 8.36547L270.726 8.3166L270.735 8.27128L270.747 8.22953L270.763 8.19137L270.783 8.1568L270.806 8.12583L270.832 8.09846L270.863 8.07469L270.897 8.05453L270.935 8.03795L270.976 8.02496L271.021 8.01554L271.07 8.00968L271.122 8.00735L271.178 8.00854L271.237 8.01321L271.3 8.02134L271.366 8.0329L271.436 8.04784L271.51 8.06615L271.586 8.08776L271.666 8.11265L271.749 8.14075L271.836 8.17203L271.925 8.20642L272.018 8.24388L272.113 8.28435L272.212 8.32776L272.314 8.37405L272.418 8.42315L272.526 8.475L272.636 8.52952L272.748 8.58665L272.864 8.6463L272.981 8.7084L273.101 8.77286L273.224 8.83961L273.349 8.90855L273.475 8.97961L273.604 9.05269L273.735 9.1277L273.868 9.20456L274.002 9.28316L274.138 9.36342L274.276 9.44523L274.415 9.5285L274.556 9.61312L274.698 9.69901L274.841 9.78605L274.985 9.87414L275.13 9.96318L275.276 10.0531L275.423 10.1437L275.57 10.2349L275.718 10.3267L275.866 10.4189L276.015 10.5114L276.164 10.6041L276.313 10.6969L276.462 10.7897L276.61 10.8824L276.759 10.9749L276.907 11.067L277.055 11.1586L277.202 11.2497L277.349 11.3402L277.494 11.4299L277.639 11.5187L277.783 11.6065L277.926 11.6933L278.068 11.7789L278.208 11.8632L278.347 11.9461L278.484 12.0276L278.62 12.1074L278.754 12.1856L278.886 12.262L279.017 12.3366L279.145 12.4092L279.271 12.4798L279.395 12.5482L279.517 12.6144L279.637 12.6783L279.754 12.7398L279.869 12.7988L279.981 12.8553L280.09 12.9092L280.197 12.9604L280.3 13.0088L280.401 13.0544L280.499 13.0971L280.594 13.1369L280.686 13.1736L280.775 13.2073L280.861 13.2378L280.943 13.2651L281.022 13.2892L281.098 13.31L281.17 13.3275L281.239 13.3416L281.305 13.3524L281.367 13.3597L281.425 13.3635L281.48 13.3638L281.532 13.3607L281.579 13.3539L281.624 13.3437L281.664 13.3298L281.701 13.3124L281.734 13.2913L281.764 13.2667L281.79 13.2384L281.812 13.2066L281.831 13.1712L281.845 13.1321L281.857 13.0895L281.864 13.0433L281.869 12.9936L281.869 12.9403L281.866 12.8836L281.859 12.8233L281.849 12.7596L281.836 12.6925L281.819 12.622L281.798 12.5482L281.774 12.4711L281.747 12.3907L281.717 12.3071L281.683 12.2203L281.647 12.1305L281.607 12.0375L281.564 11.9417L281.518 11.8428L281.469 11.7411L281.418 11.6367L281.364 11.5295L281.306 11.4196L281.247 11.3072L281.185 11.1922L281.12 11.0748L281.053 10.9551L280.984 10.8332L280.912 10.709L280.838 10.5828L280.763 10.4546L280.685 10.3244L280.605 10.1925L280.524 10.0588L280.441 9.92348L280.357 9.78665L280.271 9.64839L280.184 9.5088L280.095 9.36798L280.006 9.22604L279.915 9.08307L279.823 8.93919L279.731 8.79448L279.638 8.64907L279.544 8.50306L279.45 8.35655L279.355 8.20966L279.26 8.06248L279.165 7.91513L279.07 7.76772L278.974 7.62035L278.879 7.47313L278.785 7.32617L278.69 7.17958L278.596 7.03346L278.503 6.88792L278.411 6.74307L278.319 6.59901L278.228 6.45586L278.138 6.3137L278.049 6.17265L277.962 6.03281L277.876 5.89428L277.791 5.75716L277.708 5.62155L277.626 5.48755L277.546 5.35525L277.468 5.22474L277.392 5.09612L277.318 4.96949L277.246 4.84492L277.176 4.72251L277.109 4.60235L277.044 4.48451L276.981 4.36908L276.921 4.25614L276.863 4.14577L276.808 4.03803L276.756 3.93301L276.707 3.83076L276.661 3.73137L276.617 3.63489L276.577 3.54139L276.539 3.45092L276.505 3.36355L276.474 3.27932L276.446 3.19829L276.422 3.12051L276.401 3.04602L276.383 2.97486L276.369 2.90708L276.358 2.84271L276.351 2.78178L276.347 2.72432L276.347 2.67037L276.35 2.61994L276.357 2.57306L276.368 2.52974L276.382 2.49L276.4 2.45385L276.421 2.4213L276.446 2.39234L276.475 2.36699L276.508 2.34524L276.544 2.32709L276.584 2.31253L276.627 2.30155L276.674 2.29412L276.725 2.29024L276.779 2.28988L276.837 2.29303L276.898 2.29964L276.963 2.3097L277.031 2.32316L277.103 2.33999L277.178 2.36016L277.257 2.38361L277.338 2.4103L277.423 2.44019L277.512 2.47323L277.603 2.50935L277.697 2.5485L277.795 2.59062L277.895 2.63565L277.998 2.68353L278.104 2.73418L278.213 2.78754L278.325 2.84353L278.439 2.90208L278.556 2.96311L278.675 3.02654L278.796 3.0923L278.92 3.16028L279.046 3.23042L279.174 3.30263L279.304 3.3768L279.435 3.45286L279.569 3.53071L279.705 3.61025L279.842 3.69139L279.98 3.77403L280.12 3.85807L280.262 3.94341L280.404 4.02996L280.548 4.1176L280.693 4.20624L280.838 4.29576L280.985 4.38607L281.132 4.47706L281.279 4.56862L281.427 4.66065L281.576 4.75303L281.725 4.84567" stroke="#4558FF" stroke-width="2"/>
<path d="M1.42844 37.2038L1.42452 37.3791L1.42068 37.5541L1.41695 37.7286L1.41337 37.9025L1.40997 38.0757L1.40679 38.248L1.40387 38.4193L1.40125 38.5893L1.39895 38.7581L1.39702 38.9253L1.39549 39.091L1.39439 39.2548L1.39376 39.4168L1.39363 39.5768L1.39404 39.7346L1.39502 39.8901L1.39661 40.0431L1.39883 40.1936L1.40171 40.3414L1.40529 40.4864L1.4096 40.6284L1.41466 40.7674L1.42051 40.9032L1.42717 41.0357L1.43468 41.1649L1.44305 41.2905L1.45232 41.4125L1.4625 41.5308L1.47363 41.6452L1.48572 41.7558L1.49881 41.8624L1.5129 41.9649L1.52803 42.0632L1.54421 42.1573L1.56146 42.247L1.57979 42.3324L1.59924 42.4132L1.6198 42.4896L1.6415 42.5613L1.66435 42.6284L1.68836 42.6909L1.71355 42.7485L1.73993 42.8014L1.76749 42.8494L1.79627 42.8926L1.82625 42.9309L1.85746 42.9642L1.88988 42.9926L1.92354 43.0161L1.95842 43.0345L1.99454 43.048L2.03189 43.0565L2.07048 43.06L2.1103 43.0586L2.15135 43.0521L2.19362 43.0407L2.23712 43.0244L2.28183 43.0032L2.32776 42.977L2.37488 42.946L2.4232 42.9102L2.4727 42.8696L2.52337 42.8243L2.5752 42.7743L2.62818 42.7196L2.68229 42.6604L2.73752 42.5967L2.79385 42.5285L2.85126 42.4559L2.90974 42.3791L2.96926 42.298L3.02981 42.2127L3.09136 42.1234L3.1539 42.0301L3.2174 41.933L3.28183 41.832L3.34718 41.7274L3.41341 41.6192L3.4805 41.5075L3.54843 41.3925L3.61716 41.2742L3.68667 41.1527L3.75692 41.0282L3.8279 40.9008L3.89957 40.7707L3.97189 40.6379L4.04483 40.5025L4.11838 40.3648L4.19248 40.2248L4.26711 40.0826L4.34223 39.9385L4.41781 39.7925L4.49382 39.6448L4.57021 39.4955L4.64697 39.3448L4.72404 39.1928L4.80139 39.0396L4.87899 38.8854L4.9568 38.7304L5.03479 38.5747L5.11291 38.4185L5.19114 38.2618L5.26942 38.1049L5.34774 37.9478L5.42604 37.7908L5.5043 37.634L5.58247 37.4776L5.66052 37.3216L5.73842 37.1663L5.81611 37.0117L5.89358 36.8581L5.97078 36.7056L6.04768 36.5543L6.12423 36.4043L6.20042 36.2559L6.27619 36.1091L6.35152 35.9642L6.42637 35.8211L6.50071 35.6802L6.5745 35.5414L6.64771 35.405L6.72031 35.2711L6.79227 35.1397L6.86355 35.0111L6.93413 34.8853L7.00397 34.7625L7.07305 34.6428L7.14133 34.5263L7.20879 34.4131L7.27541 34.3034L7.34114 34.1972L7.40598 34.0946L7.46989 33.9958L7.53285 33.9008L7.59484 33.8097L7.65584 33.7227L7.71581 33.6398L7.77475 33.561L7.83263 33.4866L7.88944 33.4164L7.94515 33.3507L7.99976 33.2895L8.05323 33.2329L8.10557 33.1808L8.15676 33.1334L8.20677 33.0907L8.25561 33.0528L8.30326 33.0197L8.34972 32.9914L8.39496 32.968L8.43899 32.9495L8.48181 32.9359L8.5234 32.9273L8.56376 32.9237L8.60288 32.925L8.64078 32.9313L8.67744 32.9426L8.71287 32.9589L8.74706 32.9801L8.78003 33.0064L8.81177 33.0376L8.84229 33.0737L8.87159 33.1147L8.89969 33.1606L8.92659 33.2113L8.95229 33.2669L8.97682 33.3272L9.00018 33.3923L9.02239 33.462L9.04345 33.5363L9.06338 33.6152L9.0822 33.6986L9.09993 33.7864L9.11657 33.8786L9.13216 33.9751L9.1467 34.0757L9.16023 34.1805L9.17276 34.2893L9.18431 34.4021L9.1949 34.5187L9.20457 34.6391L9.21333 34.7632L9.22122 34.8908L9.22825 35.0218L9.23445 35.1562L9.23985 35.2938L9.24449 35.4345L9.24839 35.5782L9.25157 35.7248L9.25408 35.8741L9.25594 36.026L9.25718 36.1805L9.25784 36.3373L9.25794 36.4963L9.25753 36.6574L9.25663 36.8205L9.25529 36.9854L9.25353 37.1519L9.25139 37.32L9.2489 37.4895L9.2461 37.6603L9.24304 37.8321L9.23973 38.0049L9.23622 38.1785L9.23255 38.3528L9.22876 38.5276L9.22487 38.7028L9.22093 38.8782L9.21697 39.0536L9.21304 39.2289L9.20916 39.4041L9.20538 39.5788L9.20172 39.753L9.19824 39.9265L9.19496 40.0992L9.19192 40.271L9.18916 40.4416L9.18672 40.6109L9.18462 40.7788L9.18291 40.9452L9.18161 41.1099L9.18077 41.2727L9.18042 41.4336L9.18059 41.5924L9.18132 41.7489L9.18264 41.903L9.18457 42.0546L9.18716 42.2036L9.19043 42.3499L9.19441 42.4932L9.19914 42.6336L9.20464 42.7708L9.21094 42.9048L9.21807 43.0354L9.22606 43.1626L9.23493 43.2862L9.24471 43.4061L9.25542 43.5223L9.26709 43.6346L9.27974 43.7429L9.29338 43.8472L9.30805 43.9474L9.32377 44.0433L9.34054 44.135L9.3584 44.2222L9.37736 44.3051L9.39742 44.3834L9.41862 44.4572L9.44097 44.5264L9.46447 44.5909L9.48914 44.6506L9.51499 44.7056L9.54203 44.7557L9.57027 44.8011L9.59973 44.8415L9.63039 44.877L9.66228 44.9076L9.69539 44.9332L9.72974 44.9539L9.76531 44.9696L9.80212 44.9802L9.84017 44.986L9.87944 44.9867L9.91995 44.9824L9.96169 44.9732L10.0046 44.959L10.0488 44.9399L10.0942 44.916L10.1408 44.8871L10.1886 44.8534L10.2376 44.8149L10.2878 44.7716L10.3391 44.7237L10.3916 44.6711L10.4452 44.6138L10.4999 44.5521L10.5558 44.4858L10.6127 44.4152L10.6707 44.3402L10.7298 44.261L10.7899 44.1775L10.851 44.09L10.9131 43.9985L10.9762 43.903L11.0402 43.8037L11.1051 43.7007L11.171 43.594L11.2377 43.4839L11.3053 43.3703L11.3737 43.2534L11.4428 43.1333L11.5128 43.0101L11.5834 42.884L11.6548 42.7551L11.7268 42.6234L11.7995 42.4891L11.8728 42.3524L11.9466 42.2134L12.021 42.0722L12.096 41.9289L12.1713 41.7837L12.2472 41.6367L12.3234 41.4881L12.4 41.338L12.4769 41.1866L12.5542 41.0339L12.6317 40.8802L12.7094 40.7255L12.7873 40.5701L12.8654 40.414L12.9435 40.2575L13.0218 40.1007L13.1001 39.9437L13.1784 39.7867L13.2567 39.6298L13.3349 39.4731L13.413 39.3169L13.491 39.1613L13.5688 39.0064L13.6464 38.8523L13.7237 38.6993L13.8007 38.5475L13.8774 38.3969L13.9538 38.2478L14.0297 38.1003L14.1053 37.9545L14.1803 37.8106L14.2549 37.6687L14.3289 37.529L14.4024 37.3915L14.4753 37.2565L14.5475 37.124L14.6191 36.9941L14.69 36.8671L14.7602 36.743L14.8296 36.6219L14.8982 36.504L14.966 36.3893L15.033 36.278L15.0992 36.1703L15.1644 36.0661L15.2287 35.9656L15.2921 35.8689L15.3545 35.7761L15.416 35.6873L15.4764 35.6025L15.5358 35.5219L15.5941 35.4456L15.6514 35.3736L15.7076 35.3059L15.7627 35.2427L15.8167 35.184L15.8695 35.1299L15.9212 35.0805L15.9717 35.0357L16.0211 34.9957L16.0693 34.9605L16.1162 34.9301L16.162 34.9045L16.2066 34.8839L16.2499 34.8681L16.2921 34.8573L16.333 34.8515L16.3726 34.8506L16.4111 34.8548L16.4483 34.8639L16.4842 34.878L16.519 34.897L16.5525 34.9211L16.5848 34.9501L16.6158 34.984L16.6457 35.0229L16.6743 35.0667L16.7017 35.1153L16.7279 35.1687L16.753 35.227L16.7769 35.2899L16.7996 35.3576L16.8211 35.4299L16.8416 35.5068L16.8609 35.5883L16.8791 35.6741L16.8962 35.7644L16.9122 35.859L16.9272 35.9578L16.9412 36.0608L16.9542 36.1679L16.9662 36.2789L16.9772 36.3939L16.9872 36.5126L16.9964 36.6351L17.0047 36.7611L17.0121 36.8906L17.0186 37.0236L17.0244 37.1598L17.0293 37.2991L17.0336 37.4415L17.0371 37.5869L17.0399 37.735L17.042 37.8858L17.0435 38.0391L17.0444 38.1949L17.0448 38.353L17.0446 38.5132L17.0439 38.6754L17.0427 38.8395L17.0412 39.0054L17.0392 39.1728L17.0368 39.3417L17.0342 39.5119L17.0312 39.6833L17.028 39.8557L17.0246 40.029L17.021 40.203L17.0172 40.3776L17.0134 40.5526L17.0095 40.7279L17.0055 40.9033L17.0016 41.0787L16.9977 41.254L16.9938 41.4289L16.9901 41.6034L16.9865 41.7772L16.9832 41.9503L16.98 42.1225L16.9771 42.2936L16.9746 42.4635L16.9723 42.6321L16.9704 42.7991L16.9689 42.9646L16.9679 43.1282L16.9673 43.29L16.9673 43.4497L16.9677 43.6072L16.9688 43.7624L16.9704 43.9152L16.9727 44.0653L16.9757 44.2128L16.9794 44.3574L16.9838 44.4991L16.9889 44.6377L16.9949 44.7731L17.0016 44.9052L17.0092 45.0339L17.0177 45.1591L17.0271 45.2807L17.0374 45.3985L17.0486 45.5125L17.0609 45.6226L17.0741 45.7287L17.0883 45.8307L17.1035 45.9285L17.1198 46.022L17.1372 46.1113L17.1557 46.1961L17.1753 46.2764L17.196 46.3522L17.2178 46.4234L17.2408 46.4899L17.265 46.5518L17.2903 46.6089L17.3168 46.6611L17.3445 46.7086L17.3734 46.7512L17.4036 46.7888L17.4349 46.8216L17.4675 46.8494L17.5013 46.8723L17.5363 46.8901L17.5726 46.903L17.6101 46.9109L17.6488 46.9138L17.6888 46.9117L17.73 46.9047L17.7724 46.8927L17.8161 46.8758L17.8609 46.8539L17.907 46.8272L17.9543 46.7956L18.0027 46.7592L18.0524 46.7181L18.1032 46.6722L18.1552 46.6216L18.2083 46.5664L18.2625 46.5066L18.3179 46.4423L18.3743 46.3736L18.4319 46.3005L18.4905 46.2231L18.5501 46.1415L18.6108 46.0558L18.6725 45.966L18.7351 45.8723L18.7987 45.7747L18.8633 45.6733L18.9287 45.5682L18.9951 45.4596L19.0623 45.3475L19.1303 45.232L19.1991 45.1133L19.2687 44.9915L19.3391 44.8667L19.4101 44.7389L19.4819 44.6084L19.5543 44.4753L19.6273 44.3397L19.7009 44.2016L19.7751 44.0614L19.8498 43.919L19.9249 43.7746L20.0006 43.6284L20.0766 43.4805L20.1531 43.331L20.2299 43.1801L20.307 43.028L20.3844 42.8747L20.462 42.7204L20.5398 42.5653L20.6178 42.4095L20.696 42.2532L20.7742 42.0965L20.8525 41.9396L20.9308 41.7825L21.0091 41.6255L21.0874 41.4688L21.1655 41.3124L21.2436 41.1565L21.3214 41.0012L21.3991 40.8468L21.4765 40.6933L21.5537 40.5409L21.6306 40.3897L21.7071 40.24L21.7832 40.0918L21.8589 39.9452L21.9342 39.8005L22.009 39.6577L22.0833 39.517L22.157 39.3785L22.2301 39.2424L22.3027 39.1087L22.3745 38.9777L22.4457 38.8494L22.5162 38.724L22.586 38.6016L22.6549 38.4822L22.7231 38.3661L22.7905 38.2534L22.857 38.144L22.9226 38.0383L22.9874 37.9361L23.0512 37.8378L23.114 37.7432L23.1759 37.6527L23.2367 37.5661L23.2966 37.4837L23.3554 37.4055L23.4132 37.3315L23.4698 37.2619L23.5254 37.1968L23.5799 37.1361L23.6332 37.08L23.6854 37.0285L23.7365 36.9817L23.7863 36.9396L23.835 36.9022L23.8825 36.8697L23.9289 36.842L23.974 36.8192L24.0178 36.8013L24.0605 36.7883L24.1019 36.7803L24.1422 36.7773L24.1811 36.7792L24.2189 36.7861L24.2554 36.798L24.2907 36.8149L24.3247 36.8367L24.3575 36.8636L24.3891 36.8953L24.4195 36.9321L24.4487 36.9737L24.4766 37.0202L24.5034 37.0715L24.5289 37.1276L24.5533 37.1885L24.5765 37.2541L24.5986 37.3244L24.6195 37.3993L24.6393 37.4788L24.658 37.5627L24.6756 37.651L24.6921 37.7437L24.7076 37.8407L24.722 37.9419L24.7354 38.0472L24.7478 38.1565L24.7592 38.2697L24.7697 38.3868L24.7793 38.5076L24.7879 38.6321L24.7957 38.7601L24.8026 38.8916L24.8087 39.0264L24.8141 39.1643L24.8186 39.3054L24.8224 39.4495L24.8255 39.5964L24.8279 39.746L24.8297 39.8983L24.8309 40.053L24.8315 40.2101L24.8315 40.3694L24.831 40.5307L24.8301 40.694L24.8287 40.8591L24.8269 41.0259L24.8247 41.1942L24.8222 41.3638L24.8194 41.5347L24.8162 41.7067L24.8129 41.8796L24.8094 42.0533L24.8057 42.2276L24.8019 42.4025L24.798 42.5777" stroke="#6CAC2C" stroke-width="2"/>
</svg>
