<svg width="344" height="69" viewBox="0 0 344 69" fill="none" xmlns="http://www.w3.org/2000/svg">
<ellipse cx="172" cy="38" rx="172" ry="31" fill="#FFECF6"/>
<g filter="url(#filter0_d_0_1)">
<ellipse cx="171.5" cy="32.8477" rx="101.5" ry="20.0494" fill="#FFA6D4"/>
<path d="M272.5 32.8477C272.5 34.0477 271.887 35.2776 270.591 36.5286C269.294 37.7802 267.355 39.0113 264.812 40.1988C259.729 42.5726 252.342 44.7233 243.174 46.5343C224.847 50.1545 199.506 52.3971 171.5 52.3971C143.494 52.3971 118.153 50.1545 99.8256 46.5343C90.6578 44.7233 83.2709 42.5726 78.1879 40.1988C75.6451 39.0113 73.7059 37.7802 72.4094 36.5286C71.1134 35.2776 70.5 34.0477 70.5 32.8477C70.5 31.6478 71.1134 30.4178 72.4094 29.1668C73.7059 27.9153 75.6451 26.6842 78.1879 25.4966C83.2709 23.1228 90.6578 20.9721 99.8256 19.1612C118.153 15.541 143.494 13.2983 171.5 13.2983C199.506 13.2983 224.847 15.541 243.174 19.1612C252.342 20.9721 259.729 23.1228 264.812 25.4966C267.355 26.6842 269.294 27.9153 270.591 29.1668C271.887 30.4178 272.5 31.6478 272.5 32.8477Z" stroke="black"/>
</g>
<ellipse cx="171.5" cy="30.3414" rx="86.463" ry="16.7078" fill="white"/>
<ellipse cx="171.082" cy="27.8352" rx="65.9959" ry="13.3663" fill="#FFA6D4"/>
<path opacity="0.25" fill-rule="evenodd" clip-rule="evenodd" d="M219.455 29.4232C213.014 33.8289 193.858 37.0246 171.229 37.0246C151.663 37.0246 134.694 34.6356 126.295 31.1411C125.399 32.6005 122.106 33.683 118.182 33.683C113.568 33.683 109.828 32.187 109.828 30.3415C109.828 28.496 113.568 26.9999 118.182 26.9999C119.136 26.9999 120.052 27.0639 120.906 27.1817C120.762 26.8468 120.688 26.5075 120.688 26.1645C120.688 20.1667 143.316 15.3044 171.229 15.3044C199.142 15.3044 221.77 20.1667 221.77 26.1645C221.77 26.1697 221.77 26.1749 221.77 26.18C223.1 25.6509 224.857 25.3291 226.782 25.3291C230.935 25.3291 234.301 26.8252 234.301 28.6707C234.301 30.5162 230.935 32.0123 226.782 32.0123C223.212 32.0123 220.223 30.9063 219.455 29.4232Z" fill="black"/>
<path d="M173.169 2.3556C175.784 2.3556 191.129 1.13428 191.129 1.13428C223.359 1.82708 219.915 15.786 223.859 25.7469C229.706 24.0761 239.565 28.8874 234.719 29.9239C229.872 30.9603 222.188 29.9239 220.893 27.2127C220.893 27.2127 192.04 33.453 173.169 33.453C154.297 33.453 121.941 29.9239 121.941 29.9239C121.941 29.9239 109.828 33.4529 107.739 29.9239C106.135 27.2127 118.182 24.9115 120.598 27.2127C124.542 17.2518 122.143 1.82708 154.372 1.13428C154.372 1.13428 170.306 2.3556 173.169 2.3556Z" fill="#E22084" stroke="black"/>
<path d="M153.733 1.64471C154.316 1.29389 154.995 1.15106 155.67 1.23691C158.859 1.64234 168.633 2.82746 173.907 2.82746C179.148 2.82746 189.426 1.65725 192.887 1.24467C193.642 1.15458 194.398 1.35142 195.014 1.79833L205.875 9.67716C207.605 10.9325 207.46 13.4719 205.518 14.3652C199.84 16.9764 188.482 21.1522 173.907 21.1522C159.563 21.1522 147.278 17.1081 140.829 14.4909C138.665 13.6128 138.546 10.7784 140.547 9.575L153.733 1.64471Z" fill="#C20566"/>
<path d="M155.627 4.71682C161.893 4.30162 174.006 2.84841 189.043 15.3044" stroke="black"/>
<path d="M189.043 4.71682C182.778 4.30162 170.664 2.84841 155.627 15.3044" stroke="black"/>
<path d="M176.43 5.69761C176.43 5.95769 176.175 6.35652 175.377 6.7192C174.625 7.06136 173.55 7.28609 172.335 7.28609C171.121 7.28609 170.046 7.06136 169.293 6.7192C168.495 6.35652 168.241 5.95769 168.241 5.69761C168.241 5.43753 168.495 5.03869 169.293 4.67601C170.046 4.33385 171.121 4.10913 172.335 4.10913C173.55 4.10913 174.625 4.33385 175.377 4.67601C176.175 5.03869 176.43 5.43753 176.43 5.69761Z" fill="#E22084" stroke="black"/>
<ellipse cx="282" cy="47" rx="10" ry="2" fill="black" fill-opacity="0.25"/>
<mask id="path-13-inside-1_0_1" fill="white">
<path fill-rule="evenodd" clip-rule="evenodd" d="M302 27.8948H262C262 35.8092 266.963 42.5644 273.946 45.2185C273.562 45.7096 273.333 46.3278 273.333 46.9995L273.333 47.0001C273.334 47.0102 273.377 48 282 48C290.667 48 290.667 47 290.667 47C290.667 46.3281 290.438 45.7098 290.054 45.2185C297.037 42.5646 302 35.8092 302 27.8948Z"/>
</mask>
<path fill-rule="evenodd" clip-rule="evenodd" d="M302 27.8948H262C262 35.8092 266.963 42.5644 273.946 45.2185C273.562 45.7096 273.333 46.3278 273.333 46.9995L273.333 47.0001C273.334 47.0102 273.377 48 282 48C290.667 48 290.667 47 290.667 47C290.667 46.3281 290.438 45.7098 290.054 45.2185C297.037 42.5646 302 35.8092 302 27.8948Z" fill="#FC68B4"/>
<path d="M262 27.8948V26.8948H261V27.8948H262ZM302 27.8948H303V26.8948H302V27.8948ZM273.946 45.2185L274.734 45.8344L275.569 44.7656L274.301 44.2837L273.946 45.2185ZM273.333 46.9995H272.333L272.333 47.0013L273.333 46.9995ZM273.333 47.0001L272.333 47.0018L272.333 47.0119L272.334 47.0221L273.333 47.0001ZM290.054 45.2185L289.698 44.2838L288.43 44.7657L289.266 45.8345L290.054 45.2185ZM262 28.8948H302V26.8948H262V28.8948ZM274.301 44.2837C267.693 41.7723 263 35.3804 263 27.8948H261C261 36.2379 266.232 43.3566 273.591 46.1532L274.301 44.2837ZM274.333 46.9995C274.333 46.5589 274.483 46.1559 274.734 45.8344L273.158 44.6026C272.642 45.2633 272.333 46.0968 272.333 46.9995H274.333ZM274.333 46.9983L274.333 46.9978L272.333 47.0013L272.333 47.0018L274.333 46.9983ZM282 47C277.707 47 275.632 46.752 274.656 46.529C274.162 46.416 274.026 46.3259 274.037 46.3331C274.067 46.3539 274.324 46.5541 274.333 46.9781L272.334 47.0221C272.343 47.4511 272.605 47.7788 272.914 47.9881C273.202 48.1838 273.616 48.343 274.211 48.4787C275.412 48.7532 277.67 49 282 49V47ZM290.667 47C289.667 47 289.667 46.9958 289.667 46.9915C289.667 46.9901 289.667 46.9859 289.667 46.9831C289.667 46.9774 289.667 46.9717 289.667 46.9661C289.668 46.9548 289.668 46.9434 289.669 46.9321C289.671 46.9094 289.673 46.8869 289.676 46.8644C289.682 46.8194 289.692 46.7757 289.704 46.7337C289.728 46.6488 289.763 46.5762 289.799 46.5166C289.872 46.3992 289.947 46.3444 289.962 46.3341C289.978 46.3227 289.85 46.4122 289.358 46.5256C288.389 46.7493 286.315 47 282 47V49C286.352 49 288.611 48.7507 289.808 48.4744C290.4 48.3378 290.813 48.1773 291.1 47.9784C291.251 47.8744 291.393 47.7414 291.5 47.5693C291.554 47.4824 291.597 47.3883 291.625 47.2888C291.64 47.2394 291.65 47.1901 291.657 47.1413C291.66 47.117 291.663 47.093 291.664 47.0693C291.665 47.0575 291.666 47.0458 291.666 47.0343C291.666 47.0285 291.666 47.0228 291.667 47.017C291.667 47.0142 291.667 47.0099 291.667 47.0085C291.667 47.0042 291.667 47 290.667 47ZM289.266 45.8345C289.517 46.1561 289.667 46.5592 289.667 47H291.667C291.667 46.0971 291.358 45.2634 290.842 44.6026L289.266 45.8345ZM301 27.8948C301 35.3805 296.307 41.7724 289.698 44.2838L290.409 46.1533C297.768 43.3567 303 36.238 303 27.8948H301Z" fill="black" mask="url(#path-13-inside-1_0_1)"/>
<path d="M301.305 27.7196C301.43 27.8083 301.477 27.8678 301.493 27.8947C301.477 27.9217 301.43 27.9811 301.305 28.0699C301.095 28.2182 300.754 28.3816 300.266 28.5484C299.298 28.8799 297.869 29.1865 296.071 29.4468C292.482 29.9662 287.507 30.2895 282 30.2895C276.493 30.2895 271.518 29.9662 267.929 29.4468C266.131 29.1865 264.702 28.8799 263.734 28.5484C263.246 28.3816 262.905 28.2182 262.695 28.0699C262.57 27.9811 262.523 27.9217 262.507 27.8947C262.523 27.8678 262.57 27.8083 262.695 27.7196C262.905 27.5713 263.246 27.4079 263.734 27.241C264.702 26.9096 266.131 26.603 267.929 26.3427C271.518 25.8232 276.493 25.5 282 25.5C287.507 25.5 292.482 25.8232 296.071 26.3427C297.869 26.603 299.298 26.9096 300.266 27.241C300.754 27.4079 301.095 27.5713 301.305 27.7196Z" fill="white" stroke="black"/>
<defs>
<filter id="filter0_d_0_1" x="70" y="12.7983" width="203" height="44.0989" filterUnits="userSpaceOnUse" color-interpolation-filters="sRGB">
<feFlood flood-opacity="0" result="BackgroundImageFix"/>
<feColorMatrix in="SourceAlpha" type="matrix" values="0 0 0 0 0 0 0 0 0 0 0 0 0 0 0 0 0 0 127 0" result="hardAlpha"/>
<feOffset dy="4"/>
<feComposite in2="hardAlpha" operator="out"/>
<feColorMatrix type="matrix" values="0 0 0 0 0 0 0 0 0 0 0 0 0 0 0 0 0 0 0.25 0"/>
<feBlend mode="normal" in2="BackgroundImageFix" result="effect1_dropShadow_0_1"/>
<feBlend mode="normal" in="SourceGraphic" in2="effect1_dropShadow_0_1" result="shape"/>
</filter>
</defs>
</svg>
