<svg width="178" height="44" viewBox="0 0 178 44" fill="none" xmlns="http://www.w3.org/2000/svg">
<ellipse cx="89" cy="22" rx="89" ry="22" fill="#D9D9D9"/>
<path d="M65.794 25V19.3C65.794 18.74 65.674 18.35 65.434 18.13C65.194 17.91 64.864 17.8 64.444 17.8H61.669V16.57H64.849C65.349 16.57 65.789 16.665 66.169 16.855C66.549 17.035 66.849 17.33 67.069 17.74C67.289 18.15 67.399 18.695 67.399 19.375V25H65.794ZM72.1018 25.03L72.2518 23.8C73.0418 23.97 73.6718 23.955 74.1418 23.755C74.6118 23.555 74.9468 23.19 75.1468 22.66C75.3568 22.12 75.4518 21.43 75.4318 20.59C75.4218 19.88 75.3318 19.32 75.1618 18.91C75.0018 18.49 74.7768 18.19 74.4868 18.01C74.2068 17.83 73.8718 17.74 73.4818 17.74C73.1318 17.74 72.8318 17.815 72.5818 17.965C72.3318 18.105 72.1318 18.3 71.9818 18.55C71.8318 18.8 71.7268 19.08 71.6668 19.39L71.2618 18.64C71.4518 17.88 71.7768 17.33 72.2368 16.99C72.7068 16.64 73.2218 16.465 73.7818 16.465C74.2518 16.465 74.6768 16.545 75.0568 16.705C75.4468 16.855 75.7818 17.095 76.0618 17.425C76.3418 17.755 76.5568 18.185 76.7068 18.715C76.8668 19.235 76.9518 19.86 76.9618 20.59C76.9818 21.72 76.8018 22.655 76.4218 23.395C76.0418 24.135 75.4868 24.65 74.7568 24.94C74.0268 25.23 73.1418 25.26 72.1018 25.03ZM69.1018 25L70.1818 19.195L69.0118 16.57H70.6618L71.6968 19.255L70.7068 25H69.1018ZM83.3082 25L78.4032 16.57H80.0232L84.9282 25H83.3082ZM78.1632 25V23.77H83.9832L84.4482 25H78.1632ZM82.7532 21.565L81.8532 20.185L83.3682 16.57H84.9582L82.7532 21.565ZM89.1185 25.225L88.9685 24.115C89.3685 24.075 89.6735 23.995 89.8835 23.875C90.0935 23.745 90.2385 23.565 90.3185 23.335C90.3985 23.095 90.4385 22.8 90.4385 22.45V16.57H94.4885C94.9885 16.57 95.4285 16.665 95.8085 16.855C96.1885 17.035 96.4885 17.33 96.7085 17.74C96.9285 18.15 97.0385 18.695 97.0385 19.375V25H95.4335V19.3C95.4335 18.74 95.3135 18.35 95.0735 18.13C94.8335 17.91 94.5035 17.8 94.0835 17.8H92.0285V22.255C92.0285 22.925 91.9235 23.47 91.7135 23.89C91.5135 24.3 91.1985 24.61 90.7685 24.82C90.3485 25.03 89.7985 25.165 89.1185 25.225ZM98.9909 21.85V20.605V18.325L98.8109 16.57H100.401L100.596 18.325V20.605L100.581 21.55L98.9909 21.85ZM106.18 25V19.3C106.18 18.74 106.06 18.35 105.82 18.13C105.58 17.91 105.25 17.8 104.83 17.8H102.055V16.57H105.235C105.735 16.57 106.175 16.665 106.555 16.855C106.935 17.035 107.235 17.33 107.455 17.74C107.675 18.15 107.785 18.695 107.785 19.375V25H106.18ZM109.278 25V23.77H111.438C111.928 23.77 112.328 23.675 112.638 23.485C112.948 23.285 113.178 23 113.328 22.63C113.478 22.25 113.553 21.805 113.553 21.295V20.275C113.553 19.755 113.478 19.31 113.328 18.94C113.178 18.57 112.948 18.29 112.638 18.1C112.328 17.9 111.928 17.8 111.438 17.8H109.278V16.57H111.828C112.548 16.57 113.153 16.72 113.643 17.02C114.143 17.32 114.518 17.755 114.768 18.325C115.028 18.885 115.158 19.56 115.158 20.35V21.22C115.158 22.02 115.028 22.705 114.768 23.275C114.518 23.835 114.143 24.265 113.643 24.565C113.153 24.855 112.548 25 111.828 25H109.278Z" fill="black"/>
</svg>
