<svg width="375" height="71" viewBox="0 0 375 71" fill="none" xmlns="http://www.w3.org/2000/svg">
<ellipse cx="188" cy="40.0002" rx="205" ry="31" fill="#FFECF6"/>
<path d="M337 32C337.071 40.9213 270.782 53.8386 188.732 54.4887C106.681 55.1388 40.0711 43.4214 40.0004 34.5001C39.9297 25.5788 106.425 22.8319 188.476 22.1818C270.526 21.5317 336.929 23.0787 337 32Z" fill="#F7CCE1"/>
<path d="M192.5 5.00016C199.084 5.00016 234.364 2.23923 234.737 2.20999C234.749 2.20908 234.746 2.2092 234.758 2.20816C309.638 -4.52895 334.72 16.3615 336.467 31.0184C336.59 32.0447 336.136 32.9595 335.225 33.4465C297.333 53.6845 74.5392 52.8026 41.5417 35.2467C40.6488 34.7716 40.2211 33.8797 40.378 32.8805C42.4842 19.469 70.433 -4.50238 141.674 2.20544C141.704 2.20825 141.706 2.20888 141.736 2.2108C142.693 2.27207 185.337 5.00016 192.5 5.00016Z" fill="#E22084" stroke="#303030" stroke-width="1.22843"/>
<g style="mix-blend-mode:darken" filter="url(#filter0_f_0_1)">
<path d="M101.518 2.07052C101.839 2.0237 102.144 1.99336 102.469 1.97918C106.218 1.81529 131.554 0.792915 145.851 2.41911C162.424 3.97217 185.328 5.49771 192.248 5.49771C198.607 5.49771 211.885 4.40195 227.171 2.85891C245.096 0.427985 274.829 1.74723 279.402 1.97017C279.815 1.99029 280.204 2.03682 280.611 2.10971L280.886 2.15892C289.704 3.73864 291.954 14.9871 283.847 18.8003C282.55 19.4104 281.276 19.9687 280.055 20.4509C248.751 32.8091 216.695 18.6917 192.248 18.6917C167.802 18.6917 133.492 34.365 101.947 20.4509C100.64 19.8742 99.276 19.2012 97.8917 18.4659C90.0777 14.3154 92.7623 3.34644 101.518 2.07052Z" fill="#CC1C76"/>
</g>
<g filter="url(#filter1_f_0_1)">
<path d="M216 7.00017C189 12.5002 228.6 14.5002 229 16.5002C229.5 19.0002 195.116 16.0001 192 16.0001C189.23 16.0001 158.5 19.0002 158.5 17.0002C158.5 15.0003 194 13.5002 167 7.00017C167 5.8956 185.373 9.50024 192 9.50024C198.628 9.50024 209.5 7.00017 216 7.00017Z" fill="#A51760"/>
</g>
<path d="M256.028 1.20972C206.028 5.20972 183.5 18.7097 122.5 18.7097" stroke="#303030" stroke-linecap="round"/>
<path d="M258.5 17.7097C194.5 17.7097 172 3.70972 121 1.20972" stroke="#303030" stroke-linecap="round"/>
<path d="M196.5 11.0002C196.5 11.0758 196.459 11.2125 196.242 11.3996C196.026 11.5853 195.684 11.7752 195.218 11.9446C194.291 12.2818 192.976 12.5002 191.5 12.5002C190.024 12.5002 188.709 12.2818 187.782 11.9446C187.316 11.7752 186.974 11.5853 186.758 11.3996C186.541 11.2125 186.5 11.0758 186.5 11.0002C186.5 10.9247 186.541 10.788 186.758 10.6009C186.974 10.4152 187.316 10.2253 187.782 10.0559C188.709 9.71864 190.024 9.50024 191.5 9.50024C192.976 9.50024 194.291 9.71864 195.218 10.0559C195.684 10.2253 196.026 10.4152 196.242 10.6009C196.459 10.788 196.5 10.9247 196.5 11.0002Z" fill="#E22084" stroke="#303030"/>
<ellipse cx="290" cy="52.5002" rx="10" ry="2.5" fill="#F7CCE1"/>
<mask id="path-10-inside-1_0_1" fill="white">
<path fill-rule="evenodd" clip-rule="evenodd" d="M310 32.895H270C270 40.8094 274.963 47.5647 281.946 50.2187C281.562 50.7098 281.333 51.3281 281.333 51.9998L281.333 52.0003C281.334 52.0105 281.377 53.0003 290 53.0003C298.667 53.0003 298.667 52.0002 298.667 52.0002C298.667 51.3284 298.438 50.71 298.054 50.2188C305.037 47.5648 310 40.8095 310 32.895Z"/>
</mask>
<path fill-rule="evenodd" clip-rule="evenodd" d="M310 32.895H270C270 40.8094 274.963 47.5647 281.946 50.2187C281.562 50.7098 281.333 51.3281 281.333 51.9998L281.333 52.0003C281.334 52.0105 281.377 53.0003 290 53.0003C298.667 53.0003 298.667 52.0002 298.667 52.0002C298.667 51.3284 298.438 50.71 298.054 50.2188C305.037 47.5648 310 40.8095 310 32.895Z" fill="#FC68B4"/>
<path d="M270 32.895V31.895H269V32.895H270ZM310 32.895H311V31.895H310V32.895ZM281.946 50.2187L282.734 50.8346L283.569 49.7659L282.301 49.2839L281.946 50.2187ZM281.333 51.9998H280.333L280.333 52.0015L281.333 51.9998ZM281.333 52.0003L280.333 52.0021L280.333 52.0122L280.334 52.0223L281.333 52.0003ZM298.054 50.2188L297.698 49.284L296.43 49.766L297.266 50.8347L298.054 50.2188ZM270 33.895H310V31.895H270V33.895ZM282.301 49.2839C275.693 46.7726 271 40.3806 271 32.895H269C269 41.2382 274.232 48.3568 281.591 51.1535L282.301 49.2839ZM282.333 51.9998C282.333 51.5591 282.483 51.1561 282.734 50.8346L281.158 49.6028C280.642 50.2635 280.333 51.097 280.333 51.9998H282.333ZM282.333 51.9986L282.333 51.998L280.333 52.0015L280.333 52.0021L282.333 51.9986ZM290 52.0003C285.707 52.0003 283.632 51.7522 282.656 51.5292C282.162 51.4163 282.026 51.3261 282.037 51.3333C282.067 51.3541 282.324 51.5543 282.333 51.9783L280.334 52.0223C280.343 52.4514 280.605 52.7791 280.914 52.9883C281.202 53.184 281.616 53.3432 282.211 53.479C283.412 53.7534 285.67 54.0003 290 54.0003V52.0003ZM298.667 52.0002C297.667 52.0002 297.667 51.996 297.667 51.9918C297.667 51.9904 297.667 51.9861 297.667 51.9833C297.667 51.9776 297.667 51.972 297.667 51.9663C297.668 51.955 297.668 51.9437 297.669 51.9324C297.671 51.9097 297.673 51.8871 297.676 51.8647C297.682 51.8197 297.692 51.776 297.704 51.7339C297.728 51.649 297.763 51.5765 297.799 51.5169C297.872 51.3995 297.947 51.3446 297.962 51.3343C297.978 51.323 297.85 51.4125 297.358 51.5259C296.389 51.7496 294.315 52.0003 290 52.0003V54.0003C294.352 54.0003 296.611 53.751 297.808 53.4747C298.4 53.338 298.813 53.1775 299.1 52.9787C299.251 52.8746 299.393 52.7416 299.5 52.5696C299.554 52.4826 299.597 52.3886 299.625 52.289C299.64 52.2396 299.65 52.1903 299.657 52.1416C299.66 52.1172 299.663 52.0932 299.664 52.0696C299.665 52.0578 299.666 52.0461 299.666 52.0345C299.666 52.0287 299.666 52.023 299.667 52.0173C299.667 52.0144 299.667 52.0102 299.667 52.0087C299.667 52.0045 299.667 52.0002 298.667 52.0002ZM297.266 50.8347C297.517 51.1563 297.667 51.5594 297.667 52.0002H299.667C299.667 51.0973 299.358 50.2637 298.842 49.6029L297.266 50.8347ZM309 32.895C309 40.3807 304.307 46.7727 297.698 49.284L298.409 51.1536C305.768 48.3569 311 41.2383 311 32.895H309Z" fill="black" mask="url(#path-10-inside-1_0_1)"/>
<path d="M309.305 32.7198C309.43 32.8086 309.477 32.8681 309.493 32.895C309.477 32.9219 309.43 32.9814 309.305 33.0702C309.095 33.2185 308.754 33.3818 308.266 33.5487C307.298 33.8802 305.869 34.1867 304.071 34.447C300.482 34.9665 295.507 35.2897 290 35.2897C284.493 35.2897 279.518 34.9665 275.929 34.447C274.131 34.1867 272.702 33.8802 271.734 33.5487C271.246 33.3818 270.905 33.2185 270.695 33.0702C270.57 32.9814 270.523 32.9219 270.507 32.895C270.523 32.8681 270.57 32.8086 270.695 32.7198C270.905 32.5715 271.246 32.4081 271.734 32.2413C272.702 31.9098 274.131 31.6032 275.929 31.3429C279.518 30.8235 284.493 30.5002 290 30.5002C295.507 30.5002 300.482 30.8235 304.071 31.3429C305.869 31.6032 307.298 31.9098 308.266 32.2413C308.754 32.4081 309.095 32.5715 309.305 32.7198Z" fill="white" stroke="black"/>
<defs>
<filter id="filter0_f_0_1" x="92.2695" y="0.413086" width="197.593" height="26.7966" filterUnits="userSpaceOnUse" color-interpolation-filters="sRGB">
<feFlood flood-opacity="0" result="BackgroundImageFix"/>
<feBlend mode="normal" in="SourceGraphic" in2="BackgroundImageFix" result="shape"/>
<feGaussianBlur stdDeviation="0.5" result="effect1_foregroundBlur_0_1"/>
</filter>
<filter id="filter1_f_0_1" x="156.5" y="4.78979" width="74.5054" height="14.8979" filterUnits="userSpaceOnUse" color-interpolation-filters="sRGB">
<feFlood flood-opacity="0" result="BackgroundImageFix"/>
<feBlend mode="normal" in="SourceGraphic" in2="BackgroundImageFix" result="shape"/>
<feGaussianBlur stdDeviation="1" result="effect1_foregroundBlur_0_1"/>
</filter>
</defs>
</svg>
