<svg width="24" height="24" viewBox="0 0 24 24" fill="none" xmlns="http://www.w3.org/2000/svg">
<path d="M16.4706 10.2357L20 13.7652M20 10.2357L16.4706 13.7652M7.64706 14.6475H5.88235C5.64834 14.6475 5.42391 14.5545 5.25844 14.389C5.09296 14.2236 5 13.9991 5 13.7651V10.2357C5 10.0017 5.09296 9.77727 5.25844 9.6118C5.42391 9.44632 5.64834 9.35336 5.88235 9.35336H7.64706L10.7353 5.38277C10.8124 5.23298 10.9406 5.11571 11.0966 5.05215C11.2526 4.98859 11.4263 4.98294 11.5861 5.03622C11.7459 5.0895 11.8815 5.1982 11.9681 5.34266C12.0548 5.48713 12.087 5.65784 12.0588 5.82395V18.1769C12.087 18.343 12.0548 18.5137 11.9681 18.6582C11.8815 18.8026 11.7459 18.9113 11.5861 18.9646C11.4263 19.0179 11.2526 19.0122 11.0966 18.9487C10.9406 18.8851 10.8124 18.7679 10.7353 18.6181L7.64706 14.6475Z" stroke="#303030" stroke-width="1.5" stroke-linecap="round" stroke-linejoin="round"/>
</svg>
