<svg width="24" height="24" viewBox="0 0 24 24" fill="none" xmlns="http://www.w3.org/2000/svg">
<path d="M14.9761 8.27036C15.4923 8.65754 15.9113 9.1596 16.1999 9.73678C16.4885 10.314 16.6388 10.9504 16.6388 11.5957C16.6388 12.241 16.4885 12.8775 16.1999 13.4547C15.9113 14.0318 15.4923 14.5339 14.9761 14.9211M17.2207 5.77634C18.0886 6.4777 18.7886 7.3643 19.2695 8.37122C19.7504 9.37813 20 10.4799 20 11.5957C20 12.7116 19.7504 13.8133 19.2695 14.8202C18.7886 15.8271 18.0886 16.7137 17.2207 17.4151M7.49402 14.0897H5.83134C5.61085 14.0897 5.3994 14.0021 5.24349 13.8462C5.08759 13.6903 5 13.4789 5 13.2584V9.93301C5 9.71253 5.08759 9.50108 5.24349 9.34517C5.3994 9.18926 5.61085 9.10167 5.83134 9.10167H7.49402L10.4037 5.36064C10.4764 5.21951 10.5971 5.10902 10.7441 5.04913C10.8912 4.98925 11.0547 4.98393 11.2053 5.03413C11.3559 5.08433 11.4836 5.18674 11.5653 5.32285C11.647 5.45897 11.6773 5.61981 11.6507 5.77631V17.4151C11.6773 17.5716 11.647 17.7324 11.5653 17.8685C11.4836 18.0047 11.3559 18.1071 11.2053 18.1573C11.0547 18.2075 10.8912 18.2021 10.7441 18.1423C10.5971 18.0824 10.4764 17.9719 10.4037 17.8307L7.49402 14.0897Z" stroke="#303030" stroke-width="1.5" stroke-linecap="round" stroke-linejoin="round"/>
</svg>
