<svg width="65" height="65" viewBox="0 0 65 65" fill="none" xmlns="http://www.w3.org/2000/svg">
	<g opacity="0.35">
		<path d="M32.3521 35.2906L34.6667 32.976C30.7916 29.8811 33.6524 24.5237 30.2975 21.1688C27.5928 18.4641 24.2119 18.7762 21.5332 21.4549C19.6086 23.3794 19.0105 25.85 19.1405 28.2687L21.9753 28.1387C21.8973 26.5002 22.2874 25.0178 23.3797 23.9255C24.8621 22.4431 26.6305 22.5992 27.9309 23.8995C30.4536 26.4222 27.9049 31.9357 32.3521 35.2906ZM39.2699 39.8158C40.2582 38.8275 40.2582 37.2671 39.1919 36.2008C38.0996 35.1085 36.5392 35.1085 35.5509 36.0968C34.5627 37.0851 34.5627 38.6455 35.655 39.7378C36.7212 40.8041 38.2817 40.8041 39.2699 39.8158Z" fill="white" />
		<path d="M24.3528 49.6536L25.2 46.4918C20.2967 45.7491 20.0955 39.6791 15.5126 38.4511C11.8179 37.4611 9.04599 39.4218 8.06552 43.081C7.36109 45.7099 8.0784 48.1487 9.40034 50.1783L11.7903 48.6483C10.9035 47.2684 10.5002 45.7895 10.9 44.2974C11.4426 42.2724 13.0521 41.5233 14.8284 41.9993C18.2745 42.9226 18.824 48.9718 24.3528 49.6536ZM32.6065 50.1137C32.9682 48.7637 32.188 47.4123 30.7314 47.022C29.2393 46.6222 27.8879 47.4024 27.5262 48.7524C27.1645 50.1024 27.9447 51.4538 29.4368 51.8536C30.8934 52.2439 32.2447 51.4636 32.6065 50.1137Z" fill="white" />
		<path d="M45.6391 25.4283L48.801 24.5811C46.9925 19.9634 52.1487 16.7541 50.9207 12.1712C49.9307 8.47648 46.8467 7.0563 43.1875 8.03678C40.5586 8.7412 38.8053 10.5818 37.7085 12.7414L40.2285 14.0462C40.9802 12.5882 42.0592 11.4995 43.5513 11.0997C45.5763 10.5571 47.0298 11.5765 47.5058 13.3528C48.4292 16.7988 43.4652 20.2993 45.6391 25.4283ZM49.3676 32.8062C50.7176 32.4445 51.4978 31.0931 51.1075 29.6365C50.7077 28.1444 49.3563 27.3642 48.0063 27.7259C46.6563 28.0877 45.8761 29.439 46.2759 30.9311C46.6662 32.3877 48.0176 33.1679 49.3676 32.8062Z" fill="white" />
	</g>
</svg>
